<svg width="72" height="44" viewBox="0 0 72 44" fill="none" xmlns="http://www.w3.org/2000/svg">
<path d="M42.5151 5.1979H21.561C15.8485 5.1979 10.3694 6.96464 6.32692 10.1102C2.2844 13.2558 0.00891113 17.523 6.10352e-05 21.9749C6.10352e-05 26.4314 2.27165 30.7053 6.31512 33.8565C10.3586 37.0077 15.8427 38.778 21.561 38.778H42.5151C42.7544 38.7786 42.9915 38.7422 43.2127 38.6711C43.434 38.6 43.635 38.4955 43.8042 38.3636C43.9735 38.2318 44.1076 38.0751 44.1988 37.9027C44.2901 37.7302 44.3367 37.5454 44.3359 37.3589V6.55621C44.3367 6.36949 44.2901 6.1845 44.1989 6.01183C44.1077 5.83916 43.9737 5.68221 43.8046 5.54998C43.6354 5.41774 43.4344 5.31283 43.2132 5.24124C42.9919 5.16966 42.7546 5.13281 42.5151 5.13281V5.1979Z" fill="white" fill-opacity="0.45"/>
<path d="M23.8928 28.5087C19.2803 19.9531 24.4406 10.1033 35.4188 6.50865C46.3969 2.91397 59.0357 6.93558 63.6483 15.4912C68.2608 24.0468 63.1004 33.8965 52.1223 37.4912C41.1441 41.0858 28.5053 37.0642 23.8928 28.5087Z" fill="#249623"/>
<path d="M26.4379 21.975V21.745C26.4379 21.5888 26.4713 21.3762 26.4936 21.1071C26.4883 20.9488 26.5014 20.7905 26.5326 20.6341C26.5715 20.4562 26.605 20.2739 26.6439 20.0699C26.7221 19.5995 26.8431 19.134 27.0059 18.6769C27.4122 17.4158 28.0618 16.2101 28.9326 15.101C30.9848 12.4226 34.1712 10.3857 37.943 9.3409C41.7148 8.29612 45.836 8.30892 49.597 9.37707C50.3608 9.59555 51.1049 9.85361 51.8244 10.1495C52.1919 10.3014 52.5371 10.4837 52.8935 10.6225C53.2594 10.7871 53.6076 10.9743 53.9348 11.1824C54.6214 11.5816 55.2725 12.0165 55.8838 12.4843C56.4836 12.9731 57.0417 13.492 57.5543 14.0378C58.6121 15.158 59.4319 16.4035 59.9821 17.7265C61.1683 20.4686 61.1683 23.4381 59.9821 26.1801C59.4319 27.5032 58.6121 28.7486 57.5543 29.8688C56.5494 30.9658 55.3211 31.9274 53.9181 32.7156C53.5904 32.9199 53.2443 33.1055 52.8824 33.2711C52.5204 33.4403 52.1752 33.6139 51.8077 33.7702C51.088 34.0647 50.3439 34.3213 49.5803 34.5383C45.8194 35.6097 41.6966 35.6246 37.9232 34.5804C34.1497 33.5362 30.9621 31.4985 28.9103 28.8186C28.0414 27.7088 27.3919 26.5033 26.9836 25.2428C26.8219 24.7855 26.701 24.32 26.6217 23.8498C26.5827 23.6458 26.5326 23.4592 26.5103 23.2856L26.4713 22.8126C26.4713 22.5348 26.4268 22.3352 26.4101 22.166C26.4156 22.0937 26.4156 22.0213 26.4101 21.949V23.2856C26.4273 23.4752 26.4608 23.6637 26.5103 23.8498C26.5761 24.3289 26.6897 24.8034 26.85 25.2688C27.2359 26.5452 27.8727 27.7675 28.7377 28.8924C30.1713 30.8172 32.198 32.433 34.6345 33.5939C37.071 34.7547 39.8404 35.4238 42.6921 35.5407C43.0652 35.5407 43.4439 35.5754 43.8058 35.5754L44.9585 35.5277C45.3509 35.5234 45.7421 35.4929 46.1279 35.4366C46.5177 35.3845 46.9186 35.3498 47.3028 35.289C48.1018 35.1542 48.8886 34.9787 49.6583 34.7639C50.4423 34.5482 51.2053 34.2886 51.9413 33.9871C52.3088 33.8309 52.6652 33.653 53.0272 33.4837C53.396 33.3148 53.7495 33.1263 54.0852 32.9196C55.5156 32.1202 56.7667 31.1422 57.7882 30.025C58.8787 28.8862 59.7249 27.617 60.294 26.2669C61.1795 24.2013 61.4142 21.9999 60.978 19.8488C60.5419 17.6976 59.4478 15.6598 57.7882 13.9077C57.2603 13.3532 56.6855 12.827 56.0675 12.3324C55.4465 11.8629 54.7841 11.4279 54.0852 11.0305C53.7483 10.8238 53.3949 10.6339 53.0272 10.462C52.6652 10.2971 52.3088 10.1148 51.9135 9.96293C51.1874 9.65353 50.4337 9.38523 49.6583 9.16009C48.8949 8.94372 48.1135 8.76828 47.3195 8.63499C46.9353 8.56556 46.5399 8.53518 46.1446 8.48745C45.7587 8.43041 45.3677 8.39703 44.9752 8.38764L43.8225 8.34424C43.4383 8.34424 43.0597 8.34424 42.7089 8.3833C41.9608 8.40719 41.2162 8.47537 40.4815 8.58726C38.0513 8.95014 35.7479 9.71162 33.7242 10.8212C31.7004 11.9307 30.0025 13.363 28.7432 15.0229C27.8805 16.1487 27.2439 17.3707 26.8555 18.6465C26.6947 19.1133 26.5812 19.5893 26.5159 20.0699C26.4769 20.2696 26.4379 20.4605 26.4156 20.6384C26.3934 20.8163 26.4156 20.9682 26.4156 21.1114V21.745C26.4162 21.822 26.4236 21.8989 26.4379 21.975Z" fill="white"/>
<path d="M30.7272 22.2483C30.7328 22.192 30.7328 22.1354 30.7272 22.0791C30.7272 21.9619 30.7606 21.8013 30.7773 21.606V21.2502C30.794 21.1044 30.8219 20.9594 30.8609 20.8162C30.9231 20.4631 31.0161 20.1137 31.1393 19.7704C31.4461 18.8227 31.9362 17.9169 32.5927 17.0841C34.1335 15.0713 36.5279 13.5409 39.3623 12.7573C42.1968 11.9737 45.2934 11.986 48.1175 12.7922C48.6901 12.9556 49.2482 13.1484 49.788 13.3694C50.3395 13.6034 50.8681 13.8689 51.3694 14.1636C51.8827 14.4623 52.3718 14.7855 52.8339 15.1313C53.3036 15.4922 53.7408 15.8779 54.1425 16.2857C54.9383 17.1254 55.5533 18.0605 55.9634 19.0543C56.8476 21.1116 56.8476 23.3373 55.9634 25.3945C55.5521 26.388 54.9372 27.3229 54.1425 28.1632C53.7532 28.5727 53.331 28.9626 52.8785 29.3306C52.4178 29.6776 51.9286 30.0009 51.414 30.2983C50.9126 30.593 50.3841 30.8585 49.8325 31.0925C49.2929 31.3137 48.7348 31.5066 48.162 31.6696C45.3381 32.4672 42.2466 32.4761 39.4152 31.695C36.5839 30.9138 34.1882 29.391 32.6372 27.3864C31.9798 26.554 31.4897 25.6481 31.1838 24.7002C31.0607 24.3569 30.9677 24.0075 30.9054 23.6543C30.872 23.5025 30.8386 23.3593 30.8219 23.2204C30.8107 23.1019 30.8107 22.983 30.8219 22.8645C30.8158 22.7063 30.799 22.5484 30.7718 22.3915C30.7773 22.3366 30.7773 22.2815 30.7718 22.2266C30.7662 22.2815 30.7662 22.3366 30.7718 22.3915V23.2247C30.7864 23.3702 30.8105 23.5151 30.8442 23.6587C30.8942 24.0174 30.978 24.3727 31.0947 24.7219C31.3846 25.6834 31.8636 26.6041 32.5147 27.4515C34.0671 29.5089 36.4943 31.0783 39.3755 31.8875C42.2567 32.6967 45.4104 32.6949 48.2901 31.8823C48.8818 31.7176 49.4585 31.5219 50.0163 31.2964C50.5799 31.0572 51.1214 30.7874 51.6367 30.4893C52.1624 30.1846 52.6628 29.8541 53.1346 29.4998C53.6011 29.1253 54.0346 28.7266 54.4321 28.3064C55.2536 27.4437 55.8928 26.4841 56.3253 25.464C57.2353 23.3521 57.2353 21.0664 56.3253 18.9545C55.8928 17.9344 55.2536 16.9748 54.4321 16.1121C54.0348 15.6931 53.6013 15.2959 53.1346 14.923C52.6614 14.5686 52.1612 14.2367 51.6367 13.9292C51.1199 13.634 50.5786 13.3658 50.0163 13.1264C47.0256 11.8854 43.5355 11.5926 40.2744 12.309C37.0134 13.0254 34.2333 14.6957 32.5147 16.9713C31.8635 17.8217 31.3846 18.7454 31.0947 19.7096C30.978 20.0558 30.8943 20.4083 30.8442 20.7642C30.8442 20.9204 30.7829 21.0636 30.7718 21.1981C30.7606 21.3326 30.7718 21.4411 30.7718 21.5496V22.027C30.7437 22.0988 30.7287 22.1733 30.7272 22.2483Z" fill="white"/>
<path d="M35.5373 22.2483C35.5932 21.7253 35.6974 21.2061 35.8491 20.6947C36.3354 19.3049 37.406 18.0825 38.8895 17.223C39.8965 16.6284 41.0702 16.2283 42.3141 16.0557C43.8125 15.8382 45.3593 15.9559 46.7755 16.3952C48.1916 16.8345 49.4191 17.5774 50.3159 18.5379C51.3386 19.6157 51.8906 20.9208 51.8906 22.2613C51.8906 23.6018 51.3386 24.9069 50.3159 25.9847C49.8419 26.5002 49.2647 26.953 48.6064 27.3257C47.9908 27.6979 47.3028 27.9909 46.5683 28.1936C45.2953 28.5589 43.9249 28.6689 42.583 28.5134C41.2412 28.358 39.9711 27.9421 38.8895 27.304C37.4044 26.4457 36.3334 25.2228 35.8491 23.8323C35.6978 23.3194 35.5936 22.7988 35.5373 22.2744C35.5187 22.4186 35.5187 22.564 35.5373 22.7083C35.5383 22.8738 35.5531 23.0391 35.5818 23.203C35.6163 23.4298 35.6702 23.6545 35.7433 23.8757C35.9982 24.7025 36.4598 25.482 37.1017 26.1696C37.7436 26.8572 38.5533 27.4394 39.4843 27.8828C40.4154 28.3262 41.4495 28.6221 42.5274 28.7537C43.6054 28.8852 44.7061 28.8497 45.7665 28.6493C46.0634 28.5965 46.3554 28.5284 46.6407 28.4453C48.198 28.0038 49.5538 27.2143 50.5386 26.1757C51.5995 25.056 52.1719 23.7009 52.1719 22.3091C52.1719 20.9173 51.5995 19.5621 50.5386 18.4425C50.0469 17.9077 49.447 17.4387 48.7623 17.0538C48.1141 16.6818 47.3968 16.3891 46.6352 16.1858C45.3216 15.8162 43.9101 15.709 42.5297 15.8743C41.1493 16.0396 39.8441 16.472 38.7336 17.1319C37.239 18.029 36.1853 19.2991 35.7489 20.7294C35.6744 20.9487 35.6223 21.1721 35.593 21.3977C35.5597 21.5614 35.5429 21.7268 35.5428 21.8925C35.5297 22.0108 35.5279 22.1298 35.5373 22.2483Z" fill="white"/>
</svg>
