<svg width="989" height="529" viewBox="0 0 989 529" fill="none" xmlns="http://www.w3.org/2000/svg">
<path d="M179.231 204.629C174.303 204.629 169.459 204.861 164.674 205.352L146.117 173.49L101.461 188.013L105.289 224.65C96.8815 229.571 88.9923 235.299 81.743 241.779L47.9917 226.844L20.3843 264.783L45.0933 292.189C41.2062 300.984 38.1894 310.244 36.1036 319.85L0 327.579L0.0296056 374.455L36.1299 382.153C38.2206 391.757 41.2638 400.991 45.1476 409.788L20.5011 437.222L48.1644 475.131L81.9173 460.17C89.1667 466.623 97.051 472.32 105.46 477.244L101.691 513.905L146.377 528.373L164.85 496.484C169.661 496.947 174.535 497.179 179.432 497.179C184.364 497.179 189.205 496.918 194.02 496.455L212.548 528.316L257.206 513.79L253.376 477.153C261.815 472.206 269.673 466.477 276.894 460.053L310.702 474.957L338.281 437.019L313.602 409.614C317.489 400.819 320.504 391.557 322.59 381.952L358.664 374.196V327.316L322.532 319.65C320.443 310.044 317.429 300.813 313.542 291.987L338.164 264.553L310.529 226.677L276.778 241.607C269.528 235.184 261.639 229.453 253.2 224.535L256.971 187.898L212.287 173.43L193.786 205.322C189.032 204.861 184.16 204.629 179.231 204.629ZM296.127 350.827C296.18 415.186 243.918 467.417 179.421 467.47C114.902 467.522 62.5611 415.368 62.5101 350.981C62.4838 286.594 114.746 234.387 179.24 234.338C243.762 234.281 296.099 286.438 296.127 350.827Z" fill="#1D5E1E"/>
<path d="M392.09 23.9512C388.43 23.9512 384.834 24.1236 381.28 24.488L367.502 0.829779L334.341 11.6148L337.183 38.8188C330.939 42.473 325.081 46.7262 319.701 51.5393L294.638 40.4489L274.137 68.6197L292.485 88.9702C289.598 95.4987 287.359 102.377 285.81 109.509L259 115.248L259.023 150.056L285.829 155.772C287.382 162.905 289.641 169.76 292.524 176.291L274.224 196.663L294.765 224.813L319.829 213.703C325.211 218.494 331.067 222.725 337.312 226.38L334.512 253.603L367.692 264.348L381.41 240.669C384.983 241.012 388.601 241.184 392.237 241.184C395.898 241.184 399.493 240.99 403.067 240.646L416.826 264.306L449.986 253.519L447.144 226.315C453.411 222.641 459.246 218.386 464.607 213.616L489.712 224.683L510.192 196.514L491.865 176.165C494.752 169.633 496.991 162.757 498.539 155.624L525.327 149.864V115.055L498.496 109.362C496.945 102.229 494.706 95.374 491.821 88.8192L510.105 68.449L489.584 40.3241L464.52 51.4112C459.137 46.6425 453.278 42.3876 447.012 38.7335L449.812 11.5279L416.632 0.787109L402.893 24.4667C399.368 24.1236 395.75 23.9512 392.09 23.9512ZM482.729 132.509C482.77 182.413 442.247 222.914 392.235 222.955C342.207 222.996 301.623 182.554 301.583 132.628C301.562 82.7027 342.085 42.2218 392.095 42.1824C442.123 42.1397 482.708 82.5829 482.729 132.509Z" fill="#249623"/>
<path d="M469.893 307.32C466.87 307.32 463.901 307.463 460.968 307.763L449.589 288.23L422.209 297.134L424.556 319.595C419.401 322.613 414.565 326.126 410.12 330.098L389.427 320.942L372.5 344.202L387.647 361.006C385.263 366.396 383.416 372.075 382.136 377.965L360 382.702L360.018 411.443L382.151 416.162C383.434 422.05 385.298 427.71 387.68 433.106L372.569 449.926L389.529 473.169L410.224 463.996C414.669 467.952 419.505 471.447 424.658 474.462L422.347 496.94L449.746 505.813L461.071 486.262C464.021 486.544 467.01 486.687 470.012 486.687C473.033 486.687 476.003 486.526 478.954 486.242L490.314 505.777L517.694 496.871L515.347 474.408C520.522 471.374 525.338 467.861 529.766 463.923L550.495 473.062L567.405 449.801L552.273 433C554.656 427.607 556.505 421.929 557.785 416.041L579.903 411.285V382.543L557.75 377.841C556.471 371.951 554.622 366.293 552.238 360.881L567.334 344.061L550.391 320.838L529.696 329.992C525.253 326.055 520.413 322.542 515.24 319.525L517.553 297.063L490.154 288.192L478.81 307.747C475.902 307.463 472.915 307.32 469.893 307.32ZM538.409 396.959C538.439 434.679 507.809 465.292 470.007 465.324C432.194 465.353 401.517 434.786 401.486 397.049C401.469 359.311 432.1 328.714 469.901 328.685C507.717 328.652 538.391 359.221 538.409 396.959Z" fill="#BB8813"/>
<path d="M579.487 154.864C576.808 155.582 574.212 156.412 571.685 157.374L556.971 142.774L534.831 157.159L542.242 176.498C538.392 180.394 534.942 184.654 531.949 189.227L511.446 186.028L501.976 210.649L519.38 221.936C518.548 227.277 518.259 232.746 518.524 238.267L500.042 247.717L506.879 273.171L527.603 272.097C530.137 277.01 533.133 281.581 536.523 285.793L527.131 304.276L547.671 320.838L563.823 307.802C568.7 310.251 573.812 312.197 579.093 313.647L582.38 334.107L608.753 335.461L614.145 315.455C616.826 315.005 619.505 314.423 622.165 313.71C624.841 312.993 627.433 312.147 629.981 311.194L644.678 325.801L666.817 311.414L659.406 292.075C663.27 288.159 666.702 283.905 669.689 279.366L690.218 282.541L699.676 257.925L682.285 246.636C683.115 241.293 683.405 235.824 683.141 230.306L701.603 220.841L694.782 195.384L674.043 196.478C671.51 191.566 668.531 186.99 665.136 182.762L674.514 164.283L653.996 147.735L637.839 160.754C632.968 158.322 627.849 156.359 622.55 154.915L619.267 134.47L592.895 133.116L587.489 153.128C584.843 153.563 582.162 154.147 579.487 154.864ZM661.321 218.036C670.282 251.369 650.459 285.682 617.053 294.662C583.636 303.645 549.281 283.892 540.317 250.544C531.365 217.192 551.193 182.891 584.597 173.912C618.014 164.926 652.369 184.683 661.321 218.036Z" fill="#59D058"/>
</svg>
