<svg width="888" height="270" viewBox="0 0 888 270" fill="none" xmlns="http://www.w3.org/2000/svg">
<path d="M754.875 15V34.7792L741.051 21.1915L730.574 31.6759L744.139 45.5H724.375V60.75H744.154L730.574 74.5741L741.051 85.0509L754.875 71.486V91.25H770.125V71.4708L783.949 85.0509L794.433 74.5741L780.838 60.75H800.625V45.5H780.846L794.433 31.6759L783.949 21.1915L770.125 34.7869V15H754.875ZM762.5 37.875C770.903 37.875 777.75 44.7222 777.75 53.125C777.75 61.5277 770.903 68.375 762.5 68.375C754.097 68.375 747.25 61.5277 747.25 53.125C747.25 44.7222 754.097 37.875 762.5 37.875ZM687.92 106.5L671 174.172V198H854V174.172L837.08 106.5H687.92ZM699.83 121.75H825.177L838.75 176.078V182.75H686.25V176.078L699.83 121.75ZM709.125 129.375L706.029 143.199H721.996L724.375 129.375H709.125ZM739.625 129.375L738.192 143.199H754.158L754.875 129.375H739.625ZM770.125 129.375L770.842 143.199H786.801L785.375 129.375H770.125ZM800.625 129.375L803.012 143.199H818.971L815.875 129.375H800.625ZM702.926 158.449L700.082 175.125H717.467L719.853 158.441L702.926 158.449ZM737.238 158.449L735.812 175.125H753.449L754.158 158.441L737.238 158.449ZM770.842 158.449L771.551 175.125H789.188L787.754 158.441L770.842 158.449ZM805.154 158.449L807.533 175.125H824.934L822.074 158.441L805.154 158.449Z" fill="#249623"/>
<path d="M646.12 239.28H649.512L658.344 262H654.568L652.168 255.824H643.4L641.032 262H637.224L646.12 239.28ZM651.464 253.168L647.816 243.216L644.04 253.168H651.464ZM666.861 262.16C665.73 262.16 664.696 261.936 663.757 261.488C662.818 261.019 662.008 260.389 661.325 259.6C660.664 258.811 660.141 257.904 659.757 256.88C659.394 255.856 659.213 254.779 659.213 253.648C659.213 252.453 659.405 251.333 659.789 250.288C660.173 249.243 660.706 248.325 661.389 247.536C662.093 246.725 662.914 246.096 663.853 245.648C664.792 245.2 665.837 244.976 666.989 244.976C668.333 244.976 669.506 245.296 670.509 245.936C671.533 246.576 672.376 247.408 673.037 248.432V245.264H676.141V261.52C676.141 263.141 675.746 264.517 674.957 265.648C674.189 266.779 673.133 267.643 671.789 268.24C670.445 268.837 668.93 269.136 667.245 269.136C665.389 269.136 663.853 268.816 662.637 268.176C661.421 267.536 660.386 266.661 659.533 265.552L661.517 263.696C662.157 264.592 662.978 265.275 663.981 265.744C665.005 266.213 666.093 266.448 667.245 266.448C668.205 266.448 669.09 266.267 669.901 265.904C670.733 265.563 671.394 265.019 671.885 264.272C672.376 263.547 672.621 262.629 672.621 261.52V258.96C672.024 259.963 671.202 260.752 670.157 261.328C669.112 261.883 668.013 262.16 666.861 262.16ZM668.013 259.312C668.546 259.312 669.058 259.227 669.549 259.056C670.04 258.864 670.488 258.619 670.893 258.32C671.32 258 671.682 257.648 671.981 257.264C672.28 256.859 672.493 256.432 672.621 255.984V251.6C672.344 250.875 671.949 250.245 671.437 249.712C670.925 249.157 670.349 248.731 669.709 248.432C669.069 248.133 668.418 247.984 667.757 247.984C666.989 247.984 666.296 248.155 665.677 248.496C665.08 248.816 664.568 249.253 664.141 249.808C663.714 250.341 663.384 250.949 663.149 251.632C662.914 252.315 662.797 253.019 662.797 253.744C662.797 254.512 662.925 255.227 663.181 255.888C663.458 256.549 663.832 257.147 664.301 257.68C664.77 258.192 665.325 258.597 665.965 258.896C666.605 259.173 667.288 259.312 668.013 259.312ZM689.77 248.304C688.405 248.325 687.189 248.635 686.122 249.232C685.077 249.829 684.33 250.672 683.882 251.76V262H680.362V245.264H683.626V249.008C684.202 247.856 684.959 246.939 685.898 246.256C686.837 245.552 687.829 245.168 688.874 245.104C689.087 245.104 689.258 245.104 689.386 245.104C689.535 245.104 689.663 245.115 689.77 245.136V248.304ZM692.331 262V245.264H695.851V262H692.331ZM692.331 242.512V238.64H695.851V242.512H692.331ZM699.921 254.832V251.664H709.489V254.832H699.921ZM713.998 262V239.28H723.534C724.558 239.28 725.496 239.493 726.35 239.92C727.203 240.347 727.95 240.912 728.59 241.616C729.23 242.32 729.72 243.109 730.062 243.984C730.403 244.859 730.574 245.755 730.574 246.672C730.574 247.931 730.286 249.136 729.71 250.288C729.155 251.419 728.355 252.336 727.31 253.04C726.286 253.744 725.091 254.096 723.726 254.096H717.582V262H713.998ZM717.582 250.928H723.502C724.184 250.928 724.782 250.747 725.294 250.384C725.806 250 726.2 249.488 726.478 248.848C726.776 248.208 726.926 247.483 726.926 246.672C726.926 245.84 726.755 245.104 726.414 244.464C726.072 243.824 725.624 243.333 725.07 242.992C724.536 242.629 723.95 242.448 723.31 242.448H717.582V250.928ZM735.031 239.28L741.879 257.616L748.695 239.28H752.503L743.575 262H740.183L731.223 239.28H735.031ZM775.531 244.624C775.318 244.389 775.009 244.144 774.603 243.888C774.198 243.611 773.718 243.355 773.163 243.12C772.609 242.885 772.011 242.693 771.371 242.544C770.731 242.395 770.07 242.32 769.387 242.32C767.894 242.32 766.785 242.597 766.059 243.152C765.334 243.707 764.971 244.475 764.971 245.456C764.971 246.181 765.174 246.757 765.579 247.184C765.985 247.589 766.603 247.931 767.435 248.208C768.267 248.485 769.313 248.784 770.571 249.104C772.107 249.467 773.441 249.904 774.571 250.416C775.702 250.907 776.566 251.568 777.163 252.4C777.761 253.232 778.059 254.331 778.059 255.696C778.059 256.848 777.846 257.84 777.419 258.672C776.993 259.504 776.395 260.187 775.627 260.72C774.859 261.232 773.974 261.616 772.971 261.872C771.969 262.107 770.891 262.224 769.739 262.224C768.609 262.224 767.478 262.107 766.347 261.872C765.238 261.637 764.171 261.296 763.147 260.848C762.145 260.379 761.217 259.813 760.363 259.152L761.995 256.08C762.273 256.357 762.667 256.667 763.179 257.008C763.713 257.328 764.321 257.637 765.003 257.936C765.707 258.235 766.465 258.491 767.275 258.704C768.107 258.896 768.95 258.992 769.803 258.992C771.233 258.992 772.321 258.747 773.067 258.256C773.835 257.744 774.219 257.019 774.219 256.08C774.219 255.312 773.974 254.704 773.483 254.256C772.993 253.787 772.278 253.392 771.339 253.072C770.401 252.752 769.281 252.432 767.979 252.112C766.486 251.707 765.238 251.269 764.235 250.8C763.233 250.309 762.475 249.691 761.963 248.944C761.473 248.176 761.227 247.205 761.227 246.032C761.227 244.539 761.59 243.28 762.315 242.256C763.041 241.211 764.022 240.432 765.259 239.92C766.518 239.387 767.926 239.12 769.483 239.12C770.507 239.12 771.478 239.237 772.395 239.472C773.313 239.685 774.166 239.984 774.955 240.368C775.766 240.752 776.502 241.189 777.163 241.68L775.531 244.624ZM781.251 265.936C781.571 265.979 781.88 266.021 782.179 266.064C782.499 266.128 782.755 266.16 782.947 266.16C783.309 266.16 783.619 266.043 783.875 265.808C784.152 265.595 784.429 265.189 784.707 264.592C784.984 263.995 785.325 263.131 785.731 262L778.851 245.264H782.531L787.651 258.416L792.195 245.264H795.587L788.003 265.872C787.768 266.491 787.427 267.056 786.979 267.568C786.531 268.101 785.976 268.517 785.315 268.816C784.653 269.115 783.875 269.264 782.979 269.264C782.723 269.264 782.456 269.243 782.179 269.2C781.901 269.157 781.592 269.093 781.251 269.008V265.936ZM803.689 262.32C802.281 262.32 800.948 262.096 799.689 261.648C798.43 261.179 797.353 260.485 796.457 259.568L797.769 257.2C798.729 258.053 799.689 258.672 800.649 259.056C801.63 259.44 802.601 259.632 803.561 259.632C804.542 259.632 805.342 259.451 805.961 259.088C806.58 258.704 806.889 258.149 806.889 257.424C806.889 256.891 806.729 256.496 806.409 256.24C806.089 255.984 805.62 255.76 805.001 255.568C804.404 255.376 803.678 255.163 802.825 254.928C801.63 254.565 800.628 254.192 799.817 253.808C799.006 253.403 798.398 252.912 797.993 252.336C797.588 251.76 797.385 251.024 797.385 250.128C797.385 249.04 797.662 248.112 798.217 247.344C798.772 246.576 799.54 245.989 800.521 245.584C801.524 245.179 802.676 244.976 803.977 244.976C805.193 244.976 806.313 245.168 807.337 245.552C808.382 245.915 809.3 246.491 810.089 247.28L808.585 249.616C807.838 248.933 807.07 248.432 806.281 248.112C805.513 247.792 804.681 247.632 803.785 247.632C803.273 247.632 802.782 247.696 802.313 247.824C801.844 247.931 801.449 248.144 801.129 248.464C800.83 248.763 800.681 249.189 800.681 249.744C800.681 250.192 800.809 250.555 801.065 250.832C801.321 251.109 801.705 251.344 802.217 251.536C802.729 251.728 803.358 251.941 804.105 252.176C805.406 252.56 806.516 252.944 807.433 253.328C808.35 253.691 809.054 254.171 809.545 254.768C810.057 255.344 810.313 256.144 810.313 257.168C810.313 258.789 809.705 260.059 808.489 260.976C807.294 261.872 805.694 262.32 803.689 262.32ZM822.737 261.136C822.438 261.285 822.065 261.445 821.617 261.616C821.169 261.787 820.657 261.936 820.081 262.064C819.526 262.192 818.95 262.256 818.353 262.256C817.627 262.256 816.955 262.128 816.337 261.872C815.718 261.616 815.217 261.211 814.833 260.656C814.47 260.08 814.289 259.344 814.289 258.448V247.984H812.081V245.264H814.289V239.76H817.809V245.264H821.457V247.984H817.809V257.328C817.851 257.904 818.033 258.331 818.353 258.608C818.694 258.885 819.11 259.024 819.601 259.024C820.091 259.024 820.561 258.939 821.009 258.768C821.457 258.597 821.787 258.459 822.001 258.352L822.737 261.136ZM832.54 262.32C831.238 262.32 830.054 262.096 828.988 261.648C827.942 261.179 827.036 260.549 826.268 259.76C825.5 258.949 824.902 258.032 824.476 257.008C824.07 255.963 823.868 254.853 823.868 253.68C823.868 252.101 824.23 250.661 824.956 249.36C825.681 248.037 826.694 246.981 827.996 246.192C829.297 245.381 830.822 244.976 832.572 244.976C834.321 244.976 835.825 245.381 837.084 246.192C838.364 246.981 839.356 248.027 840.06 249.328C840.764 250.629 841.116 252.027 841.116 253.52C841.116 253.776 841.105 254.021 841.084 254.256C841.062 254.469 841.041 254.651 841.02 254.8H827.612C827.676 255.781 827.942 256.645 828.412 257.392C828.902 258.117 829.521 258.693 830.268 259.12C831.014 259.525 831.814 259.728 832.668 259.728C833.606 259.728 834.492 259.493 835.324 259.024C836.177 258.555 836.753 257.936 837.052 257.168L840.06 258.032C839.697 258.843 839.142 259.579 838.396 260.24C837.67 260.88 836.806 261.392 835.804 261.776C834.801 262.139 833.713 262.32 832.54 262.32ZM827.516 252.464H837.628C837.564 251.504 837.286 250.661 836.796 249.936C836.326 249.189 835.718 248.613 834.972 248.208C834.246 247.781 833.436 247.568 832.54 247.568C831.665 247.568 830.854 247.781 830.108 248.208C829.382 248.613 828.785 249.189 828.316 249.936C827.846 250.661 827.58 251.504 827.516 252.464ZM869.587 262H866.067V252.624C866.067 251.067 865.811 249.925 865.299 249.2C864.787 248.475 864.04 248.112 863.059 248.112C862.078 248.112 861.16 248.485 860.307 249.232C859.475 249.957 858.888 250.907 858.547 252.08V262H855.027V252.624C855.027 251.067 854.771 249.925 854.259 249.2C853.747 248.475 853.011 248.112 852.051 248.112C851.07 248.112 850.152 248.475 849.299 249.2C848.467 249.925 847.87 250.875 847.507 252.048V262H843.987V245.264H847.187V248.624C847.848 247.451 848.712 246.555 849.779 245.936C850.867 245.296 852.104 244.976 853.491 244.976C854.878 244.976 855.966 245.339 856.755 246.064C857.566 246.789 858.067 247.696 858.259 248.784C858.984 247.547 859.87 246.608 860.915 245.968C861.982 245.307 863.198 244.976 864.563 244.976C865.544 244.976 866.366 245.157 867.027 245.52C867.688 245.883 868.2 246.384 868.563 247.024C868.926 247.643 869.182 248.368 869.331 249.2C869.502 250.011 869.587 250.875 869.587 251.792V262ZM879.595 262.32C878.187 262.32 876.854 262.096 875.595 261.648C874.337 261.179 873.259 260.485 872.363 259.568L873.675 257.2C874.635 258.053 875.595 258.672 876.555 259.056C877.537 259.44 878.507 259.632 879.467 259.632C880.449 259.632 881.249 259.451 881.867 259.088C882.486 258.704 882.795 258.149 882.795 257.424C882.795 256.891 882.635 256.496 882.315 256.24C881.995 255.984 881.526 255.76 880.907 255.568C880.31 255.376 879.585 255.163 878.731 254.928C877.537 254.565 876.534 254.192 875.723 253.808C874.913 253.403 874.305 252.912 873.899 252.336C873.494 251.76 873.291 251.024 873.291 250.128C873.291 249.04 873.569 248.112 874.123 247.344C874.678 246.576 875.446 245.989 876.427 245.584C877.43 245.179 878.582 244.976 879.883 244.976C881.099 244.976 882.219 245.168 883.243 245.552C884.289 245.915 885.206 246.491 885.995 247.28L884.491 249.616C883.745 248.933 882.977 248.432 882.187 248.112C881.419 247.792 880.587 247.632 879.691 247.632C879.179 247.632 878.689 247.696 878.219 247.824C877.75 247.931 877.355 248.144 877.035 248.464C876.737 248.763 876.587 249.189 876.587 249.744C876.587 250.192 876.715 250.555 876.971 250.832C877.227 251.109 877.611 251.344 878.123 251.536C878.635 251.728 879.265 251.941 880.011 252.176C881.313 252.56 882.422 252.944 883.339 253.328C884.257 253.691 884.961 254.171 885.451 254.768C885.963 255.344 886.219 256.144 886.219 257.168C886.219 258.789 885.611 260.059 884.395 260.976C883.201 261.872 881.601 262.32 879.595 262.32Z" fill="#20761F"/>
<path d="M20.416 256.144C20.416 257.36 20.096 258.405 19.456 259.28C18.8373 260.155 17.9947 260.827 16.928 261.296C15.8613 261.765 14.688 262 13.408 262H2.56V239.28H14.272C15.3387 239.28 16.256 239.568 17.024 240.144C17.8133 240.699 18.4107 241.424 18.816 242.32C19.2427 243.195 19.456 244.112 19.456 245.072C19.456 246.181 19.168 247.227 18.592 248.208C18.0373 249.168 17.2373 249.883 16.192 250.352C17.4933 250.736 18.5173 251.44 19.264 252.464C20.032 253.467 20.416 254.693 20.416 256.144ZM16.736 255.472C16.736 254.832 16.5973 254.256 16.32 253.744C16.064 253.211 15.7013 252.784 15.232 252.464C14.784 252.123 14.2507 251.952 13.632 251.952H6.144V258.896H13.408C14.048 258.896 14.6133 258.747 15.104 258.448C15.616 258.128 16.0107 257.712 16.288 257.2C16.5867 256.667 16.736 256.091 16.736 255.472ZM6.144 242.384V249.072H12.736C13.3333 249.072 13.8667 248.933 14.336 248.656C14.8053 248.357 15.1787 247.963 15.456 247.472C15.7333 246.96 15.872 246.384 15.872 245.744C15.872 245.083 15.744 244.507 15.488 244.016C15.232 243.504 14.88 243.109 14.432 242.832C14.0053 242.533 13.504 242.384 12.928 242.384H6.144ZM23.7057 262V245.264H27.2258V262H23.7057ZM23.7057 242.512V238.64H27.2258V242.512H23.7057ZM38.9758 262.32C37.6531 262.32 36.4691 262.096 35.4238 261.648C34.3784 261.179 33.4718 260.539 32.7038 259.728C31.9571 258.917 31.3811 258 30.9758 256.976C30.5704 255.931 30.3678 254.821 30.3678 253.648C30.3678 252.475 30.5704 251.365 30.9758 250.32C31.3811 249.275 31.9571 248.357 32.7038 247.568C33.4718 246.757 34.3784 246.128 35.4238 245.68C36.4904 245.211 37.6744 244.976 38.9758 244.976C40.2771 244.976 41.4504 245.211 42.4958 245.68C43.5624 246.128 44.4691 246.757 45.2158 247.568C45.9838 248.357 46.5704 249.275 46.9757 250.32C47.3811 251.365 47.5838 252.475 47.5838 253.648C47.5838 254.821 47.3811 255.931 46.9757 256.976C46.5704 258 45.9838 258.917 45.2158 259.728C44.4691 260.539 43.5624 261.179 42.4958 261.648C41.4504 262.096 40.2771 262.32 38.9758 262.32ZM33.9838 253.68C33.9838 254.747 34.2078 255.707 34.6558 256.56C35.1038 257.413 35.7011 258.085 36.4478 258.576C37.1944 259.067 38.0371 259.312 38.9758 259.312C39.8931 259.312 40.7251 259.067 41.4718 258.576C42.2398 258.064 42.8478 257.381 43.2958 256.528C43.7438 255.653 43.9678 254.693 43.9678 253.648C43.9678 252.581 43.7438 251.621 43.2958 250.768C42.8478 249.915 42.2398 249.243 41.4718 248.752C40.7251 248.24 39.8931 247.984 38.9758 247.984C38.0371 247.984 37.1944 248.24 36.4478 248.752C35.7011 249.264 35.1038 249.947 34.6558 250.8C34.2078 251.632 33.9838 252.592 33.9838 253.68ZM76.3058 262H72.7858V252.624C72.7858 251.067 72.5298 249.925 72.0178 249.2C71.5058 248.475 70.7591 248.112 69.7778 248.112C68.7964 248.112 67.8791 248.485 67.0258 249.232C66.1938 249.957 65.6071 250.907 65.2658 252.08V262H61.7458V252.624C61.7458 251.067 61.4898 249.925 60.9778 249.2C60.4658 248.475 59.7298 248.112 58.7698 248.112C57.7884 248.112 56.8711 248.475 56.0178 249.2C55.1858 249.925 54.5884 250.875 54.2258 252.048V262H50.7057V245.264H53.9058V248.624C54.5671 247.451 55.4311 246.555 56.4978 245.936C57.5858 245.296 58.8231 244.976 60.2098 244.976C61.5964 244.976 62.6844 245.339 63.4738 246.064C64.2844 246.789 64.7858 247.696 64.9778 248.784C65.7031 247.547 66.5884 246.608 67.6338 245.968C68.7004 245.307 69.9164 244.976 71.2818 244.976C72.2631 244.976 73.0844 245.157 73.7458 245.52C74.4071 245.883 74.9191 246.384 75.2818 247.024C75.6444 247.643 75.9004 248.368 76.0498 249.2C76.2204 250.011 76.3058 250.875 76.3058 251.792V262ZM79.146 257.104C79.146 256.037 79.4447 255.109 80.042 254.32C80.6607 253.509 81.5033 252.891 82.57 252.464C83.6367 252.016 84.874 251.792 86.282 251.792C87.0287 251.792 87.786 251.845 88.554 251.952C89.3433 252.059 90.0367 252.229 90.634 252.464V251.408C90.634 250.235 90.282 249.317 89.578 248.656C88.874 247.995 87.8607 247.664 86.538 247.664C85.5993 247.664 84.714 247.835 83.882 248.176C83.05 248.496 82.1647 248.955 81.226 249.552L80.042 247.184C81.1513 246.437 82.2607 245.883 83.37 245.52C84.5007 245.157 85.6847 244.976 86.922 244.976C89.162 244.976 90.922 245.573 92.202 246.768C93.5033 247.941 94.154 249.616 94.154 251.792V258.032C94.154 258.437 94.218 258.725 94.346 258.896C94.4953 259.067 94.7407 259.163 95.082 259.184V262C94.762 262.064 94.474 262.107 94.218 262.128C93.962 262.149 93.7487 262.16 93.578 262.16C92.8313 262.16 92.266 261.979 91.882 261.616C91.498 261.253 91.274 260.827 91.21 260.336L91.114 259.376C90.3887 260.315 89.4607 261.04 88.33 261.552C87.1993 262.064 86.058 262.32 84.906 262.32C83.7967 262.32 82.8047 262.096 81.93 261.648C81.0553 261.179 80.3727 260.549 79.882 259.76C79.3913 258.971 79.146 258.085 79.146 257.104ZM89.802 258.128C90.058 257.851 90.2607 257.573 90.41 257.296C90.5593 257.019 90.634 256.773 90.634 256.56V254.64C90.0367 254.405 89.4073 254.235 88.746 254.128C88.0847 254 87.434 253.936 86.794 253.936C85.514 253.936 84.4687 254.192 83.658 254.704C82.8687 255.216 82.474 255.92 82.474 256.816C82.474 257.307 82.602 257.776 82.858 258.224C83.1353 258.672 83.5193 259.035 84.01 259.312C84.522 259.589 85.1513 259.728 85.898 259.728C86.666 259.728 87.402 259.579 88.106 259.28C88.81 258.981 89.3753 258.597 89.802 258.128ZM104.377 262.32C102.969 262.32 101.635 262.096 100.377 261.648C99.1178 261.179 98.0405 260.485 97.1445 259.568L98.4565 257.2C99.4165 258.053 100.377 258.672 101.337 259.056C102.318 259.44 103.289 259.632 104.249 259.632C105.23 259.632 106.03 259.451 106.649 259.088C107.267 258.704 107.577 258.149 107.577 257.424C107.577 256.891 107.417 256.496 107.097 256.24C106.777 255.984 106.307 255.76 105.689 255.568C105.091 255.376 104.366 255.163 103.513 254.928C102.318 254.565 101.315 254.192 100.505 253.808C99.6938 253.403 99.0858 252.912 98.6805 252.336C98.2752 251.76 98.0725 251.024 98.0725 250.128C98.0725 249.04 98.3498 248.112 98.9045 247.344C99.4592 246.576 100.227 245.989 101.209 245.584C102.211 245.179 103.363 244.976 104.665 244.976C105.881 244.976 107.001 245.168 108.025 245.552C109.07 245.915 109.987 246.491 110.777 247.28L109.273 249.616C108.526 248.933 107.758 248.432 106.969 248.112C106.201 247.792 105.369 247.632 104.473 247.632C103.961 247.632 103.47 247.696 103.001 247.824C102.531 247.931 102.137 248.144 101.817 248.464C101.518 248.763 101.369 249.189 101.369 249.744C101.369 250.192 101.497 250.555 101.753 250.832C102.009 251.109 102.393 251.344 102.905 251.536C103.417 251.728 104.046 251.941 104.793 252.176C106.094 252.56 107.203 252.944 108.121 253.328C109.038 253.691 109.742 254.171 110.233 254.768C110.745 255.344 111.001 256.144 111.001 257.168C111.001 258.789 110.393 260.059 109.177 260.976C107.982 261.872 106.382 262.32 104.377 262.32ZM120.095 262.32C118.687 262.32 117.354 262.096 116.095 261.648C114.837 261.179 113.759 260.485 112.863 259.568L114.175 257.2C115.135 258.053 116.095 258.672 117.055 259.056C118.037 259.44 119.007 259.632 119.967 259.632C120.949 259.632 121.749 259.451 122.367 259.088C122.986 258.704 123.295 258.149 123.295 257.424C123.295 256.891 123.135 256.496 122.815 256.24C122.495 255.984 122.026 255.76 121.407 255.568C120.81 255.376 120.085 255.163 119.231 254.928C118.037 254.565 117.034 254.192 116.223 253.808C115.413 253.403 114.805 252.912 114.399 252.336C113.994 251.76 113.791 251.024 113.791 250.128C113.791 249.04 114.069 248.112 114.623 247.344C115.178 246.576 115.946 245.989 116.927 245.584C117.93 245.179 119.082 244.976 120.383 244.976C121.599 244.976 122.719 245.168 123.743 245.552C124.789 245.915 125.706 246.491 126.495 247.28L124.991 249.616C124.245 248.933 123.477 248.432 122.687 248.112C121.919 247.792 121.087 247.632 120.191 247.632C119.679 247.632 119.189 247.696 118.719 247.824C118.25 247.931 117.855 248.144 117.535 248.464C117.237 248.763 117.087 249.189 117.087 249.744C117.087 250.192 117.215 250.555 117.471 250.832C117.727 251.109 118.111 251.344 118.623 251.536C119.135 251.728 119.765 251.941 120.511 252.176C121.813 252.56 122.922 252.944 123.839 253.328C124.757 253.691 125.461 254.171 125.951 254.768C126.463 255.344 126.719 256.144 126.719 257.168C126.719 258.789 126.111 260.059 124.895 260.976C123.701 261.872 122.101 262.32 120.095 262.32ZM151.656 244.624C151.443 244.389 151.134 244.144 150.728 243.888C150.323 243.611 149.843 243.355 149.288 243.12C148.734 242.885 148.136 242.693 147.496 242.544C146.856 242.395 146.195 242.32 145.512 242.32C144.019 242.32 142.91 242.597 142.184 243.152C141.459 243.707 141.096 244.475 141.096 245.456C141.096 246.181 141.299 246.757 141.704 247.184C142.11 247.589 142.728 247.931 143.56 248.208C144.392 248.485 145.438 248.784 146.696 249.104C148.232 249.467 149.566 249.904 150.696 250.416C151.827 250.907 152.691 251.568 153.288 252.4C153.886 253.232 154.184 254.331 154.184 255.696C154.184 256.848 153.971 257.84 153.544 258.672C153.118 259.504 152.52 260.187 151.752 260.72C150.984 261.232 150.099 261.616 149.096 261.872C148.094 262.107 147.016 262.224 145.864 262.224C144.734 262.224 143.603 262.107 142.472 261.872C141.363 261.637 140.296 261.296 139.272 260.848C138.27 260.379 137.342 259.813 136.488 259.152L138.12 256.08C138.398 256.357 138.792 256.667 139.304 257.008C139.838 257.328 140.446 257.637 141.128 257.936C141.832 258.235 142.59 258.491 143.4 258.704C144.232 258.896 145.075 258.992 145.928 258.992C147.358 258.992 148.446 258.747 149.192 258.256C149.96 257.744 150.344 257.019 150.344 256.08C150.344 255.312 150.099 254.704 149.608 254.256C149.118 253.787 148.403 253.392 147.464 253.072C146.526 252.752 145.406 252.432 144.104 252.112C142.611 251.707 141.363 251.269 140.36 250.8C139.358 250.309 138.6 249.691 138.088 248.944C137.598 248.176 137.352 247.205 137.352 246.032C137.352 244.539 137.715 243.28 138.44 242.256C139.166 241.211 140.147 240.432 141.384 239.92C142.643 239.387 144.051 239.12 145.608 239.12C146.632 239.12 147.603 239.237 148.52 239.472C149.438 239.685 150.291 239.984 151.08 240.368C151.891 240.752 152.627 241.189 153.288 241.68L151.656 244.624ZM157.14 255.504V245.264H160.66V254.8C160.66 256.293 160.926 257.424 161.46 258.192C162.014 258.939 162.814 259.312 163.86 259.312C164.521 259.312 165.161 259.173 165.78 258.896C166.42 258.619 166.996 258.213 167.508 257.68C168.041 257.125 168.468 256.464 168.788 255.696V245.264H172.308V258.032C172.308 258.437 172.382 258.725 172.532 258.896C172.681 259.067 172.926 259.163 173.267 259.184V262C172.905 262.064 172.606 262.107 172.372 262.128C172.137 262.149 171.913 262.16 171.7 262.16C171.06 262.16 170.526 261.989 170.1 261.648C169.673 261.285 169.428 260.827 169.364 260.272L169.3 258.608C168.553 259.824 167.582 260.752 166.388 261.392C165.193 262.011 163.881 262.32 162.452 262.32C160.702 262.32 159.38 261.744 158.484 260.592C157.588 259.44 157.14 257.744 157.14 255.504ZM186.304 262.32C184.96 262.32 183.776 262 182.752 261.36C181.728 260.72 180.917 259.888 180.32 258.864V268.816H176.799V245.264H179.904V248.272C180.544 247.269 181.376 246.469 182.4 245.872C183.424 245.275 184.565 244.976 185.824 244.976C186.976 244.976 188.032 245.211 188.992 245.68C189.952 246.128 190.784 246.757 191.488 247.568C192.192 248.379 192.736 249.307 193.12 250.352C193.525 251.376 193.728 252.464 193.728 253.616C193.728 255.216 193.408 256.677 192.767 258C192.149 259.323 191.274 260.379 190.144 261.168C189.034 261.936 187.754 262.32 186.304 262.32ZM185.152 259.312C185.898 259.312 186.57 259.152 187.168 258.832C187.786 258.512 188.309 258.085 188.736 257.552C189.184 257.019 189.525 256.411 189.76 255.728C189.994 255.045 190.112 254.341 190.112 253.616C190.112 252.848 189.984 252.123 189.728 251.44C189.472 250.757 189.098 250.16 188.608 249.648C188.138 249.136 187.584 248.731 186.944 248.432C186.325 248.133 185.642 247.984 184.896 247.984C184.448 247.984 183.978 248.069 183.488 248.24C182.997 248.411 182.538 248.645 182.112 248.944C181.685 249.243 181.312 249.595 180.992 250C180.672 250.405 180.448 250.832 180.32 251.28V255.664C180.618 256.347 181.013 256.965 181.504 257.52C181.994 258.053 182.56 258.491 183.2 258.832C183.84 259.152 184.49 259.312 185.152 259.312ZM206.397 262.32C205.053 262.32 203.869 262 202.845 261.36C201.821 260.72 201.011 259.888 200.413 258.864V268.816H196.893V245.264H199.997V248.272C200.637 247.269 201.469 246.469 202.493 245.872C203.517 245.275 204.659 244.976 205.917 244.976C207.069 244.976 208.125 245.211 209.085 245.68C210.045 246.128 210.877 246.757 211.581 247.568C212.285 248.379 212.829 249.307 213.213 250.352C213.619 251.376 213.821 252.464 213.821 253.616C213.821 255.216 213.501 256.677 212.861 258C212.243 259.323 211.368 260.379 210.237 261.168C209.128 261.936 207.848 262.32 206.397 262.32ZM205.245 259.312C205.992 259.312 206.664 259.152 207.261 258.832C207.88 258.512 208.403 258.085 208.829 257.552C209.277 257.019 209.619 256.411 209.853 255.728C210.088 255.045 210.205 254.341 210.205 253.616C210.205 252.848 210.077 252.123 209.821 251.44C209.565 250.757 209.192 250.16 208.701 249.648C208.232 249.136 207.677 248.731 207.037 248.432C206.419 248.133 205.736 247.984 204.989 247.984C204.541 247.984 204.072 248.069 203.581 248.24C203.091 248.411 202.632 248.645 202.205 248.944C201.779 249.243 201.405 249.595 201.085 250C200.765 250.405 200.541 250.832 200.413 251.28V255.664C200.712 256.347 201.107 256.965 201.597 257.52C202.088 258.053 202.653 258.491 203.293 258.832C203.933 259.152 204.584 259.312 205.245 259.312ZM217.019 238.64H220.539V257.168C220.539 258.021 220.667 258.565 220.923 258.8C221.179 259.035 221.499 259.152 221.883 259.152C222.31 259.152 222.704 259.109 223.067 259.024C223.451 258.939 223.782 258.832 224.059 258.704L224.571 261.488C224.059 261.701 223.451 261.883 222.747 262.032C222.043 262.181 221.414 262.256 220.859 262.256C219.664 262.256 218.726 261.925 218.043 261.264C217.36 260.581 217.019 259.643 217.019 258.448V238.64ZM226.469 265.936C226.789 265.979 227.099 266.021 227.397 266.064C227.717 266.128 227.973 266.16 228.165 266.16C228.528 266.16 228.837 266.043 229.093 265.808C229.371 265.595 229.648 265.189 229.925 264.592C230.203 263.995 230.544 263.131 230.949 262L224.069 245.264H227.749L232.869 258.416L237.413 245.264H240.805L233.221 265.872C232.987 266.491 232.645 267.056 232.197 267.568C231.749 268.101 231.195 268.517 230.533 268.816C229.872 269.115 229.093 269.264 228.197 269.264C227.941 269.264 227.675 269.243 227.397 269.2C227.12 269.157 226.811 269.093 226.469 269.008V265.936ZM249.464 250.48C249.464 249.093 249.709 247.739 250.2 246.416C250.69 245.072 251.405 243.856 252.344 242.768C253.304 241.659 254.466 240.784 255.832 240.144C257.197 239.483 258.744 239.152 260.472 239.152C262.52 239.152 264.29 239.621 265.784 240.56C267.277 241.477 268.386 242.661 269.112 244.112L266.296 246C265.869 245.083 265.325 244.357 264.664 243.824C264.024 243.291 263.32 242.917 262.552 242.704C261.805 242.491 261.069 242.384 260.344 242.384C259.149 242.384 258.104 242.629 257.208 243.12C256.312 243.589 255.554 244.219 254.936 245.008C254.338 245.797 253.88 246.683 253.56 247.664C253.261 248.645 253.112 249.627 253.112 250.608C253.112 251.696 253.293 252.752 253.656 253.776C254.018 254.779 254.52 255.675 255.16 256.464C255.821 257.232 256.6 257.84 257.496 258.288C258.392 258.736 259.373 258.96 260.44 258.96C261.165 258.96 261.922 258.832 262.712 258.576C263.501 258.32 264.226 257.925 264.888 257.392C265.57 256.837 266.104 256.112 266.488 255.216L269.464 256.912C268.994 258.043 268.258 259.003 267.256 259.792C266.274 260.581 265.165 261.179 263.928 261.584C262.712 261.989 261.506 262.192 260.312 262.192C258.712 262.192 257.25 261.861 255.928 261.2C254.605 260.517 253.464 259.621 252.504 258.512C251.544 257.381 250.797 256.123 250.264 254.736C249.73 253.328 249.464 251.909 249.464 250.48ZM287.339 262H283.819V252.624C283.819 251.109 283.541 249.979 282.987 249.232C282.432 248.485 281.653 248.112 280.651 248.112C280.032 248.112 279.392 248.283 278.731 248.624C278.069 248.965 277.483 249.435 276.971 250.032C276.459 250.608 276.085 251.28 275.851 252.048V262H272.331V238.64H275.851V248.624C276.491 247.493 277.365 246.608 278.475 245.968C279.584 245.307 280.779 244.976 282.059 244.976C283.104 244.976 283.968 245.157 284.651 245.52C285.333 245.883 285.867 246.384 286.251 247.024C286.656 247.643 286.933 248.368 287.083 249.2C287.253 250.011 287.339 250.875 287.339 251.792V262ZM290.209 257.104C290.209 256.037 290.507 255.109 291.105 254.32C291.723 253.509 292.566 252.891 293.633 252.464C294.699 252.016 295.937 251.792 297.345 251.792C298.091 251.792 298.849 251.845 299.617 251.952C300.406 252.059 301.099 252.229 301.697 252.464V251.408C301.697 250.235 301.345 249.317 300.641 248.656C299.937 247.995 298.923 247.664 297.601 247.664C296.662 247.664 295.777 247.835 294.945 248.176C294.113 248.496 293.227 248.955 292.289 249.552L291.105 247.184C292.214 246.437 293.323 245.883 294.433 245.52C295.563 245.157 296.747 244.976 297.985 244.976C300.225 244.976 301.985 245.573 303.265 246.768C304.566 247.941 305.217 249.616 305.217 251.792V258.032C305.217 258.437 305.281 258.725 305.409 258.896C305.558 259.067 305.803 259.163 306.145 259.184V262C305.825 262.064 305.537 262.107 305.281 262.128C305.025 262.149 304.811 262.16 304.641 262.16C303.894 262.16 303.329 261.979 302.945 261.616C302.561 261.253 302.337 260.827 302.273 260.336L302.177 259.376C301.451 260.315 300.523 261.04 299.393 261.552C298.262 262.064 297.121 262.32 295.969 262.32C294.859 262.32 293.867 262.096 292.993 261.648C292.118 261.179 291.435 260.549 290.945 259.76C290.454 258.971 290.209 258.085 290.209 257.104ZM300.865 258.128C301.121 257.851 301.323 257.573 301.473 257.296C301.622 257.019 301.697 256.773 301.697 256.56V254.64C301.099 254.405 300.47 254.235 299.809 254.128C299.147 254 298.497 253.936 297.857 253.936C296.577 253.936 295.531 254.192 294.721 254.704C293.931 255.216 293.536 255.92 293.536 256.816C293.536 257.307 293.665 257.776 293.921 258.224C294.198 258.672 294.582 259.035 295.073 259.312C295.585 259.589 296.214 259.728 296.961 259.728C297.729 259.728 298.465 259.579 299.169 259.28C299.873 258.981 300.438 258.597 300.865 258.128ZM309.487 262V245.264H313.007V262H309.487ZM309.487 242.512V238.64H313.007V242.512H309.487ZM332.245 262H328.725V252.624C328.725 251.067 328.469 249.925 327.957 249.2C327.466 248.475 326.73 248.112 325.749 248.112C325.066 248.112 324.384 248.283 323.701 248.624C323.04 248.965 322.442 249.435 321.909 250.032C321.376 250.608 320.992 251.28 320.757 252.048V262H317.237V245.264H320.437V248.624C320.864 247.877 321.418 247.237 322.101 246.704C322.805 246.149 323.594 245.723 324.469 245.424C325.344 245.125 326.272 244.976 327.253 244.976C328.256 244.976 329.077 245.157 329.717 245.52C330.378 245.883 330.89 246.384 331.253 247.024C331.637 247.643 331.893 248.368 332.021 249.2C332.17 250.011 332.245 250.875 332.245 251.792V262Z" fill="#20761F"/>
<g clip-path="url(#clip0_3496_28483)">
<path d="M147.048 184.46C147.578 185.223 149.202 185.509 150.088 185.787C164.481 190.281 180.343 190.273 194.772 185.986C197.607 185.144 203.746 182.045 205.83 181.82C208.313 181.55 210.182 183.392 208.94 185.705C208.143 187.189 201.626 189.508 199.714 190.173C184.589 195.446 168.614 196.115 153.049 192.339C151.907 192.063 145.466 189.879 145.146 190.168C145.438 192.602 148.83 196.292 146.319 198.386C145.384 199.165 144.038 199.174 143.025 198.565C142.067 197.989 137.815 187.885 137.419 186.29C137.098 185 136.806 184.024 137.698 182.902C138.328 182.109 147.998 177.991 149.496 177.586C150.995 177.181 153.244 176.699 153.808 178.637C155.027 182.824 149.754 183.178 147.046 184.462L147.048 184.46Z" fill="#249623"/>
<path d="M239.066 156.668C238.955 157.163 239.459 157.123 239.821 157.233C249.929 160.298 258.113 166.524 258.474 178.163C258.88 191.282 234.811 191.007 226.122 189.229C220.861 188.152 214.048 185.531 213.727 179.255C213.182 168.577 222.873 158.057 233.356 157.041L229.809 155.461C217.549 147.16 227.617 128.564 241.3 134.816C250.998 139.248 249.562 154.448 239.064 156.668H239.066ZM242.413 145.42C242.413 141.934 239.591 139.106 236.108 139.106C232.624 139.106 229.802 141.932 229.802 145.42C229.802 148.907 232.624 151.733 236.108 151.733C239.591 151.733 242.413 148.907 242.413 145.42ZM234.422 162.487C227.018 163.205 220.393 169.284 219.392 176.747C218.858 180.723 220.274 181.56 223.751 182.846C230.104 185.197 243.856 185.296 249.97 182.238C253.721 180.362 253.11 178.221 252.179 174.56C250.203 166.782 242.309 161.721 234.424 162.487H234.422Z" fill="#249623"/>
<path d="M252.754 121.256C253.71 122.247 258.706 115.243 261.302 118.599C262.845 120.594 261.548 121.828 260.157 123.15C259.099 124.156 250.635 130.648 249.872 130.771C248.832 130.938 247.76 130.633 247.051 129.821C245.754 127.004 239.399 121.168 238.852 118.599C238.599 117.414 239.599 115.77 240.792 115.55C244.437 114.878 244.977 119.151 247.426 120.875C248.864 105.03 244.814 88.3713 236.563 74.8393C234.276 71.0869 231.396 67.7863 228.955 64.148C228.697 62.1776 230.161 60.3427 232.32 60.7894C233.779 61.0906 237.193 65.9994 238.232 67.457C249.107 82.6931 254.695 102.527 252.754 121.254V121.256Z" fill="#249623"/>
<path d="M183.548 28.3665H199.709C200.201 28.3665 202.111 29.7281 202.561 30.1881C203.898 31.5547 211.182 43.0848 211.517 44.7161C212.371 48.8688 210.944 54.686 211.694 58.6253C211.91 59.7586 213.279 60.2153 213.678 61.2063C214.273 62.6755 214.211 68.5125 213.378 69.8477C210.889 73.8416 204.719 71.163 201.67 72.2119C201.072 72.4188 200.841 73.4346 200.294 73.8797C195.807 77.5278 190.181 77.8355 185.638 74.0534C185.042 73.557 184.648 72.5511 184.305 72.3426C183.351 71.7636 164.391 71.8943 162.04 72.1276C159.911 72.3393 160.062 73.3618 158.632 74.4256C155.157 77.0099 151.145 77.6105 147.166 75.645C145.714 74.9269 143.666 72.4336 142.974 72.2285C139.649 71.2424 132.793 73.969 131.623 68.3653C130.881 64.8081 131.481 61.572 133.376 58.6568C134.229 45.6608 132.172 31.0699 133.338 18.2626C133.538 16.0687 134.034 15.6038 136.19 15.4069C150.317 14.1148 166.379 16.4228 180.714 15.4069C181.644 15.1406 183.548 16.2772 183.548 17.1375V28.3681V28.3665ZM178.224 20.7509H138.679V58.4417H144.573C144.993 58.4417 148.179 55.3643 152.176 55.3743C155.942 55.3842 158.999 58.4417 159.402 58.4417H178.224V20.7509ZM187.73 33.6956H183.548V58.4417C186.012 58.7494 187.215 56.5903 189.548 55.8839C192.02 55.1344 194.312 55.1741 196.736 56.0873C197.726 56.4613 200.247 58.4417 200.469 58.4417H205.983V46.6403H189.442C189.321 46.6403 187.732 45.0486 187.732 44.9279V33.6972L187.73 33.6956ZM203.319 41.3095C202.141 40.1034 199.514 34.4368 198.379 33.8825C197.154 33.2853 194.492 33.9239 193.053 33.6939V41.3079H203.319V41.3095ZM157.287 66.0755C157.287 63.1619 154.928 60.7993 152.018 60.7993C149.108 60.7993 146.748 63.1619 146.748 66.0755C146.748 68.989 149.108 71.3516 152.018 71.3516C154.928 71.3516 157.287 68.989 157.287 66.0755ZM198.086 66.0953C198.086 63.2033 195.745 60.8589 192.856 60.8589C189.968 60.8589 187.626 63.2033 187.626 66.0953C187.626 68.9874 189.968 71.3318 192.856 71.3318C195.745 71.3318 198.086 68.9874 198.086 66.0953ZM141.343 64.1447L137.149 64.1496V66.4428L141.344 66.4378V64.1447H141.343ZM182.408 64.153H162.635V66.4378H182.026C182.142 66.4378 182.323 64.4342 182.406 64.153H182.408ZM208.643 64.153H203.321V66.4378H208.643V64.153Z" fill="#249623"/>
<path d="M154.661 66.0704C154.661 64.6144 153.481 63.4331 152.027 63.4331C150.572 63.4331 149.393 64.6144 149.393 66.0704C149.393 67.5263 150.572 68.7076 152.027 68.7076C153.481 68.7076 154.661 67.5263 154.661 66.0704Z" fill="#FAFAFA"/>
<path d="M195.515 66.0719C195.515 64.6061 194.327 63.4165 192.863 63.4165C191.399 63.4165 190.211 64.6061 190.211 66.0719C190.211 67.5378 191.399 68.7274 192.863 68.7274C194.327 68.7274 195.515 67.5378 195.515 66.0719Z" fill="#FAFAFA"/>
<path d="M152.027 68.7076C153.481 68.7076 154.661 67.5269 154.661 66.0704C154.661 64.6138 153.481 63.4331 152.027 63.4331C150.572 63.4331 149.393 64.6138 149.393 66.0704C149.393 67.5269 150.572 68.7076 152.027 68.7076Z" fill="#249623"/>
<path d="M192.863 68.7274C194.328 68.7274 195.515 67.5385 195.515 66.0719C195.515 64.6054 194.328 63.4165 192.863 63.4165C191.398 63.4165 190.211 64.6054 190.211 66.0719C190.211 67.5385 191.398 68.7274 192.863 68.7274Z" fill="#249623"/>
<path d="M115.377 61.9824C116.206 62.6558 116.393 64.8281 116.572 65.9201C116.909 67.9816 118.113 76.1382 117.687 77.5891C116.993 79.9517 113.02 79.8392 112.472 77.2582L111.308 71.0076C101.863 85.5373 96.9818 102.067 97.9799 119.56C98.122 122.05 99.5084 127.434 99.13 129.431C98.7516 131.428 96.0664 132.162 94.5511 130.609C93.3894 129.417 92.8672 124.115 92.6772 122.207C91.0049 105.432 95.0732 88.3598 103.254 73.7954C104.049 72.3808 106.318 69.5897 106.738 68.5242C107.001 67.8575 106.558 68.0097 106.176 67.9567C104.031 67.6589 101.733 69.0305 99.6075 68.0593C98.0096 67.328 97.9187 64.3417 99.3646 63.4284C100.323 62.8229 110.142 61.539 111.859 61.4712C112.892 61.4298 114.57 61.3272 115.377 61.9824Z" fill="#249623"/>
<path d="M90.7715 150.954C91.3928 151.616 106.04 146.195 108.37 146.846C110.328 147.287 110.259 149.303 110.166 150.955C110.723 151.533 123.615 147.148 125.656 146.856C127.723 146.559 129.391 146.872 129.563 149.233C128.892 158.151 130.428 168.289 129.579 177.055C129.444 178.45 129.173 178.898 127.937 179.598C110.607 180.079 93.0006 180.079 75.6616 179.598C74.6767 179.019 73.8736 178.316 74.019 177.055L74.2107 133.42C74.8684 132.132 75.9127 131.128 77.3636 130.865C79.2821 130.518 87.3245 130.519 88.8381 131.378C89.2942 131.636 90.7715 133.261 90.7715 133.63V150.952V150.954ZM79.3647 136.106V139.152H85.449V136.106H79.3647ZM85.449 144.481H79.3647V174.176H85.449V144.481ZM104.84 153.237L90.7715 156.663V174.176H104.84V153.237ZM124.232 153.237L110.163 156.663V174.176H124.232V153.237Z" fill="#249623"/>
<path d="M96.8572 158.947C96.8919 162.277 97.5909 163.659 93.6036 163.154C91.3777 162.873 92.551 160.701 92.2899 158.947H96.8572Z" fill="#249623"/>
<path d="M102.885 163.083C98.6329 163.581 98.4461 163.083 98.7535 158.947C102.671 158.71 104.397 158.584 102.885 163.083Z" fill="#249623"/>
<path d="M118.771 158.621C119.383 158.421 122.187 158.407 122.545 158.924C122.889 159.418 122.884 162.601 122.355 162.969C121.861 163.313 118.682 163.308 118.315 162.779C117.909 162.191 117.899 158.905 118.773 158.621H118.771Z" fill="#249623"/>
<path d="M116.25 158.947C116.569 163.22 116.337 163.46 112.062 163.139V158.947H116.25Z" fill="#249623"/>
<path d="M180.239 92.979C182.255 95.5335 184.584 92.3734 186.1 92.026C189.232 91.3096 192.502 94.2728 194.201 96.6999C197.354 101.207 192.889 102.436 193.213 104.898C193.715 108.713 197.729 106.261 199.596 109.57C200.604 111.357 200.67 117.179 199.679 118.941C198.112 121.724 194.811 120.572 193.66 122.435C191.924 125.246 195.903 126.418 195.258 129.732C194.938 131.38 190.099 136.283 188.501 136.695C185.291 137.524 184.116 134.308 182.019 134.728C178.577 135.418 180.707 139.391 177.437 141.214C175.518 142.284 169.421 142.185 167.606 140.84C165.189 139.05 166.792 136.644 164.822 135.256C162.066 133.314 160.613 137.241 157.606 136.795C155.593 136.497 150.961 132.068 150.561 130.119C149.806 126.434 152.901 125.781 152.298 123.057C151.71 120.402 147.544 121.913 145.961 119.113C144.685 116.856 144.629 110.343 146.701 108.536C148.498 106.971 152.754 108.055 152.373 104.352C152.166 102.35 149.451 101.85 150.642 98.0136C150.869 97.2873 155.565 92.519 156.272 92.2312C160.278 90.6015 161.287 94.3059 163.88 93.7797C166.701 93.2056 165.324 89.3408 167.669 87.6515C169.624 86.2436 174.953 86.2254 177.091 87.1817C180.264 88.6012 179.041 91.4552 180.243 92.9773L180.239 92.979ZM174.408 92.342C174.304 92.2361 171.627 92.2527 171.433 92.3767C171.27 92.4826 170.505 95.052 169.859 95.9405C167.867 98.6803 164.632 99.678 161.329 99.1552C160.473 99.0195 158.548 97.6215 158.067 97.8349C155.211 99.1039 157.403 101.155 157.67 102.818C158.325 106.885 156.666 110.381 153.02 112.202C152.12 112.652 151.09 112.191 150.846 113.45C150.289 116.309 150.961 115.564 152.366 116.114C156.234 117.624 158.03 120.756 157.708 124.894C157.574 126.618 156.224 128.281 156.908 129.459C158.173 131.636 158.7 130.248 159.977 129.826C164.282 128.405 168.599 129.801 170.695 133.942C171.007 134.559 171.141 136.386 171.633 136.505C174.857 137.291 174.172 135.249 175.108 133.558C176.718 130.653 180.003 128.934 183.362 129.255C184.98 129.411 186.981 131.049 187.93 130.43C190.428 128.8 187.964 127.314 187.733 124.879C187.414 121.534 189.113 118.233 192.031 116.615C193.079 116.034 194.7 116.276 194.961 114.982C195.552 112.065 193.984 112.97 192.208 112.022C189.311 110.475 187.447 107.294 187.728 103.94C187.872 102.224 189.624 100.063 188.898 98.9748C187.264 96.5196 186.393 98.8226 184.088 99.1452C179.744 99.7541 176.209 97.9606 174.608 93.8443C174.436 93.4025 174.472 92.4065 174.409 92.3437L174.408 92.342Z" fill="#249623"/>
<path d="M187.58 114.277C187.58 122.45 180.964 129.075 172.801 129.075C164.638 129.075 158.021 122.45 158.021 114.277C158.021 106.104 164.638 99.4795 172.801 99.4795C180.964 99.4795 187.58 106.104 187.58 114.277ZM182.147 114.281C182.147 109.109 177.96 104.916 172.794 104.916C167.629 104.916 163.441 109.109 163.441 114.281C163.441 119.452 167.629 123.645 172.794 123.645C177.96 123.645 182.147 119.452 182.147 114.281Z" fill="#249623"/>
</g>
<defs>
<clipPath id="clip0_3496_28483">
<rect width="188" height="184" fill="white" transform="translate(74 15)"/>
</clipPath>
</defs>
</svg>
