<svg width="424" height="83" viewBox="0 0 424 83" fill="none" xmlns="http://www.w3.org/2000/svg">
<path d="M257.099 30.3795C256.705 29.3184 256.146 28.3092 255.439 27.38C255.083 26.9172 254.624 26.522 254.089 26.2184C253.553 25.9148 252.952 25.709 252.323 25.6135C251.053 25.476 249.652 26.0743 249.24 27.1253C249.059 24.7524 248.669 22.3189 247.311 20.2532C245.952 18.1875 243.407 16.5786 240.685 16.7201C238.116 16.8575 235.918 18.523 234.699 20.4957C233.479 22.4684 233.057 24.7322 232.659 26.9636C231.685 25.9247 229.631 26.2522 228.615 27.2628C227.6 28.2734 227.34 29.6882 227.127 31.0101H257.753L257.099 30.3795Z" fill="#C1F2C0"/>
<path d="M144.019 18.94C143.626 17.8802 143.067 16.8723 142.36 15.9446C142.004 15.4802 141.545 15.0838 141.008 14.7794C140.472 14.475 139.87 14.269 139.239 14.174C137.973 14.0365 136.573 14.6348 136.16 15.6858C135.975 13.3129 135.59 10.8794 134.227 8.8137C132.863 6.74802 130.327 5.13508 127.601 5.28061C125.037 5.41805 122.839 7.0795 121.619 9.05221C120.4 11.0249 119.978 13.2887 119.575 15.5201C118.606 14.4772 116.547 14.8046 115.531 15.8152C114.516 16.8258 114.261 18.2407 114.043 19.5666H144.645L144.019 18.94Z" fill="#C1F2C0"/>
<path d="M372.343 13.6645C371.951 12.6048 371.394 11.597 370.688 10.669C370.331 10.2061 369.87 9.81076 369.334 9.50654C368.798 9.20231 368.197 8.99549 367.567 8.89844C366.301 8.76504 364.896 9.35928 364.484 10.4144C364.303 8.04145 363.918 5.6079 362.555 3.54222C361.192 1.47653 358.651 -0.1364 355.929 0.00912747C353.365 0.14657 351.167 1.80801 349.943 3.78072C348.719 5.75343 348.306 8.01719 347.903 10.2486C346.929 9.20567 344.875 9.53311 343.859 10.5437C342.844 11.5543 342.589 12.9692 342.371 14.2951H372.997L372.343 13.6645Z" fill="#C1F2C0"/>
<path d="M221.452 18.3777C221.187 17.6705 220.814 16.9975 220.344 16.3767C220.104 16.0647 219.794 15.7987 219.432 15.595C219.07 15.3913 218.664 15.2543 218.239 15.1923C217.816 15.1379 217.384 15.2077 217.011 15.3906C216.639 15.5736 216.346 15.8593 216.18 16.2029C216.055 14.6183 215.8 12.9932 214.891 11.6188C213.982 10.2444 212.285 9.16098 210.468 9.258C208.752 9.35097 207.282 10.4707 206.471 11.7764C205.659 13.0821 205.372 14.6061 205.108 16.0857C204.454 15.3904 203.086 15.6087 202.404 16.2838C201.723 16.9588 201.556 17.9007 201.412 18.786H221.865L221.452 18.3777Z" fill="#C1F2C0"/>
<path d="M101.973 23.3581C101.713 22.6437 101.341 21.9636 100.87 21.3368C100.63 21.0283 100.322 20.7648 99.9637 20.5621C99.6053 20.3593 99.2038 20.2214 98.783 20.1565C98.3573 20.105 97.9241 20.1783 97.5514 20.3649C97.1788 20.5515 96.8878 20.8408 96.7243 21.1873C96.6038 19.6026 96.3487 17.9776 95.4353 16.6032C94.5219 15.2287 92.8295 14.1454 91.0118 14.2424C89.3009 14.3353 87.831 15.4551 87.015 16.7608C86.1989 18.0665 85.9207 19.5905 85.6518 21.07C85.0026 20.3747 83.6302 20.593 82.9532 21.2681C82.2762 21.9432 82.1047 22.8851 81.9609 23.7704H102.409L101.973 23.3581Z" fill="#C1F2C0"/>
<path d="M330.57 7.94439C330.349 7.36033 330.037 6.80542 329.643 6.29508C329.446 6.04103 329.193 5.82414 328.898 5.65744C328.604 5.49073 328.273 5.37762 327.927 5.32489C327.58 5.28155 327.227 5.33982 326.922 5.49054C326.618 5.64126 326.379 5.8759 326.244 6.15764C326.142 4.85193 325.933 3.51388 325.182 2.382C324.431 1.25012 323.04 0.360782 321.542 0.44163C320.151 0.518437 318.927 1.43203 318.255 2.5154C317.583 3.59877 317.355 4.84384 317.133 6.06062C316.6 5.48659 315.468 5.65637 314.912 6.22231C314.355 6.78826 314.212 7.55228 314.096 8.27991H330.927L330.57 7.94439Z" fill="#C1F2C0"/>
<path d="M212.057 35.9663C212.042 36.1007 212.042 36.2361 212.057 36.3706C212.057 36.6818 212.104 37.078 212.132 37.5833C212.215 38.6262 212.299 40.1341 212.363 42.0017C212.428 43.8693 212.447 46.0886 212.387 48.5545C212.326 51.0203 212.141 53.7288 211.84 56.5625C211.538 59.3963 211.098 62.0845 210.643 64.5221C210.189 66.9597 209.683 69.1345 209.206 70.9536C208.728 72.7727 208.33 74.2441 208.024 75.2547C207.889 75.7318 207.778 76.1198 207.69 76.423C207.644 76.5546 207.614 76.6901 207.602 76.8273C207.676 76.6988 207.732 76.5631 207.768 76.423L208.177 75.2709C208.529 74.2724 208.979 72.8091 209.484 70.99C209.989 69.1709 210.518 66.992 211.014 64.5544C211.51 62.1168 211.942 59.4205 212.238 56.5787C212.535 53.7369 212.702 51.0163 212.758 48.5423C212.813 46.0684 212.758 43.8369 212.651 41.9693C212.544 40.1017 212.419 38.5898 212.289 37.5509C212.229 37.0618 212.178 36.6656 212.141 36.3382C212.126 36.2124 212.098 36.0879 212.057 35.9663Z" fill="#249623"/>
<path d="M210.63 49.2341C210.523 49.2745 210.839 50.1477 211.326 51.1947C211.812 52.2416 212.295 53.0582 212.397 53.0218C212.499 52.9855 212.188 52.1082 211.701 51.0613C211.214 50.0143 210.732 49.1977 210.63 49.2341Z" fill="#249623"/>
<path d="M214.085 47.9363C213.978 47.8999 213.533 48.7003 213.088 49.719C212.643 50.7377 212.364 51.5947 212.466 51.627C212.568 51.6593 213.018 50.863 213.463 49.8443C213.908 48.8256 214.187 47.9363 214.085 47.9363Z" fill="#249623"/>
<path d="M210.875 45.9149C210.778 45.9593 211.089 46.7719 211.566 47.7299C212.044 48.688 212.526 49.4358 212.628 49.4035C212.73 49.3711 212.424 48.5586 211.937 47.5884C211.45 46.6182 210.977 45.8785 210.875 45.9149Z" fill="#249623"/>
<path d="M214.452 43.4896C214.355 43.4451 213.821 44.2213 213.335 45.2521C212.848 46.2829 212.597 47.1561 212.704 47.1884C212.811 47.2208 213.228 46.4002 213.71 45.3855C214.192 44.3709 214.554 43.5462 214.452 43.4896Z" fill="#249623"/>
<path d="M211.038 42.3128C210.945 42.3653 211.218 42.9919 211.65 43.7195C212.081 44.4472 212.517 44.997 212.619 44.9606C212.721 44.9242 212.447 44.2936 212.007 43.5538C211.566 42.814 211.135 42.2764 211.038 42.3128Z" fill="#249623"/>
<path d="M213.763 39.9689C213.656 39.9365 213.299 40.6318 212.974 41.5212C212.65 42.4105 212.469 43.1381 212.576 43.1786C212.682 43.219 213.039 42.5156 213.359 41.6263C213.679 40.7369 213.869 39.9972 213.763 39.9689Z" fill="#249623"/>
<path d="M210.838 38.5941C210.74 38.6426 211.019 39.2166 211.459 39.8796C211.9 40.5425 212.331 41.0397 212.428 40.9912C212.526 40.9427 212.247 40.3647 211.807 39.7057C211.366 39.0468 210.935 38.5456 210.838 38.5941Z" fill="#249623"/>
<path d="M213.54 36.1165C213.433 36.0841 213.076 36.6905 212.742 37.4747C212.409 38.259 212.219 38.926 212.321 38.9583C212.423 38.9906 212.784 38.3843 213.118 37.6C213.452 36.8158 213.642 36.1529 213.54 36.1165Z" fill="#249623"/>
<path d="M210.585 36.0839C210.497 36.1445 210.775 36.5285 211.206 36.9449C211.637 37.3613 212.05 37.6442 212.133 37.5715C212.217 37.4987 211.934 37.1147 211.512 36.7104C211.09 36.3062 210.673 36.0232 210.585 36.0839Z" fill="#249623"/>
<path d="M211.753 33.9254C211.642 33.9254 211.637 34.5843 211.753 35.3645C211.869 36.1447 212.041 36.7753 212.147 36.7632C212.254 36.751 212.263 36.1083 212.147 35.3241C212.031 34.5398 211.86 33.9173 211.753 33.9254Z" fill="#249623"/>
<path d="M212.337 56.6802C186.042 48.7449 157.929 41.7232 130.693 46.6914C116.848 49.2138 25.6643 76.0678 0 82.8388H64.9675L285.556 81.8929C261.571 72.598 237.165 64.1938 212.337 56.6802Z" fill="#249623"/>
<path d="M163.562 35.2151C163.651 35.0151 163.689 34.8008 163.675 34.5867C163.66 34.3726 163.593 34.1637 163.479 33.9741C163.249 33.6394 162.961 33.338 162.625 33.0807C162.593 33.0565 162.556 33.0241 162.509 33.0282C162.463 33.0322 162.431 33.0726 162.407 33.109C162.309 33.304 162.269 33.5178 162.291 33.7301C162.314 33.9424 162.399 34.1461 162.537 34.3218C162.818 34.6692 163.165 34.9726 163.562 35.2192" fill="#249623"/>
<path d="M163.956 33.7353C164.083 33.5518 164.163 33.3467 164.19 33.1339C164.217 32.9211 164.191 32.7057 164.114 32.5024C163.952 32.1393 163.725 31.8009 163.442 31.4999C163.432 31.4825 163.417 31.4672 163.4 31.4554C163.382 31.4435 163.362 31.4352 163.34 31.4312C163.316 31.4322 163.292 31.4388 163.272 31.4501C163.252 31.4615 163.235 31.4772 163.224 31.4958C163.089 31.6732 163.008 31.878 162.99 32.0905C162.972 32.303 163.018 32.5159 163.122 32.7086C163.329 33.0919 163.612 33.4408 163.956 33.7394" fill="#249623"/>
<path d="M164.494 32.1712C164.602 31.9795 164.661 31.7697 164.667 31.5562C164.674 31.3428 164.627 31.1306 164.531 30.9342C164.339 30.581 164.082 30.2574 163.77 29.9762C163.759 29.96 163.743 29.9462 163.725 29.9357C163.706 29.9253 163.686 29.9184 163.664 29.9155C163.617 29.9155 163.58 29.956 163.553 29.9883C163.436 30.1743 163.375 30.3828 163.375 30.5947C163.375 30.8065 163.436 31.015 163.553 31.201C163.796 31.5668 164.11 31.8936 164.48 32.1672" fill="#249623"/>
<path d="M165.025 30.5869C165.115 30.3878 165.154 30.1743 165.14 29.9609C165.127 29.7475 165.06 29.5391 164.946 29.3499C164.722 29.0124 164.435 28.7092 164.098 28.4525C164.084 28.4368 164.067 28.4239 164.047 28.4149C164.027 28.4058 164.005 28.4007 163.982 28.3999C163.936 28.3999 163.903 28.4444 163.88 28.4808C163.78 28.6754 163.74 28.889 163.762 29.1013C163.784 29.3136 163.867 29.5174 164.005 29.6935C164.282 30.0426 164.627 30.3464 165.025 30.5909" fill="#249623"/>
<path d="M165.482 29.1593C165.555 28.9582 165.577 28.7459 165.547 28.5368C165.518 28.3276 165.437 28.1263 165.311 27.9466C165.058 27.6218 164.744 27.3362 164.383 27.1017C164.369 27.0868 164.351 27.0747 164.331 27.0663C164.311 27.058 164.29 27.0535 164.267 27.0532C164.245 27.06 164.224 27.0712 164.207 27.0859C164.191 27.1006 164.178 27.1185 164.17 27.1381C164.083 27.3392 164.057 27.5564 164.095 27.7688C164.132 27.9812 164.231 28.1816 164.383 28.3508C164.687 28.6822 165.054 28.9653 165.468 29.1876" fill="#249623"/>
<path d="M165.908 27.6795C165.971 27.4746 165.982 27.2605 165.942 27.0514C165.902 26.8422 165.812 26.643 165.676 26.4668C165.409 26.1562 165.089 25.8834 164.726 25.6583C164.71 25.6445 164.691 25.6338 164.671 25.6268C164.65 25.6199 164.628 25.6168 164.605 25.6179C164.559 25.6179 164.531 25.6664 164.513 25.7068C164.435 25.9121 164.419 26.1314 164.466 26.3437C164.513 26.556 164.622 26.7543 164.782 26.9195C165.101 27.244 165.482 27.5176 165.908 27.728" fill="#249623"/>
<path d="M166.471 26.0384C166.525 25.8296 166.526 25.613 166.475 25.4036C166.424 25.1943 166.321 24.9971 166.174 24.8257C165.889 24.525 165.553 24.2646 165.177 24.0536C165.144 24.0287 165.101 24.0158 165.057 24.0172C165.01 24.0172 164.987 24.0697 164.968 24.1102C164.904 24.3167 164.901 24.5341 164.96 24.7419C165.018 24.9498 165.136 25.1413 165.302 25.2986C165.64 25.6038 166.036 25.8567 166.471 26.0465" fill="#249623"/>
<path d="M163.559 35.2146C163.599 35.0036 163.692 34.8027 163.829 34.6255C163.967 34.4484 164.146 34.2991 164.356 34.1878C164.746 33.9935 165.171 33.8569 165.613 33.7836C165.653 33.7694 165.698 33.7694 165.738 33.7836C165.756 33.7981 165.77 33.8166 165.777 33.8372C165.784 33.8578 165.785 33.8798 165.78 33.9008C165.75 34.1115 165.66 34.3122 165.517 34.4841C165.375 34.656 165.184 34.7933 164.964 34.8831C164.524 35.056 164.053 35.1626 163.573 35.1984" fill="#249623"/>
<path d="M163.955 33.7229C163.996 33.5119 164.088 33.311 164.226 33.1338C164.363 32.9567 164.543 32.8074 164.753 32.6961C165.144 32.5041 165.568 32.3677 166.009 32.2919C166.029 32.2839 166.05 32.2798 166.072 32.2798C166.093 32.2798 166.115 32.2839 166.134 32.2919C166.152 32.3058 166.166 32.3236 166.173 32.3435C166.18 32.3634 166.181 32.3847 166.176 32.4051C166.147 32.6159 166.057 32.8168 165.915 32.9887C165.772 33.1606 165.581 33.2979 165.36 33.3874C164.921 33.5618 164.45 33.6685 163.969 33.7027" fill="#249623"/>
<path d="M164.501 32.1704C164.53 31.9577 164.611 31.7529 164.739 31.5701C164.867 31.3874 165.039 31.2308 165.243 31.1113C165.626 30.9087 166.044 30.7613 166.481 30.6747C166.5 30.6667 166.522 30.6626 166.543 30.6626C166.565 30.6626 166.586 30.6667 166.606 30.6747C166.648 30.6747 166.652 30.7434 166.652 30.7879C166.635 30.9994 166.555 31.2034 166.421 31.3804C166.287 31.5573 166.103 31.7013 165.887 31.7985C165.452 31.9916 164.981 32.1174 164.496 32.1704" fill="#249623"/>
<path d="M164.987 30.6063C165.016 30.3937 165.098 30.1893 165.227 30.0071C165.356 29.8249 165.529 29.6693 165.734 29.5512C166.117 29.3498 166.535 29.2025 166.972 29.1146C166.991 29.1067 167.013 29.1025 167.034 29.1025C167.056 29.1025 167.077 29.1067 167.097 29.1146C167.138 29.1146 167.143 29.1833 167.143 29.2278C167.123 29.4393 167.043 29.643 166.908 29.8197C166.773 29.9965 166.589 30.1405 166.373 30.2384C165.937 30.4289 165.467 30.552 164.982 30.6022" fill="#249623"/>
<path d="M165.439 29.1669C165.47 28.9549 165.554 28.7512 165.683 28.5698C165.813 28.3884 165.986 28.2336 166.191 28.1159C166.574 27.9148 166.992 27.7687 167.429 27.6834C167.47 27.6693 167.517 27.6693 167.558 27.6834C167.575 27.6981 167.588 27.7159 167.596 27.7354C167.604 27.755 167.607 27.7759 167.605 27.7965C167.586 28.0086 167.504 28.2129 167.369 28.3898C167.233 28.5667 167.048 28.7104 166.83 28.8072C166.394 28.996 165.923 29.1177 165.439 29.1669Z" fill="#249623"/>
<path d="M165.857 27.6679C165.901 27.4573 165.996 27.2575 166.137 27.0823C166.278 26.9071 166.461 26.7607 166.673 26.6533C167.068 26.4689 167.494 26.3419 167.935 26.2773C167.955 26.2693 167.977 26.2651 168 26.2651C168.022 26.2651 168.044 26.2693 168.064 26.2773C168.081 26.2921 168.093 26.3102 168.099 26.3299C168.106 26.3496 168.107 26.3704 168.102 26.3905C168.069 26.6013 167.975 26.8014 167.829 26.9718C167.683 27.1422 167.49 27.2775 167.267 27.3647C166.826 27.5322 166.356 27.6321 165.876 27.6598" fill="#249623"/>
<path d="M166.443 26.0751C166.484 25.864 166.575 25.6628 166.712 25.485C166.849 25.3073 167.028 25.157 167.236 25.0443C167.628 24.8523 168.052 24.7158 168.493 24.64C168.533 24.6259 168.578 24.6259 168.618 24.64C168.636 24.6539 168.649 24.6718 168.657 24.6917C168.664 24.7116 168.665 24.7328 168.66 24.7532C168.631 24.9641 168.542 25.1652 168.4 25.3377C168.258 25.5103 168.068 25.6485 167.848 25.7396C167.409 25.9137 166.938 26.0216 166.457 26.0589" fill="#249623"/>
<path d="M157.929 53.1308C158.04 53.1551 160.182 46.6265 162.723 38.5497C165.264 30.4729 167.23 23.8959 167.123 23.8716C167.017 23.8474 164.884 30.3759 162.324 38.4568C159.765 46.5376 157.813 53.1066 157.929 53.1308Z" fill="#249623"/>
<path d="M166.739 25.0396C166.951 24.9373 167.135 24.7956 167.278 24.6244C167.42 24.4533 167.518 24.2569 167.564 24.0492C167.633 23.6433 167.598 23.2292 167.462 22.8364C167.045 23.0611 166.74 23.4148 166.609 23.8268C166.522 24.024 166.488 24.2361 166.511 24.4465C166.533 24.6568 166.611 24.8598 166.739 25.0396Z" fill="#249623"/>
<path d="M141.197 37.0219C141.15 36.8117 141.053 36.6126 140.91 36.4382C140.768 36.2638 140.584 36.1182 140.371 36.0113C139.975 35.8317 139.547 35.7088 139.106 35.6474C139.085 35.6394 139.063 35.6353 139.041 35.6353C139.018 35.6353 138.996 35.6394 138.976 35.6474C138.959 35.6622 138.948 35.6803 138.941 35.7C138.935 35.7197 138.934 35.7406 138.939 35.7606C138.973 35.9711 139.069 36.1704 139.216 36.3395C139.364 36.5086 139.559 36.6419 139.783 36.7268C140.224 36.891 140.695 36.9881 141.174 37.0138" fill="#249623"/>
<path d="M140.648 35.5619C140.645 35.348 140.588 35.1373 140.482 34.9445C140.375 34.7518 140.222 34.5817 140.032 34.4462C139.675 34.211 139.277 34.0268 138.854 33.9004C138.814 33.8867 138.769 33.8867 138.729 33.9004C138.709 33.9127 138.693 33.9292 138.683 33.9482C138.672 33.9673 138.667 33.9884 138.669 34.0096C138.662 34.2219 138.718 34.4321 138.83 34.6203C138.943 34.8085 139.109 34.9684 139.313 35.0849C139.722 35.3145 140.174 35.4801 140.648 35.574" fill="#249623"/>
<path d="M140.136 33.9854C140.111 33.7731 140.033 33.5681 139.909 33.384C139.785 33.1999 139.618 33.0411 139.417 32.9182C139.04 32.7059 138.625 32.5502 138.189 32.4574C138.169 32.4494 138.148 32.4453 138.126 32.4453C138.104 32.4453 138.083 32.4494 138.063 32.4574C138.045 32.4714 138.031 32.4889 138.022 32.5086C138.013 32.5283 138.01 32.5495 138.012 32.5706C138.027 32.7829 138.103 32.9885 138.233 33.1682C138.364 33.3478 138.545 33.4955 138.759 33.5974C139.191 33.8031 139.662 33.94 140.15 34.0016" fill="#249623"/>
<path d="M139.623 32.4098C139.58 32.1992 139.484 31.9994 139.343 31.8242C139.202 31.649 139.019 31.5026 138.807 31.3952C138.41 31.2144 137.983 31.0889 137.541 31.0232C137.52 31.0146 137.497 31.0114 137.473 31.0141C137.45 31.0169 137.429 31.0254 137.411 31.0386C137.393 31.0519 137.38 31.0693 137.374 31.0889C137.367 31.1084 137.368 31.1291 137.374 31.1486C137.41 31.3586 137.505 31.5574 137.652 31.7269C137.799 31.8964 137.992 32.0311 138.214 32.1187C138.655 32.2848 139.125 32.3833 139.605 32.4098" fill="#249623"/>
<path d="M139.15 30.9861C139.091 30.7783 138.981 30.5842 138.828 30.4174C138.674 30.2505 138.48 30.1149 138.26 30.02C137.85 29.8681 137.415 29.7752 136.971 29.7451C136.951 29.7371 136.928 29.7329 136.906 29.7329C136.884 29.7329 136.862 29.7371 136.841 29.7451C136.825 29.7609 136.814 29.78 136.81 29.8005C136.805 29.8211 136.806 29.8424 136.813 29.8623C136.865 30.0722 136.977 30.2671 137.139 30.4284C137.302 30.5897 137.509 30.7122 137.741 30.784C138.2 30.9227 138.683 30.9938 139.169 30.9942" fill="#249623"/>
<path d="M138.614 29.5354C138.546 29.3304 138.428 29.1408 138.268 28.9795C138.108 28.8183 137.909 28.6893 137.686 28.6016C137.271 28.4551 136.831 28.3703 136.383 28.351C136.343 28.3368 136.298 28.3368 136.258 28.351C136.244 28.3683 136.235 28.3883 136.231 28.4093C136.227 28.4303 136.228 28.4518 136.235 28.4722C136.294 28.678 136.412 28.8673 136.579 29.0222C136.745 29.1771 136.954 29.2925 137.186 29.3575C137.651 29.4821 138.137 29.5368 138.623 29.5192" fill="#249623"/>
<path d="M138.094 27.8816C138.013 27.6797 137.884 27.4954 137.714 27.3412C137.544 27.187 137.339 27.0666 137.111 26.9882C136.686 26.863 136.242 26.7975 135.794 26.7942C135.772 26.7869 135.748 26.7856 135.725 26.7905C135.702 26.7954 135.681 26.8063 135.666 26.8217C135.65 26.837 135.64 26.8561 135.638 26.8765C135.635 26.8969 135.639 26.9175 135.65 26.9357C135.721 27.1392 135.85 27.3236 136.025 27.4714C136.2 27.6193 136.416 27.7257 136.652 27.7805C137.122 27.8871 137.61 27.9213 138.094 27.8816Z" fill="#249623"/>
<path d="M141.191 37.0215C141.097 36.8242 141.053 36.6116 141.062 36.3981C141.07 36.1847 141.132 35.9754 141.242 35.7845C141.461 35.4433 141.741 35.1349 142.072 34.8709C142.085 34.8557 142.102 34.8432 142.121 34.8341C142.14 34.8251 142.161 34.8197 142.183 34.8184C142.229 34.8184 142.266 34.8588 142.29 34.8952C142.393 35.0879 142.438 35.3004 142.421 35.5125C142.404 35.7247 142.325 35.9296 142.192 36.1079C141.922 36.4606 141.583 36.7697 141.191 37.0215Z" fill="#249623"/>
<path d="M140.624 35.5626C140.53 35.3646 140.486 35.1514 140.495 34.9373C140.504 34.7232 140.565 34.5133 140.675 34.3216C140.896 33.9826 141.176 33.6757 141.505 33.4121C141.533 33.3816 141.572 33.3614 141.616 33.3555C141.667 33.3555 141.7 33.3999 141.723 33.4363C141.827 33.6289 141.873 33.8414 141.856 34.0537C141.838 34.2661 141.759 34.471 141.626 34.649C141.356 35.0036 141.017 35.3142 140.624 35.5667" fill="#249623"/>
<path d="M140.136 33.9861C140.035 33.7911 139.982 33.5796 139.982 33.3656C139.982 33.1516 140.035 32.9401 140.136 32.7451C140.34 32.3978 140.604 32.0801 140.919 31.8032C140.932 31.7876 140.949 31.7746 140.968 31.7648C140.987 31.7551 141.009 31.7489 141.031 31.7466C141.054 31.7498 141.076 31.7582 141.095 31.7709C141.113 31.7836 141.128 31.8003 141.137 31.8193C141.249 32.0077 141.305 32.2178 141.298 32.4299C141.292 32.642 141.224 32.8492 141.1 33.0321C140.848 33.3949 140.524 33.7164 140.145 33.9821" fill="#249623"/>
<path d="M139.604 32.4414C139.502 32.2473 139.449 32.0364 139.449 31.8229C139.449 31.6094 139.502 31.3984 139.604 31.2044C139.806 30.8549 140.072 30.5367 140.392 30.2625C140.42 30.2342 140.457 30.2019 140.499 30.2059C140.522 30.2091 140.545 30.2175 140.563 30.2302C140.582 30.2429 140.596 30.2596 140.606 30.2787C140.719 30.4668 140.775 30.677 140.768 30.8892C140.762 31.1015 140.693 31.3088 140.569 31.4914C140.314 31.854 139.989 32.1755 139.609 32.4414" fill="#249623"/>
<path d="M139.122 31.0109C139.02 30.8168 138.967 30.6058 138.967 30.3924C138.967 30.1789 139.02 29.9679 139.122 29.7739C139.327 29.4262 139.594 29.1095 139.915 28.836C139.927 28.8202 139.942 28.8066 139.961 28.7962C139.979 28.7858 140 28.7787 140.021 28.7754C140.068 28.7754 140.105 28.8158 140.128 28.8522C140.24 29.0408 140.295 29.2511 140.287 29.4633C140.28 29.6755 140.211 29.8825 140.086 30.0649C139.83 30.4255 139.506 30.7454 139.126 31.0109" fill="#249623"/>
<path d="M138.565 29.5466C138.474 29.3474 138.433 29.1332 138.446 28.919C138.458 28.7047 138.524 28.4955 138.639 28.3056C138.861 27.9673 139.146 27.664 139.483 27.4082C139.51 27.3777 139.55 27.3575 139.594 27.3516C139.641 27.3516 139.673 27.396 139.696 27.4324C139.797 27.6263 139.84 27.8396 139.82 28.052C139.799 28.2643 139.717 28.4685 139.58 28.6451C139.305 28.9964 138.961 29.3029 138.565 29.5506" fill="#249623"/>
<path d="M138.093 27.922C137.998 27.7249 137.953 27.5122 137.962 27.2986C137.971 27.0851 138.033 26.8757 138.144 26.685C138.359 26.3431 138.638 26.0344 138.969 25.7714C138.982 25.7555 138.998 25.7422 139.017 25.7324C139.037 25.7227 139.058 25.7167 139.08 25.7148C139.126 25.7148 139.159 25.7593 139.182 25.7957C139.288 25.9876 139.335 26.2002 139.319 26.4127C139.303 26.6252 139.224 26.8305 139.089 27.0084C138.823 27.364 138.485 27.6748 138.093 27.9261" fill="#249623"/>
<path d="M147.267 54.808C147.373 54.7797 145.236 48.2471 142.491 40.2229C139.746 32.1986 137.437 25.7024 137.33 25.7429C137.223 25.7833 139.366 32.2997 142.11 40.332C144.855 48.3643 147.169 54.8444 147.267 54.808Z" fill="#249623"/>
<path d="M137.727 26.9154C137.843 26.7316 137.912 26.5279 137.929 26.3184C137.946 26.1089 137.91 25.8988 137.824 25.7027C137.637 25.324 137.355 24.9868 136.999 24.7163C136.786 25.093 136.741 25.5252 136.873 25.929C136.918 26.1399 137.018 26.3387 137.167 26.5099C137.315 26.6811 137.506 26.8199 137.727 26.9154Z" fill="#249623"/>
<path d="M88.1758 30.958C88.2243 31.0913 88.2912 31.2189 88.3752 31.338L89.0197 32.4052C89.5946 33.3188 90.4107 34.6609 91.338 36.3304C92.2654 37.9999 93.3782 40.0131 94.5049 42.2768C95.6317 44.5406 96.7677 47.0631 97.8527 49.7472C98.9376 52.4314 99.8372 55.0348 100.593 57.4279C101.349 59.821 101.933 61.9675 102.378 63.7947C102.823 65.6219 103.162 67.1014 103.37 68.1323C103.472 68.6133 103.56 69.0054 103.625 69.3126C103.648 69.4509 103.688 69.5865 103.746 69.7169C103.75 69.5814 103.737 69.4459 103.709 69.3126C103.658 69.0054 103.598 68.6093 103.523 68.1201C103.361 67.0853 103.06 65.5896 102.656 63.7543C102.253 61.919 101.673 59.7482 100.955 57.3551C100.236 54.962 99.3132 52.3587 98.2375 49.6745C97.1618 46.9903 95.9794 44.4597 94.848 42.1879C93.7167 39.916 92.6039 37.8665 91.6255 36.2132C90.6472 34.5598 89.794 33.2299 89.1773 32.3324L88.4633 31.3016C88.3814 31.1787 88.2851 31.0635 88.1758 30.958Z" fill="#249623"/>
<path d="M93.2436 43.518C93.1695 43.5908 93.8742 44.2699 94.8201 45.042C95.766 45.8141 96.5914 46.3801 96.6748 46.3073C96.7583 46.2345 96.0442 45.5554 95.0983 44.7833C94.1524 44.0112 93.3225 43.4453 93.2436 43.518Z" fill="#249623"/>
<path d="M95.7506 41.0645C95.6393 41.0645 95.6208 41.9619 95.7042 43.0493C95.7877 44.1367 95.9453 45.018 96.0566 45.0099C96.1679 45.0018 96.1911 44.1165 96.1076 43.025C96.0241 41.9336 95.8619 41.0645 95.7506 41.0645Z" fill="#249623"/>
<path d="M91.8819 40.4176C91.8123 40.4944 92.4847 41.1209 93.3796 41.8162C94.2745 42.5115 95.072 43.029 95.1508 42.9481C95.2296 42.8673 94.5573 42.2528 93.6485 41.5535C92.7397 40.8541 91.9514 40.3448 91.8819 40.4176Z" fill="#249623"/>
<path d="M93.9648 36.9165C93.8582 36.9165 93.7469 37.8139 93.7979 38.9377C93.8489 40.0615 94.0437 40.9589 94.1549 40.9266C94.2662 40.8943 94.2523 40.0211 94.2013 38.9256C94.1503 37.8301 94.0808 36.9205 93.9648 36.9165Z" fill="#249623"/>
<path d="M90.2957 37.0825C90.2355 37.1633 90.7594 37.6363 91.5245 38.1335C92.2895 38.6307 92.9155 38.9824 93.0036 38.9097C93.0917 38.8369 92.5399 38.3639 91.7702 37.8546C91.0005 37.3452 90.356 37.0218 90.2957 37.0825Z" fill="#249623"/>
<path d="M91.6239 33.9577C91.5126 33.9577 91.5265 34.7298 91.6563 35.6514C91.7861 36.5731 91.9809 37.321 92.0922 37.3088C92.2034 37.2967 92.1895 36.5367 92.0597 35.611C91.9299 34.6853 91.7537 33.9455 91.6239 33.9577Z" fill="#249623"/>
<path d="M88.3277 33.7875C88.2627 33.8683 88.7913 34.2888 89.51 34.7294C90.2287 35.17 90.8593 35.4651 90.901 35.3883C90.9428 35.3115 90.4374 34.883 89.7187 34.4424C89 34.0017 88.3787 33.6986 88.3277 33.7875Z" fill="#249623"/>
<path d="M89.5932 30.5542C89.4819 30.5542 89.4494 31.2455 89.519 32.0782C89.5885 32.9109 89.7415 33.586 89.8528 33.5779C89.9641 33.5699 89.9965 32.8907 89.9224 32.0539C89.8482 31.2172 89.7044 30.5542 89.5932 30.5542Z" fill="#249623"/>
<path d="M86.8907 31.588C86.8397 31.6769 87.2802 31.9276 87.8691 32.1459C88.458 32.3642 88.9726 32.4693 89.0097 32.3803C89.0468 32.2914 88.6063 32.0367 88.0314 31.8225C87.4564 31.6082 86.9417 31.5031 86.8907 31.588Z" fill="#249623"/>
<path d="M86.913 29.2079C86.8203 29.2564 87.1263 29.8425 87.6039 30.5136C88.0815 31.1846 88.5313 31.6899 88.6333 31.6374C88.7353 31.5848 88.42 31.0027 87.947 30.3317C87.4741 29.6606 87.0104 29.1553 86.913 29.2079Z" fill="#249623"/>
<path d="M125.965 47.734C125.965 47.734 163.216 69.5187 166.179 82.5435L187.508 82.4303C187.508 82.4303 160.152 51.6512 134.603 46.0483C131.676 46.4065 128.787 46.9702 125.965 47.734Z" fill="#C1F2C0"/>
<path d="M94.3906 55.9989C94.3906 55.9989 123.413 72.8031 125.728 82.8436L142.335 82.7596C142.335 82.7596 121.027 59.0198 101.11 54.708C98.8331 54.9808 96.5861 55.4125 94.3906 55.9989Z" fill="#C1F2C0"/>
<path d="M55.4336 67.2128C55.4336 67.2128 68.4237 72.5857 70.7386 82.6262L87.3456 82.5421C87.3456 82.5421 64.9225 64.4773 64.3724 64.6507C62.1476 65.3517 57.6291 66.6264 55.4336 67.2128Z" fill="#C1F2C0"/>
<path d="M158.037 45.3778C158.037 45.3778 191.468 61.6486 213.455 82.2933L232.563 82.1923C232.563 82.1923 194.899 54.4046 178.332 48.1064C171.627 46.3763 164.784 45.7133 158.204 45.3091" fill="#C1F2C0"/>
<path d="M80.7871 41.7432C81.203 42.4971 81.6674 43.23 82.1781 43.9382C83.0591 45.2803 84.2368 47.1722 85.4238 49.2823C86.6109 51.3925 87.5289 53.3894 88.1734 54.8326C88.4855 55.6231 88.8446 56.399 89.2492 57.157C89.229 56.9316 89.1728 56.7098 89.0822 56.4981C88.9478 56.0938 88.7298 55.4794 88.4424 54.7436C87.6761 52.8373 86.7892 50.9695 85.7855 49.1489C84.7828 47.3219 83.6652 45.5446 82.4378 43.825C81.9741 43.1661 81.5614 42.6446 81.274 42.2929C81.1401 42.0918 80.9764 41.907 80.7871 41.7432Z" fill="#249623"/>
<path d="M77.9551 48.0293C78.362 48.6062 78.8193 49.1549 79.3229 49.6705C80.1946 50.6609 81.3863 52.0394 82.6521 53.5917C83.9179 55.144 85.0122 56.5831 85.7958 57.6341C86.1881 58.2185 86.6298 58.7765 87.1173 59.3036C86.835 58.6733 86.4808 58.0693 86.0601 57.5007C85.3321 56.4174 84.2703 54.95 82.9998 53.3896C81.7294 51.8292 80.496 50.4669 79.5687 49.5129C79.0876 48.9736 78.5472 48.4767 77.9551 48.0293Z" fill="#249623"/>
<path d="M88.8945 44.48C89.0433 45.062 89.2417 45.6336 89.488 46.1899C89.9927 47.5567 90.397 48.9501 90.6982 50.3617C90.9847 51.7718 91.169 53.1962 91.25 54.6265C91.2401 55.224 91.2819 55.8213 91.3752 56.4133C91.5165 55.8248 91.571 55.223 91.5375 54.6225C91.5382 51.7239 90.943 48.8488 89.7801 46.1333C89.5665 45.5517 89.2689 44.9962 88.8945 44.48Z" fill="#249623"/>
<path d="M158.195 35.6475C157.82 36.1517 157.496 36.6832 157.226 37.2361C156.66 38.2265 155.863 39.5888 154.908 41.0643C153.953 42.5398 153.053 43.8415 152.376 44.7834C151.979 45.2737 151.628 45.7915 151.328 46.3316C151.818 45.9069 152.249 45.4334 152.613 44.9208C153.566 43.733 154.449 42.5039 155.26 41.2382C156.211 39.7546 156.971 38.364 157.476 37.3412C157.787 36.8013 158.028 36.2333 158.195 35.6475Z" fill="#249623"/>
<path d="M153.107 33.4966C152.962 34.0894 152.868 34.6906 152.824 35.2955C152.418 38.1842 151.573 41.0131 150.311 43.7078C150.012 44.2547 149.758 44.8194 149.551 45.3975C149.966 44.9071 150.308 44.3734 150.571 43.8088C152 41.1367 152.859 38.2601 153.107 35.3197C153.192 34.7143 153.192 34.102 153.107 33.4966Z" fill="#249623"/>
<path d="M148.083 39.7544C147.972 39.7544 147.953 41.2339 148.046 43.049C148.138 44.864 148.301 46.3274 148.412 46.3234C148.523 46.3193 148.542 44.8479 148.449 43.0328C148.356 41.2178 148.194 39.7504 148.083 39.7544Z" fill="#249623"/>
<path d="M97.8574 27.6753C97.8916 27.9858 97.9584 28.293 98.0568 28.5929C98.2145 29.171 98.4277 30.0159 98.6735 31.0588C99.3158 33.7771 99.7802 36.525 100.065 39.2892C100.338 42.0555 100.43 44.8332 100.338 47.6085C100.306 48.6758 100.264 49.5368 100.222 50.1351C100.187 50.4442 100.187 50.7557 100.222 51.0648C100.313 50.7633 100.369 50.4545 100.389 50.1432C100.477 49.5489 100.561 48.6879 100.635 47.6207C100.808 44.8343 100.756 42.0408 100.477 39.2609C100.194 36.4815 99.6858 33.7231 98.9563 31.0063C98.6735 29.9633 98.4185 29.1265 98.2144 28.5565C98.1302 28.2529 98.0106 27.9577 97.8574 27.6753Z" fill="#249623"/>
<path d="M109.152 41.4438C108.977 42.0555 108.862 42.6789 108.808 43.3074C108.632 44.4595 108.373 46.0482 108.025 47.7945C107.677 49.5408 107.297 51.1133 107.014 52.2412C106.825 52.8495 106.692 53.47 106.615 54.0967C106.914 53.5213 107.141 52.9195 107.292 52.3018C107.649 51.178 108.071 49.6055 108.424 47.8552C108.776 46.1048 108.989 44.4959 109.091 43.3317C109.188 42.706 109.208 42.0732 109.152 41.4438Z" fill="#249623"/>
<path d="M222.423 36.5327C222.305 36.8255 222.218 37.1273 222.164 37.4342C222.029 38.0203 221.816 38.8652 221.542 39.9041C220.819 42.6074 219.922 45.273 218.853 47.8879C217.773 50.499 216.522 53.054 215.107 55.5402C214.564 56.4943 214.11 57.2623 213.79 57.7919C213.604 58.0584 213.449 58.34 213.326 58.6327C213.552 58.3912 213.751 58.1313 213.92 57.8566C214.281 57.3513 214.773 56.5994 215.352 55.6534C218.35 50.7155 220.525 45.43 221.811 39.9567C222.053 38.9056 222.219 38.0527 222.312 37.4584C222.385 37.1539 222.422 36.8438 222.423 36.5327Z" fill="#249623"/>
<path d="M225.096 46.7241C224.647 47.2178 224.243 47.7424 223.891 48.2926C223.177 49.2749 222.18 50.6251 221.025 52.0844C219.871 53.5437 218.772 54.8333 217.969 55.759C217.502 56.2411 217.082 56.7562 216.713 57.2991C217.261 56.8852 217.756 56.4218 218.192 55.9166C219.054 55.0232 220.195 53.7499 221.359 52.2784C222.523 50.807 223.483 49.4487 224.141 48.4139C224.527 47.8815 224.847 47.3151 225.096 46.7241Z" fill="#249623"/>
<path d="M424 82.729C395.224 76.7422 337.367 48.8938 324.662 46.5815C297.417 41.6134 265.776 48.526 242.319 61.6073C239.606 63.1191 225.599 69.1585 203.055 81.9892L395.192 82.729H424Z" fill="#249623"/>
<path d="M291.815 35.1019C291.726 34.9025 291.688 34.6889 291.702 34.4755C291.717 34.262 291.783 34.0538 291.898 33.8649C292.127 33.5302 292.415 33.2287 292.751 32.9715C292.765 32.9558 292.783 32.943 292.803 32.9339C292.823 32.9248 292.845 32.9197 292.867 32.9189C292.914 32.9189 292.946 32.9634 292.969 32.9998C293.068 33.1948 293.108 33.4086 293.085 33.6209C293.063 33.8332 292.978 34.0368 292.839 34.2125C292.56 34.5596 292.213 34.8619 291.815 35.1059" fill="#249623"/>
<path d="M291.403 33.6259C291.28 33.445 291.202 33.2433 291.175 33.0343C291.148 32.8252 291.172 32.6135 291.245 32.4132C291.407 32.0489 291.634 31.7091 291.918 31.4066C291.928 31.3895 291.943 31.3746 291.96 31.3627C291.978 31.3509 291.998 31.3424 292.02 31.3379C292.043 31.3411 292.065 31.3485 292.085 31.3597C292.105 31.3708 292.122 31.3854 292.136 31.4026C292.269 31.5805 292.349 31.7853 292.367 31.9974C292.384 32.2096 292.34 32.4222 292.238 32.6153C292.03 32.9987 291.748 33.3475 291.403 33.6461" fill="#249623"/>
<path d="M290.885 32.0491C290.777 31.8567 290.718 31.6463 290.712 31.4321C290.705 31.218 290.752 31.0052 290.848 30.8081C291.04 30.4561 291.297 30.1339 291.609 29.8541C291.62 29.8379 291.636 29.8241 291.654 29.8136C291.673 29.8032 291.693 29.7963 291.715 29.7935C291.762 29.7935 291.799 29.8298 291.826 29.8662C291.944 30.052 292.005 30.2606 292.005 30.4726C292.005 30.6846 291.944 30.8932 291.826 31.079C291.584 31.4468 291.27 31.7751 290.899 32.0491" fill="#249623"/>
<path d="M290.356 30.4765C290.266 30.2774 290.227 30.064 290.241 29.8505C290.255 29.6371 290.321 29.4287 290.435 29.2395C290.659 28.902 290.946 28.5989 291.283 28.3421C291.297 28.3264 291.314 28.3136 291.334 28.3045C291.354 28.2954 291.376 28.2903 291.399 28.2896C291.422 28.2945 291.444 28.3045 291.462 28.3186C291.48 28.3327 291.493 28.3505 291.501 28.3704C291.601 28.5651 291.641 28.7787 291.619 28.991C291.598 29.2032 291.514 29.4071 291.376 29.5831C291.098 29.9314 290.753 30.235 290.356 30.4806" fill="#249623"/>
<path d="M289.896 29.0504C289.824 28.8493 289.801 28.637 289.831 28.4278C289.861 28.2185 289.941 28.0173 290.068 27.8377C290.322 27.5125 290.635 27.2257 290.995 26.9887C291.028 26.9645 291.07 26.9362 291.111 26.9443C291.153 26.9524 291.19 26.9928 291.209 27.0292C291.295 27.2304 291.321 27.4475 291.283 27.6598C291.246 27.8721 291.147 28.0725 290.995 28.2419C290.691 28.5722 290.324 28.8552 289.91 29.0787" fill="#249623"/>
<path d="M289.467 27.5707C289.405 27.3659 289.393 27.1517 289.433 26.9426C289.473 26.7335 289.564 26.5342 289.699 26.358C289.966 26.0474 290.287 25.7747 290.65 25.5495C290.665 25.5355 290.684 25.5247 290.705 25.5177C290.726 25.5107 290.748 25.5078 290.77 25.5091C290.817 25.5091 290.845 25.5576 290.863 25.598C290.937 25.8 290.951 26.0153 290.903 26.2233C290.856 26.4313 290.748 26.6251 290.59 26.7865C290.272 27.1105 289.892 27.384 289.467 27.595" fill="#249623"/>
<path d="M288.909 25.9291C288.855 25.7202 288.853 25.5037 288.905 25.2943C288.956 25.0849 289.059 24.8877 289.206 24.7163C289.488 24.4137 289.825 24.153 290.203 23.9442C290.218 23.931 290.237 23.9208 290.258 23.9146C290.279 23.9083 290.301 23.906 290.323 23.9079C290.369 23.9079 290.393 23.9604 290.411 24.0008C290.474 24.2055 290.476 24.4207 290.418 24.6264C290.359 24.832 290.242 25.0215 290.077 25.1772C289.741 25.4848 289.345 25.7392 288.909 25.9291Z" fill="#249623"/>
<path d="M291.82 35.1058C291.78 34.8941 291.688 34.6924 291.55 34.5145C291.413 34.3366 291.233 34.1867 291.022 34.075C290.632 33.8812 290.207 33.7446 289.766 33.6708C289.747 33.6616 289.725 33.6567 289.703 33.6567C289.681 33.6567 289.66 33.6616 289.641 33.6708C289.623 33.6847 289.609 33.7025 289.602 33.7224C289.595 33.7423 289.594 33.7636 289.599 33.7839C289.627 33.995 289.716 34.1962 289.859 34.3683C290.002 34.5403 290.194 34.6774 290.415 34.7663C290.855 34.9404 291.325 35.0483 291.806 35.0856" fill="#249623"/>
<path d="M291.422 33.6139C291.381 33.4029 291.289 33.202 291.151 33.0248C291.014 32.8477 290.834 32.6984 290.624 32.5871C290.234 32.3934 289.809 32.2569 289.368 32.1829C289.326 32.1689 289.28 32.1689 289.238 32.1829C289.221 32.1983 289.209 32.217 289.203 32.2375C289.196 32.2579 289.196 32.2794 289.201 32.3001C289.23 32.5108 289.32 32.7115 289.463 32.8834C289.606 33.0553 289.796 33.1926 290.017 33.2824C290.457 33.4553 290.927 33.5619 291.408 33.5977" fill="#249623"/>
<path d="M290.88 32.0498C290.851 31.8377 290.769 31.6337 290.641 31.4516C290.513 31.2695 290.342 31.1136 290.138 30.9947C289.755 30.7908 289.337 30.642 288.9 30.5541C288.88 30.5461 288.859 30.542 288.837 30.542C288.816 30.542 288.794 30.5461 288.775 30.5541C288.733 30.5541 288.729 30.6228 288.729 30.6673C288.747 30.8784 288.827 31.082 288.961 31.2588C289.095 31.4356 289.278 31.5798 289.494 31.6779C289.929 31.8696 290.4 31.9941 290.885 32.0457" fill="#249623"/>
<path d="M290.39 30.4974C290.361 30.2847 290.28 30.08 290.151 29.8978C290.022 29.7155 289.849 29.56 289.643 29.4423C289.26 29.2398 288.842 29.0924 288.405 29.0057C288.365 28.9916 288.32 28.9916 288.28 29.0057C288.263 29.0199 288.249 29.0376 288.241 29.0574C288.233 29.0771 288.231 29.0982 288.234 29.1189C288.252 29.3307 288.333 29.5349 288.467 29.7118C288.602 29.8888 288.787 30.0326 289.004 30.1295C289.439 30.3213 289.91 30.4458 290.395 30.4974" fill="#249623"/>
<path d="M289.938 29.0583C289.907 28.8462 289.823 28.6426 289.694 28.4612C289.564 28.2798 289.391 28.1249 289.186 28.0072C288.803 27.8061 288.385 27.6601 287.948 27.5747C287.928 27.5667 287.906 27.5625 287.884 27.5625C287.861 27.5625 287.839 27.5667 287.819 27.5747C287.802 27.5894 287.789 27.6072 287.781 27.6268C287.773 27.6463 287.77 27.6672 287.772 27.6879C287.791 27.9 287.873 28.1042 288.008 28.2812C288.144 28.4581 288.329 28.6018 288.547 28.6985C288.983 28.8873 289.454 29.009 289.938 29.0583Z" fill="#249623"/>
<path d="M289.52 27.5583C289.474 27.346 289.376 27.1449 289.231 26.969C289.087 26.7931 288.901 26.6466 288.686 26.5396C288.29 26.3583 287.865 26.2328 287.424 26.1677C287.383 26.1537 287.336 26.1537 287.295 26.1677C287.278 26.1831 287.266 26.2019 287.259 26.2223C287.253 26.2428 287.252 26.2643 287.257 26.285C287.29 26.4953 287.384 26.6948 287.53 26.8646C287.676 27.0344 287.87 27.1689 288.092 27.2551C288.533 27.424 289.003 27.5252 289.483 27.5543" fill="#249623"/>
<path d="M288.934 25.9657C288.894 25.7547 288.802 25.5536 288.665 25.3759C288.529 25.1981 288.35 25.0478 288.142 24.9349C287.751 24.7412 287.326 24.6046 286.885 24.5306C286.866 24.5214 286.844 24.5166 286.822 24.5166C286.801 24.5166 286.779 24.5214 286.76 24.5306C286.742 24.5445 286.729 24.5624 286.721 24.5823C286.714 24.6022 286.713 24.6234 286.718 24.6438C286.745 24.8552 286.833 25.057 286.976 25.2297C287.118 25.4025 287.308 25.5404 287.53 25.6302C287.969 25.8043 288.44 25.9123 288.921 25.9495" fill="#249623"/>
<path d="M297.457 53.0214C297.346 53.0457 295.203 46.5172 292.663 38.4363C290.122 30.3555 288.151 23.7865 288.262 23.7623C288.374 23.738 290.516 30.2625 293.052 38.3433C295.588 46.4242 297.564 52.9931 297.457 53.0214Z" fill="#249623"/>
<path d="M288.63 24.9308C288.417 24.8284 288.232 24.6861 288.089 24.5141C287.947 24.3422 287.849 24.1449 287.804 23.9364C287.735 23.5305 287.77 23.1163 287.906 22.7236C288.321 22.9488 288.625 23.3004 288.76 23.71C288.846 23.9073 288.879 24.1193 288.857 24.3295C288.834 24.5398 288.757 24.7428 288.63 24.9227" fill="#249623"/>
<path d="M314.186 36.8964C314.232 36.6862 314.33 36.4871 314.472 36.3127C314.614 36.1383 314.798 35.9927 315.011 35.8858C315.408 35.7062 315.835 35.5833 316.277 35.522C316.297 35.5139 316.319 35.5098 316.342 35.5098C316.364 35.5098 316.386 35.5139 316.407 35.522C316.444 35.5462 316.444 35.5947 316.444 35.6351C316.41 35.8506 316.312 36.0547 316.16 36.2271C316.008 36.3994 315.807 36.534 315.577 36.6175C315.135 36.7817 314.665 36.8788 314.186 36.9045" fill="#249623"/>
<path d="M314.729 35.453C314.733 35.2391 314.79 35.0284 314.896 34.8357C315.003 34.643 315.156 34.4729 315.346 34.3373C315.695 34.1 316.087 33.9143 316.505 33.7876C316.525 33.7799 316.546 33.7759 316.568 33.7759C316.59 33.7759 316.611 33.7799 316.631 33.7876C316.677 33.7876 316.686 33.8522 316.691 33.8967C316.697 34.1089 316.641 34.319 316.528 34.5071C316.416 34.6953 316.25 34.8553 316.046 34.972C315.637 35.2016 315.185 35.3672 314.711 35.4611" fill="#249623"/>
<path d="M315.244 33.8766C315.27 33.6637 315.347 33.458 315.471 33.2733C315.595 33.0886 315.763 32.929 315.963 32.8053C316.341 32.5971 316.754 32.4416 317.187 32.3445C317.229 32.3305 317.275 32.3305 317.317 32.3445C317.336 32.3578 317.351 32.3752 317.36 32.3951C317.369 32.415 317.372 32.4366 317.368 32.4577C317.354 32.67 317.278 32.8756 317.147 33.0553C317.017 33.2349 316.836 33.3826 316.621 33.4845C316.188 33.6883 315.717 33.8251 315.23 33.8887" fill="#249623"/>
<path d="M315.75 32.3C315.795 32.0892 315.891 31.8894 316.033 31.7142C316.174 31.5391 316.358 31.3927 316.571 31.2853C316.967 31.1029 317.394 30.9773 317.837 30.9134C317.856 30.9055 317.878 30.9014 317.899 30.9014C317.921 30.9014 317.942 30.9055 317.962 30.9134C317.978 30.9282 317.99 30.9463 317.996 30.966C318.003 30.9857 318.004 31.0066 317.999 31.0266C317.966 31.2368 317.872 31.4362 317.726 31.606C317.58 31.7757 317.386 31.9102 317.164 31.9968C316.723 32.1623 316.253 32.262 315.773 32.2919" fill="#249623"/>
<path d="M316.23 30.8731C316.289 30.6662 316.4 30.473 316.553 30.3069C316.707 30.1408 316.9 30.0057 317.12 29.911C317.529 29.7527 317.964 29.6517 318.409 29.6119C318.45 29.5975 318.497 29.5975 318.539 29.6119C318.552 29.6286 318.562 29.6477 318.567 29.6679C318.572 29.6881 318.572 29.709 318.566 29.7291C318.515 29.9387 318.403 30.1333 318.241 30.294C318.078 30.4548 317.871 30.5763 317.639 30.6467C317.181 30.7893 316.697 30.8605 316.211 30.8569" fill="#249623"/>
<path d="M316.765 29.4216C316.833 29.2169 316.952 29.0275 317.112 28.8663C317.272 28.7051 317.47 28.576 317.692 28.4878C318.109 28.3451 318.549 28.2605 318.995 28.2372C319.036 28.223 319.08 28.223 319.121 28.2372C319.135 28.2538 319.144 28.2731 319.148 28.2934C319.152 28.3138 319.151 28.3346 319.144 28.3544C319.085 28.561 318.967 28.7511 318.801 28.9067C318.635 29.0623 318.425 29.1783 318.193 29.2438C317.728 29.3671 317.242 29.4204 316.756 29.4014" fill="#249623"/>
<path d="M317.28 27.7728C317.362 27.5711 317.493 27.387 317.663 27.2329C317.833 27.0788 318.04 26.9583 318.268 26.8794C318.692 26.7529 319.137 26.686 319.585 26.6813C319.628 26.6769 319.673 26.6854 319.71 26.7056C319.72 26.7245 319.726 26.7453 319.726 26.7662C319.726 26.7872 319.72 26.8079 319.71 26.8269C319.639 27.0304 319.51 27.2148 319.335 27.3626C319.16 27.5105 318.944 27.6169 318.708 27.6717C318.237 27.7783 317.747 27.8124 317.262 27.7728" fill="#249623"/>
<path d="M314.188 36.9005C314.282 36.7025 314.326 36.4893 314.317 36.2752C314.308 36.0611 314.247 35.8512 314.137 35.6595C313.917 35.3203 313.637 35.0133 313.307 34.75C313.28 34.7195 313.24 34.6993 313.196 34.6934C313.15 34.6934 313.112 34.7378 313.089 34.7742C312.985 34.9668 312.94 35.1793 312.957 35.3916C312.974 35.6039 313.053 35.8089 313.187 35.9869C313.457 36.3401 313.796 36.6493 314.188 36.9005Z" fill="#249623"/>
<path d="M314.755 35.4496C314.849 35.2523 314.893 35.0397 314.884 34.8262C314.875 34.6128 314.814 34.4035 314.704 34.2126C314.484 33.8723 314.204 33.564 313.874 33.299C313.842 33.2747 313.805 33.2424 313.763 33.2464C313.739 33.2507 313.717 33.26 313.699 33.2733C313.68 33.2867 313.666 33.3039 313.656 33.3232C313.553 33.516 313.508 33.7284 313.525 33.9406C313.542 34.1528 313.621 34.3576 313.754 34.536C314.024 34.8887 314.363 35.1978 314.755 35.4496Z" fill="#249623"/>
<path d="M315.244 33.8766C315.345 33.6816 315.398 33.47 315.398 33.2561C315.398 33.0421 315.345 32.8306 315.244 32.6355C315.04 32.2883 314.776 31.9706 314.461 31.6937C314.428 31.6654 314.396 31.633 314.35 31.6371C314.326 31.6403 314.304 31.6486 314.285 31.6614C314.267 31.6741 314.252 31.6908 314.243 31.7098C314.13 31.898 314.074 32.1081 314.081 32.3204C314.087 32.5327 314.156 32.7399 314.28 32.9226C314.533 33.2864 314.856 33.6092 315.235 33.8766" fill="#249623"/>
<path d="M315.772 32.3318C315.874 32.137 315.926 31.9254 315.926 31.7113C315.926 31.4972 315.874 31.2856 315.772 31.0908C315.568 30.7433 315.302 30.4267 314.984 30.1529C314.971 30.1371 314.956 30.1235 314.937 30.1131C314.919 30.1027 314.898 30.0956 314.877 30.0923C314.831 30.0923 314.793 30.1327 314.77 30.1691C314.657 30.3572 314.601 30.5674 314.608 30.7797C314.614 30.9919 314.683 31.1992 314.807 31.3818C315.063 31.7437 315.388 32.0649 315.767 32.3318" fill="#249623"/>
<path d="M316.257 30.9015C316.359 30.7067 316.412 30.4951 316.412 30.281C316.412 30.0669 316.359 29.8553 316.257 29.6605C316.051 29.3135 315.783 28.9971 315.464 28.7226C315.452 28.7072 315.436 28.6941 315.418 28.6844C315.4 28.6746 315.379 28.6684 315.358 28.666C315.311 28.666 315.274 28.7064 315.251 28.7388C315.14 28.9275 315.085 29.1377 315.092 29.3498C315.1 29.562 315.169 29.769 315.293 29.9515C315.549 30.3121 315.873 30.632 316.253 30.8974" fill="#249623"/>
<path d="M316.811 29.434C316.902 29.2355 316.942 29.022 316.93 28.8084C316.917 28.5948 316.851 28.3862 316.736 28.197C316.514 27.8583 316.229 27.5537 315.893 27.2956C315.86 27.2713 315.823 27.239 315.781 27.243C315.758 27.248 315.736 27.258 315.718 27.2721C315.701 27.2862 315.687 27.304 315.679 27.3239C315.578 27.5178 315.535 27.7311 315.556 27.9434C315.576 28.1558 315.658 28.36 315.795 28.5366C316.07 28.8869 316.414 29.192 316.811 29.4381" fill="#249623"/>
<path d="M317.285 27.8136C317.38 27.6165 317.424 27.4038 317.415 27.1902C317.407 26.9767 317.345 26.7673 317.234 26.5766C317.018 26.2347 316.739 25.926 316.409 25.663C316.396 25.6471 316.379 25.6338 316.36 25.624C316.341 25.6143 316.32 25.6083 316.297 25.6064C316.275 25.6113 316.254 25.6208 316.236 25.6342C316.218 25.6475 316.204 25.6643 316.195 25.6832C316.09 25.8754 316.044 26.0878 316.06 26.3002C316.076 26.5126 316.155 26.7177 316.288 26.896C316.555 27.2516 316.892 27.5624 317.285 27.8136Z" fill="#249623"/>
<path d="M308.102 54.703C307.991 54.6788 310.133 48.1462 312.878 40.1179C315.623 32.0897 317.941 25.6056 318.048 25.6339C318.154 25.6622 316.012 32.1907 313.267 40.219C310.522 48.2473 308.208 54.7313 308.102 54.703Z" fill="#249623"/>
<path d="M317.651 26.7946C317.534 26.611 317.464 26.4072 317.447 26.1976C317.431 25.9881 317.467 25.7779 317.553 25.5818C317.732 25.2012 318.008 24.8611 318.36 24.5874C318.569 24.965 318.614 25.3961 318.485 25.8001C318.441 26.01 318.34 26.2077 318.192 26.3776C318.044 26.5475 317.852 26.6848 317.632 26.7784" fill="#249623"/>
<path d="M363.235 36.334C363.181 36.4659 363.112 36.5931 363.031 36.714L362.41 37.7812C361.835 38.6948 361.019 40.0369 360.091 41.7064C359.164 43.3759 358.056 45.389 356.925 47.6528C355.793 49.9166 354.666 52.4391 353.577 55.1232C352.487 57.8074 351.597 60.4107 350.837 62.8039C350.076 65.197 349.497 67.3435 349.056 69.1707C348.616 70.9979 348.272 72.4774 348.064 73.5082C347.957 73.9893 347.869 74.3814 347.804 74.6886C347.782 74.8266 347.743 74.9621 347.688 75.0929C347.684 74.9574 347.697 74.8219 347.725 74.6886L347.906 73.4759C348.068 72.441 348.37 70.9453 348.773 69.1101C349.177 67.2748 349.756 65.104 350.48 62.7109C351.203 60.3178 352.116 57.7144 353.197 55.0303C354.277 52.3461 355.45 49.8155 356.586 47.5437C357.722 45.2718 358.84 43.2748 359.832 41.6174C360.824 39.9601 361.687 38.6341 362.285 37.7367L362.994 36.7059C363.056 36.5734 363.137 36.4484 363.235 36.334Z" fill="#249623"/>
<path d="M358.159 48.9023C358.233 48.9751 357.529 49.6542 356.587 50.4263C355.646 51.1984 354.811 51.7643 354.733 51.6916C354.654 51.6188 355.359 50.9397 356.304 50.1676C357.25 49.3955 358.085 48.8295 358.159 48.9023Z" fill="#249623"/>
<path d="M355.652 46.4409C355.764 46.4409 355.787 47.3384 355.703 48.4258C355.62 49.5132 355.458 50.3944 355.346 50.3863C355.235 50.3783 355.212 49.493 355.3 48.4015C355.388 47.3101 355.541 46.4369 355.652 46.4409Z" fill="#249623"/>
<path d="M359.525 45.806C359.595 45.8788 358.922 46.5053 358.023 47.2006C357.123 47.8959 356.335 48.4134 356.256 48.3325C356.177 48.2517 356.85 47.6372 357.754 46.9379C358.658 46.2385 359.456 45.7292 359.525 45.806Z" fill="#249623"/>
<path d="M357.437 42.3013C357.548 42.3013 357.659 43.1987 357.604 44.3225C357.548 45.4463 357.358 46.3235 357.247 46.3114C357.135 46.2992 357.149 45.4059 357.2 44.3104C357.251 43.2149 357.307 42.3053 357.437 42.3013Z" fill="#249623"/>
<path d="M361.106 42.4669C361.171 42.5477 360.619 43.0207 359.877 43.5179C359.136 44.0151 358.486 44.3668 358.403 44.294C358.319 44.2213 358.867 43.7483 359.632 43.239C360.397 42.7296 361.046 42.386 361.106 42.4669Z" fill="#249623"/>
<path d="M359.763 39.3424C359.875 39.3424 359.861 40.1145 359.731 41.0362C359.601 41.9579 359.406 42.7057 359.3 42.6936C359.193 42.6815 359.202 41.9215 359.332 40.9958C359.462 40.0701 359.652 39.3303 359.763 39.3424Z" fill="#249623"/>
<path d="M363.077 39.1599C363.142 39.2407 362.613 39.6611 361.899 40.1058C361.185 40.5505 360.55 40.8375 360.508 40.7607C360.467 40.6839 360.972 40.2594 361.686 39.8148C362.4 39.3701 363.012 39.0831 363.077 39.1599Z" fill="#249623"/>
<path d="M361.819 35.9259C361.93 35.9259 361.963 36.6171 361.889 37.4499C361.814 38.2826 361.666 38.9577 361.555 38.9496C361.443 38.9415 361.416 38.2624 361.485 37.4256C361.555 36.5888 361.708 35.9178 361.819 35.9259Z" fill="#249623"/>
<path d="M364.516 36.977C364.567 37.0619 364.131 37.3125 363.537 37.5308C362.944 37.7491 362.434 37.8582 362.397 37.7653C362.36 37.6723 362.8 37.4217 363.38 37.2074C363.959 36.9932 364.469 36.8881 364.516 36.977Z" fill="#249623"/>
<path d="M364.493 34.5961C364.59 34.6446 364.279 35.2308 363.806 35.9018C363.334 36.5728 362.879 37.0782 362.773 37.0256C362.666 36.973 362.986 36.3909 363.463 35.7199C363.941 35.0488 364.4 34.5395 364.493 34.5961Z" fill="#249623"/>
<path d="M279.127 47.4633C279.127 47.4633 316.457 69.5673 319.425 82.5961L340.962 82.778C340.962 82.778 313.824 51.6512 288.261 46.0605L279.127 47.4633Z" fill="#C1F2C0"/>
<path d="M310.75 45.0332C310.75 45.0332 345.326 62.2055 367.318 82.8502L386.046 82.9998C386.046 82.9998 347.756 54.2985 331.184 47.9963C324.479 46.2661 317.923 45.203 311.575 45.0696" fill="#C1F2C0"/>
<path d="M376.805 48.4556C376.386 49.2069 375.922 49.9383 375.414 50.6466C374.528 51.9887 373.355 53.8805 372.168 55.9947C370.981 58.1089 370.063 60.0978 369.418 61.5409C369.109 62.3343 368.748 63.1117 368.338 63.8694C368.363 63.6431 368.421 63.4204 368.509 63.2064C368.644 62.8022 368.862 62.1918 369.149 61.456C370.68 57.6354 372.692 53.9747 375.149 50.5415C375.613 49.8825 376.021 49.357 376.313 49.0053C376.446 48.8026 376.612 48.6175 376.805 48.4556Z" fill="#249623"/>
<path d="M392.787 56.271C392.368 57.0224 391.904 57.7537 391.396 58.462C390.51 59.8041 389.337 61.6959 388.15 63.8101C386.963 65.9243 386.045 67.9132 385.401 69.3564C385.092 70.1498 384.731 70.9272 384.32 71.6848C384.346 71.4585 384.404 71.2358 384.492 71.0218C384.626 70.6176 384.844 70.0072 385.132 69.2715C386.662 65.4508 388.674 61.7902 391.132 58.3569C391.595 57.698 392.003 57.1725 392.295 56.8208C392.428 56.618 392.594 56.4329 392.787 56.271Z" fill="#249623"/>
<path d="M379.643 54.7417C379.234 55.3094 378.777 55.8499 378.276 56.3587C377.404 57.3531 376.212 58.7275 374.946 60.2839C373.681 61.8402 372.586 63.2753 371.803 64.3263C371.41 64.9114 370.967 65.4695 370.477 65.9958C370.769 65.3672 371.131 64.7648 371.557 64.197C372.285 63.1136 373.347 61.6502 374.617 60.0858C375.888 58.5214 377.121 57.1672 378.053 56.2131C378.524 55.6767 379.057 55.1837 379.643 54.7417Z" fill="#249623"/>
<path d="M395.626 62.5571C395.216 63.1249 394.759 63.6653 394.258 64.1741C393.386 65.1685 392.195 66.543 390.929 68.0993C389.663 69.6556 388.569 71.0907 387.785 72.1417C387.392 72.7268 386.949 73.285 386.459 73.8113C386.752 73.1827 387.113 72.5802 387.539 72.0124C388.267 70.929 389.329 69.4657 390.6 67.9012C391.87 66.3368 393.103 64.9826 394.035 64.0286C394.507 63.4922 395.04 62.9991 395.626 62.5571Z" fill="#249623"/>
<path d="M368.708 51.189C368.559 51.7728 368.359 52.3458 368.11 52.903C367.613 54.2674 367.216 55.6582 366.923 57.0667C366.633 58.4764 366.449 59.901 366.371 61.3314C366.375 61.9288 366.333 62.5257 366.246 63.1182C366.105 62.5283 366.051 61.9252 366.083 61.3233C366.081 58.4247 366.677 55.5494 367.841 52.8342C368.048 52.2558 368.339 51.7029 368.708 51.189Z" fill="#249623"/>
<path d="M384.688 59.0044C384.54 59.5882 384.34 60.1612 384.09 60.7184C383.593 62.0829 383.197 63.4736 382.903 64.8821C382.614 66.2918 382.43 67.7164 382.351 69.1469C382.355 69.7442 382.313 70.3411 382.226 70.9336C382.086 70.3437 382.031 69.7406 382.064 69.1388C382.062 66.2402 382.657 63.3648 383.821 60.6497C384.029 60.0712 384.32 59.5183 384.688 59.0044Z" fill="#249623"/>
<path d="M297.186 35.5381C297.562 36.0416 297.886 36.5733 298.155 37.1268C298.72 38.1172 299.518 39.4795 300.473 40.955C301.428 42.4304 302.328 43.7321 303.005 44.674C303.402 45.1643 303.752 45.6821 304.053 46.2222C303.564 45.7964 303.133 45.323 302.768 44.8114C301.814 43.6227 300.93 42.3922 300.121 41.1247C299.193 39.6412 298.41 38.2546 297.904 37.2319C297.595 36.6917 297.354 36.1237 297.186 35.5381Z" fill="#249623"/>
<path d="M302.271 33.3833C302.416 33.9761 302.51 34.5773 302.554 35.1822C302.962 38.0707 303.807 40.8994 305.067 43.5945C305.366 44.1414 305.62 44.7061 305.827 45.2842C305.412 44.7927 305.069 44.2576 304.807 43.6915C303.379 41.0193 302.519 38.1428 302.271 35.2024C302.183 34.5985 302.183 33.9872 302.271 33.3833Z" fill="#249623"/>
<path d="M307.297 39.645C307.408 39.645 307.427 41.1246 307.334 42.9356C307.241 44.7466 307.079 46.218 306.968 46.214C306.856 46.2099 306.838 44.7345 306.93 42.9234C307.023 41.1124 307.185 39.641 307.297 39.645Z" fill="#249623"/>
<path d="M353.548 33.0601C353.517 33.371 353.45 33.6784 353.349 33.9777C353.196 34.5558 352.983 35.4006 352.732 36.4436C351.436 41.8843 350.876 47.4388 351.063 52.9933C351.1 54.0605 351.142 54.9216 351.179 55.5198C351.214 55.829 351.214 56.1404 351.179 56.4496C351.091 56.1476 351.035 55.839 351.012 55.5279C350.929 54.9377 350.841 54.0726 350.771 53.0054C350.593 50.2192 350.646 47.4253 350.929 44.6457C351.208 41.8662 351.715 39.1076 352.445 36.391C352.728 35.3481 352.987 34.5113 353.191 33.9413C353.277 33.6381 353.397 33.343 353.548 33.0601Z" fill="#249623"/>
<path d="M346.228 41.3311C346.403 41.9428 346.517 42.5661 346.572 43.1946C346.748 44.3508 347.003 45.9394 347.355 47.6858C347.708 49.4321 348.083 51.0046 348.361 52.1324C348.553 52.7404 348.688 53.3609 348.765 53.9879C348.467 53.4122 348.24 52.8105 348.088 52.1931C347.731 51.0652 347.309 49.4927 346.956 47.7464C346.604 46.0001 346.391 44.3871 346.289 43.2229C346.192 42.5959 346.172 41.9618 346.228 41.3311Z" fill="#249623"/>
<path d="M242.62 59.6229C218.926 57.7917 178.239 67.3035 160.855 82.2363L315.723 82.4667C292.506 78.0038 266.313 61.4582 242.62 59.6229Z" fill="#C1F2C0"/>
<path d="M177.326 34.8022C177.384 35.119 177.408 35.4397 177.396 35.7603C177.396 36.3788 177.396 37.2681 177.396 38.3717C177.35 40.5748 177.178 43.6269 176.779 46.97C176.381 50.3131 175.852 53.3287 175.36 55.4955C175.124 56.5788 174.897 57.452 174.753 58.0503C174.689 58.3662 174.592 58.6762 174.461 58.976C174.471 58.655 174.516 58.3356 174.595 58.022C174.725 57.351 174.883 56.4859 175.059 55.451C175.462 53.2802 175.986 50.2727 176.362 46.9336C176.738 43.5945 176.974 40.5627 177.09 38.3636C177.146 37.3166 177.187 36.4435 177.224 35.7603C177.225 35.4389 177.259 35.1182 177.326 34.8022Z" fill="#249623"/>
<path d="M165.667 42.8101C165.69 42.8101 165.853 42.9273 166.131 43.186C166.409 43.4447 166.803 43.8368 167.253 44.3421C169.599 47.004 171.207 50.1032 171.95 53.3972C172.065 53.8928 172.151 54.3934 172.205 54.8969C172.238 55.0804 172.238 55.2673 172.205 55.4508C172.14 55.4508 172.001 54.6827 171.658 53.4295C171.203 51.8262 170.582 50.2622 169.803 48.7565C169.018 47.2559 168.076 45.8215 166.989 44.4715C166.196 43.4528 165.616 42.8464 165.667 42.8101Z" fill="#249623"/>
<path d="M183.594 43.9137C183.7 43.9501 182.411 46.9293 180.724 50.5635C179.036 54.1976 177.575 57.1163 177.478 57.0799C177.38 57.0435 178.66 54.0642 180.353 50.4301C182.045 46.7959 183.492 43.8935 183.594 43.9137Z" fill="#249623"/>
<path d="M209.883 47.6123C209.735 47.9065 209.62 48.2124 209.54 48.5259C209.345 49.1161 209.076 49.9812 208.788 51.0524C208.2 53.1949 207.486 56.1782 206.901 59.5052C206.317 62.8321 205.974 65.8679 205.812 68.067C205.728 69.1706 205.682 70.06 205.663 70.6744C205.63 70.9945 205.63 71.3164 205.663 71.6365C205.746 71.3233 205.795 71.0038 205.807 70.6825C205.881 70.0034 205.974 69.1342 206.085 68.0872C206.322 65.9003 206.707 62.8765 207.286 59.5577C207.866 56.2389 208.533 53.2596 209.057 51.105L209.679 48.5582C209.782 48.2496 209.851 47.9327 209.883 47.6123Z" fill="#249623"/>
<path d="M201.185 55.0547C201.074 55.0547 201.459 58.228 202.043 62.1169C202.627 66.0057 203.198 69.1507 203.309 69.1386C203.42 69.1264 203.031 65.9612 202.446 62.0724C201.862 58.1836 201.296 55.0426 201.185 55.0547Z" fill="#249623"/>
<path d="M190.164 42.604C190.222 42.956 190.245 43.3117 190.233 43.6672C190.233 44.3503 190.27 45.3407 190.326 46.5656C190.605 52.9362 191.658 59.2631 193.47 65.4397C193.813 66.6282 194.109 67.5822 194.318 68.2411C194.445 68.5804 194.541 68.9277 194.606 69.28C194.426 68.9593 194.28 68.6251 194.17 68.2816C193.91 67.6348 193.576 66.6646 193.191 65.5044C191.216 59.3365 190.157 52.9728 190.043 46.5696C190.043 45.3569 190.043 44.3503 190.075 43.6672C190.071 43.3113 190.1 42.9556 190.164 42.604Z" fill="#249623"/>
<path d="M190.556 52.7873C190.45 52.759 190.848 51.518 191.442 50.0182C192.035 48.5185 192.601 47.334 192.708 47.3664C192.814 47.3987 192.416 48.6357 191.822 50.1354C191.229 51.6352 190.663 52.7873 190.556 52.7873Z" fill="#249623"/>
<path d="M189.824 50.1271C189.727 50.1756 189.198 49.5732 188.637 48.7809C188.076 47.9886 187.71 47.2974 187.793 47.2488C187.877 47.2003 188.419 47.7986 188.98 48.595C189.541 49.3913 189.921 50.0745 189.824 50.1271Z" fill="#249623"/>
<path d="M190.692 46.4687C190.589 46.4363 190.761 45.7208 191.081 44.8517C191.401 43.9826 191.749 43.3277 191.855 43.36C191.962 43.3924 191.786 44.1079 191.466 44.977C191.146 45.8461 190.798 46.497 190.692 46.4687Z" fill="#249623"/>
<path d="M263.894 44.375C263.817 44.7255 263.708 45.0702 263.569 45.4058C263.333 46.0567 263.008 47.0228 262.619 48.183C260.586 54.3077 259.307 60.6035 258.802 66.9641C258.705 68.1769 258.64 69.1713 258.603 69.8545C258.603 70.2109 258.567 70.5666 258.496 70.9176C258.446 70.5651 258.429 70.2095 258.445 69.8545C258.445 69.1673 258.445 68.1728 258.515 66.948C258.865 60.552 260.152 54.2213 262.345 48.1102C262.772 46.9379 263.138 46.0001 263.421 45.3614C263.544 45.0208 263.702 44.6907 263.894 44.375Z" fill="#249623"/>
<path d="M260.602 54.1372C260.514 54.0807 261.335 53.0094 262.457 51.7522C263.579 50.495 264.525 49.5167 264.613 49.5774C264.701 49.638 263.88 50.7052 262.758 51.9624C261.636 53.2196 260.69 54.1979 260.602 54.1372Z" fill="#249623"/>
<path d="M260.864 51.425C260.758 51.4452 260.47 50.7297 260.224 49.808C259.979 48.8864 259.867 48.1466 259.974 48.1264C260.081 48.1062 260.373 48.8217 260.619 49.7434C260.864 50.665 260.966 51.4008 260.864 51.425Z" fill="#249623"/>
<path d="M263.001 48.1907C262.908 48.1341 263.335 47.4994 263.928 46.7758C264.522 46.0522 265.106 45.5146 265.199 45.5631C265.292 45.6116 264.865 46.2544 264.271 46.978C263.678 47.7015 263.089 48.2473 263.001 48.1907Z" fill="#249623"/>
<path d="M227.018 45.6318C227.161 45.8192 227.274 46.0233 227.351 46.2382C227.546 46.6424 227.815 47.2286 228.103 47.9562C228.705 49.4156 229.461 51.457 230.157 53.749C230.852 56.0411 231.334 58.1432 231.654 59.6591C231.803 60.4231 231.909 61.0456 231.97 61.4741C232.023 61.696 232.04 61.9232 232.021 62.1492C231.752 61.3521 231.535 60.5423 231.371 59.7238C231.001 58.2079 230.444 56.126 229.772 53.842C229.099 51.558 228.381 49.5166 227.843 48.0411C227.513 47.2531 227.237 46.4485 227.018 45.6318Z" fill="#249623"/>
<path d="M236.15 48.3403C236.132 48.9852 236.051 49.6275 235.909 50.2605C235.7 51.5541 235.445 53.1306 235.172 54.8689C234.898 56.6071 234.68 58.1917 234.49 59.4894C234.433 60.1328 234.316 60.771 234.138 61.3974C234.087 60.7516 234.109 60.1032 234.203 59.4611C234.305 58.2726 234.49 56.6314 234.768 54.8244C235.046 53.0174 235.366 51.3924 235.631 50.2201C235.733 49.5802 235.907 48.9506 236.15 48.3403Z" fill="#249623"/>
<path d="M240.407 53.9718C240.509 54.0204 239.605 55.5888 238.789 57.61C237.973 59.6313 237.547 61.3412 237.426 61.325C237.306 61.3089 237.57 59.5464 238.409 57.4888C239.248 55.4312 240.319 53.9233 240.407 53.9718Z" fill="#249623"/>
<path d="M271.924 52.6016C271.974 52.8238 271.989 53.0508 271.97 53.2767C271.97 53.7092 271.97 54.3358 271.919 55.1119C271.841 56.6602 271.655 58.8027 271.303 61.1513C270.95 63.5 270.496 65.598 270.106 67.122C269.916 67.8779 269.745 68.4883 269.61 68.9088C269.563 69.1313 269.482 69.3474 269.369 69.5515C269.464 68.7179 269.619 67.8903 269.833 67.0735C270.143 65.5495 270.552 63.4353 270.904 61.1028C271.256 58.7703 271.488 56.6561 271.637 55.0958C271.674 54.26 271.77 53.4271 271.924 52.6016Z" fill="#249623"/>
<path d="M279.205 58.1396C278.909 58.7324 278.555 59.3018 278.147 59.8415C277.392 60.9694 276.474 62.3438 275.463 63.8839L272.824 67.9264C272.495 68.5055 272.109 69.0587 271.67 69.5797C271.905 68.9655 272.208 68.3725 272.574 67.8092C273.182 66.742 274.067 65.2826 275.11 63.702C276.154 62.1214 277.151 60.7228 277.892 59.7243C278.268 59.1594 278.708 58.6285 279.205 58.1396Z" fill="#249623"/>
<path d="M280.701 64.7404C280.78 64.8212 279.259 65.9531 277.627 67.5701C275.995 69.1871 274.845 70.6181 274.752 70.5615C274.659 70.5049 275.656 68.9445 277.325 67.3276C278.995 65.7106 280.641 64.6676 280.701 64.7404Z" fill="#249623"/>
<path d="M286.365 82.5434C286.365 82.5434 254.261 61.1185 223.079 60.0796C221.391 60.2009 219.615 60.4192 217.77 60.7102C217.77 60.7102 256.037 72.4535 266.149 82.5394L286.365 82.5434Z" fill="#249623"/>
<path d="M243.422 82.1756C243.422 82.1756 219.505 66.204 196.275 65.4399C195.014 65.5329 193.693 65.6946 192.32 65.9129C192.32 65.9129 220.827 74.6567 228.362 82.1756H243.422Z" fill="#249623"/>
<path d="M299.173 81.4204C299.119 81.389 299.068 81.3539 299.02 81.3153L298.58 80.9919C298.185 80.7089 297.652 80.2562 296.855 79.7428C294.636 78.2207 292.314 76.8181 289.9 75.5427C286.798 73.8772 282.944 71.9934 278.419 70.0571C273.378 67.873 268.21 65.9179 262.937 64.1996C258.411 62.4128 253.163 61.2203 247.608 60.4765C241.794 59.7423 235.906 59.5634 230.049 59.9429C222.458 60.3087 214.912 61.1967 207.482 62.5988C200.475 63.9651 194.012 65.6428 188.494 67.7691C184.341 69.1358 180.311 70.7722 176.439 72.6645C173.464 74.1026 170.584 75.6829 167.81 77.3982C165.514 78.8251 163.79 80.0298 162.64 80.8747C162.06 81.2789 161.633 81.6346 161.337 81.8489C161.04 82.0631 160.873 82.1763 160.873 82.1763C162.994 80.3989 165.265 78.7625 167.666 77.2809C170.43 75.5414 173.305 73.9394 176.276 72.4826C180.146 70.5678 184.176 68.9111 188.332 67.5265C193.896 65.3679 200.346 63.6741 207.37 62.2956C214.818 60.8807 222.382 59.9859 229.993 59.6195C242.137 58.8717 253.849 60.3795 263.044 63.9369C268.322 65.6663 273.491 67.6377 278.53 69.8429C283.056 71.8034 286.904 73.7074 289.992 75.4012C292.406 76.6906 294.72 78.1166 296.92 79.67C297.699 80.1955 298.232 80.6604 298.612 80.9515L299.034 81.2951C299.133 81.3759 299.179 81.4177 299.173 81.4204Z" fill="#249623"/>
</svg>
