<svg width="462" height="378" viewBox="0 0 462 378" fill="none" xmlns="http://www.w3.org/2000/svg">
<path d="M0 16.9243C0 8.08774 7.16344 0.924316 16 0.924316H446C454.837 0.924316 462 8.08776 462 16.9243V361.849C462 370.685 454.837 377.849 446 377.849H16C7.16344 377.849 0 370.685 0 361.849V16.9243Z" fill="white"/>
<rect x="24" y="20.9243" width="95.9463" height="93.9245" rx="46.9623" fill="#20761F"/>
<path d="M68.0727 47.3867C67.5204 47.3867 67.0727 47.8344 67.0727 48.3867V51.2867H64.2227C63.427 51.2867 62.6639 51.6028 62.1013 52.1654C61.5387 52.728 61.2227 53.4911 61.2227 54.2867V85.3867C61.2227 86.1824 61.5387 86.9454 62.1013 87.508C62.6639 88.0707 63.427 88.3867 64.2227 88.3867H71.9727H79.7227C80.5183 88.3867 81.2814 88.0707 81.844 87.508C82.4066 86.9454 82.7227 86.1824 82.7227 85.3867V54.2867C82.7227 53.4911 82.4066 52.728 81.844 52.1654C81.2814 51.6028 80.5183 51.2867 79.7227 51.2867H76.8727V48.3867C76.8727 47.8344 76.4249 47.3867 75.8727 47.3867H68.0727Z" stroke="white" stroke-width="2" stroke-linecap="round" stroke-linejoin="round"/>
<path d="M73.9727 68.2339V58.5039L65.9727 71.7739H69.9727V81.5039L77.9727 68.2339H73.9727Z" stroke="white" stroke-linejoin="round"/>
<path d="M50.028 259.849H42.2958V201.803H25.089V195.922H28.9007C36.9595 195.922 40.8801 193.744 43.7116 186.883H50.028V259.849ZM109.072 259.849L86.0568 199.192H85.6818C85.8068 200.474 85.9162 202.036 86.01 203.88C86.1037 205.724 86.1818 207.739 86.2443 209.927C86.3068 212.083 86.3381 214.286 86.3381 216.536V259.849H78.9318V191.317H90.7443L112.447 248.317H112.776L134.807 191.317H146.526V259.849H138.651V215.974C138.651 213.942 138.682 211.911 138.744 209.88C138.807 207.817 138.885 205.88 138.979 204.067C139.072 202.224 139.166 200.63 139.26 199.286H138.885L115.588 259.849H109.072ZM243.135 191.317L224.807 259.849H216.791L203.197 213.724C202.791 212.411 202.401 211.099 202.026 209.786C201.682 208.442 201.354 207.177 201.041 205.989C200.729 204.771 200.463 203.708 200.244 202.802C200.057 201.864 199.916 201.161 199.822 200.692C199.76 201.161 199.635 201.849 199.447 202.755C199.291 203.661 199.072 204.708 198.791 205.896C198.541 207.083 198.229 208.349 197.854 209.692C197.51 211.036 197.135 212.396 196.729 213.771L183.51 259.849H175.494L157.307 191.317H165.604L176.619 234.302C176.994 235.739 177.338 237.161 177.651 238.567C177.994 239.942 178.291 241.286 178.541 242.599C178.822 243.911 179.072 245.192 179.291 246.442C179.51 247.692 179.713 248.911 179.901 250.099C180.057 248.88 180.26 247.614 180.51 246.302C180.76 244.958 181.026 243.599 181.307 242.224C181.619 240.849 181.947 239.458 182.291 238.052C182.666 236.646 183.057 235.239 183.463 233.833L195.791 191.317H203.994L216.838 234.161C217.276 235.63 217.682 237.083 218.057 238.521C218.432 239.958 218.76 241.364 219.041 242.739C219.354 244.083 219.619 245.38 219.838 246.63C220.088 247.849 220.307 249.005 220.494 250.099C220.713 248.567 220.979 246.958 221.291 245.271C221.604 243.583 221.963 241.817 222.369 239.974C222.807 238.13 223.276 236.224 223.776 234.255L234.791 191.317H243.135Z" fill="#20761F"/>
<path d="M34.9978 349.849C33.2418 349.854 31.548 349.199 30.2523 348.014C28.9566 346.829 28.1535 345.2 28.0025 343.451C27.8515 341.701 28.3635 339.959 29.4369 338.569C30.5104 337.18 32.0669 336.244 33.7978 335.949C39.4978 334.849 40.9978 334.329 42.9978 331.849C43.9978 333.849 44.9978 336.029 44.9978 339.849C44.9978 345.349 40.2178 349.849 34.9978 349.849Z" stroke="black" stroke-width="2" stroke-linecap="round" stroke-linejoin="round"/>
<path d="M26 350.849C26 347.849 27.85 345.489 31.08 344.849C33.5 344.369 36 342.849 37 341.849" stroke="black" stroke-width="2" stroke-linecap="round" stroke-linejoin="round"/>
<path d="M60.771 351.849V335.749H65.969C67.2263 335.749 68.2537 335.963 69.051 336.393C69.8483 336.807 70.4387 337.366 70.822 338.072C71.2053 338.777 71.397 339.574 71.397 340.464C71.397 341.322 71.1977 342.112 70.799 342.833C70.4157 343.553 69.8177 344.128 69.005 344.558C68.1923 344.987 67.1497 345.202 65.877 345.202H62.703V351.849H60.771ZM69.281 351.849L65.739 344.65H67.901L71.558 351.849H69.281ZM62.703 343.684H65.831C67.0577 343.684 67.9547 343.385 68.522 342.787C69.1047 342.189 69.396 341.422 69.396 340.487C69.396 339.536 69.1123 338.785 68.545 338.233C67.993 337.665 67.0807 337.382 65.808 337.382H62.703V343.684ZM78.6968 352.125C77.6235 352.125 76.6728 351.864 75.8448 351.343C75.0168 350.821 74.3651 350.085 73.8898 349.135C73.4298 348.184 73.1998 347.072 73.1998 345.8C73.1998 344.527 73.4298 343.415 73.8898 342.465C74.3651 341.514 75.0168 340.778 75.8448 340.257C76.6881 339.735 77.6541 339.475 78.7428 339.475C79.9081 339.475 80.8818 339.735 81.6638 340.257C82.4458 340.778 83.0361 341.476 83.4348 342.35C83.8335 343.224 84.0328 344.182 84.0328 345.225C84.0328 345.378 84.0328 345.531 84.0328 345.685C84.0328 345.838 84.0251 346.022 84.0098 346.237H74.6488V344.742H82.1468C82.1161 343.561 81.7711 342.664 81.1118 342.051C80.4678 341.422 79.6628 341.108 78.6968 341.108C78.0528 341.108 77.4548 341.269 76.9028 341.591C76.3661 341.897 75.9291 342.357 75.5918 342.971C75.2545 343.584 75.0858 344.351 75.0858 345.271V345.915C75.0858 346.927 75.2545 347.778 75.5918 348.468C75.9291 349.142 76.3661 349.648 76.9028 349.986C77.4548 350.323 78.0528 350.492 78.6968 350.492C79.5555 350.492 80.2301 350.331 80.7208 350.009C81.2115 349.671 81.5718 349.196 81.8018 348.583H83.7108C83.5268 349.257 83.2048 349.863 82.7448 350.4C82.3001 350.936 81.7328 351.358 81.0428 351.665C80.3681 351.971 79.5861 352.125 78.6968 352.125ZM86.7101 351.849V339.751H88.4581L88.5501 341.66C88.9028 340.97 89.4088 340.433 90.0681 340.05C90.7428 339.666 91.5171 339.475 92.3911 339.475C93.2805 339.475 94.0548 339.643 94.7141 339.981C95.3735 340.318 95.8871 340.832 96.2551 341.522C96.6231 342.212 96.8071 343.086 96.8071 344.144V351.849H94.8751V344.351C94.8751 343.277 94.6068 342.472 94.0701 341.936C93.5488 341.399 92.8435 341.131 91.9541 341.131C91.3561 341.131 90.8041 341.276 90.2981 341.568C89.7921 341.844 89.3858 342.258 89.0791 342.81C88.7878 343.362 88.6421 344.036 88.6421 344.834V351.849H86.7101ZM105.021 352.125C103.948 352.125 102.997 351.864 102.169 351.343C101.341 350.821 100.689 350.085 100.214 349.135C99.754 348.184 99.524 347.072 99.524 345.8C99.524 344.527 99.754 343.415 100.214 342.465C100.689 341.514 101.341 340.778 102.169 340.257C103.012 339.735 103.978 339.475 105.067 339.475C106.232 339.475 107.206 339.735 107.988 340.257C108.77 340.778 109.36 341.476 109.759 342.35C110.158 343.224 110.357 344.182 110.357 345.225C110.357 345.378 110.357 345.531 110.357 345.685C110.357 345.838 110.349 346.022 110.334 346.237H100.973V344.742H108.471C108.44 343.561 108.095 342.664 107.436 342.051C106.792 341.422 105.987 341.108 105.021 341.108C104.377 341.108 103.779 341.269 103.227 341.591C102.69 341.897 102.253 342.357 101.916 342.971C101.579 343.584 101.41 344.351 101.41 345.271V345.915C101.41 346.927 101.579 347.778 101.916 348.468C102.253 349.142 102.69 349.648 103.227 349.986C103.779 350.323 104.377 350.492 105.021 350.492C105.88 350.492 106.554 350.331 107.045 350.009C107.536 349.671 107.896 349.196 108.126 348.583H110.035C109.851 349.257 109.529 349.863 109.069 350.4C108.624 350.936 108.057 351.358 107.367 351.665C106.692 351.971 105.91 352.125 105.021 352.125ZM115.092 351.849L111.527 339.751H113.459L116.104 349.388L118.91 339.751H121.095L123.924 349.365L126.546 339.751H128.501L124.936 351.849H122.958L120.014 341.775L117.07 351.849H115.092ZM134.079 352.125C133.159 352.125 132.392 351.956 131.779 351.619C131.165 351.266 130.705 350.806 130.399 350.239C130.092 349.656 129.939 349.035 129.939 348.376C129.939 347.578 130.138 346.904 130.537 346.352C130.951 345.784 131.526 345.355 132.262 345.064C132.998 344.772 133.856 344.627 134.838 344.627H137.851C137.851 343.845 137.759 343.193 137.575 342.672C137.391 342.15 137.092 341.759 136.678 341.499C136.264 341.238 135.712 341.108 135.022 341.108C134.332 341.108 133.741 341.284 133.251 341.637C132.76 341.974 132.453 342.48 132.331 343.155H130.353C130.445 342.357 130.713 341.69 131.158 341.154C131.602 340.602 132.162 340.188 132.837 339.912C133.527 339.62 134.255 339.475 135.022 339.475C136.11 339.475 137.007 339.674 137.713 340.073C138.418 340.456 138.939 341 139.277 341.706C139.614 342.396 139.783 343.216 139.783 344.167V351.849H138.058L137.943 349.779C137.789 350.101 137.59 350.407 137.345 350.699C137.115 350.975 136.839 351.22 136.517 351.435C136.195 351.649 135.827 351.818 135.413 351.941C135.014 352.063 134.569 352.125 134.079 352.125ZM134.355 350.492C134.861 350.492 135.328 350.377 135.758 350.147C136.187 349.917 136.555 349.61 136.862 349.227C137.184 348.828 137.429 348.383 137.598 347.893C137.766 347.402 137.851 346.888 137.851 346.352V346.122H134.999C134.278 346.122 133.688 346.214 133.228 346.398C132.783 346.582 132.461 346.842 132.262 347.18C132.062 347.502 131.963 347.87 131.963 348.284C131.963 348.728 132.055 349.119 132.239 349.457C132.423 349.779 132.691 350.032 133.044 350.216C133.412 350.4 133.849 350.492 134.355 350.492ZM149.001 352.125C148.265 352.125 147.628 352.017 147.092 351.803C146.57 351.573 146.126 351.289 145.758 350.952C145.405 350.614 145.114 350.285 144.884 349.963L144.723 351.849H142.975V335.289H144.907V341.66C145.275 340.939 145.819 340.395 146.54 340.027C147.26 339.659 148.065 339.475 148.955 339.475C150.059 339.475 151.025 339.743 151.853 340.28C152.681 340.816 153.325 341.56 153.785 342.511C154.245 343.446 154.475 344.527 154.475 345.754C154.475 346.965 154.245 348.054 153.785 349.02C153.325 349.986 152.681 350.745 151.853 351.297C151.04 351.849 150.089 352.125 149.001 352.125ZM148.748 350.446C149.468 350.446 150.105 350.262 150.657 349.894C151.224 349.51 151.669 348.974 151.991 348.284C152.328 347.578 152.497 346.75 152.497 345.8C152.497 344.849 152.328 344.029 151.991 343.339C151.669 342.633 151.224 342.097 150.657 341.729C150.105 341.345 149.468 341.154 148.748 341.154C147.981 341.154 147.314 341.345 146.747 341.729C146.179 342.097 145.742 342.633 145.436 343.339C145.129 344.029 144.976 344.849 144.976 345.8C144.976 346.75 145.129 347.578 145.436 348.284C145.742 348.974 146.179 349.51 146.747 349.894C147.314 350.262 147.981 350.446 148.748 350.446ZM157.282 351.849V335.289H159.214V351.849H157.282ZM167.485 352.125C166.412 352.125 165.461 351.864 164.633 351.343C163.805 350.821 163.153 350.085 162.678 349.135C162.218 348.184 161.988 347.072 161.988 345.8C161.988 344.527 162.218 343.415 162.678 342.465C163.153 341.514 163.805 340.778 164.633 340.257C165.476 339.735 166.442 339.475 167.531 339.475C168.696 339.475 169.67 339.735 170.452 340.257C171.234 340.778 171.824 341.476 172.223 342.35C172.622 343.224 172.821 344.182 172.821 345.225C172.821 345.378 172.821 345.531 172.821 345.685C172.821 345.838 172.813 346.022 172.798 346.237H163.437V344.742H170.935C170.904 343.561 170.559 342.664 169.9 342.051C169.256 341.422 168.451 341.108 167.485 341.108C166.841 341.108 166.243 341.269 165.691 341.591C165.154 341.897 164.717 342.357 164.38 342.971C164.043 343.584 163.874 344.351 163.874 345.271V345.915C163.874 346.927 164.043 347.778 164.38 348.468C164.717 349.142 165.154 349.648 165.691 349.986C166.243 350.323 166.841 350.492 167.485 350.492C168.344 350.492 169.018 350.331 169.509 350.009C170 349.671 170.36 349.196 170.59 348.583H172.499C172.315 349.257 171.993 349.863 171.533 350.4C171.088 350.936 170.521 351.358 169.831 351.665C169.156 351.971 168.374 352.125 167.485 352.125ZM181.813 351.849V335.749H191.772V337.336H183.745V342.948H191.082V344.512H183.745V350.262H191.772V351.849H181.813ZM194.77 351.849V339.751H196.518L196.61 341.66C196.962 340.97 197.468 340.433 198.128 340.05C198.802 339.666 199.577 339.475 200.451 339.475C201.34 339.475 202.114 339.643 202.774 339.981C203.433 340.318 203.947 340.832 204.315 341.522C204.683 342.212 204.867 343.086 204.867 344.144V351.849H202.935V344.351C202.935 343.277 202.666 342.472 202.13 341.936C201.608 341.399 200.903 341.131 200.014 341.131C199.416 341.131 198.864 341.276 198.358 341.568C197.852 341.844 197.445 342.258 197.139 342.81C196.847 343.362 196.702 344.036 196.702 344.834V351.849H194.77ZM213.081 352.125C212.007 352.125 211.057 351.864 210.229 351.343C209.401 350.821 208.749 350.085 208.274 349.135C207.814 348.184 207.584 347.072 207.584 345.8C207.584 344.527 207.814 343.415 208.274 342.465C208.749 341.514 209.401 340.778 210.229 340.257C211.072 339.735 212.038 339.475 213.127 339.475C214.292 339.475 215.266 339.735 216.048 340.257C216.83 340.778 217.42 341.476 217.819 342.35C218.217 343.224 218.417 344.182 218.417 345.225C218.417 345.378 218.417 345.531 218.417 345.685C218.417 345.838 218.409 346.022 218.394 346.237H209.033V344.742H216.531C216.5 343.561 216.155 342.664 215.496 342.051C214.852 341.422 214.047 341.108 213.081 341.108C212.437 341.108 211.839 341.269 211.287 341.591C210.75 341.897 210.313 342.357 209.976 342.971C209.638 343.584 209.47 344.351 209.47 345.271V345.915C209.47 346.927 209.638 347.778 209.976 348.468C210.313 349.142 210.75 349.648 211.287 349.986C211.839 350.323 212.437 350.492 213.081 350.492C213.939 350.492 214.614 350.331 215.105 350.009C215.595 349.671 215.956 349.196 216.186 348.583H218.095C217.911 349.257 217.589 349.863 217.129 350.4C216.684 350.936 216.117 351.358 215.427 351.665C214.752 351.971 213.97 352.125 213.081 352.125ZM221.094 351.849V339.751H222.842L222.98 341.959C223.256 341.407 223.616 340.947 224.061 340.579C224.506 340.211 225.042 339.935 225.671 339.751C226.315 339.567 227.036 339.475 227.833 339.475V341.499H226.637C226.177 341.499 225.732 341.56 225.303 341.683C224.874 341.805 224.483 342.005 224.13 342.281C223.793 342.557 223.524 342.932 223.325 343.408C223.126 343.883 223.026 344.481 223.026 345.202V351.849H221.094ZM234.524 357.185C233.436 357.185 232.477 357.047 231.649 356.771C230.837 356.51 230.2 356.104 229.74 355.552C229.296 355 229.073 354.317 229.073 353.505C229.073 353.121 229.142 352.723 229.28 352.309C229.434 351.895 229.687 351.496 230.039 351.113C230.407 350.729 230.921 350.384 231.58 350.078L233.052 350.86C232.178 351.197 231.611 351.588 231.35 352.033C231.09 352.477 230.959 352.907 230.959 353.321C230.959 353.827 231.105 354.248 231.396 354.586C231.703 354.923 232.125 355.176 232.661 355.345C233.198 355.513 233.819 355.598 234.524 355.598C235.214 355.598 235.805 355.506 236.295 355.322C236.801 355.153 237.185 354.9 237.445 354.563C237.721 354.241 237.859 353.857 237.859 353.413C237.859 352.769 237.652 352.263 237.238 351.895C236.824 351.542 236.019 351.335 234.823 351.274C233.888 351.212 233.106 351.128 232.477 351.021C231.849 350.913 231.327 350.791 230.913 350.653C230.515 350.499 230.177 350.331 229.901 350.147C229.641 349.963 229.403 349.771 229.188 349.572V349.043L231.465 346.858L233.282 347.456L230.798 349.503L231.097 348.629C231.266 348.751 231.427 348.866 231.58 348.974C231.734 349.081 231.941 349.181 232.201 349.273C232.477 349.349 232.853 349.426 233.328 349.503C233.819 349.579 234.463 349.648 235.26 349.71C236.364 349.786 237.246 349.97 237.905 350.262C238.565 350.553 239.04 350.959 239.331 351.481C239.623 351.987 239.768 352.608 239.768 353.344C239.768 353.988 239.584 354.601 239.216 355.184C238.864 355.766 238.296 356.242 237.514 356.61C236.748 356.993 235.751 357.185 234.524 357.185ZM234.501 348.077C233.52 348.077 232.684 347.893 231.994 347.525C231.32 347.141 230.806 346.628 230.453 345.984C230.101 345.324 229.924 344.588 229.924 343.776C229.924 342.963 230.101 342.235 230.453 341.591C230.821 340.947 231.343 340.433 232.017 340.05C232.707 339.666 233.535 339.475 234.501 339.475C235.498 339.475 236.334 339.666 237.008 340.05C237.683 340.433 238.197 340.947 238.549 341.591C238.902 342.235 239.078 342.963 239.078 343.776C239.078 344.588 238.902 345.324 238.549 345.984C238.197 346.628 237.683 347.141 237.008 347.525C236.334 347.893 235.498 348.077 234.501 348.077ZM234.501 346.49C235.36 346.49 236.027 346.267 236.502 345.823C236.978 345.363 237.215 344.68 237.215 343.776C237.215 342.871 236.978 342.196 236.502 341.752C236.027 341.307 235.36 341.085 234.501 341.085C233.689 341.085 233.022 341.307 232.5 341.752C231.994 342.196 231.741 342.871 231.741 343.776C231.741 344.68 231.987 345.363 232.477 345.823C232.983 346.267 233.658 346.49 234.501 346.49ZM236.525 341.384L235.95 339.751H240.688V341.2L236.525 341.384ZM244.373 356.909L247.11 350.561H246.443L241.912 339.751H244.005L247.754 349.066L251.664 339.751H253.665L246.374 356.909H244.373ZM262.179 351.849V339.751H264.111V351.849H262.179ZM263.145 337.451C262.762 337.451 262.44 337.328 262.179 337.083C261.934 336.822 261.811 336.5 261.811 336.117C261.811 335.733 261.934 335.427 262.179 335.197C262.44 334.951 262.762 334.829 263.145 334.829C263.513 334.829 263.828 334.951 264.088 335.197C264.349 335.427 264.479 335.733 264.479 336.117C264.479 336.5 264.349 336.822 264.088 337.083C263.828 337.328 263.513 337.451 263.145 337.451ZM267.543 351.849V339.751H269.291L269.383 341.66C269.736 340.97 270.242 340.433 270.901 340.05C271.576 339.666 272.35 339.475 273.224 339.475C274.113 339.475 274.888 339.643 275.547 339.981C276.206 340.318 276.72 340.832 277.088 341.522C277.456 342.212 277.64 343.086 277.64 344.144V351.849H275.708V344.351C275.708 343.277 275.44 342.472 274.903 341.936C274.382 341.399 273.676 341.131 272.787 341.131C272.189 341.131 271.637 341.276 271.131 341.568C270.625 341.844 270.219 342.258 269.912 342.81C269.621 343.362 269.475 344.036 269.475 344.834V351.849H267.543ZM287.155 351.849V335.749H292.33C293.618 335.749 294.676 335.963 295.504 336.393C296.332 336.822 296.945 337.405 297.344 338.141C297.742 338.861 297.942 339.682 297.942 340.602C297.942 341.506 297.742 342.327 297.344 343.063C296.945 343.799 296.332 344.381 295.504 344.811C294.691 345.24 293.633 345.455 292.33 345.455H289.087V351.849H287.155ZM289.087 343.822H292.307C293.656 343.822 294.599 343.53 295.136 342.948C295.688 342.35 295.964 341.568 295.964 340.602C295.964 339.59 295.688 338.8 295.136 338.233C294.599 337.65 293.656 337.359 292.307 337.359H289.087V343.822ZM300.632 351.849V339.751H302.564V351.849H300.632ZM301.598 337.451C301.215 337.451 300.893 337.328 300.632 337.083C300.387 336.822 300.264 336.5 300.264 336.117C300.264 335.733 300.387 335.427 300.632 335.197C300.893 334.951 301.215 334.829 301.598 334.829C301.966 334.829 302.281 334.951 302.541 335.197C302.802 335.427 302.932 335.733 302.932 336.117C302.932 336.5 302.802 336.822 302.541 337.083C302.281 337.328 301.966 337.451 301.598 337.451ZM305.996 356.909V339.751H307.744L307.905 341.637C308.151 341.238 308.457 340.878 308.825 340.556C309.209 340.234 309.661 339.973 310.182 339.774C310.719 339.574 311.332 339.475 312.022 339.475C313.111 339.475 314.062 339.751 314.874 340.303C315.702 340.855 316.346 341.606 316.806 342.557C317.266 343.507 317.496 344.596 317.496 345.823C317.496 347.034 317.266 348.115 316.806 349.066C316.346 350.016 315.702 350.768 314.874 351.32C314.046 351.856 313.088 352.125 311.999 352.125C311.064 352.125 310.244 351.933 309.538 351.55C308.833 351.166 308.296 350.63 307.928 349.94V356.909H305.996ZM311.769 350.446C312.49 350.446 313.126 350.262 313.678 349.894C314.246 349.51 314.69 348.974 315.012 348.284C315.35 347.578 315.518 346.75 315.518 345.8C315.518 344.849 315.35 344.029 315.012 343.339C314.69 342.633 314.246 342.097 313.678 341.729C313.126 341.345 312.49 341.154 311.769 341.154C311.003 341.154 310.336 341.345 309.768 341.729C309.201 342.097 308.764 342.633 308.457 343.339C308.151 344.029 307.997 344.849 307.997 345.8C307.997 346.75 308.151 347.578 308.457 348.284C308.764 348.974 309.201 349.51 309.768 349.894C310.336 350.262 311.003 350.446 311.769 350.446ZM325.318 352.125C324.245 352.125 323.294 351.864 322.466 351.343C321.638 350.821 320.986 350.085 320.511 349.135C320.051 348.184 319.821 347.072 319.821 345.8C319.821 344.527 320.051 343.415 320.511 342.465C320.986 341.514 321.638 340.778 322.466 340.257C323.309 339.735 324.275 339.475 325.364 339.475C326.529 339.475 327.503 339.735 328.285 340.257C329.067 340.778 329.657 341.476 330.056 342.35C330.455 343.224 330.654 344.182 330.654 345.225C330.654 345.378 330.654 345.531 330.654 345.685C330.654 345.838 330.646 346.022 330.631 346.237H321.27V344.742H328.768C328.737 343.561 328.392 342.664 327.733 342.051C327.089 341.422 326.284 341.108 325.318 341.108C324.674 341.108 324.076 341.269 323.524 341.591C322.987 341.897 322.55 342.357 322.213 342.971C321.876 343.584 321.707 344.351 321.707 345.271V345.915C321.707 346.927 321.876 347.778 322.213 348.468C322.55 349.142 322.987 349.648 323.524 349.986C324.076 350.323 324.674 350.492 325.318 350.492C326.177 350.492 326.851 350.331 327.342 350.009C327.833 349.671 328.193 349.196 328.423 348.583H330.332C330.148 349.257 329.826 349.863 329.366 350.4C328.921 350.936 328.354 351.358 327.664 351.665C326.989 351.971 326.207 352.125 325.318 352.125ZM333.331 351.849V335.289H335.263V351.849H333.331ZM338.704 351.849V339.751H340.636V351.849H338.704ZM339.67 337.451C339.286 337.451 338.964 337.328 338.704 337.083C338.458 336.822 338.336 336.5 338.336 336.117C338.336 335.733 338.458 335.427 338.704 335.197C338.964 334.951 339.286 334.829 339.67 334.829C340.038 334.829 340.352 334.951 340.613 335.197C340.873 335.427 341.004 335.733 341.004 336.117C341.004 336.5 340.873 336.822 340.613 337.083C340.352 337.328 340.038 337.451 339.67 337.451ZM344.068 351.849V339.751H345.816L345.908 341.66C346.26 340.97 346.766 340.433 347.426 340.05C348.1 339.666 348.875 339.475 349.749 339.475C350.638 339.475 351.412 339.643 352.072 339.981C352.731 340.318 353.245 340.832 353.613 341.522C353.981 342.212 354.165 343.086 354.165 344.144V351.849H352.233V344.351C352.233 343.277 351.964 342.472 351.428 341.936C350.906 341.399 350.201 341.131 349.312 341.131C348.714 341.131 348.162 341.276 347.656 341.568C347.15 341.844 346.743 342.258 346.437 342.81C346.145 343.362 346 344.036 346 344.834V351.849H344.068ZM362.378 352.125C361.305 352.125 360.354 351.864 359.526 351.343C358.698 350.821 358.047 350.085 357.571 349.135C357.111 348.184 356.881 347.072 356.881 345.8C356.881 344.527 357.111 343.415 357.571 342.465C358.047 341.514 358.698 340.778 359.526 340.257C360.37 339.735 361.336 339.475 362.424 339.475C363.59 339.475 364.563 339.735 365.345 340.257C366.127 340.778 366.718 341.476 367.116 342.35C367.515 343.224 367.714 344.182 367.714 345.225C367.714 345.378 367.714 345.531 367.714 345.685C367.714 345.838 367.707 346.022 367.691 346.237H358.33V344.742H365.828C365.798 343.561 365.453 342.664 364.793 342.051C364.149 341.422 363.344 341.108 362.378 341.108C361.734 341.108 361.136 341.269 360.584 341.591C360.048 341.897 359.611 342.357 359.273 342.971C358.936 343.584 358.767 344.351 358.767 345.271V345.915C358.767 346.927 358.936 347.778 359.273 348.468C359.611 349.142 360.048 349.648 360.584 349.986C361.136 350.323 361.734 350.492 362.378 350.492C363.237 350.492 363.912 350.331 364.402 350.009C364.893 349.671 365.253 349.196 365.483 348.583H367.392C367.208 349.257 366.886 349.863 366.426 350.4C365.982 350.936 365.414 351.358 364.724 351.665C364.05 351.971 363.268 352.125 362.378 352.125Z" fill="black"/>
</svg>
