<svg width="462" height="376" viewBox="0 0 462 376" fill="none" xmlns="http://www.w3.org/2000/svg">
<path d="M0 16.8491C0 8.01257 7.16344 0.849121 16 0.849121H446C454.837 0.849121 462 8.01257 462 16.8491V359.849C462 368.686 454.837 375.849 446 375.849H16C7.16344 375.849 0 368.686 0 359.849V16.8491Z" fill="white"/>
<rect x="24" y="20.8491" width="95.9463" height="92" rx="46" fill="#20761F"/>
<path d="M78.133 48.3117C74.5366 48.887 72.0606 48.5803 69.4393 49.8288H67.1324C67.1618 49.8571 67.1918 49.8841 67.2208 49.9129C68.0477 50.7396 68.7716 51.8284 69.3985 53.1264L69.5286 53.0744C72.4242 54.4022 73.7289 56.7219 74.8449 59.097C73.2432 57.5886 71.7749 55.7952 70.0314 54.5897C71.0796 57.2982 71.7756 60.6924 71.9894 64.441L72.004 64.3923L73.4505 70.9622L72.0387 68.2561C71.9006 72.7367 71.0795 76.7739 69.7866 79.8301C69.0757 81.5102 68.2238 82.8982 67.2208 83.9009C67.1918 83.9299 67.1618 83.9567 67.1324 83.985H75.6086C73.6369 84.5793 71.2363 84.837 69.2313 85.3677C72.5248 85.4336 76.5361 85.4077 79.4711 83.9852H80.2125C81.0085 83.9852 81.802 83.6122 82.606 82.8084C83.4101 82.0046 84.1855 80.7785 84.8414 79.2283C86.054 76.3622 86.8621 72.4025 86.9774 67.9962C87.528 68.6651 87.9776 69.459 88.3998 70.3461C88.1188 73.8323 87.4155 76.974 86.4015 79.493V83.0897L85.519 81.3836C84.9784 82.3778 84.3725 83.2268 83.6982 83.9009C83.6692 83.9299 83.6391 83.9567 83.6098 83.985H85.7049C86.501 83.985 87.2945 83.6122 88.0984 82.8084C88.6777 82.2293 89.242 81.4299 89.7576 80.4491L90.0668 82.7061L91.4464 75.8412C91.5901 75.2705 91.7199 74.6761 91.8363 74.0632L89.9654 76.1458L92.1648 71.9918C92.3714 70.3851 92.4846 68.6773 92.4846 66.9068C92.4846 62.9969 91.9371 59.3882 91.0352 56.5108C91.4522 57.0424 91.8607 57.6243 92.283 58.2421C91.7574 55.8745 90.5567 53.9357 89.1394 52.3103C88.8032 51.7986 88.4537 51.3606 88.0984 51.0055C87.2945 50.2017 86.501 49.8289 85.7049 49.8289H83.6099C83.6391 49.8572 83.6691 49.884 83.6983 49.913C84.7012 50.9157 85.5531 52.3036 86.2639 53.9837C87.6856 57.3439 88.5369 61.8894 88.5369 66.9068C88.5369 67.4257 88.5273 67.9391 88.5095 68.4469C88.125 67.2345 87.5765 66.1112 86.9514 65.0715C86.7693 60.9652 85.9851 57.289 84.8414 54.5856C84.1855 53.0353 83.4099 51.8092 82.606 51.0054C81.8022 50.2016 81.0086 49.8288 80.2125 49.8288H73.3691C74.8336 49.3428 76.8262 49.0193 78.1332 48.3115L78.133 48.3117ZM58.2426 49.8287C57.4466 49.8287 56.6531 50.2017 55.8491 51.0055C55.045 51.8093 54.2696 53.0354 53.6138 54.5856C53.2705 55.397 52.9598 56.297 52.6878 57.2692C52.3567 55.8475 52.4125 54.5104 52.3479 52.7867C51.5395 56.1673 51.6331 58.9744 51.7279 62.265C51.5561 63.7416 51.4629 65.2986 51.4629 66.9068C51.4629 71.7479 52.302 76.1278 53.6138 79.2282C53.7429 79.5336 53.8812 79.8351 54.0283 80.1323C53.2777 79.2043 52.6785 78.1682 51.9431 77.2294C53.0336 78.9249 53.7537 80.9236 55.3287 82.2227C55.5002 82.4369 55.6739 82.6332 55.849 82.8083C56.653 83.6121 57.4465 83.9849 58.2426 83.9849C59.0386 83.9849 59.8321 83.6121 60.6361 82.8083C61.4402 82.0045 62.2156 80.7784 62.8714 79.2282C63.0682 78.7631 63.2542 78.2687 63.4284 77.7488C62.3968 78.5438 61.0928 79.521 60.9135 79.521C60.6755 79.521 63.0032 76.852 64.0196 75.6986C64.4427 73.9809 64.7485 72.0657 64.9044 70.0234C64.8345 69.9482 64.763 69.8746 64.6898 69.8026L64.9194 69.8135C64.9881 68.8462 65.0224 67.8766 65.0224 66.9068C65.0224 66.5157 65.0164 66.1279 65.0056 65.7431C65.3277 66.6604 65.6559 67.6696 66.0041 68.8716C65.7017 66.2946 65.3093 63.3289 64.6488 61.4171C64.282 58.794 63.663 56.4567 62.8715 54.5856C62.2156 53.0353 61.44 51.8092 60.6361 51.0054C59.8323 50.2016 59.0387 49.8288 58.2426 49.8288V49.8287ZM61.6401 49.8287C61.6692 49.857 61.6993 49.884 61.7285 49.9128C62.7314 50.9157 63.5833 52.3036 64.2941 53.9837C65.7158 57.3439 66.5671 61.8894 66.5671 66.9068C66.5671 68.0434 66.523 69.1553 66.4389 70.2351C68.2477 72.5441 68.4557 75.0616 68.4872 77.5538C67.7317 75.7092 67.1723 73.697 66.2645 71.9824C65.899 74.9676 65.2169 77.6489 64.294 79.8301C63.5833 81.5102 62.7314 82.8982 61.7284 83.9009C61.6994 83.9299 61.6693 83.9567 61.64 83.985H63.7351C64.5312 83.985 65.3246 83.6122 66.1286 82.8084C66.9327 82.0046 67.7081 80.7785 68.364 79.2283C69.6755 76.1278 70.5148 71.7479 70.5148 66.9068C70.5148 64.6051 70.3248 62.4082 69.9848 60.4031C70.3562 60.8877 70.7225 61.4106 71.1 61.9628C70.7833 60.5359 70.2212 59.265 69.5145 58.124C69.1939 56.8204 68.8059 55.6301 68.364 54.5857C67.7081 53.0354 66.9326 51.8093 66.1287 51.0055C65.3248 50.2017 64.5312 49.8289 63.7352 49.8289H61.6401L61.6401 49.8287ZM79.5985 51.0718C81.7652 52.5145 82.5388 54.6133 83.1546 56.7376C81.6778 54.805 80.4509 52.4724 78.4531 51.3732L79.5985 51.0718ZM59.9793 52.2471L59.3142 54.5196C59.5444 54.6648 59.7718 54.8812 59.9924 55.1719C62.0643 57.9018 62.8943 65.7041 62.0246 71.9852C61.013 79.2919 58.2056 82.2012 55.9524 79.0252C54.9455 77.6061 54.1342 75.1364 53.6237 72.1305C54.1604 73.3014 54.9081 74.4399 55.3606 74.6315C55.6455 75.397 55.964 76.0397 56.3089 76.5256C58.1334 79.0974 60.4176 76.7295 61.226 70.8915C61.9088 65.9595 61.2541 59.8047 59.6559 57.699C58.3446 55.9714 56.714 57.7213 56.1831 61.933C55.7655 65.2465 56.2228 69.3521 57.3009 70.5867C58.0956 71.4966 59.078 70.3747 59.3331 67.8158C59.4167 66.9785 59.3932 65.9736 59.2774 65.1897C59.1613 64.4058 58.9773 63.8642 58.7072 63.6736C58.5783 63.5826 58.3857 63.6674 58.2628 63.8838C58.1401 64.1005 58.0926 64.2908 58.0901 64.6703L57.2192 64.6112C57.2289 63.2029 57.511 62.0688 57.8367 61.4943C58.1626 60.9198 58.5379 60.7466 58.898 61.0006C59.4489 61.3893 59.856 62.6094 60.0668 64.0338C60.251 65.2784 60.304 66.6953 60.2127 68.0524L60.1935 68.059C60.1978 68.101 60.2004 68.1427 60.2029 68.1842C60.1918 68.335 60.179 68.4855 60.1643 68.6359C60.1461 68.817 60.1253 68.9918 60.1032 69.1637C59.7723 70.3871 58.7189 71.3729 57.6764 72.2635C58.2286 72.4092 59.0366 71.7975 59.7594 70.9779C59.1116 73.427 57.9685 74.2671 57.0029 73.1612C55.4275 71.3573 54.7848 65.5919 55.3732 60.9233C55.8392 57.2262 56.9016 54.9528 58.0645 54.4195L59.9789 52.2474L59.9793 52.2471ZM54.0304 67.9358C54.1851 69.8227 54.4752 71.5791 54.8677 73.0613C53.9997 72.1171 53.5972 70.9532 53.3037 69.8195C53.2604 69.4248 53.2203 69.0259 53.187 68.6196L54.0304 67.9356V67.9358ZM80.3069 69.4938H81.415C80.5933 71.5214 78.7554 73.4092 76.6841 74.8215C78.0193 73.0774 79.7985 71.4444 80.3069 69.4938ZM82.1501 78.8181L82.4335 79.9678C80.9575 82.1118 78.8468 82.8527 76.7132 83.4353C78.6686 81.9888 81.0202 80.7984 82.1502 78.818L82.1501 78.8181Z" fill="white"/>
<path d="M56.875 254.849H49.1429V196.803H31.9361V190.923H35.7477C43.8066 190.923 47.7271 188.745 50.5586 181.884H56.875V254.849ZM100.965 255.938C80.1642 255.938 67.0958 241.89 67.0958 218.366C67.0958 194.952 80.1642 180.795 100.965 180.795C121.657 180.795 134.725 194.952 134.725 218.366C134.725 241.89 121.657 255.938 100.965 255.938ZM100.965 248.533C117.845 248.533 126.557 238.731 126.557 218.366C126.557 198.001 117.845 188.2 100.965 188.2C83.9759 188.2 75.2636 198.001 75.2636 218.366C75.2636 238.731 83.9759 248.533 100.965 248.533ZM144.026 264.433H141.739V259.75H143.917C145.333 259.75 146.095 259.423 146.095 257.463V254.849H141.848V239.712H151.431V257.354C151.431 262.146 148.6 264.433 144.026 264.433ZM192.427 255.938C171.626 255.938 158.558 241.89 158.558 218.366C158.558 194.952 171.626 180.795 192.427 180.795C213.119 180.795 226.187 194.952 226.187 218.366C226.187 241.89 213.119 255.938 192.427 255.938ZM192.427 248.533C209.307 248.533 218.019 238.731 218.019 218.366C218.019 198.001 209.307 188.2 192.427 188.2C175.438 188.2 166.726 198.001 166.726 218.366C166.726 238.731 175.438 248.533 192.427 248.533ZM267.723 255.938C246.923 255.938 233.854 241.89 233.854 218.366C233.854 194.952 246.923 180.795 267.723 180.795C288.415 180.795 301.484 194.952 301.484 218.366C301.484 241.89 288.415 255.938 267.723 255.938ZM267.723 248.533C284.604 248.533 293.316 238.731 293.316 218.366C293.316 198.001 284.604 188.2 267.723 188.2C250.735 188.2 242.022 198.001 242.022 218.366C242.022 238.731 250.735 248.533 267.723 248.533ZM343.02 255.938C322.22 255.938 309.151 241.89 309.151 218.366C309.151 194.952 322.22 180.795 343.02 180.795C363.712 180.795 376.78 194.952 376.78 218.366C376.78 241.89 363.712 255.938 343.02 255.938ZM343.02 248.533C359.9 248.533 368.612 238.731 368.612 218.366C368.612 198.001 359.9 188.2 343.02 188.2C326.031 188.2 317.319 198.001 317.319 218.366C317.319 238.731 326.031 248.533 343.02 248.533ZM409.387 239.603H402.417V221.634H384.666V215.099H402.417V197.13H409.387V215.099H427.138V221.634H409.387V239.603Z" fill="#20761F"/>
<path d="M36 337.849C37.6569 337.849 39 336.506 39 334.849C39 333.192 37.6569 331.849 36 331.849C34.3431 331.849 33 333.192 33 334.849C33 336.506 34.3431 337.849 36 337.849Z" stroke="black" stroke-width="2" stroke-linecap="round" stroke-linejoin="round"/>
<path d="M30.5027 337.849C30.0699 337.854 29.6503 337.998 29.3068 338.262C28.9633 338.525 28.7145 338.892 28.5977 339.309L26.1027 348.349C26.0271 348.642 26.0187 348.948 26.0783 349.244C26.1379 349.54 26.2639 349.819 26.4467 350.06C26.6296 350.3 26.8646 350.496 27.1341 350.633C27.4035 350.77 27.7005 350.844 28.0027 350.849H44.0027C44.3113 350.849 44.6158 350.777 44.8922 350.64C45.1686 350.503 45.4095 350.303 45.5959 350.057C45.7823 349.811 45.9093 349.525 45.9669 349.222C46.0244 348.919 46.011 348.606 45.9277 348.309L43.4027 339.349C43.2925 338.923 43.0446 338.544 42.6974 338.273C42.3503 338.002 41.9232 337.853 41.4827 337.849H30.5027Z" stroke="black" stroke-width="2" stroke-linecap="round" stroke-linejoin="round"/>
<path d="M60.52 349.849V335.336H55.713V333.749H67.259V335.336H62.452V349.849H60.52ZM72.747 350.125C71.6277 350.125 70.6387 349.864 69.78 349.343C68.9213 348.822 68.2543 348.086 67.779 347.135C67.3037 346.184 67.066 345.073 67.066 343.8C67.066 342.512 67.3037 341.4 67.779 340.465C68.2697 339.514 68.9443 338.778 69.803 338.257C70.677 337.736 71.6737 337.475 72.793 337.475C73.9277 337.475 74.9167 337.736 75.76 338.257C76.6187 338.778 77.2857 339.514 77.761 340.465C78.2363 341.4 78.474 342.512 78.474 343.8C78.474 345.073 78.2287 346.184 77.738 347.135C77.2627 348.086 76.5957 348.822 75.737 349.343C74.8783 349.864 73.8817 350.125 72.747 350.125ZM72.747 348.469C73.4523 348.469 74.0887 348.3 74.656 347.963C75.2233 347.61 75.668 347.089 75.99 346.399C76.3273 345.694 76.496 344.827 76.496 343.8C76.496 342.757 76.335 341.891 76.013 341.201C75.691 340.511 75.2463 339.997 74.679 339.66C74.127 339.307 73.4983 339.131 72.793 339.131C72.103 339.131 71.4743 339.307 70.907 339.66C70.3397 339.997 69.8873 340.511 69.55 341.201C69.2127 341.891 69.044 342.757 69.044 343.8C69.044 344.827 69.205 345.694 69.527 346.399C69.8643 347.089 70.309 347.61 70.861 347.963C71.4283 348.3 72.057 348.469 72.747 348.469ZM81.2726 349.849V337.751H83.0206L83.1126 339.66C83.4653 338.97 83.9713 338.433 84.6306 338.05C85.3053 337.667 86.0796 337.475 86.9536 337.475C87.843 337.475 88.6173 337.644 89.2766 337.981C89.936 338.318 90.4496 338.832 90.8176 339.522C91.1856 340.212 91.3696 341.086 91.3696 342.144V349.849H89.4376V342.351C89.4376 341.278 89.1693 340.473 88.6326 339.936C88.1113 339.399 87.406 339.131 86.5166 339.131C85.9186 339.131 85.3666 339.277 84.8606 339.568C84.3546 339.844 83.9483 340.258 83.6416 340.81C83.3503 341.362 83.2046 342.037 83.2046 342.834V349.849H81.2726ZM98.9395 350.125C97.8509 350.125 96.9462 349.964 96.2255 349.642C95.5202 349.305 94.9835 348.845 94.6155 348.262C94.2475 347.664 94.0252 346.974 93.9485 346.192H95.9265C95.9879 346.606 96.1259 346.989 96.3405 347.342C96.5705 347.679 96.9002 347.955 97.3295 348.17C97.7589 348.385 98.3032 348.492 98.9625 348.492C99.4839 348.492 99.9285 348.415 100.297 348.262C100.665 348.093 100.941 347.863 101.125 347.572C101.324 347.281 101.424 346.943 101.424 346.56C101.424 346.054 101.309 345.663 101.079 345.387C100.864 345.096 100.542 344.881 100.113 344.743C99.6985 344.59 99.1772 344.475 98.5485 344.398C97.8739 344.306 97.2759 344.176 96.7545 344.007C96.2332 343.838 95.7885 343.616 95.4205 343.34C95.0679 343.064 94.7995 342.719 94.6155 342.305C94.4315 341.891 94.3395 341.4 94.3395 340.833C94.3395 340.174 94.5159 339.591 94.8685 339.085C95.2212 338.579 95.7195 338.188 96.3635 337.912C97.0229 337.621 97.7972 337.475 98.6865 337.475C99.9899 337.475 101.017 337.774 101.769 338.372C102.535 338.97 102.988 339.821 103.126 340.925H101.217C101.14 340.358 100.879 339.913 100.435 339.591C99.9899 339.269 99.3995 339.108 98.6635 339.108C97.8815 339.108 97.2912 339.254 96.8925 339.545C96.4939 339.836 96.2945 340.22 96.2945 340.695C96.2945 341.048 96.3789 341.37 96.5475 341.661C96.7315 341.937 97.0382 342.175 97.4675 342.374C97.8969 342.558 98.4719 342.696 99.1925 342.788C100.097 342.895 100.864 343.072 101.493 343.317C102.121 343.547 102.597 343.907 102.919 344.398C103.256 344.889 103.417 345.556 103.402 346.399C103.402 347.196 103.21 347.871 102.827 348.423C102.459 348.975 101.937 349.397 101.263 349.688C100.603 349.979 99.8289 350.125 98.9395 350.125ZM112.586 349.849V333.749H118.244C119.379 333.749 120.314 333.933 121.05 334.301C121.802 334.654 122.361 335.144 122.729 335.773C123.097 336.386 123.281 337.076 123.281 337.843C123.281 338.671 123.097 339.361 122.729 339.913C122.377 340.465 121.909 340.887 121.326 341.178C120.759 341.469 120.153 341.646 119.509 341.707L119.831 341.477C120.521 341.492 121.158 341.676 121.74 342.029C122.323 342.382 122.783 342.857 123.12 343.455C123.473 344.053 123.649 344.72 123.649 345.456C123.649 346.269 123.45 347.012 123.051 347.687C122.653 348.346 122.062 348.875 121.28 349.274C120.514 349.657 119.563 349.849 118.428 349.849H112.586ZM114.518 348.239H118.221C119.31 348.239 120.153 347.986 120.751 347.48C121.365 346.959 121.671 346.238 121.671 345.318C121.671 344.413 121.357 343.693 120.728 343.156C120.115 342.604 119.264 342.328 118.175 342.328H114.518V348.239ZM114.518 340.787H118.106C119.149 340.787 119.939 340.542 120.475 340.051C121.027 339.56 121.303 338.893 121.303 338.05C121.303 337.237 121.027 336.586 120.475 336.095C119.939 335.604 119.126 335.359 118.037 335.359H114.518V340.787ZM126.581 349.849V337.751H128.513V349.849H126.581ZM127.547 335.451C127.163 335.451 126.841 335.328 126.581 335.083C126.335 334.822 126.213 334.5 126.213 334.117C126.213 333.734 126.335 333.427 126.581 333.197C126.841 332.952 127.163 332.829 127.547 332.829C127.915 332.829 128.229 332.952 128.49 333.197C128.75 333.427 128.881 333.734 128.881 334.117C128.881 334.5 128.75 334.822 128.49 335.083C128.229 335.328 127.915 335.451 127.547 335.451ZM137.143 350.125C136.023 350.125 135.034 349.864 134.176 349.343C133.317 348.822 132.65 348.086 132.175 347.135C131.699 346.184 131.462 345.073 131.462 343.8C131.462 342.512 131.699 341.4 132.175 340.465C132.665 339.514 133.34 338.778 134.199 338.257C135.073 337.736 136.069 337.475 137.189 337.475C138.323 337.475 139.312 337.736 140.156 338.257C141.014 338.778 141.681 339.514 142.157 340.465C142.632 341.4 142.87 342.512 142.87 343.8C142.87 345.073 142.624 346.184 142.134 347.135C141.658 348.086 140.991 348.822 140.133 349.343C139.274 349.864 138.277 350.125 137.143 350.125ZM137.143 348.469C137.848 348.469 138.484 348.3 139.052 347.963C139.619 347.61 140.064 347.089 140.386 346.399C140.723 345.694 140.892 344.827 140.892 343.8C140.892 342.757 140.731 341.891 140.409 341.201C140.087 340.511 139.642 339.997 139.075 339.66C138.523 339.307 137.894 339.131 137.189 339.131C136.499 339.131 135.87 339.307 135.303 339.66C134.735 339.997 134.283 340.511 133.946 341.201C133.608 341.891 133.44 342.757 133.44 343.8C133.44 344.827 133.601 345.694 133.923 346.399C134.26 347.089 134.705 347.61 135.257 347.963C135.824 348.3 136.453 348.469 137.143 348.469ZM145.668 349.849V337.751H147.416L147.508 339.407C147.876 338.809 148.374 338.341 149.003 338.004C149.632 337.651 150.291 337.475 150.981 337.475C151.564 337.475 152.085 337.559 152.545 337.728C153.02 337.881 153.434 338.127 153.787 338.464C154.14 338.786 154.423 339.192 154.638 339.683C155.037 338.962 155.573 338.418 156.248 338.05C156.938 337.667 157.659 337.475 158.41 337.475C159.299 337.475 160.058 337.651 160.687 338.004C161.331 338.341 161.822 338.863 162.159 339.568C162.512 340.258 162.688 341.124 162.688 342.167V349.849H160.779V342.374C160.779 341.285 160.541 340.473 160.066 339.936C159.591 339.399 158.947 339.131 158.134 339.131C157.582 339.131 157.076 339.277 156.616 339.568C156.171 339.859 155.811 340.289 155.535 340.856C155.274 341.423 155.144 342.113 155.144 342.926V349.849H153.212V342.374C153.212 341.285 152.974 340.473 152.499 339.936C152.024 339.399 151.387 339.131 150.59 339.131C150.053 339.131 149.555 339.277 149.095 339.568C148.65 339.859 148.29 340.289 148.014 340.856C147.738 341.423 147.6 342.113 147.6 342.926V349.849H145.668ZM169.655 350.125C168.735 350.125 167.968 349.956 167.355 349.619C166.742 349.266 166.282 348.806 165.975 348.239C165.668 347.656 165.515 347.035 165.515 346.376C165.515 345.579 165.714 344.904 166.113 344.352C166.527 343.785 167.102 343.355 167.838 343.064C168.574 342.773 169.433 342.627 170.414 342.627H173.427C173.427 341.845 173.335 341.193 173.151 340.672C172.967 340.151 172.668 339.76 172.254 339.499C171.84 339.238 171.288 339.108 170.598 339.108C169.908 339.108 169.318 339.284 168.827 339.637C168.336 339.974 168.03 340.48 167.907 341.155H165.929C166.021 340.358 166.289 339.691 166.734 339.154C167.179 338.602 167.738 338.188 168.413 337.912C169.103 337.621 169.831 337.475 170.598 337.475C171.687 337.475 172.584 337.674 173.289 338.073C173.994 338.456 174.516 339.001 174.853 339.706C175.19 340.396 175.359 341.216 175.359 342.167V349.849H173.634L173.519 347.779C173.366 348.101 173.166 348.408 172.921 348.699C172.691 348.975 172.415 349.22 172.093 349.435C171.771 349.65 171.403 349.818 170.989 349.941C170.59 350.064 170.146 350.125 169.655 350.125ZM169.931 348.492C170.437 348.492 170.905 348.377 171.334 348.147C171.763 347.917 172.131 347.61 172.438 347.227C172.76 346.828 173.005 346.384 173.174 345.893C173.343 345.402 173.427 344.889 173.427 344.352V344.122H170.575C169.854 344.122 169.264 344.214 168.804 344.398C168.359 344.582 168.037 344.843 167.838 345.18C167.639 345.502 167.539 345.87 167.539 346.284C167.539 346.729 167.631 347.12 167.815 347.457C167.999 347.779 168.267 348.032 168.62 348.216C168.988 348.4 169.425 348.492 169.931 348.492ZM182.921 350.125C181.832 350.125 180.928 349.964 180.207 349.642C179.502 349.305 178.965 348.845 178.597 348.262C178.229 347.664 178.007 346.974 177.93 346.192H179.908C179.969 346.606 180.107 346.989 180.322 347.342C180.552 347.679 180.882 347.955 181.311 348.17C181.74 348.385 182.285 348.492 182.944 348.492C183.465 348.492 183.91 348.415 184.278 348.262C184.646 348.093 184.922 347.863 185.106 347.572C185.305 347.281 185.405 346.943 185.405 346.56C185.405 346.054 185.29 345.663 185.06 345.387C184.845 345.096 184.523 344.881 184.094 344.743C183.68 344.59 183.159 344.475 182.53 344.398C181.855 344.306 181.257 344.176 180.736 344.007C180.215 343.838 179.77 343.616 179.402 343.34C179.049 343.064 178.781 342.719 178.597 342.305C178.413 341.891 178.321 341.4 178.321 340.833C178.321 340.174 178.497 339.591 178.85 339.085C179.203 338.579 179.701 338.188 180.345 337.912C181.004 337.621 181.779 337.475 182.668 337.475C183.971 337.475 184.999 337.774 185.75 338.372C186.517 338.97 186.969 339.821 187.107 340.925H185.198C185.121 340.358 184.861 339.913 184.416 339.591C183.971 339.269 183.381 339.108 182.645 339.108C181.863 339.108 181.273 339.254 180.874 339.545C180.475 339.836 180.276 340.22 180.276 340.695C180.276 341.048 180.36 341.37 180.529 341.661C180.713 341.937 181.02 342.175 181.449 342.374C181.878 342.558 182.453 342.696 183.174 342.788C184.079 342.895 184.845 343.072 185.474 343.317C186.103 343.547 186.578 343.907 186.9 344.398C187.237 344.889 187.398 345.556 187.383 346.399C187.383 347.196 187.191 347.871 186.808 348.423C186.44 348.975 185.919 349.397 185.244 349.688C184.585 349.979 183.81 350.125 182.921 350.125ZM194.623 350.125C193.534 350.125 192.63 349.964 191.909 349.642C191.204 349.305 190.667 348.845 190.299 348.262C189.931 347.664 189.709 346.974 189.632 346.192H191.61C191.671 346.606 191.809 346.989 192.024 347.342C192.254 347.679 192.584 347.955 193.013 348.17C193.442 348.385 193.987 348.492 194.646 348.492C195.167 348.492 195.612 348.415 195.98 348.262C196.348 348.093 196.624 347.863 196.808 347.572C197.007 347.281 197.107 346.943 197.107 346.56C197.107 346.054 196.992 345.663 196.762 345.387C196.547 345.096 196.225 344.881 195.796 344.743C195.382 344.59 194.861 344.475 194.232 344.398C193.557 344.306 192.959 344.176 192.438 344.007C191.917 343.838 191.472 343.616 191.104 343.34C190.751 343.064 190.483 342.719 190.299 342.305C190.115 341.891 190.023 341.4 190.023 340.833C190.023 340.174 190.199 339.591 190.552 339.085C190.905 338.579 191.403 338.188 192.047 337.912C192.706 337.621 193.481 337.475 194.37 337.475C195.673 337.475 196.701 337.774 197.452 338.372C198.219 338.97 198.671 339.821 198.809 340.925H196.9C196.823 340.358 196.563 339.913 196.118 339.591C195.673 339.269 195.083 339.108 194.347 339.108C193.565 339.108 192.975 339.254 192.576 339.545C192.177 339.836 191.978 340.22 191.978 340.695C191.978 341.048 192.062 341.37 192.231 341.661C192.415 341.937 192.722 342.175 193.151 342.374C193.58 342.558 194.155 342.696 194.876 342.788C195.781 342.895 196.547 343.072 197.176 343.317C197.805 343.547 198.28 343.907 198.602 344.398C198.939 344.889 199.1 345.556 199.085 346.399C199.085 347.196 198.893 347.871 198.51 348.423C198.142 348.975 197.621 349.397 196.946 349.688C196.287 349.979 195.512 350.125 194.623 350.125ZM208.27 349.849V333.749H213.445C214.733 333.749 215.791 333.964 216.619 334.393C217.447 334.822 218.06 335.405 218.459 336.141C218.858 336.862 219.057 337.682 219.057 338.602C219.057 339.507 218.858 340.327 218.459 341.063C218.06 341.799 217.447 342.382 216.619 342.811C215.806 343.24 214.748 343.455 213.445 343.455H210.202V349.849H208.27ZM210.202 341.822H213.422C214.771 341.822 215.714 341.531 216.251 340.948C216.803 340.35 217.079 339.568 217.079 338.602C217.079 337.59 216.803 336.8 216.251 336.233C215.714 335.65 214.771 335.359 213.422 335.359H210.202V341.822ZM221.564 349.849V337.751H223.312L223.45 339.959C223.726 339.407 224.086 338.947 224.531 338.579C224.975 338.211 225.512 337.935 226.141 337.751C226.785 337.567 227.505 337.475 228.303 337.475V339.499H227.107C226.647 339.499 226.202 339.56 225.773 339.683C225.343 339.806 224.952 340.005 224.6 340.281C224.262 340.557 223.994 340.933 223.795 341.408C223.595 341.883 223.496 342.481 223.496 343.202V349.849H221.564ZM235.297 350.125C234.177 350.125 233.188 349.864 232.33 349.343C231.471 348.822 230.804 348.086 230.329 347.135C229.853 346.184 229.616 345.073 229.616 343.8C229.616 342.512 229.853 341.4 230.329 340.465C230.819 339.514 231.494 338.778 232.353 338.257C233.227 337.736 234.223 337.475 235.343 337.475C236.477 337.475 237.466 337.736 238.31 338.257C239.168 338.778 239.835 339.514 240.311 340.465C240.786 341.4 241.024 342.512 241.024 343.8C241.024 345.073 240.778 346.184 240.288 347.135C239.812 348.086 239.145 348.822 238.287 349.343C237.428 349.864 236.431 350.125 235.297 350.125ZM235.297 348.469C236.002 348.469 236.638 348.3 237.206 347.963C237.773 347.61 238.218 347.089 238.54 346.399C238.877 345.694 239.046 344.827 239.046 343.8C239.046 342.757 238.885 341.891 238.563 341.201C238.241 340.511 237.796 339.997 237.229 339.66C236.677 339.307 236.048 339.131 235.343 339.131C234.653 339.131 234.024 339.307 233.457 339.66C232.889 339.997 232.437 340.511 232.1 341.201C231.762 341.891 231.594 342.757 231.594 343.8C231.594 344.827 231.755 345.694 232.077 346.399C232.414 347.089 232.859 347.61 233.411 347.963C233.978 348.3 234.607 348.469 235.297 348.469ZM249.043 350.125C247.939 350.125 246.958 349.864 246.099 349.343C245.241 348.806 244.566 348.063 244.075 347.112C243.585 346.161 243.339 345.057 243.339 343.8C243.339 342.527 243.585 341.423 244.075 340.488C244.566 339.537 245.241 338.801 246.099 338.28C246.958 337.743 247.939 337.475 249.043 337.475C250.423 337.475 251.573 337.843 252.493 338.579C253.429 339.315 254.027 340.304 254.287 341.546H252.309C252.141 340.779 251.75 340.189 251.136 339.775C250.538 339.346 249.833 339.131 249.02 339.131C248.315 339.131 247.679 339.307 247.111 339.66C246.559 340.013 246.122 340.534 245.8 341.224C245.478 341.914 245.317 342.773 245.317 343.8C245.317 344.567 245.409 345.249 245.593 345.847C245.777 346.43 246.03 346.92 246.352 347.319C246.69 347.702 247.081 347.994 247.525 348.193C247.985 348.392 248.484 348.492 249.02 348.492C249.572 348.492 250.071 348.4 250.515 348.216C250.975 348.017 251.359 347.733 251.665 347.365C251.987 346.997 252.202 346.56 252.309 346.054H254.287C254.042 347.265 253.444 348.247 252.493 348.998C251.558 349.749 250.408 350.125 249.043 350.125ZM262.111 350.125C261.038 350.125 260.087 349.864 259.259 349.343C258.431 348.822 257.779 348.086 257.304 347.135C256.844 346.184 256.614 345.073 256.614 343.8C256.614 342.527 256.844 341.416 257.304 340.465C257.779 339.514 258.431 338.778 259.259 338.257C260.102 337.736 261.068 337.475 262.157 337.475C263.322 337.475 264.296 337.736 265.078 338.257C265.86 338.778 266.45 339.476 266.849 340.35C267.248 341.224 267.447 342.182 267.447 343.225C267.447 343.378 267.447 343.532 267.447 343.685C267.447 343.838 267.439 344.022 267.424 344.237H258.063V342.742H265.561C265.53 341.561 265.185 340.664 264.526 340.051C263.882 339.422 263.077 339.108 262.111 339.108C261.467 339.108 260.869 339.269 260.317 339.591C259.78 339.898 259.343 340.358 259.006 340.971C258.669 341.584 258.5 342.351 258.5 343.271V343.915C258.5 344.927 258.669 345.778 259.006 346.468C259.343 347.143 259.78 347.649 260.317 347.986C260.869 348.323 261.467 348.492 262.111 348.492C262.97 348.492 263.644 348.331 264.135 348.009C264.626 347.672 264.986 347.196 265.216 346.583H267.125C266.941 347.258 266.619 347.863 266.159 348.4C265.714 348.937 265.147 349.358 264.457 349.665C263.782 349.972 263 350.125 262.111 350.125ZM274.494 350.125C273.406 350.125 272.501 349.964 271.78 349.642C271.075 349.305 270.538 348.845 270.17 348.262C269.802 347.664 269.58 346.974 269.503 346.192H271.481C271.543 346.606 271.681 346.989 271.895 347.342C272.125 347.679 272.455 347.955 272.884 348.17C273.314 348.385 273.858 348.492 274.517 348.492C275.039 348.492 275.483 348.415 275.851 348.262C276.219 348.093 276.495 347.863 276.679 347.572C276.879 347.281 276.978 346.943 276.978 346.56C276.978 346.054 276.863 345.663 276.633 345.387C276.419 345.096 276.097 344.881 275.667 344.743C275.253 344.59 274.732 344.475 274.103 344.398C273.429 344.306 272.831 344.176 272.309 344.007C271.788 343.838 271.343 343.616 270.975 343.34C270.623 343.064 270.354 342.719 270.17 342.305C269.986 341.891 269.894 341.4 269.894 340.833C269.894 340.174 270.071 339.591 270.423 339.085C270.776 338.579 271.274 338.188 271.918 337.912C272.578 337.621 273.352 337.475 274.241 337.475C275.545 337.475 276.572 337.774 277.323 338.372C278.09 338.97 278.542 339.821 278.68 340.925H276.771C276.695 340.358 276.434 339.913 275.989 339.591C275.545 339.269 274.954 339.108 274.218 339.108C273.436 339.108 272.846 339.254 272.447 339.545C272.049 339.836 271.849 340.22 271.849 340.695C271.849 341.048 271.934 341.37 272.102 341.661C272.286 341.937 272.593 342.175 273.022 342.374C273.452 342.558 274.027 342.696 274.747 342.788C275.652 342.895 276.419 343.072 277.047 343.317C277.676 343.547 278.151 343.907 278.473 344.398C278.811 344.889 278.972 345.556 278.956 346.399C278.956 347.196 278.765 347.871 278.381 348.423C278.013 348.975 277.492 349.397 276.817 349.688C276.158 349.979 275.384 350.125 274.494 350.125ZM286.196 350.125C285.108 350.125 284.203 349.964 283.482 349.642C282.777 349.305 282.24 348.845 281.872 348.262C281.504 347.664 281.282 346.974 281.205 346.192H283.183C283.245 346.606 283.383 346.989 283.597 347.342C283.827 347.679 284.157 347.955 284.586 348.17C285.016 348.385 285.56 348.492 286.219 348.492C286.741 348.492 287.185 348.415 287.553 348.262C287.921 348.093 288.197 347.863 288.381 347.572C288.581 347.281 288.68 346.943 288.68 346.56C288.68 346.054 288.565 345.663 288.335 345.387C288.121 345.096 287.799 344.881 287.369 344.743C286.955 344.59 286.434 344.475 285.805 344.398C285.131 344.306 284.533 344.176 284.011 344.007C283.49 343.838 283.045 343.616 282.677 343.34C282.325 343.064 282.056 342.719 281.872 342.305C281.688 341.891 281.596 341.4 281.596 340.833C281.596 340.174 281.773 339.591 282.125 339.085C282.478 338.579 282.976 338.188 283.62 337.912C284.28 337.621 285.054 337.475 285.943 337.475C287.247 337.475 288.274 337.774 289.025 338.372C289.792 338.97 290.244 339.821 290.382 340.925H288.473C288.397 340.358 288.136 339.913 287.691 339.591C287.247 339.269 286.656 339.108 285.92 339.108C285.138 339.108 284.548 339.254 284.149 339.545C283.751 339.836 283.551 340.22 283.551 340.695C283.551 341.048 283.636 341.37 283.804 341.661C283.988 341.937 284.295 342.175 284.724 342.374C285.154 342.558 285.729 342.696 286.449 342.788C287.354 342.895 288.121 343.072 288.749 343.317C289.378 343.547 289.853 343.907 290.175 344.398C290.513 344.889 290.674 345.556 290.658 346.399C290.658 347.196 290.467 347.871 290.083 348.423C289.715 348.975 289.194 349.397 288.519 349.688C287.86 349.979 287.086 350.125 286.196 350.125ZM298.543 350.125C297.469 350.125 296.519 349.864 295.691 349.343C294.863 348.822 294.211 348.086 293.736 347.135C293.276 346.184 293.046 345.073 293.046 343.8C293.046 342.527 293.276 341.416 293.736 340.465C294.211 339.514 294.863 338.778 295.691 338.257C296.534 337.736 297.5 337.475 298.589 337.475C299.754 337.475 300.728 337.736 301.51 338.257C302.292 338.778 302.882 339.476 303.281 340.35C303.679 341.224 303.879 342.182 303.879 343.225C303.879 343.378 303.879 343.532 303.879 343.685C303.879 343.838 303.871 344.022 303.856 344.237H294.495V342.742H301.993C301.962 341.561 301.617 340.664 300.958 340.051C300.314 339.422 299.509 339.108 298.543 339.108C297.899 339.108 297.301 339.269 296.749 339.591C296.212 339.898 295.775 340.358 295.438 340.971C295.1 341.584 294.932 342.351 294.932 343.271V343.915C294.932 344.927 295.1 345.778 295.438 346.468C295.775 347.143 296.212 347.649 296.749 347.986C297.301 348.323 297.899 348.492 298.543 348.492C299.401 348.492 300.076 348.331 300.567 348.009C301.057 347.672 301.418 347.196 301.648 346.583H303.557C303.373 347.258 303.051 347.863 302.591 348.4C302.146 348.937 301.579 349.358 300.889 349.665C300.214 349.972 299.432 350.125 298.543 350.125ZM311.547 350.125C310.474 350.125 309.523 349.849 308.695 349.297C307.867 348.745 307.223 347.994 306.763 347.043C306.303 346.077 306.073 344.988 306.073 343.777C306.073 342.55 306.303 341.469 306.763 340.534C307.223 339.583 307.867 338.84 308.695 338.303C309.523 337.751 310.481 337.475 311.57 337.475C312.521 337.475 313.333 337.667 314.008 338.05C314.698 338.433 315.242 338.97 315.641 339.66V333.289H317.573V349.849H315.825L315.664 347.917C315.434 348.3 315.127 348.661 314.744 348.998C314.376 349.335 313.924 349.611 313.387 349.826C312.866 350.025 312.252 350.125 311.547 350.125ZM311.8 348.446C312.567 348.446 313.234 348.262 313.801 347.894C314.368 347.511 314.805 346.974 315.112 346.284C315.419 345.579 315.572 344.751 315.572 343.8C315.572 342.849 315.419 342.029 315.112 341.339C314.805 340.634 314.368 340.097 313.801 339.729C313.234 339.346 312.567 339.154 311.8 339.154C311.079 339.154 310.435 339.346 309.868 339.729C309.301 340.097 308.856 340.634 308.534 341.339C308.212 342.029 308.051 342.849 308.051 343.8C308.051 344.751 308.212 345.579 308.534 346.284C308.856 346.974 309.301 347.511 309.868 347.894C310.435 348.262 311.079 348.446 311.8 348.446Z" fill="black"/>
</svg>
