<svg width="462" height="386" viewBox="0 0 462 386" fill="none" xmlns="http://www.w3.org/2000/svg">
<path d="M0 16C0 7.16343 7.16344 0 16 0H446C454.837 0 462 7.16344 462 16V369.925C462 378.761 454.837 385.925 446 385.925H16C7.16344 385.925 0 378.761 0 369.925V16Z" fill="white"/>
<rect x="24" y="20" width="95.9463" height="102.925" rx="47.9731" fill="#20761F"/>
<path d="M54.209 76.662C54.209 74.2572 55.373 72.0636 57.3422 70.7208M54.209 76.662C54.2112 78.5704 54.9704 80.4001 56.32 81.7494C57.6696 83.0988 59.4993 83.8577 61.4078 83.8596M54.209 76.662H54.709C54.709 76.6619 54.709 76.6618 54.709 76.6617M54.209 76.662L54.709 76.6614C54.709 76.6615 54.709 76.6616 54.709 76.6617M57.3422 70.7208L69.4994 83.9796C67.9344 83.9773 66.3694 83.9549 64.805 83.9124C63.6734 83.8848 62.6234 83.8596 61.4078 83.8596M57.3422 70.7208C57.1819 69.9353 57.1007 69.1357 57.0998 68.334M57.3422 70.7208L79.0949 62.2764M61.4078 83.8596L61.4083 83.3596M61.4078 83.8596V83.3596C61.408 83.3596 61.4081 83.3596 61.4083 83.3596M61.4083 83.3596C62.6305 83.3596 63.686 83.385 64.8172 83.4125L64.8186 83.4126C66.3787 83.455 67.9394 83.4773 69.5001 83.4796L69.5922 83.4797L69.6781 83.5126C69.6885 83.5166 69.6995 83.5188 69.7106 83.5192C71.4347 83.519 75.2959 83.4317 79.3961 83.3357L79.3963 83.3357C83.4544 83.2422 87.6636 83.146 89.5214 83.146C93.2147 83.146 96.2202 80.1396 96.2202 76.446C96.2202 74.986 95.7433 73.5659 94.862 72.4018C93.9808 71.2377 92.7434 70.3934 91.3381 69.9972L90.8718 69.8658L90.9885 69.3955C91.2337 68.4078 91.251 67.3772 91.0388 66.3819C90.8267 65.3865 90.3908 64.4525 89.7642 63.6506L90.1582 63.3427M61.4083 83.3596C59.6323 83.3578 57.9295 82.6516 56.6735 81.3959C55.4176 80.1402 54.7111 78.4376 54.709 76.6617M54.709 76.6617C54.7091 74.4222 55.7915 72.3834 57.6239 71.1339L57.8986 70.9466L57.8321 70.6208C57.6785 69.8681 57.6006 69.1019 57.5998 68.3337M57.5998 68.3337C57.6 62.088 62.6823 57.0045 68.9303 57.0044M57.5998 68.3337C57.5998 68.3338 57.5998 68.3339 57.5998 68.334H57.0998M57.5998 68.3337C57.5998 68.3336 57.5998 68.3335 57.5998 68.3335L57.0998 68.334M68.9303 57.0044C70.9767 57.0065 72.9845 57.5614 74.7414 58.6106C76.4984 59.6599 77.9392 61.1644 78.9114 62.9651L79.2345 63.5635L79.7093 63.0768C80.3305 62.44 81.0733 61.9346 81.8936 61.5905C82.7139 61.2464 83.595 61.0706 84.4845 61.0736L84.4858 61.0736C85.5035 61.0745 86.5076 61.3069 87.4222 61.7534C88.3367 62.1999 89.1376 62.8487 89.7642 63.6506L90.1582 63.3427M68.9303 57.0044C68.9303 57.0044 68.9302 57.0044 68.9301 57.0044L68.9306 56.5044M68.9303 57.0044C68.9304 57.0044 68.9305 57.0044 68.9306 57.0044V56.5044M90.1582 63.3427C89.4849 62.481 88.6242 61.7839 87.6415 61.3041C86.6588 60.8243 85.5798 60.5745 84.4862 60.5736M90.1582 63.3427C90.8315 64.2044 91.2999 65.2081 91.5279 66.2777C91.7558 67.3472 91.7373 68.4546 91.4738 69.516C92.9839 69.9417 94.3137 70.8491 95.2607 72.1C96.2077 73.351 96.7202 74.877 96.7202 76.446C96.7202 80.4156 93.491 83.646 89.5214 83.646C87.671 83.646 83.4698 83.742 79.4078 83.8356L84.4862 60.5736M84.4862 60.5736C83.5297 60.5704 82.5822 60.7594 81.7001 61.1294C80.9774 61.4326 80.3107 61.8522 79.726 62.3705M84.4862 60.5736L79.726 62.3705M79.0949 62.2764C78.0902 60.596 76.6833 59.188 74.9977 58.1814C73.1634 57.0859 71.0671 56.5065 68.9306 56.5044M79.0949 62.2764C79.0608 62.3101 79.027 62.3441 78.9935 62.3784L79.3514 62.7276M79.0949 62.2764L79.3514 62.7276M68.9306 56.5044C62.4062 56.5044 57.0998 61.812 57.0998 68.334M79.3514 62.7276L79.7914 62.49C79.7698 62.4501 79.748 62.4102 79.726 62.3705M79.3514 62.7276L79.726 62.3705M84.487 61.192C83.4775 61.1896 82.4811 61.4206 81.5756 61.867C80.6701 62.3135 79.88 62.9633 79.2672 63.7657L79.2662 63.7671C79.2603 63.7748 79.2526 63.7808 79.2437 63.7846C79.2347 63.7884 79.225 63.7898 79.2154 63.7887C79.2057 63.7875 79.1966 63.7839 79.1888 63.7781L78.891 64.1798L79.1888 63.7781C79.181 63.7724 79.1749 63.7646 79.171 63.7558L79.171 63.7558L79.169 63.7513C78.2816 61.7781 76.8436 60.103 75.0275 58.927C73.2115 57.751 71.0947 57.1241 68.9312 57.1216H68.9306C62.7469 57.1216 57.717 62.1502 57.717 68.334C57.717 69.2218 57.8225 70.1073 58.0298 70.9654L58.5158 70.848M84.487 61.192C85.5341 61.1929 86.5659 61.4435 87.4969 61.9229C88.428 62.4023 89.2313 63.0968 89.8403 63.9488C90.4493 64.8008 90.8464 65.7857 90.9987 66.8218C91.1509 67.858 91.054 68.9155 90.7158 69.9066L90.7153 69.9081C90.7127 69.9158 90.7117 69.924 90.7125 69.9321C90.7133 69.9402 90.7158 69.9481 90.7199 69.9551C90.724 69.9621 90.7295 69.9682 90.7362 69.9729C90.7428 69.9777 90.7504 69.9809 90.7584 69.9824L90.7589 69.9825C92.2623 70.2701 93.6184 71.073 94.5936 72.2528C95.5688 73.4326 96.1022 74.9155 96.1018 76.4461V76.4465C96.1001 78.1915 95.4062 79.8645 94.1724 81.0985C92.9387 82.3325 91.2658 83.0267 89.5208 83.0288H89.5202C87.664 83.0288 83.4647 83.1246 79.3917 83.2183H79.3916C75.5193 83.307 71.505 83.3984 69.7545 83.4008L69.6617 83.4009L69.575 83.3678C69.5647 83.3638 69.5537 83.3616 69.5426 83.3612C67.6264 83.3611 66.2025 83.3276 64.8991 83.2969L64.8196 83.2951L64.8193 83.295C63.6778 83.2674 62.625 83.2424 61.4066 83.2424H61.4061C59.6614 83.2407 57.9887 82.5469 56.7549 81.3134C55.5213 80.08 54.8273 78.4078 54.825 76.6634C54.8202 75.5289 55.1108 74.4127 55.6682 73.4246C56.2257 72.4362 57.0309 71.6101 58.0046 71.0274L58.2614 71.4564M84.487 61.192C84.4872 61.192 84.4873 61.192 84.4874 61.192L84.4862 61.692L84.4866 61.192C84.4867 61.192 84.4869 61.192 84.487 61.192ZM58.2614 71.4564L58.0032 71.0282C58.0138 71.0218 58.022 71.0123 58.0268 71.0009C58.0315 70.9895 58.0325 70.9769 58.0297 70.965L58.5158 70.848M58.2614 71.4564C58.3629 71.3952 58.4423 71.3032 58.4881 71.1938C58.5338 71.0844 58.5435 70.9633 58.5158 70.848M58.2614 71.4564C57.3622 71.9945 56.6185 72.7575 56.1037 73.6702C55.5888 74.583 55.3204 75.6141 55.325 76.662C55.3269 78.2742 55.9683 79.8199 57.1084 80.9598C58.2486 82.0997 59.7943 82.7408 61.4066 82.7424L68.9306 57.6216M58.5158 70.848C58.3178 70.0284 58.217 69.1824 58.217 68.334C58.217 62.4264 63.023 57.6216 68.9306 57.6216M68.9306 57.6216C70.9979 57.624 73.0205 58.223 74.7558 59.3467C76.491 60.4704 77.8651 62.071 78.713 63.9564L68.9306 57.6216Z" fill="green" stroke="white"/>
<path d="M72.8916 73.2792C72.9185 73.2791 72.945 73.2849 72.9693 73.2963C72.9936 73.3077 73.015 73.3245 73.032 73.3452L73.4196 73.7628C73.1239 74.1032 72.7579 74.3755 72.3468 74.5608C71.9268 74.7512 71.4188 74.8464 70.8228 74.8464C70.3068 74.8464 69.838 74.7568 69.4164 74.5776C69.0069 74.4061 68.6387 74.1492 68.3364 73.824C68.0286 73.4872 67.7926 73.0911 67.6428 72.66C67.4738 72.1812 67.3905 71.6762 67.3968 71.1684C67.3968 70.626 67.4824 70.1284 67.6536 69.6756C67.8062 69.2437 68.0486 68.849 68.3649 68.5177C68.6811 68.1863 69.0641 67.9257 69.4884 67.7532C69.9433 67.5706 70.4298 67.4796 70.92 67.4856C71.432 67.4856 71.8844 67.5676 72.2772 67.7316C72.6684 67.8948 73.0132 68.1172 73.3116 68.3988L72.99 68.8464C72.971 68.8799 72.9443 68.9083 72.912 68.9292C72.8731 68.9519 72.8286 68.9631 72.7836 68.9616C72.7228 68.9616 72.6492 68.9288 72.5628 68.8632C72.3029 68.6647 72.0083 68.5161 71.694 68.4252C71.4408 68.3538 71.1783 68.3206 70.9152 68.3268C70.544 68.3268 70.2036 68.3916 69.894 68.5212C69.5906 68.6469 69.3189 68.8383 69.0984 69.0816C68.876 69.3256 68.7028 69.6236 68.5788 69.9756C68.4508 70.3592 68.3883 70.7617 68.394 71.166C68.394 71.614 68.4584 72.014 68.5872 72.366C68.7152 72.718 68.8912 73.0152 69.1152 73.2576C69.4512 73.6212 69.6 73.686 69.9036 73.8132C70.2076 73.9404 70.5352 74.004 70.8864 74.004C71.1008 74.004 71.294 73.9912 71.466 73.9656C71.6288 73.9429 71.7889 73.9035 71.9436 73.848C72.0863 73.7958 72.2228 73.7278 72.3504 73.6452C72.476 73.562 72.6012 73.464 72.726 73.3512C72.7697 73.3066 72.8291 73.2808 72.8916 73.2792ZM81.0624 71.1696C81.0624 71.708 80.9768 72.2032 80.8056 72.6552C80.6438 73.0869 80.3979 73.4822 80.082 73.818C79.7655 74.1466 79.3832 74.4046 78.96 74.5752C78.4986 74.7572 78.0064 74.8481 77.5104 74.8428C76.9808 74.8428 76.4984 74.7536 76.0632 74.5752C75.6409 74.4043 75.2594 74.1463 74.9436 73.818C74.6251 73.4842 74.3788 73.0884 74.22 72.6552C74.0455 72.1796 73.9585 71.6763 73.9632 71.1696C73.9632 70.6304 74.0488 70.1352 74.22 69.684C74.392 69.2336 74.6332 68.8452 74.9436 68.5188C75.2591 68.1892 75.6406 67.93 76.0632 67.758C76.5227 67.5721 77.0148 67.4799 77.5104 67.4868C78.0408 67.4868 78.524 67.5772 78.96 67.758C79.396 67.9388 79.77 68.1924 80.082 68.5188C80.394 68.8452 80.6352 69.2336 80.8056 69.684C80.9768 70.1352 81.0624 70.6304 81.0624 71.1696ZM80.0616 71.1696C80.0616 70.7264 80.0012 70.3296 79.8804 69.9792C79.7727 69.65 79.5983 69.3464 79.368 69.0876C79.1451 68.8433 78.8704 68.6518 78.564 68.5272C78.2283 68.3931 77.8695 68.3262 77.508 68.3304C77.1232 68.3304 76.7732 68.396 76.458 68.5272C76.1512 68.6516 75.8761 68.8431 75.6528 69.0876C75.4296 69.33 75.2576 69.6272 75.1368 69.9792C75.0168 70.3304 74.9564 70.7272 74.9556 71.1696C74.9556 71.6112 75.016 72.0072 75.1368 72.3576C75.2568 72.7064 75.4288 73.0028 75.6528 73.2468C75.8752 73.49 76.1436 73.6756 76.458 73.8036C76.7732 73.9332 77.1232 73.998 77.508 73.998C77.896 73.998 78.248 73.9332 78.564 73.8036C78.8784 73.6756 79.1464 73.49 79.368 73.2468C79.5888 73.0028 79.7596 72.7064 79.8804 72.3576C80.002 72.0072 80.0624 71.6112 80.0616 71.1696ZM84.4248 77.6184C84.4808 77.6184 84.526 77.6352 84.5604 77.6688C84.5768 77.6859 84.5898 77.706 84.5984 77.728C84.6071 77.75 84.6113 77.7736 84.6108 77.7972V78.114H81.81V77.9352C81.8119 77.8512 81.8463 77.7712 81.906 77.712L83.25 76.362C83.3612 76.2484 83.4628 76.1392 83.5548 76.0344C83.646 75.9304 83.724 75.8252 83.7888 75.7188C83.8528 75.6132 83.9024 75.5064 83.9376 75.3984C83.9722 75.2857 83.99 75.1684 83.9904 75.0504C83.9922 74.94 83.9722 74.8303 83.9316 74.7276C83.8971 74.6404 83.8433 74.5621 83.7744 74.4985C83.7054 74.435 83.623 74.3878 83.5332 74.3604C83.3407 74.2989 83.1336 74.2998 82.9416 74.3628C82.7702 74.4208 82.6242 74.5366 82.5288 74.6904C82.4822 74.7685 82.4486 74.8536 82.4292 74.9424C82.406 75.0104 82.3744 75.056 82.3344 75.0792C82.2944 75.1024 82.238 75.1088 82.1652 75.0984L81.8928 75.0504C81.92 74.86 81.9736 74.6908 82.0536 74.5428C82.132 74.3964 82.2316 74.2728 82.3524 74.172C82.4724 74.0736 82.6092 73.998 82.7628 73.9452C82.9172 73.894 83.0844 73.8684 83.2644 73.8684C83.442 73.8684 83.6076 73.8944 83.7612 73.9464C83.9089 73.9924 84.045 74.0695 84.1604 74.1726C84.2757 74.2757 84.3675 74.4024 84.4296 74.544C84.4959 74.6994 84.5286 74.8671 84.5256 75.036C84.5256 75.1928 84.5024 75.3376 84.456 75.4704C84.4093 75.6052 84.3456 75.7334 84.2664 75.852C84.1864 75.9736 84.094 76.092 83.9892 76.2072C83.8844 76.3224 83.7736 76.4388 83.6568 76.5564L82.5492 77.6856C82.6276 77.6648 82.7068 77.648 82.7868 77.6352C82.8668 77.6224 82.944 77.616 83.0184 77.616H84.4248V77.6184Z" fill="white"/>
<path d="M73.2068 266.013C53.1685 266.013 41.8425 257.083 41.8425 243.579V242.055H49.7925V243.579C49.7925 254.034 58.0692 258.935 73.3157 258.935C86.9286 258.935 94.6608 254.252 94.6608 242.163C94.6608 230.293 87.1464 225.719 73.4246 225.719C62.4253 225.719 55.6733 228.006 50.337 231.6L50.0103 231.491V231.6L42.8226 230.511L46.5254 191.959H99.6703V199.038H53.2774L50.4459 226.917L50.9904 227.026C55.6733 223.105 64.8212 219.294 75.7115 219.294C91.7204 219.294 102.829 227.244 102.829 242.163C102.829 256.865 91.5026 266.013 73.2068 266.013ZM144.516 266.013C123.715 266.013 110.647 251.965 110.647 228.442C110.647 205.027 123.715 190.87 144.516 190.87C165.207 190.87 178.276 205.027 178.276 228.442C178.276 251.965 165.207 266.013 144.516 266.013ZM144.516 258.608C161.396 258.608 170.108 248.807 170.108 228.442C170.108 208.077 161.396 198.275 144.516 198.275C127.527 198.275 118.814 208.077 118.814 228.442C118.814 248.807 127.527 258.608 144.516 258.608ZM187.577 274.508H185.29V269.825H187.468C188.884 269.825 189.646 269.498 189.646 267.538V264.924H185.399V249.787H194.982V267.429C194.982 272.221 192.151 274.508 187.577 274.508ZM235.978 266.013C215.177 266.013 202.109 251.965 202.109 228.442C202.109 205.027 215.177 190.87 235.978 190.87C256.669 190.87 269.738 205.027 269.738 228.442C269.738 251.965 256.669 266.013 235.978 266.013ZM235.978 258.608C252.858 258.608 261.57 248.807 261.57 228.442C261.57 208.077 252.858 198.275 235.978 198.275C218.989 198.275 210.276 208.077 210.276 228.442C210.276 248.807 218.989 258.608 235.978 258.608ZM311.274 266.013C290.474 266.013 277.405 251.965 277.405 228.442C277.405 205.027 290.474 190.87 311.274 190.87C331.966 190.87 345.034 205.027 345.034 228.442C345.034 251.965 331.966 266.013 311.274 266.013ZM311.274 258.608C328.154 258.608 336.867 248.807 336.867 228.442C336.867 208.077 328.154 198.275 311.274 198.275C294.285 198.275 285.573 208.077 285.573 228.442C285.573 248.807 294.285 258.608 311.274 258.608ZM386.571 266.013C365.77 266.013 352.702 251.965 352.702 228.442C352.702 205.027 365.77 190.87 386.571 190.87C407.263 190.87 420.331 205.027 420.331 228.442C420.331 251.965 407.263 266.013 386.571 266.013ZM386.571 258.608C403.451 258.608 412.163 248.807 412.163 228.442C412.163 208.077 403.451 198.275 386.571 198.275C369.582 198.275 360.87 208.077 360.87 228.442C360.87 248.807 369.582 258.608 386.571 258.608Z" fill="#20761F"/>
<path d="M36 345.924C37.6569 345.924 39 344.581 39 342.924C39 341.267 37.6569 339.924 36 339.924C34.3431 339.924 33 341.267 33 342.924C33 344.581 34.3431 345.924 36 345.924Z" stroke="black" stroke-width="2" stroke-linecap="round" stroke-linejoin="round"/>
<path d="M30.5027 345.924C30.0699 345.929 29.6503 346.074 29.3068 346.337C28.9633 346.6 28.7145 346.968 28.5977 347.384L26.1027 356.424C26.0271 356.717 26.0187 357.023 26.0783 357.319C26.1379 357.615 26.2639 357.894 26.4467 358.135C26.6296 358.375 26.8646 358.571 27.1341 358.708C27.4035 358.845 27.7005 358.919 28.0027 358.924H44.0027C44.3113 358.924 44.6158 358.853 44.8922 358.715C45.1686 358.578 45.4095 358.378 45.5959 358.132C45.7823 357.886 45.9093 357.601 45.9669 357.297C46.0244 356.994 46.011 356.682 45.9277 356.384L43.4027 347.424C43.2925 346.998 43.0446 346.619 42.6974 346.348C42.3503 346.077 41.9232 345.928 41.4827 345.924H30.5027Z" stroke="black" stroke-width="2" stroke-linecap="round" stroke-linejoin="round"/>
<path d="M62.52 359.924V345.411H57.713V343.824H69.259V345.411H64.452V359.924H62.52ZM74.747 360.2C73.6277 360.2 72.6387 359.94 71.78 359.418C70.9213 358.897 70.2543 358.161 69.779 357.21C69.3037 356.26 69.066 355.148 69.066 353.875C69.066 352.587 69.3037 351.476 69.779 350.54C70.2697 349.59 70.9443 348.854 71.803 348.332C72.677 347.811 73.6737 347.55 74.793 347.55C75.9277 347.55 76.9167 347.811 77.76 348.332C78.6187 348.854 79.2857 349.59 79.761 350.54C80.2363 351.476 80.474 352.587 80.474 353.875C80.474 355.148 80.2287 356.26 79.738 357.21C79.2627 358.161 78.5957 358.897 77.737 359.418C76.8783 359.94 75.8817 360.2 74.747 360.2ZM74.747 358.544C75.4523 358.544 76.0887 358.376 76.656 358.038C77.2233 357.686 77.668 357.164 77.99 356.474C78.3273 355.769 78.496 354.903 78.496 353.875C78.496 352.833 78.335 351.966 78.013 351.276C77.691 350.586 77.2463 350.073 76.679 349.735C76.127 349.383 75.4983 349.206 74.793 349.206C74.103 349.206 73.4743 349.383 72.907 349.735C72.3397 350.073 71.8873 350.586 71.55 351.276C71.2127 351.966 71.044 352.833 71.044 353.875C71.044 354.903 71.205 355.769 71.527 356.474C71.8643 357.164 72.309 357.686 72.861 358.038C73.4283 358.376 74.057 358.544 74.747 358.544ZM83.2726 359.924V347.826H85.0206L85.1126 349.735C85.4653 349.045 85.9713 348.509 86.6306 348.125C87.3053 347.742 88.0796 347.55 88.9536 347.55C89.843 347.55 90.6173 347.719 91.2766 348.056C91.936 348.394 92.4496 348.907 92.8176 349.597C93.1856 350.287 93.3696 351.161 93.3696 352.219V359.924H91.4376V352.426C91.4376 351.353 91.1693 350.548 90.6326 350.011C90.1113 349.475 89.406 349.206 88.5166 349.206C87.9186 349.206 87.3666 349.352 86.8606 349.643C86.3546 349.919 85.9483 350.333 85.6416 350.885C85.3503 351.437 85.2046 352.112 85.2046 352.909V359.924H83.2726ZM100.94 360.2C99.8509 360.2 98.9462 360.039 98.2255 359.717C97.5202 359.38 96.9835 358.92 96.6155 358.337C96.2475 357.739 96.0252 357.049 95.9485 356.267H97.9265C97.9879 356.681 98.1259 357.065 98.3405 357.417C98.5705 357.755 98.9002 358.031 99.3295 358.245C99.7589 358.46 100.303 358.567 100.963 358.567C101.484 358.567 101.929 358.491 102.297 358.337C102.665 358.169 102.941 357.939 103.125 357.647C103.324 357.356 103.424 357.019 103.424 356.635C103.424 356.129 103.309 355.738 103.079 355.462C102.864 355.171 102.542 354.956 102.113 354.818C101.699 354.665 101.177 354.55 100.549 354.473C99.8739 354.381 99.2759 354.251 98.7545 354.082C98.2332 353.914 97.7885 353.691 97.4205 353.415C97.0679 353.139 96.7995 352.794 96.6155 352.38C96.4315 351.966 96.3395 351.476 96.3395 350.908C96.3395 350.249 96.5159 349.666 96.8685 349.16C97.2212 348.654 97.7195 348.263 98.3635 347.987C99.0229 347.696 99.7972 347.55 100.687 347.55C101.99 347.55 103.017 347.849 103.769 348.447C104.535 349.045 104.988 349.896 105.126 351H103.217C103.14 350.433 102.879 349.988 102.435 349.666C101.99 349.344 101.4 349.183 100.664 349.183C99.8815 349.183 99.2912 349.329 98.8925 349.62C98.4939 349.912 98.2945 350.295 98.2945 350.77C98.2945 351.123 98.3789 351.445 98.5475 351.736C98.7315 352.012 99.0382 352.25 99.4675 352.449C99.8969 352.633 100.472 352.771 101.193 352.863C102.097 352.971 102.864 353.147 103.493 353.392C104.121 353.622 104.597 353.983 104.919 354.473C105.256 354.964 105.417 355.631 105.402 356.474C105.402 357.272 105.21 357.946 104.827 358.498C104.459 359.05 103.937 359.472 103.263 359.763C102.603 360.055 101.829 360.2 100.94 360.2ZM121.371 360.2C119.853 360.2 118.535 359.855 117.415 359.165C116.311 358.46 115.453 357.486 114.839 356.244C114.241 354.987 113.942 353.53 113.942 351.874C113.942 350.218 114.241 348.769 114.839 347.527C115.453 346.27 116.311 345.296 117.415 344.606C118.535 343.901 119.853 343.548 121.371 343.548C123.196 343.548 124.676 343.985 125.81 344.859C126.945 345.733 127.673 346.968 127.995 348.562H125.902C125.642 347.566 125.136 346.768 124.384 346.17C123.648 345.557 122.644 345.25 121.371 345.25C120.267 345.25 119.301 345.519 118.473 346.055C117.661 346.577 117.032 347.336 116.587 348.332C116.143 349.314 115.92 350.494 115.92 351.874C115.92 353.254 116.143 354.443 116.587 355.439C117.032 356.421 117.661 357.18 118.473 357.716C119.301 358.238 120.267 358.498 121.371 358.498C122.644 358.498 123.648 358.207 124.384 357.624C125.136 357.026 125.642 356.237 125.902 355.255H127.995C127.673 356.804 126.945 358.015 125.81 358.889C124.676 359.763 123.196 360.2 121.371 360.2ZM137.701 360.2C136.229 360.2 134.933 359.855 133.814 359.165C132.695 358.46 131.821 357.486 131.192 356.244C130.563 354.987 130.249 353.53 130.249 351.874C130.249 350.234 130.563 348.792 131.192 347.55C131.821 346.293 132.695 345.312 133.814 344.606C134.933 343.901 136.229 343.548 137.701 343.548C139.204 343.548 140.515 343.901 141.634 344.606C142.753 345.312 143.62 346.293 144.233 347.55C144.846 348.792 145.153 350.234 145.153 351.874C145.153 353.53 144.846 354.987 144.233 356.244C143.62 357.486 142.753 358.46 141.634 359.165C140.515 359.855 139.204 360.2 137.701 360.2ZM137.701 358.498C138.805 358.498 139.763 358.238 140.576 357.716C141.404 357.18 142.04 356.421 142.485 355.439C142.945 354.443 143.175 353.254 143.175 351.874C143.175 350.494 142.945 349.314 142.485 348.332C142.04 347.336 141.404 346.577 140.576 346.055C139.763 345.534 138.805 345.273 137.701 345.273C136.612 345.273 135.654 345.534 134.826 346.055C134.013 346.577 133.377 347.336 132.917 348.332C132.457 349.314 132.227 350.494 132.227 351.874C132.227 353.254 132.457 354.443 132.917 355.439C133.377 356.421 134.013 357.18 134.826 357.716C135.654 358.238 136.612 358.498 137.701 358.498ZM147.395 359.924V358.567C148.53 357.709 149.603 356.842 150.615 355.968C151.627 355.094 152.524 354.228 153.306 353.369C154.088 352.495 154.702 351.644 155.146 350.816C155.591 349.988 155.813 349.191 155.813 348.424C155.813 347.857 155.706 347.336 155.491 346.86C155.292 346.37 154.962 345.971 154.502 345.664C154.058 345.358 153.452 345.204 152.685 345.204C151.949 345.204 151.336 345.365 150.845 345.687C150.355 345.994 149.987 346.408 149.741 346.929C149.496 347.435 149.373 347.995 149.373 348.608H147.51C147.526 347.55 147.756 346.646 148.2 345.894C148.645 345.128 149.258 344.545 150.04 344.146C150.822 343.748 151.712 343.548 152.708 343.548C153.69 343.548 154.556 343.732 155.307 344.1C156.059 344.453 156.649 344.99 157.078 345.71C157.523 346.416 157.745 347.297 157.745 348.355C157.745 349.107 157.584 349.858 157.262 350.609C156.956 351.361 156.534 352.097 155.997 352.817C155.461 353.523 154.863 354.205 154.203 354.864C153.559 355.524 152.892 356.145 152.202 356.727C151.512 357.31 150.861 357.839 150.247 358.314H158.297V359.924H147.395ZM174.2 360.2C172.728 360.2 171.432 359.855 170.313 359.165C169.194 358.46 168.32 357.486 167.691 356.244C167.062 354.987 166.748 353.53 166.748 351.874C166.748 350.234 167.062 348.792 167.691 347.55C168.32 346.293 169.194 345.312 170.313 344.606C171.432 343.901 172.728 343.548 174.2 343.548C175.703 343.548 177.014 343.901 178.133 344.606C179.252 345.312 180.119 346.293 180.732 347.55C181.345 348.792 181.652 350.234 181.652 351.874C181.652 353.53 181.345 354.987 180.732 356.244C180.119 357.486 179.252 358.46 178.133 359.165C177.014 359.855 175.703 360.2 174.2 360.2ZM174.2 358.498C175.304 358.498 176.262 358.238 177.075 357.716C177.903 357.18 178.539 356.421 178.984 355.439C179.444 354.443 179.674 353.254 179.674 351.874C179.674 350.494 179.444 349.314 178.984 348.332C178.539 347.336 177.903 346.577 177.075 346.055C176.262 345.534 175.304 345.273 174.2 345.273C173.111 345.273 172.153 345.534 171.325 346.055C170.512 346.577 169.876 347.336 169.416 348.332C168.956 349.314 168.726 350.494 168.726 351.874C168.726 353.254 168.956 354.443 169.416 355.439C169.876 356.421 170.512 357.18 171.325 357.716C172.153 358.238 173.111 358.498 174.2 358.498ZM185.173 359.924V346.538C185.173 345.802 185.296 345.204 185.541 344.744C185.787 344.269 186.147 343.924 186.622 343.709C187.113 343.479 187.711 343.364 188.416 343.364H190.187V345.02H188.738C188.156 345.02 187.734 345.143 187.473 345.388C187.228 345.618 187.105 346.025 187.105 346.607V359.924H185.173ZM183.287 349.459V347.826H190.325V349.459H183.287ZM193.484 359.924V346.538C193.484 345.802 193.606 345.204 193.852 344.744C194.097 344.269 194.457 343.924 194.933 343.709C195.423 343.479 196.021 343.364 196.727 343.364H198.498V345.02H197.049C196.466 345.02 196.044 345.143 195.784 345.388C195.538 345.618 195.416 346.025 195.416 346.607V359.924H193.484ZM191.598 349.459V347.826H198.636V349.459H191.598ZM204.979 360.2C203.89 360.2 202.985 360.039 202.265 359.717C201.559 359.38 201.023 358.92 200.655 358.337C200.287 357.739 200.064 357.049 199.988 356.267H201.966C202.027 356.681 202.165 357.065 202.38 357.417C202.61 357.755 202.939 358.031 203.369 358.245C203.798 358.46 204.342 358.567 205.002 358.567C205.523 358.567 205.968 358.491 206.336 358.337C206.704 358.169 206.98 357.939 207.164 357.647C207.363 357.356 207.463 357.019 207.463 356.635C207.463 356.129 207.348 355.738 207.118 355.462C206.903 355.171 206.581 354.956 206.152 354.818C205.738 354.665 205.216 354.55 204.588 354.473C203.913 354.381 203.315 354.251 202.794 354.082C202.272 353.914 201.828 353.691 201.46 353.415C201.107 353.139 200.839 352.794 200.655 352.38C200.471 351.966 200.379 351.476 200.379 350.908C200.379 350.249 200.555 349.666 200.908 349.16C201.26 348.654 201.759 348.263 202.403 347.987C203.062 347.696 203.836 347.55 204.726 347.55C206.029 347.55 207.056 347.849 207.808 348.447C208.574 349.045 209.027 349.896 209.165 351H207.256C207.179 350.433 206.918 349.988 206.474 349.666C206.029 349.344 205.439 349.183 204.703 349.183C203.921 349.183 203.33 349.329 202.932 349.62C202.533 349.912 202.334 350.295 202.334 350.77C202.334 351.123 202.418 351.445 202.587 351.736C202.771 352.012 203.077 352.25 203.507 352.449C203.936 352.633 204.511 352.771 205.232 352.863C206.136 352.971 206.903 353.147 207.532 353.392C208.16 353.622 208.636 353.983 208.958 354.473C209.295 354.964 209.456 355.631 209.441 356.474C209.441 357.272 209.249 357.946 208.866 358.498C208.498 359.05 207.976 359.472 207.302 359.763C206.642 360.055 205.868 360.2 204.979 360.2ZM217.325 360.2C216.251 360.2 215.301 359.94 214.473 359.418C213.645 358.897 212.993 358.161 212.518 357.21C212.058 356.26 211.828 355.148 211.828 353.875C211.828 352.603 212.058 351.491 212.518 350.54C212.993 349.59 213.645 348.854 214.473 348.332C215.316 347.811 216.282 347.55 217.371 347.55C218.536 347.55 219.51 347.811 220.292 348.332C221.074 348.854 221.664 349.551 222.063 350.425C222.461 351.299 222.661 352.258 222.661 353.3C222.661 353.454 222.661 353.607 222.661 353.76C222.661 353.914 222.653 354.098 222.638 354.312H213.277V352.817H220.775C220.744 351.637 220.399 350.74 219.74 350.126C219.096 349.498 218.291 349.183 217.325 349.183C216.681 349.183 216.083 349.344 215.531 349.666C214.994 349.973 214.557 350.433 214.22 351.046C213.882 351.66 213.714 352.426 213.714 353.346V353.99C213.714 355.002 213.882 355.853 214.22 356.543C214.557 357.218 214.994 357.724 215.531 358.061C216.083 358.399 216.681 358.567 217.325 358.567C218.183 358.567 218.858 358.406 219.349 358.084C219.839 357.747 220.2 357.272 220.43 356.658H222.339C222.155 357.333 221.833 357.939 221.373 358.475C220.928 359.012 220.361 359.434 219.671 359.74C218.996 360.047 218.214 360.2 217.325 360.2ZM229.648 359.924C228.958 359.924 228.36 359.817 227.854 359.602C227.348 359.388 226.957 359.027 226.681 358.521C226.421 358 226.29 357.302 226.29 356.428V349.459H224.174V347.826H226.29L226.543 344.813H228.222V347.826H231.649V349.459H228.222V356.428C228.222 357.149 228.368 357.64 228.659 357.9C228.951 358.146 229.464 358.268 230.2 358.268H231.603V359.924H229.648ZM240.615 359.924V343.824H245.79C247.078 343.824 248.136 344.039 248.964 344.468C249.792 344.898 250.405 345.48 250.804 346.216C251.202 346.937 251.402 347.757 251.402 348.677C251.402 349.582 251.202 350.402 250.804 351.138C250.405 351.874 249.792 352.457 248.964 352.886C248.151 353.316 247.093 353.53 245.79 353.53H242.547V359.924H240.615ZM242.547 351.897H245.767C247.116 351.897 248.059 351.606 248.596 351.023C249.148 350.425 249.424 349.643 249.424 348.677C249.424 347.665 249.148 346.876 248.596 346.308C248.059 345.726 247.116 345.434 245.767 345.434H242.547V351.897ZM258.433 360.2C257.313 360.2 256.324 359.94 255.466 359.418C254.607 358.897 253.94 358.161 253.465 357.21C252.989 356.26 252.752 355.148 252.752 353.875C252.752 352.587 252.989 351.476 253.465 350.54C253.955 349.59 254.63 348.854 255.489 348.332C256.363 347.811 257.359 347.55 258.479 347.55C259.613 347.55 260.602 347.811 261.446 348.332C262.304 348.854 262.971 349.59 263.447 350.54C263.922 351.476 264.16 352.587 264.16 353.875C264.16 355.148 263.914 356.26 263.424 357.21C262.948 358.161 262.281 358.897 261.423 359.418C260.564 359.94 259.567 360.2 258.433 360.2ZM258.433 358.544C259.138 358.544 259.774 358.376 260.342 358.038C260.909 357.686 261.354 357.164 261.676 356.474C262.013 355.769 262.182 354.903 262.182 353.875C262.182 352.833 262.021 351.966 261.699 351.276C261.377 350.586 260.932 350.073 260.365 349.735C259.813 349.383 259.184 349.206 258.479 349.206C257.789 349.206 257.16 349.383 256.593 349.735C256.025 350.073 255.573 350.586 255.236 351.276C254.898 351.966 254.73 352.833 254.73 353.875C254.73 354.903 254.891 355.769 255.213 356.474C255.55 357.164 255.995 357.686 256.547 358.038C257.114 358.376 257.743 358.544 258.433 358.544ZM271.201 359.924C270.511 359.924 269.913 359.817 269.407 359.602C268.901 359.388 268.51 359.027 268.234 358.521C267.973 358 267.843 357.302 267.843 356.428V349.459H265.727V347.826H267.843L268.096 344.813H269.775V347.826H273.202V349.459H269.775V356.428C269.775 357.149 269.921 357.64 270.212 357.9C270.503 358.146 271.017 358.268 271.753 358.268H273.156V359.924H271.201ZM280.552 360.2C279.479 360.2 278.528 359.94 277.7 359.418C276.872 358.897 276.221 358.161 275.745 357.21C275.285 356.26 275.055 355.148 275.055 353.875C275.055 352.603 275.285 351.491 275.745 350.54C276.221 349.59 276.872 348.854 277.7 348.332C278.544 347.811 279.51 347.55 280.598 347.55C281.764 347.55 282.737 347.811 283.519 348.332C284.301 348.854 284.892 349.551 285.29 350.425C285.689 351.299 285.888 352.258 285.888 353.3C285.888 353.454 285.888 353.607 285.888 353.76C285.888 353.914 285.881 354.098 285.865 354.312H276.504V352.817H284.002C283.972 351.637 283.627 350.74 282.967 350.126C282.323 349.498 281.518 349.183 280.552 349.183C279.908 349.183 279.31 349.344 278.758 349.666C278.222 349.973 277.785 350.433 277.447 351.046C277.11 351.66 276.941 352.426 276.941 353.346V353.99C276.941 355.002 277.11 355.853 277.447 356.543C277.785 357.218 278.222 357.724 278.758 358.061C279.31 358.399 279.908 358.567 280.552 358.567C281.411 358.567 282.086 358.406 282.576 358.084C283.067 357.747 283.427 357.272 283.657 356.658H285.566C285.382 357.333 285.06 357.939 284.6 358.475C284.156 359.012 283.588 359.434 282.898 359.74C282.224 360.047 281.442 360.2 280.552 360.2ZM288.566 359.924V347.826H290.314L290.406 349.735C290.758 349.045 291.264 348.509 291.924 348.125C292.598 347.742 293.373 347.55 294.247 347.55C295.136 347.55 295.91 347.719 296.57 348.056C297.229 348.394 297.743 348.907 298.111 349.597C298.479 350.287 298.663 351.161 298.663 352.219V359.924H296.731V352.426C296.731 351.353 296.462 350.548 295.926 350.011C295.404 349.475 294.699 349.206 293.81 349.206C293.212 349.206 292.66 349.352 292.154 349.643C291.648 349.919 291.241 350.333 290.935 350.885C290.643 351.437 290.498 352.112 290.498 352.909V359.924H288.566ZM306.554 359.924C305.864 359.924 305.266 359.817 304.76 359.602C304.254 359.388 303.863 359.027 303.587 358.521C303.327 358 303.196 357.302 303.196 356.428V349.459H301.08V347.826H303.196L303.449 344.813H305.128V347.826H308.555V349.459H305.128V356.428C305.128 357.149 305.274 357.64 305.565 357.9C305.857 358.146 306.37 358.268 307.106 358.268H308.509V359.924H306.554ZM311.39 359.924V347.826H313.322V359.924H311.39ZM312.356 345.526C311.973 345.526 311.651 345.404 311.39 345.158C311.145 344.898 311.022 344.576 311.022 344.192C311.022 343.809 311.145 343.502 311.39 343.272C311.651 343.027 311.973 342.904 312.356 342.904C312.724 342.904 313.039 343.027 313.299 343.272C313.56 343.502 313.69 343.809 313.69 344.192C313.69 344.576 313.56 344.898 313.299 345.158C313.039 345.404 312.724 345.526 312.356 345.526ZM320.526 360.2C319.606 360.2 318.839 360.032 318.226 359.694C317.613 359.342 317.153 358.882 316.846 358.314C316.539 357.732 316.386 357.111 316.386 356.451C316.386 355.654 316.585 354.979 316.984 354.427C317.398 353.86 317.973 353.431 318.709 353.139C319.445 352.848 320.304 352.702 321.285 352.702H324.298C324.298 351.92 324.206 351.269 324.022 350.747C323.838 350.226 323.539 349.835 323.125 349.574C322.711 349.314 322.159 349.183 321.469 349.183C320.779 349.183 320.189 349.36 319.698 349.712C319.207 350.05 318.901 350.556 318.778 351.23H316.8C316.892 350.433 317.16 349.766 317.605 349.229C318.05 348.677 318.609 348.263 319.284 347.987C319.974 347.696 320.702 347.55 321.469 347.55C322.558 347.55 323.455 347.75 324.16 348.148C324.865 348.532 325.387 349.076 325.724 349.781C326.061 350.471 326.23 351.292 326.23 352.242V359.924H324.505L324.39 357.854C324.237 358.176 324.037 358.483 323.792 358.774C323.562 359.05 323.286 359.296 322.964 359.51C322.642 359.725 322.274 359.894 321.86 360.016C321.461 360.139 321.017 360.2 320.526 360.2ZM320.802 358.567C321.308 358.567 321.776 358.452 322.205 358.222C322.634 357.992 323.002 357.686 323.309 357.302C323.631 356.904 323.876 356.459 324.045 355.968C324.214 355.478 324.298 354.964 324.298 354.427V354.197H321.446C320.725 354.197 320.135 354.289 319.675 354.473C319.23 354.657 318.908 354.918 318.709 355.255C318.51 355.577 318.41 355.945 318.41 356.359C318.41 356.804 318.502 357.195 318.686 357.532C318.87 357.854 319.138 358.107 319.491 358.291C319.859 358.475 320.296 358.567 320.802 358.567ZM329.422 359.924V343.364H331.354V359.924H329.422Z" fill="black"/>
</svg>
