<svg width="462" height="385" viewBox="0 0 462 385" fill="none" xmlns="http://www.w3.org/2000/svg">
<path d="M0 16.8491C0 8.01257 7.16344 0.849121 16 0.849121H446C454.837 0.849121 462 8.01257 462 16.8491V368.849C462 377.686 454.837 384.849 446 384.849H16C7.16344 384.849 0 377.686 0 368.849V16.8491Z" fill="white"/>
<rect x="24" y="20.8491" width="96.9902" height="97" rx="48.4951" fill="#20761F"/>
<path d="M45.9293 68.9316C46.1509 69.0977 46.4029 69.2186 46.6712 69.2873C46.9394 69.3561 47.2185 69.3713 47.4927 69.3321C47.7668 69.293 48.0305 69.2002 48.2687 69.0591C48.507 68.918 48.7151 68.7314 48.8813 68.5099C50.1579 66.8077 51.8133 65.4262 53.7164 64.4747C55.6194 63.5231 57.7179 63.0277 59.8456 63.0277C61.9733 63.0277 64.0718 63.5231 65.9748 64.4747C67.8779 65.4262 69.5333 66.8077 70.8099 68.5099C71.1458 68.9569 71.6455 69.2521 72.1991 69.3307C72.7527 69.4093 73.3148 69.2648 73.7619 68.929C73.9212 68.8105 74.0624 68.6693 74.1809 68.5099C75.4575 66.8077 77.1129 65.4262 79.016 64.4747C80.9191 63.5231 83.0175 63.0277 85.1452 63.0277C87.2729 63.0277 89.3714 63.5231 91.2745 64.4747C93.1775 65.4262 94.8329 66.8077 96.1096 68.5099C96.4454 68.9573 96.9453 69.2529 97.4991 69.3317C98.053 69.4106 98.6154 69.2662 99.0628 68.9303C99.5102 68.5944 99.8058 68.0946 99.8846 67.5407C99.9635 66.9869 99.8191 66.4244 99.4832 65.977C97.6168 63.4749 95.128 61.5049 92.2641 60.2629C93.8342 58.8295 94.9341 56.9549 95.4197 54.8851C95.9053 52.8154 95.7538 50.6472 94.985 48.6651C94.2163 46.683 92.8663 44.9796 91.1122 43.7784C89.358 42.5773 87.2817 41.9346 85.1558 41.9346C83.0298 41.9346 80.9535 42.5773 79.1994 43.7784C77.4453 44.9796 76.0952 46.683 75.3265 48.6651C74.5578 50.6472 74.4063 52.8154 74.8918 54.8851C75.3774 56.9549 76.4774 58.8295 78.0474 60.2629C75.9796 61.1571 74.1011 62.4371 72.5125 64.0346C70.924 62.4371 69.0455 61.1571 66.9777 60.2629C68.5477 58.8295 69.6477 56.9549 70.1333 54.8851C70.6188 52.8154 70.4673 50.6472 69.6986 48.6651C68.9299 46.683 67.5798 44.9796 65.8257 43.7784C64.0716 42.5773 61.9953 41.9346 59.8693 41.9346C57.7434 41.9346 55.6671 42.5773 53.9129 43.7784C52.1588 44.9796 50.8088 46.683 50.0401 48.6651C49.2713 50.6472 49.1198 52.8154 49.6054 54.8851C50.091 56.9549 51.1909 58.8295 52.761 60.2629C49.8845 61.5009 47.3834 63.4721 45.5076 65.9797C45.3415 66.2012 45.2206 66.4533 45.1519 66.7215C45.0832 66.9897 45.068 67.2689 45.1071 67.543C45.1463 67.8171 45.2391 68.0808 45.3801 68.3191C45.5212 68.5573 45.7078 68.7655 45.9293 68.9316ZM85.1479 46.1596C86.399 46.1596 87.6219 46.5305 88.6622 47.2256C89.7024 47.9207 90.5132 48.9086 90.9919 50.0644C91.4707 51.2203 91.596 52.4921 91.3519 53.7192C91.1078 54.9462 90.5054 56.0733 89.6207 56.958C88.7361 57.8426 87.609 58.4451 86.3819 58.6891C85.1549 58.9332 83.883 58.808 82.7272 58.3292C81.5713 57.8504 80.5834 57.0397 79.8884 55.9994C79.1933 54.9592 78.8223 53.7362 78.8223 52.4851C78.8223 50.8075 79.4887 49.1985 80.675 48.0123C81.8613 46.826 83.4702 46.1596 85.1479 46.1596ZM59.8456 46.1596C61.0967 46.1596 62.3197 46.5305 63.3599 47.2256C64.4001 47.9207 65.2109 48.9086 65.6897 50.0644C66.1684 51.2203 66.2937 52.4921 66.0496 53.7192C65.8055 54.9462 65.2031 56.0733 64.3185 56.958C63.4338 57.8426 62.3067 58.4451 61.0797 58.6891C59.8526 58.9332 58.5808 58.808 57.4249 58.3292C56.2691 57.8504 55.2811 57.0397 54.5861 55.9994C53.891 54.9592 53.52 53.7362 53.52 52.4851C53.52 50.8075 54.1865 49.1985 55.3727 48.0123C56.559 46.826 58.168 46.1596 59.8456 46.1596ZM92.2641 87.6737C93.8342 86.2403 94.9341 84.3657 95.4197 82.2959C95.9053 80.2262 95.7538 78.058 94.985 76.0759C94.2163 74.0938 92.8663 72.3904 91.1122 71.1892C89.358 69.9881 87.2817 69.3454 85.1558 69.3454C83.0298 69.3454 80.9535 69.9881 79.1994 71.1892C77.4453 72.3904 76.0952 74.0938 75.3265 76.0759C74.5578 78.058 74.4063 80.2262 74.8918 82.2959C75.3774 84.3657 76.4774 86.2403 78.0474 87.6737C75.9796 88.5679 74.1011 89.8479 72.5125 91.4454C70.924 89.8479 69.0455 88.5679 66.9777 87.6737C68.5477 86.2403 69.6477 84.3657 70.1333 82.2959C70.6188 80.2262 70.4673 78.058 69.6986 76.0759C68.9299 74.0938 67.5798 72.3904 65.8257 71.1892C64.0716 69.9881 61.9953 69.3454 59.8693 69.3454C57.7434 69.3454 55.6671 69.9881 53.9129 71.1892C52.1588 72.3904 50.8088 74.0938 50.0401 76.0759C49.2713 78.058 49.1198 80.2262 49.6054 82.2959C50.091 84.3657 51.1909 86.2403 52.761 87.6737C49.8845 88.9117 47.3834 90.8829 45.5076 93.3905C45.3415 93.612 45.2206 93.8641 45.1519 94.1323C45.0832 94.4005 45.068 94.6797 45.1071 94.9538C45.1463 95.2279 45.2391 95.4916 45.3801 95.7299C45.5212 95.9681 45.7078 96.1763 45.9293 96.3424C46.1509 96.5085 46.4029 96.6294 46.6712 96.6981C46.9394 96.7669 47.2185 96.7821 47.4927 96.7429C47.7668 96.7038 48.0305 96.611 48.2687 96.4699C48.507 96.3288 48.7151 96.1422 48.8813 95.9207C50.1579 94.2185 51.8133 92.837 53.7164 91.8855C55.6194 90.9339 57.7179 90.4385 59.8456 90.4385C61.9733 90.4385 64.0718 90.9339 65.9748 91.8855C67.8779 92.837 69.5333 94.2185 70.8099 95.9207C71.1458 96.3677 71.6455 96.6629 72.1991 96.7415C72.7527 96.8201 73.3148 96.6756 73.7619 96.3398C73.9212 96.2212 74.0624 96.0801 74.1809 95.9207C75.4575 94.2185 77.1129 92.837 79.016 91.8855C80.9191 90.9339 83.0175 90.4385 85.1452 90.4385C87.2729 90.4385 89.3714 90.9339 91.2745 91.8855C93.1775 92.837 94.8329 94.2185 96.1096 95.9207C96.4454 96.3681 96.9453 96.6637 97.4991 96.7425C98.053 96.8214 98.6154 96.677 99.0628 96.3411C99.5102 96.0052 99.8058 95.5054 99.8846 94.9515C99.9635 94.3977 99.8191 93.8352 99.4832 93.3878C97.6168 90.8857 95.128 88.9157 92.2641 87.6737ZM59.8456 73.5704C61.0967 73.5704 62.3197 73.9413 63.3599 74.6364C64.4001 75.3315 65.2109 76.3194 65.6897 77.4752C66.1684 78.6311 66.2937 79.9029 66.0496 81.13C65.8055 82.357 65.2031 83.4841 64.3185 84.3688C63.4338 85.2534 62.3067 85.8559 61.0797 86.0999C59.8526 86.344 58.5808 86.2188 57.4249 85.74C56.2691 85.2612 55.2811 84.4505 54.5861 83.4102C53.891 82.37 53.52 81.147 53.52 79.8959C53.52 78.2183 54.1865 76.6093 55.3727 75.4231C56.559 74.2368 58.168 73.5704 59.8456 73.5704ZM85.1479 73.5704C86.399 73.5704 87.6219 73.9413 88.6622 74.6364C89.7024 75.3315 90.5132 76.3194 90.9919 77.4752C91.4707 78.6311 91.596 79.9029 91.3519 81.13C91.1078 82.357 90.5054 83.4841 89.6207 84.3688C88.7361 85.2534 87.609 85.8559 86.3819 86.0999C85.1549 86.344 83.883 86.2188 82.7272 85.74C81.5713 85.2612 80.5834 84.4505 79.8884 83.4102C79.1933 82.37 78.8223 81.147 78.8223 79.8959C78.8223 78.2183 79.4887 76.6093 80.675 75.4231C81.8613 74.2368 83.4702 73.5704 85.1479 73.5704Z" fill="white"/>
<path d="M61.5567 260.938C39.5582 260.938 30.1925 250.375 30.1925 236.653V234.91H38.2513V236.326C38.2513 247.761 43.8054 253.533 61.3389 253.533C77.6744 253.533 84.2086 249.068 84.2086 238.722C84.2086 229.465 77.7833 225.109 66.6752 225.109H46.9636V218.466H65.0416C76.0409 218.466 82.0306 214.436 82.0306 206.16C82.0306 197.447 76.6943 193.2 61.0122 193.2C44.3499 193.2 38.2513 198.972 38.2513 210.407V211.387H30.1925V210.08C30.1925 196.576 39.8849 185.795 61.5567 185.795C79.4169 185.795 89.7627 192.873 89.7627 204.962C89.7627 213.129 84.971 219.228 75.8231 220.862V221.624C86.1689 223.584 92.0497 229.901 92.0497 239.593C92.0497 253.206 80.397 260.938 61.5567 260.938ZM133.19 260.938C112.389 260.938 99.3207 246.89 99.3207 223.366C99.3207 199.952 112.389 185.795 133.19 185.795C153.881 185.795 166.95 199.952 166.95 223.366C166.95 246.89 153.881 260.938 133.19 260.938ZM133.19 253.533C150.07 253.533 158.782 243.731 158.782 223.366C158.782 203.001 150.07 193.2 133.19 193.2C116.201 193.2 107.488 203.001 107.488 223.366C107.488 243.731 116.201 253.533 133.19 253.533ZM208.486 260.938C187.686 260.938 174.617 246.89 174.617 223.366C174.617 199.952 187.686 185.795 208.486 185.795C229.178 185.795 242.246 199.952 242.246 223.366C242.246 246.89 229.178 260.938 208.486 260.938ZM208.486 253.533C225.366 253.533 234.079 243.731 234.079 223.366C234.079 203.001 225.366 193.2 208.486 193.2C191.497 193.2 182.785 203.001 182.785 223.366C182.785 243.731 191.497 253.533 208.486 253.533ZM274.853 244.603H267.883V226.634H250.132V220.099H267.883V202.13H274.853V220.099H292.604V226.634H274.853V244.603Z" fill="#20761F"/>
<path d="M27.4 348.649C27.5051 348.728 27.6246 348.785 27.7518 348.818C27.879 348.85 28.0114 348.858 28.1414 348.839C28.2714 348.82 28.3965 348.776 28.5095 348.709C28.6225 348.643 28.7212 348.554 28.8 348.449C29.4055 347.642 30.1906 346.986 31.0931 346.535C31.9957 346.084 32.9909 345.849 34 345.849C35.0091 345.849 36.0043 346.084 36.9069 346.535C37.8094 346.986 38.5945 347.642 39.2 348.449C39.3593 348.661 39.5963 348.801 39.8588 348.838C40.1214 348.876 40.388 348.807 40.6 348.648C40.6756 348.592 40.7425 348.525 40.7987 348.449C41.4042 347.642 42.1893 346.986 43.0919 346.535C43.9944 346.084 44.9897 345.849 45.9988 345.849C47.0078 345.849 48.0031 346.084 48.9056 346.535C49.8082 346.986 50.5933 347.642 51.1987 348.449C51.358 348.661 51.5951 348.801 51.8578 348.839C52.1204 348.876 52.3872 348.808 52.5994 348.648C52.8115 348.489 52.9518 348.252 52.9891 347.989C53.0265 347.727 52.958 347.46 52.7987 347.248C51.9136 346.061 50.7332 345.127 49.375 344.538C50.1196 343.858 50.6413 342.969 50.8716 341.987C51.1019 341.006 51.03 339.977 50.6654 339.037C50.3009 338.097 49.6606 337.289 48.8287 336.72C47.9967 336.15 47.012 335.845 46.0037 335.845C44.9955 335.845 44.0108 336.15 43.1788 336.72C42.3469 337.289 41.7066 338.097 41.3421 339.037C40.9775 339.977 40.9056 341.006 41.1359 341.987C41.3662 342.969 41.8879 343.858 42.6325 344.538C41.6518 344.962 40.7609 345.569 40.0075 346.326C39.2541 345.569 38.3632 344.962 37.3825 344.538C38.1271 343.858 38.6488 342.969 38.8791 341.987C39.1094 341.006 39.0375 339.977 38.6729 339.037C38.3084 338.097 37.6681 337.289 36.8362 336.72C36.0042 336.15 35.0195 335.845 34.0112 335.845C33.003 335.845 32.0183 336.15 31.1863 336.72C30.3544 337.289 29.7141 338.097 29.3496 339.037C28.985 339.977 28.9131 341.006 29.1434 341.987C29.3737 342.969 29.8954 343.858 30.64 344.538C29.2758 345.125 28.0896 346.06 27.2 347.249C27.1212 347.354 27.0639 347.474 27.0313 347.601C26.9987 347.728 26.9915 347.86 27.0101 347.99C27.0286 348.12 27.0726 348.245 27.1395 348.358C27.2064 348.471 27.2949 348.57 27.4 348.649ZM46 337.849C46.5933 337.849 47.1734 338.025 47.6667 338.355C48.1601 338.684 48.5446 339.153 48.7716 339.701C48.9987 340.249 49.0581 340.852 48.9424 341.434C48.8266 342.016 48.5409 342.551 48.1213 342.97C47.7018 343.39 47.1672 343.676 46.5853 343.791C46.0033 343.907 45.4001 343.848 44.8519 343.621C44.3038 343.394 43.8352 343.009 43.5056 342.516C43.1759 342.022 43 341.442 43 340.849C43 340.053 43.3161 339.29 43.8787 338.728C44.4413 338.165 45.2044 337.849 46 337.849ZM34 337.849C34.5933 337.849 35.1734 338.025 35.6667 338.355C36.1601 338.684 36.5446 339.153 36.7716 339.701C36.9987 340.249 37.0581 340.852 36.9424 341.434C36.8266 342.016 36.5409 342.551 36.1213 342.97C35.7018 343.39 35.1672 343.676 34.5853 343.791C34.0033 343.907 33.4001 343.848 32.8519 343.621C32.3038 343.394 31.8352 343.009 31.5056 342.516C31.1759 342.022 31 341.442 31 340.849C31 340.053 31.3161 339.29 31.8787 338.728C32.4413 338.165 33.2044 337.849 34 337.849ZM49.375 357.538C50.1196 356.858 50.6413 355.969 50.8716 354.987C51.1019 354.006 51.03 352.977 50.6654 352.037C50.3009 351.097 49.6606 350.289 48.8287 349.72C47.9967 349.15 47.012 348.845 46.0037 348.845C44.9955 348.845 44.0108 349.15 43.1788 349.72C42.3469 350.289 41.7066 351.097 41.3421 352.037C40.9775 352.977 40.9056 354.006 41.1359 354.987C41.3662 355.969 41.8879 356.858 42.6325 357.538C41.6518 357.962 40.7609 358.569 40.0075 359.326C39.2541 358.569 38.3632 357.962 37.3825 357.538C38.1271 356.858 38.6488 355.969 38.8791 354.987C39.1094 354.006 39.0375 352.977 38.6729 352.037C38.3084 351.097 37.6681 350.289 36.8362 349.72C36.0042 349.15 35.0195 348.845 34.0112 348.845C33.003 348.845 32.0183 349.15 31.1863 349.72C30.3544 350.289 29.7141 351.097 29.3496 352.037C28.985 352.977 28.9131 354.006 29.1434 354.987C29.3737 355.969 29.8954 356.858 30.64 357.538C29.2758 358.125 28.0896 359.06 27.2 360.249C27.1212 360.354 27.0639 360.474 27.0313 360.601C26.9987 360.728 26.9915 360.86 27.0101 360.99C27.0286 361.12 27.0726 361.245 27.1395 361.358C27.2064 361.471 27.2949 361.57 27.4 361.649C27.5051 361.728 27.6246 361.785 27.7518 361.818C27.879 361.85 28.0114 361.858 28.1414 361.839C28.2714 361.82 28.3965 361.776 28.5095 361.709C28.6225 361.643 28.7212 361.554 28.8 361.449C29.4055 360.642 30.1906 359.986 31.0931 359.535C31.9957 359.084 32.9909 358.849 34 358.849C35.0091 358.849 36.0043 359.084 36.9069 359.535C37.8094 359.986 38.5945 360.642 39.2 361.449C39.3593 361.661 39.5963 361.801 39.8588 361.838C40.1214 361.876 40.388 361.807 40.6 361.648C40.6756 361.592 40.7425 361.525 40.7987 361.449C41.4042 360.642 42.1893 359.986 43.0919 359.535C43.9944 359.084 44.9897 358.849 45.9988 358.849C47.0078 358.849 48.0031 359.084 48.9056 359.535C49.8082 359.986 50.5933 360.642 51.1987 361.449C51.358 361.661 51.5951 361.801 51.8578 361.839C52.1204 361.876 52.3872 361.808 52.5994 361.648C52.8115 361.489 52.9518 361.252 52.9891 360.989C53.0265 360.727 52.958 360.46 52.7987 360.248C51.9136 359.061 50.7332 358.127 49.375 357.538ZM34 350.849C34.5933 350.849 35.1734 351.025 35.6667 351.355C36.1601 351.684 36.5446 352.153 36.7716 352.701C36.9987 353.249 37.0581 353.852 36.9424 354.434C36.8266 355.016 36.5409 355.551 36.1213 355.97C35.7018 356.39 35.1672 356.676 34.5853 356.791C34.0033 356.907 33.4001 356.848 32.8519 356.621C32.3038 356.394 31.8352 356.009 31.5056 355.516C31.1759 355.022 31 354.442 31 353.849C31 353.053 31.3161 352.29 31.8787 351.728C32.4413 351.165 33.2044 350.849 34 350.849ZM46 350.849C46.5933 350.849 47.1734 351.025 47.6667 351.355C48.1601 351.684 48.5446 352.153 48.7716 352.701C48.9987 353.249 49.0581 353.852 48.9424 354.434C48.8266 355.016 48.5409 355.551 48.1213 355.97C47.7018 356.39 47.1672 356.676 46.5853 356.791C46.0033 356.907 45.4001 356.848 44.8519 356.621C44.3038 356.394 43.8352 356.009 43.5056 355.516C43.1759 355.022 43 354.442 43 353.849C43 353.053 43.3161 352.29 43.8787 351.728C44.4413 351.165 45.2044 350.849 46 350.849Z" fill="black"/>
<path d="M64.771 356.849V340.749H74.569V342.336H66.703V347.994H73.396V349.558H66.703V356.849H64.771ZM80.0173 357.125C79.0973 357.125 78.3306 356.956 77.7173 356.619C77.104 356.266 76.644 355.806 76.3373 355.239C76.0306 354.656 75.8773 354.035 75.8773 353.376C75.8773 352.579 76.0766 351.904 76.4753 351.352C76.8893 350.785 77.4643 350.355 78.2003 350.064C78.9363 349.773 79.795 349.627 80.7763 349.627H83.7893C83.7893 348.845 83.6973 348.193 83.5133 347.672C83.3293 347.151 83.0303 346.76 82.6163 346.499C82.2023 346.238 81.6503 346.108 80.9603 346.108C80.2703 346.108 79.68 346.284 79.1893 346.637C78.6986 346.974 78.392 347.48 78.2693 348.155H76.2913C76.3833 347.358 76.6516 346.691 77.0963 346.154C77.541 345.602 78.1006 345.188 78.7753 344.912C79.4653 344.621 80.1936 344.475 80.9603 344.475C82.049 344.475 82.946 344.674 83.6513 345.073C84.3566 345.456 84.878 346.001 85.2153 346.706C85.5526 347.396 85.7213 348.216 85.7213 349.167V356.849H83.9963L83.8813 354.779C83.728 355.101 83.5286 355.408 83.2833 355.699C83.0533 355.975 82.7773 356.22 82.4553 356.435C82.1333 356.65 81.7653 356.818 81.3513 356.941C80.9526 357.064 80.508 357.125 80.0173 357.125ZM80.2933 355.492C80.7993 355.492 81.267 355.377 81.6963 355.147C82.1256 354.917 82.4936 354.61 82.8003 354.227C83.1223 353.828 83.3676 353.384 83.5363 352.893C83.705 352.402 83.7893 351.889 83.7893 351.352V351.122H80.9373C80.2166 351.122 79.6263 351.214 79.1663 351.398C78.7216 351.582 78.3996 351.843 78.2003 352.18C78.001 352.502 77.9013 352.87 77.9013 353.284C77.9013 353.729 77.9933 354.12 78.1773 354.457C78.3613 354.779 78.6296 355.032 78.9823 355.216C79.3503 355.4 79.7873 355.492 80.2933 355.492ZM88.9133 356.849V344.751H90.6613L90.7993 346.959C91.0753 346.407 91.4356 345.947 91.8803 345.579C92.3249 345.211 92.8616 344.935 93.4903 344.751C94.1343 344.567 94.8549 344.475 95.6523 344.475V346.499H94.4563C93.9963 346.499 93.5516 346.56 93.1223 346.683C92.6929 346.806 92.3019 347.005 91.9493 347.281C91.6119 347.557 91.3436 347.933 91.1443 348.408C90.9449 348.883 90.8453 349.481 90.8453 350.202V356.849H88.9133ZM97.8752 356.849V344.751H99.6232L99.7152 346.407C100.083 345.809 100.582 345.341 101.21 345.004C101.839 344.651 102.498 344.475 103.188 344.475C103.771 344.475 104.292 344.559 104.752 344.728C105.228 344.881 105.642 345.127 105.994 345.464C106.347 345.786 106.631 346.192 106.845 346.683C107.244 345.962 107.781 345.418 108.455 345.05C109.145 344.667 109.866 344.475 110.617 344.475C111.507 344.475 112.266 344.651 112.894 345.004C113.538 345.341 114.029 345.863 114.366 346.568C114.719 347.258 114.895 348.124 114.895 349.167V356.849H112.986V349.374C112.986 348.285 112.749 347.473 112.273 346.936C111.798 346.399 111.154 346.131 110.341 346.131C109.789 346.131 109.283 346.277 108.823 346.568C108.379 346.859 108.018 347.289 107.742 347.856C107.482 348.423 107.351 349.113 107.351 349.926V356.849H105.419V349.374C105.419 348.285 105.182 347.473 104.706 346.936C104.231 346.399 103.595 346.131 102.797 346.131C102.261 346.131 101.762 346.277 101.302 346.568C100.858 346.859 100.497 347.289 100.221 347.856C99.9452 348.423 99.8072 349.113 99.8072 349.926V356.849H97.8752ZM123.104 357.125C122.031 357.125 121.08 356.864 120.252 356.343C119.424 355.822 118.772 355.086 118.297 354.135C117.837 353.184 117.607 352.073 117.607 350.8C117.607 349.527 117.837 348.416 118.297 347.465C118.772 346.514 119.424 345.778 120.252 345.257C121.095 344.736 122.061 344.475 123.15 344.475C124.315 344.475 125.289 344.736 126.071 345.257C126.853 345.778 127.443 346.476 127.842 347.35C128.241 348.224 128.44 349.182 128.44 350.225C128.44 350.378 128.44 350.532 128.44 350.685C128.44 350.838 128.432 351.022 128.417 351.237H119.056V349.742H126.554C126.523 348.561 126.178 347.664 125.519 347.051C124.875 346.422 124.07 346.108 123.104 346.108C122.46 346.108 121.862 346.269 121.31 346.591C120.773 346.898 120.336 347.358 119.999 347.971C119.662 348.584 119.493 349.351 119.493 350.271V350.915C119.493 351.927 119.662 352.778 119.999 353.468C120.336 354.143 120.773 354.649 121.31 354.986C121.862 355.323 122.46 355.492 123.104 355.492C123.963 355.492 124.637 355.331 125.128 355.009C125.619 354.672 125.979 354.196 126.209 353.583H128.118C127.934 354.258 127.612 354.863 127.152 355.4C126.707 355.937 126.14 356.358 125.45 356.665C124.775 356.972 123.993 357.125 123.104 357.125ZM131.117 356.849V344.751H132.865L133.003 346.959C133.279 346.407 133.64 345.947 134.084 345.579C134.529 345.211 135.066 344.935 135.694 344.751C136.338 344.567 137.059 344.475 137.856 344.475V346.499H136.66C136.2 346.499 135.756 346.56 135.326 346.683C134.897 346.806 134.506 347.005 134.153 347.281C133.816 347.557 133.548 347.933 133.348 348.408C133.149 348.883 133.049 349.481 133.049 350.202V356.849H131.117ZM144.449 357.125C143.361 357.125 142.456 356.964 141.735 356.642C141.03 356.305 140.493 355.845 140.125 355.262C139.757 354.664 139.535 353.974 139.458 353.192H141.436C141.498 353.606 141.636 353.989 141.85 354.342C142.08 354.679 142.41 354.955 142.839 355.17C143.269 355.385 143.813 355.492 144.472 355.492C144.994 355.492 145.438 355.415 145.806 355.262C146.174 355.093 146.45 354.863 146.634 354.572C146.834 354.281 146.933 353.943 146.933 353.56C146.933 353.054 146.818 352.663 146.588 352.387C146.374 352.096 146.052 351.881 145.622 351.743C145.208 351.59 144.687 351.475 144.058 351.398C143.384 351.306 142.786 351.176 142.264 351.007C141.743 350.838 141.298 350.616 140.93 350.34C140.578 350.064 140.309 349.719 140.125 349.305C139.941 348.891 139.849 348.4 139.849 347.833C139.849 347.174 140.026 346.591 140.378 346.085C140.731 345.579 141.229 345.188 141.873 344.912C142.533 344.621 143.307 344.475 144.196 344.475C145.5 344.475 146.527 344.774 147.278 345.372C148.045 345.97 148.497 346.821 148.635 347.925H146.726C146.65 347.358 146.389 346.913 145.944 346.591C145.5 346.269 144.909 346.108 144.173 346.108C143.391 346.108 142.801 346.254 142.402 346.545C142.004 346.836 141.804 347.22 141.804 347.695C141.804 348.048 141.889 348.37 142.057 348.661C142.241 348.937 142.548 349.175 142.977 349.374C143.407 349.558 143.982 349.696 144.702 349.788C145.607 349.895 146.374 350.072 147.002 350.317C147.631 350.547 148.106 350.907 148.428 351.398C148.766 351.889 148.927 352.556 148.911 353.399C148.911 354.196 148.72 354.871 148.336 355.423C147.968 355.975 147.447 356.397 146.772 356.688C146.113 356.979 145.339 357.125 144.449 357.125ZM158.096 356.849V340.749H168.055V342.336H160.028V347.948H167.365V349.512H160.028V355.262H168.055V356.849H158.096ZM171.053 356.849V344.751H172.801L172.893 346.407C173.261 345.809 173.759 345.341 174.388 345.004C175.017 344.651 175.676 344.475 176.366 344.475C176.949 344.475 177.47 344.559 177.93 344.728C178.405 344.881 178.819 345.127 179.172 345.464C179.525 345.786 179.808 346.192 180.023 346.683C180.422 345.962 180.958 345.418 181.633 345.05C182.323 344.667 183.044 344.475 183.795 344.475C184.684 344.475 185.443 344.651 186.072 345.004C186.716 345.341 187.207 345.863 187.544 346.568C187.897 347.258 188.073 348.124 188.073 349.167V356.849H186.164V349.374C186.164 348.285 185.926 347.473 185.451 346.936C184.976 346.399 184.332 346.131 183.519 346.131C182.967 346.131 182.461 346.277 182.001 346.568C181.556 346.859 181.196 347.289 180.92 347.856C180.659 348.423 180.529 349.113 180.529 349.926V356.849H178.597V349.374C178.597 348.285 178.359 347.473 177.884 346.936C177.409 346.399 176.772 346.131 175.975 346.131C175.438 346.131 174.94 346.277 174.48 346.568C174.035 346.859 173.675 347.289 173.399 347.856C173.123 348.423 172.985 349.113 172.985 349.926V356.849H171.053ZM191.268 361.909V344.751H193.016L193.177 346.637C193.422 346.238 193.729 345.878 194.097 345.556C194.48 345.234 194.932 344.973 195.454 344.774C195.99 344.575 196.604 344.475 197.294 344.475C198.382 344.475 199.333 344.751 200.146 345.303C200.974 345.855 201.618 346.606 202.078 347.557C202.538 348.508 202.768 349.596 202.768 350.823C202.768 352.034 202.538 353.115 202.078 354.066C201.618 355.017 200.974 355.768 200.146 356.32C199.318 356.857 198.359 357.125 197.271 357.125C196.335 357.125 195.515 356.933 194.81 356.55C194.104 356.167 193.568 355.63 193.2 354.94V361.909H191.268ZM197.041 355.446C197.761 355.446 198.398 355.262 198.95 354.894C199.517 354.511 199.962 353.974 200.284 353.284C200.621 352.579 200.79 351.751 200.79 350.8C200.79 349.849 200.621 349.029 200.284 348.339C199.962 347.634 199.517 347.097 198.95 346.729C198.398 346.346 197.761 346.154 197.041 346.154C196.274 346.154 195.607 346.346 195.04 346.729C194.472 347.097 194.035 347.634 193.729 348.339C193.422 349.029 193.269 349.849 193.269 350.8C193.269 351.751 193.422 352.579 193.729 353.284C194.035 353.974 194.472 354.511 195.04 354.894C195.607 355.262 196.274 355.446 197.041 355.446ZM210.773 357.125C209.654 357.125 208.665 356.864 207.806 356.343C206.948 355.822 206.281 355.086 205.805 354.135C205.33 353.184 205.092 352.073 205.092 350.8C205.092 349.512 205.33 348.4 205.805 347.465C206.296 346.514 206.971 345.778 207.829 345.257C208.703 344.736 209.7 344.475 210.819 344.475C211.954 344.475 212.943 344.736 213.786 345.257C214.645 345.778 215.312 346.514 215.787 347.465C216.263 348.4 216.5 349.512 216.5 350.8C216.5 352.073 216.255 353.184 215.764 354.135C215.289 355.086 214.622 355.822 213.763 356.343C212.905 356.864 211.908 357.125 210.773 357.125ZM210.773 355.469C211.479 355.469 212.115 355.3 212.682 354.963C213.25 354.61 213.694 354.089 214.016 353.399C214.354 352.694 214.522 351.827 214.522 350.8C214.522 349.757 214.361 348.891 214.039 348.201C213.717 347.511 213.273 346.997 212.705 346.66C212.153 346.307 211.525 346.131 210.819 346.131C210.129 346.131 209.501 346.307 208.933 346.66C208.366 346.997 207.914 347.511 207.576 348.201C207.239 348.891 207.07 349.757 207.07 350.8C207.07 351.827 207.231 352.694 207.553 353.399C207.891 354.089 208.335 354.61 208.887 354.963C209.455 355.3 210.083 355.469 210.773 355.469ZM221.379 356.849L217.814 344.751H219.746L222.391 354.388L225.197 344.751H227.382L230.211 354.365L232.833 344.751H234.788L231.223 356.849H229.245L226.301 346.775L223.357 356.849H221.379ZM241.585 357.125C240.512 357.125 239.561 356.864 238.733 356.343C237.905 355.822 237.254 355.086 236.778 354.135C236.318 353.184 236.088 352.073 236.088 350.8C236.088 349.527 236.318 348.416 236.778 347.465C237.254 346.514 237.905 345.778 238.733 345.257C239.577 344.736 240.543 344.475 241.631 344.475C242.797 344.475 243.77 344.736 244.552 345.257C245.334 345.778 245.925 346.476 246.323 347.35C246.722 348.224 246.921 349.182 246.921 350.225C246.921 350.378 246.921 350.532 246.921 350.685C246.921 350.838 246.914 351.022 246.898 351.237H237.537V349.742H245.035C245.005 348.561 244.66 347.664 244 347.051C243.356 346.422 242.551 346.108 241.585 346.108C240.941 346.108 240.343 346.269 239.791 346.591C239.255 346.898 238.818 347.358 238.48 347.971C238.143 348.584 237.974 349.351 237.974 350.271V350.915C237.974 351.927 238.143 352.778 238.48 353.468C238.818 354.143 239.255 354.649 239.791 354.986C240.343 355.323 240.941 355.492 241.585 355.492C242.444 355.492 243.119 355.331 243.609 355.009C244.1 354.672 244.46 354.196 244.69 353.583H246.599C246.415 354.258 246.093 354.863 245.633 355.4C245.189 355.937 244.621 356.358 243.931 356.665C243.257 356.972 242.475 357.125 241.585 357.125ZM249.599 356.849V344.751H251.347L251.485 346.959C251.761 346.407 252.121 345.947 252.566 345.579C253.01 345.211 253.547 344.935 254.176 344.751C254.82 344.567 255.54 344.475 256.338 344.475V346.499H255.142C254.682 346.499 254.237 346.56 253.808 346.683C253.378 346.806 252.987 347.005 252.635 347.281C252.297 347.557 252.029 347.933 251.83 348.408C251.63 348.883 251.531 349.481 251.531 350.202V356.849H249.599ZM263.148 357.125C262.075 357.125 261.124 356.864 260.296 356.343C259.468 355.822 258.816 355.086 258.341 354.135C257.881 353.184 257.651 352.073 257.651 350.8C257.651 349.527 257.881 348.416 258.341 347.465C258.816 346.514 259.468 345.778 260.296 345.257C261.139 344.736 262.105 344.475 263.194 344.475C264.359 344.475 265.333 344.736 266.115 345.257C266.897 345.778 267.487 346.476 267.886 347.35C268.285 348.224 268.484 349.182 268.484 350.225C268.484 350.378 268.484 350.532 268.484 350.685C268.484 350.838 268.476 351.022 268.461 351.237H259.1V349.742H266.598C266.567 348.561 266.222 347.664 265.563 347.051C264.919 346.422 264.114 346.108 263.148 346.108C262.504 346.108 261.906 346.269 261.354 346.591C260.817 346.898 260.38 347.358 260.043 347.971C259.706 348.584 259.537 349.351 259.537 350.271V350.915C259.537 351.927 259.706 352.778 260.043 353.468C260.38 354.143 260.817 354.649 261.354 354.986C261.906 355.323 262.504 355.492 263.148 355.492C264.007 355.492 264.681 355.331 265.172 355.009C265.663 354.672 266.023 354.196 266.253 353.583H268.162C267.978 354.258 267.656 354.863 267.196 355.4C266.751 355.937 266.184 356.358 265.494 356.665C264.819 356.972 264.037 357.125 263.148 357.125ZM276.152 357.125C275.079 357.125 274.128 356.849 273.3 356.297C272.472 355.745 271.828 354.994 271.368 354.043C270.908 353.077 270.678 351.988 270.678 350.777C270.678 349.55 270.908 348.469 271.368 347.534C271.828 346.583 272.472 345.84 273.3 345.303C274.128 344.751 275.087 344.475 276.175 344.475C277.126 344.475 277.939 344.667 278.613 345.05C279.303 345.433 279.848 345.97 280.246 346.66V340.289H282.178V356.849H280.43L280.269 354.917C280.039 355.3 279.733 355.661 279.349 355.998C278.981 356.335 278.529 356.611 277.992 356.826C277.471 357.025 276.858 357.125 276.152 357.125ZM276.405 355.446C277.172 355.446 277.839 355.262 278.406 354.894C278.974 354.511 279.411 353.974 279.717 353.284C280.024 352.579 280.177 351.751 280.177 350.8C280.177 349.849 280.024 349.029 279.717 348.339C279.411 347.634 278.974 347.097 278.406 346.729C277.839 346.346 277.172 346.154 276.405 346.154C275.685 346.154 275.041 346.346 274.473 346.729C273.906 347.097 273.461 347.634 273.139 348.339C272.817 349.029 272.656 349.849 272.656 350.8C272.656 351.751 272.817 352.579 273.139 353.284C273.461 353.974 273.906 354.511 274.473 354.894C275.041 355.262 275.685 355.446 276.405 355.446Z" fill="black"/>
</svg>
