<svg width="158" height="262" viewBox="0 0 158 262" fill="none" xmlns="http://www.w3.org/2000/svg">
<path fill-rule="evenodd" clip-rule="evenodd" d="M131.776 146.59C132.003 145.964 132.183 145.247 132.176 144.997C132.169 144.747 132.344 144.537 132.566 144.53C133.081 144.514 133.716 143.437 133.339 143.219C133.166 143.119 133.351 142.843 133.811 142.514C134.404 142.091 134.576 141.753 134.604 140.96C134.632 140.199 134.745 139.968 135.058 140.031C135.377 140.095 135.498 139.895 135.567 139.191C135.629 138.56 135.789 138.26 136.074 138.243C136.303 138.23 136.83 137.679 137.244 137.017C137.836 136.073 137.915 135.639 137.613 134.991C137.403 134.537 137.367 134.245 137.534 134.341C137.87 134.535 140.011 131.262 139.992 130.586C139.985 130.357 140.501 129.34 141.137 128.327C142.12 126.762 142.257 126.323 142.047 125.421C141.854 124.595 141.925 124.31 142.366 124.147C143.183 123.844 144.378 121.435 144.066 120.717C143.857 120.236 143.925 120.081 144.43 119.893C144.873 119.729 144.975 119.578 144.786 119.365C144.619 119.175 145.045 118.158 145.948 116.588C146.733 115.225 147.587 113.268 147.846 112.239C148.105 111.21 148.602 109.954 148.949 109.448C149.297 108.941 149.541 108.285 149.491 107.989C149.441 107.693 149.544 107.192 149.72 106.875C150.389 105.669 151.01 103.714 150.97 102.94C150.946 102.497 151.247 101.601 151.638 100.948C152.029 100.295 152.36 99.4339 152.373 99.0347C152.387 98.6351 152.666 97.6304 152.993 96.8013C153.32 95.9721 153.472 95.2271 153.33 95.1451C153.187 95.0632 153.206 94.7625 153.371 94.4771C153.537 94.1914 153.638 93.5627 153.596 93.0803C153.555 92.5975 153.72 92.0414 153.964 91.8444C154.207 91.6473 154.436 90.8078 154.474 89.9789C154.516 89.0371 154.692 88.4667 154.942 88.4589C155.186 88.4512 155.317 88.2539 155.276 87.9551C155.239 87.6848 155.43 86.1283 155.701 84.4959C155.973 82.8637 156.127 81.0575 156.046 80.4822C155.964 79.9071 156.078 79.2893 156.3 79.1095C156.576 78.8857 156.499 78.6645 156.054 78.408C155.567 78.1276 155.532 77.9848 155.916 77.8417C156.273 77.7084 156.51 77.2243 156.697 76.2472C156.846 75.4757 156.984 74.8102 157.005 74.7688C157.025 74.7274 156.748 74.5209 156.389 74.3107C155.917 74.0343 155.884 73.9216 156.27 73.9051C156.717 73.886 156.801 73.7416 156.778 73.0349C156.763 72.5688 156.667 72.1398 156.566 72.0813C156.464 72.023 156.618 71.3667 156.907 70.6226C157.672 68.6546 157.996 66.2841 157.537 66.0194C157.318 65.8933 157.249 65.5996 157.384 65.3671C157.519 65.1343 157.507 64.4042 157.358 63.745C157.209 63.0853 157.22 62.4739 157.382 62.3862C157.545 62.2985 157.544 61.8423 157.379 61.3725C157.213 60.9029 157.252 60.2192 157.463 59.8532C157.696 59.4516 157.672 59.0861 157.404 58.9315C157.159 58.7906 157.025 58.2748 157.105 57.7852C157.184 57.2957 157.018 56.759 156.735 56.5926C156.354 56.3682 156.354 56.284 156.737 56.2675C157.149 56.2495 157.256 55.9971 157.264 55.0215C157.269 54.3482 157.11 53.7021 156.91 53.5855C156.71 53.469 156.698 53.1107 156.884 52.7894C157.07 52.4681 157.118 52.1447 156.989 52.0706C156.861 51.9967 156.811 51.1793 156.878 50.2541C156.946 49.3292 156.869 48.4957 156.706 48.402C156.544 48.3084 156.525 48.0346 156.664 47.7936C156.805 47.5503 156.659 47.2061 156.335 47.0193C156.011 46.8326 155.864 46.4883 156.005 46.245C156.144 46.0041 156.127 45.7313 155.967 45.6388C155.806 45.5464 155.77 45.3064 155.886 45.1053C156.2 44.5593 155.586 41.6018 155.265 42.1184C155.119 42.3552 155.099 41.9935 155.222 41.3147C155.346 40.6362 155.313 39.4962 155.15 38.7816C154.987 38.067 154.918 37.3704 154.997 37.2331C155.077 37.0958 154.948 36.8722 154.712 36.7359C154.475 36.5996 154.305 36.0128 154.333 35.4314C154.361 34.8504 154.079 33.5144 153.707 32.463C153.335 31.4116 153.113 30.4091 153.214 30.2353C153.444 29.8374 152.622 27.3523 152.174 27.0908C151.99 26.9836 151.844 26.38 151.849 25.7494C151.854 25.1187 151.571 24.3237 151.219 23.9826C150.867 23.6419 150.662 23.2202 150.763 23.0455C151.06 22.5326 150.371 20.2118 149.83 19.8997C149.556 19.742 149.371 19.3722 149.418 19.078C149.465 18.7839 149.285 18.4173 149.018 18.2635C148.751 18.1095 148.452 17.6307 148.354 17.199C148.11 16.1273 147.41 14.9997 146.757 14.623C146.458 14.4509 146.068 13.8866 145.89 13.3686C145.712 12.851 145.354 12.3941 145.096 12.3535C144.81 12.3086 144.756 12.0936 144.959 11.805C145.47 11.0766 144.879 10.684 144.055 11.2049C143.651 11.4602 143.502 11.4922 143.721 11.2755C144.066 10.9363 143.841 9.43714 143.408 9.18754C143.327 9.14047 142.913 8.44191 142.49 7.63526C141.852 6.4192 141.592 6.17275 140.967 6.19535C140.427 6.21503 140.158 6.07231 140.018 5.69096C139.808 5.12134 138.761 4.80675 138.511 5.23817C138.428 5.38158 138.241 5.43042 138.096 5.34671C137.95 5.26284 138.052 4.97105 138.322 4.69799C138.651 4.3653 138.669 4.11903 138.377 3.95061C138.137 3.81244 137.892 3.41079 137.833 3.05819C137.738 2.49711 137.591 2.43656 136.652 2.57274C135.483 2.74279 134.38 2.29541 134.682 1.77373C134.819 1.53743 134.715 1.47274 134.31 1.54262C134 1.59577 133.506 1.40149 133.212 1.1108C132.501 0.40774 131.251 0.745086 131.04 1.69687C130.945 2.12825 131.082 2.44521 131.384 2.49282C131.664 2.53685 131.786 2.74676 131.658 2.96671C131.411 3.39374 130.437 3.24378 129.962 2.70546C129.8 2.52234 129.776 2.18632 129.908 1.95878C130.213 1.43215 129.748 1.14653 129.247 1.55265C129.037 1.72189 128.994 2.22244 129.149 2.66491C129.457 3.54261 130.206 4.13217 130.458 3.69579C130.65 3.36485 131.87 4.12158 131.91 4.59609C131.926 4.78123 132.216 5.17253 132.555 5.46553C132.893 5.75882 133.166 6.26284 133.161 6.58523C133.157 6.90779 133.515 7.38071 133.958 7.63586C134.469 7.93052 134.913 8.63812 135.173 9.57403C135.466 10.626 135.868 11.2204 136.574 11.6473C137.317 12.0967 137.491 12.3741 137.269 12.758C137.001 13.2244 137.192 13.5516 137.785 13.6395C137.911 13.6581 137.954 14.0124 137.883 14.4265C137.783 15.0034 137.948 15.2477 138.588 15.4694C139.207 15.6837 139.352 15.8808 139.15 16.2307C138.999 16.4907 139.008 16.7787 139.168 16.8711C139.329 16.9636 139.346 17.2364 139.206 17.4773C139.067 17.7183 139.093 17.9965 139.265 18.0955C139.437 18.1947 139.664 18.5996 139.769 18.9954C139.905 19.5043 140.105 19.6767 140.452 19.5833C141.192 19.3841 141.481 19.6787 141.053 20.1969C140.83 20.4658 140.854 20.7638 141.109 20.9107C141.349 21.0494 141.471 21.4703 141.38 21.846C141.288 22.2216 141.385 22.5842 141.594 22.6513C141.803 22.7186 141.874 22.9478 141.751 23.1608C141.628 23.3737 141.671 24.0276 141.847 24.614C142.146 25.6085 142.197 25.6495 142.616 25.2226C142.928 24.9051 142.938 25.0092 142.649 25.5635C142.357 26.1224 142.433 26.8668 142.903 28.0469C143.91 30.5768 144.059 31.336 143.649 31.8344C143.403 32.1323 143.481 32.4481 143.878 32.7586C144.241 33.0428 144.362 33.4333 144.183 33.7426C144.013 34.0373 144.209 34.7673 144.647 35.4621C145.064 36.1259 145.352 36.8046 145.285 36.9698C144.853 38.0361 144.892 38.9824 145.394 39.6383C145.712 40.0542 146.084 40.4299 146.219 40.4731C146.354 40.5167 146.39 40.7279 146.298 40.9428C146.206 41.1576 146.086 41.4826 146.03 41.6648C145.974 41.8469 145.802 42.2499 145.647 42.5607C145.442 42.9701 145.549 43.1756 146.037 43.3085C146.571 43.4544 146.625 43.6359 146.302 44.1949C146.078 44.5813 146.044 44.9836 146.226 45.0885C146.655 45.3355 147.088 47.2691 147.023 48.6377C146.995 49.2264 147.128 49.9021 147.32 50.1388C147.511 50.3757 147.518 50.8288 147.335 51.1458C147.152 51.4624 147.066 51.8424 147.145 51.9896C147.224 52.1369 147.571 51.6894 147.914 50.9952C148.473 49.8678 148.535 49.8245 148.496 50.5904C148.465 51.1813 148.649 51.4909 149.087 51.5863C149.864 51.7561 149.722 52.0761 148.726 52.3978C148.044 52.6184 148.007 52.7415 148.299 53.8381C148.475 54.4975 148.481 54.9576 148.314 54.861C147.915 54.6314 147.456 55.4299 147.778 55.7928C147.914 55.9467 147.914 56.3556 147.777 56.7012C147.622 57.0942 147.754 57.4596 148.129 57.6761C148.964 58.1573 149.026 58.6502 148.285 58.9252C147.869 59.0801 147.767 59.2199 147.981 59.3433C148.157 59.4452 148.195 59.9047 148.063 60.3643C147.931 60.8239 148.006 61.3053 148.229 61.4339C148.488 61.583 148.447 61.9933 148.116 62.5646C147.612 63.4347 147.605 66.2122 148.103 67.5629C148.234 67.918 148.212 68.2784 148.054 68.3635C147.896 68.4485 147.759 69.1382 147.748 69.8957C147.738 70.6536 147.663 71.235 147.581 71.188C147.279 71.0138 147.322 73.5884 147.633 74.263C147.81 74.6477 147.801 75.0448 147.614 75.1457C147.427 75.2468 147.309 75.5614 147.353 75.8453C147.397 76.1288 147.183 77.0057 146.877 77.7935C146.572 78.5814 146.354 79.8985 146.394 80.7203C146.434 81.542 146.311 82.4844 146.12 82.8144C145.929 83.1442 145.707 84.0278 145.627 84.7781C145.546 85.5284 145.387 86.2437 145.273 86.3677C145.158 86.4918 145.17 87.0454 145.299 87.5979C145.468 88.3251 145.361 88.7804 144.909 89.2462C144.509 89.6585 144.314 90.2255 144.365 90.823C144.409 91.3361 144.118 92.3226 143.717 93.0148C143.243 93.8335 143.101 94.4125 143.311 94.6721C143.489 94.8912 143.596 95.3071 143.55 95.5963C143.503 95.8887 143.384 95.971 143.283 95.7816C143.179 95.5886 143.061 95.6806 143.011 95.9943C142.962 96.2989 143.132 96.6825 143.388 96.847C143.645 97.0115 143.687 97.125 143.482 97.0991C143.041 97.0435 141.869 99.4465 142.235 99.6573C142.374 99.7372 142.288 99.9637 142.044 100.161C141.671 100.463 141.306 101.684 140.61 104.953C140.458 105.668 140.016 106.71 138.899 108.986C138.376 110.052 138.028 111.078 138.126 111.267C138.295 111.592 137.948 112.372 136.109 115.797C135.67 116.615 135.382 117.443 135.469 117.637C135.556 117.831 135.332 118.579 134.972 119.298C134.612 120.018 134.279 120.69 134.233 120.79C134.187 120.891 134.252 121.525 134.378 122.2C134.57 123.228 134.507 123.454 133.988 123.594C133.647 123.686 133.236 123.684 133.073 123.59C132.656 123.35 130.655 127.653 130.729 128.629C130.772 129.194 130.615 129.512 130.153 129.799C129.789 130.025 129.346 130.698 129.112 131.378C128.888 132.03 126.883 135.808 124.655 139.772C122.428 143.737 120.443 147.284 120.244 147.653C120.045 148.024 120.006 148.79 120.157 149.356L120.432 150.387L119.685 150.087C119.018 149.819 118.892 149.909 118.507 150.917C118.27 151.539 118.156 152.422 118.254 152.881C118.423 153.67 118.401 153.696 117.842 153.374C117.362 153.097 117.125 153.234 116.573 154.103C114.98 156.615 114.258 158.08 114.349 158.614C114.42 159.038 114.262 159.234 113.736 159.376C112.856 159.613 109.629 165.014 109.971 165.678C110.105 165.938 109.996 165.981 109.667 165.795C109.117 165.485 108.524 166.263 108.324 167.559C108.253 168.022 108.016 168.297 107.654 168.341C107.346 168.378 106.563 169.153 105.913 170.065C105.264 170.976 104.459 172.088 104.123 172.535C103.787 172.983 103.596 173.505 103.698 173.695C103.814 173.91 103.649 174.11 103.262 174.225C102.534 174.442 101.098 176.443 101.503 176.676C101.655 176.764 101.298 177.203 100.71 177.652C100.121 178.101 99.4046 178.981 99.1171 179.608C98.7393 180.432 98.5151 180.65 98.3079 180.394C98.0529 180.079 97.5157 180.557 97.2247 181.357C97.17 181.508 96.4395 182.314 95.6013 183.148C94.763 183.983 93.6625 185.304 93.1557 186.083C92.6488 186.862 91.9956 187.712 91.7035 187.972C91.283 188.347 91.3227 188.688 91.8955 189.615C92.4786 190.559 92.5018 190.783 92.0168 190.777C91.6862 190.773 91.3323 190.614 91.2301 190.424C91.1278 190.234 90.9544 190.234 90.8447 190.423C90.6941 190.683 90.5934 190.629 90.4364 190.203C90.2716 189.756 90.1104 189.755 89.6665 190.198C88.7947 191.07 88.7718 191.222 89.4886 191.378C90.0532 191.501 90.0727 191.66 89.6165 192.399C89.1722 193.119 88.9547 193.205 88.3916 192.88C87.3819 192.298 85.9044 192.795 85.6119 193.816C85.4789 194.279 84.8859 195.03 84.2699 195.515C83.4485 196.161 83.2017 196.516 83.305 196.904C83.4082 197.291 83.191 197.483 82.4563 197.653C81.7053 197.827 81.359 198.141 81.0105 198.962C80.7453 199.586 80.3538 200.052 80.0818 200.066C79.8231 200.078 79.1798 200.454 78.652 200.9C77.843 201.583 77.7316 201.799 77.94 202.275C78.1279 202.705 78.0587 202.875 77.6501 202.985C77.3548 203.064 76.9573 203.039 76.7663 202.929C76.2688 202.642 73.8091 204.443 72.6606 205.935C72.1229 206.633 71.3553 207.362 70.9552 207.554C70.5553 207.746 70.1166 208.095 69.9807 208.33C69.8448 208.565 69.0924 209.188 68.3086 209.714C67.4036 210.322 66.5679 211.214 66.0195 212.158C65.3579 213.295 65.0566 213.578 64.7339 213.364C64.4743 213.192 64.0981 213.373 63.7553 213.835C63.4488 214.247 63.0898 214.522 62.9574 214.446C62.6282 214.256 60.5118 215.956 60.0209 216.804C59.8019 217.182 59.331 217.542 58.9746 217.604C58.2681 217.725 57.5283 218.718 57.9594 218.966C58.1064 219.051 58.3877 218.994 58.5851 218.84C58.8055 218.667 58.8422 218.755 58.6802 219.067C58.5352 219.347 57.8848 219.582 57.2346 219.589C56.5843 219.596 56.0197 219.806 55.9799 220.056C55.9397 220.306 55.793 220.444 55.6536 220.364C55.5139 220.283 55.1334 220.71 54.8078 221.311C54.4757 221.924 54.0318 222.367 53.7969 222.319C53.5669 222.272 53.2799 222.404 53.1595 222.612C53.0392 222.82 52.6493 223.04 52.2929 223.101C51.9365 223.163 51.5021 223.46 51.3277 223.761C51.153 224.063 50.5753 224.427 50.0437 224.57C49.4208 224.737 48.982 225.103 48.8092 225.597C48.6617 226.02 48.3609 226.342 48.1413 226.313C47.8736 226.278 47.8195 226.429 47.9775 226.77C48.177 227.198 48.1354 227.27 47.7111 227.23C47.3252 227.193 47.2697 227.27 47.4725 227.56C47.6754 227.851 47.5816 227.98 47.0692 228.118C46.702 228.217 46.3432 228.566 46.2717 228.893C46.1721 229.35 46.1292 229.358 46.0883 228.929C46.0434 228.459 45.9585 228.41 45.5505 228.619C45.2841 228.756 44.9384 229.058 44.7826 229.29C44.6268 229.521 44.3466 229.93 44.1603 230.197C43.9741 230.464 43.6245 230.57 43.3839 230.431C43.0794 230.256 42.7689 230.486 42.3632 231.187C42.0101 231.797 41.5416 232.192 41.1763 232.187C40.8445 232.183 40.4225 232.369 40.2391 232.601C40.0557 232.833 39.6184 233.129 39.2675 233.259C38.9164 233.389 38.5634 233.792 38.4832 234.155C38.3969 234.544 38.0679 234.86 37.6799 234.926C37.318 234.989 36.8974 235.253 36.745 235.514C36.5926 235.775 35.9791 236.232 35.3814 236.531C34.7837 236.829 34.1607 237.302 33.9972 237.583C33.8334 237.863 33.5961 238.033 33.4701 237.961C33.2415 237.829 32.7277 238.444 31.9502 239.779C31.7242 240.167 31.1948 240.596 30.7737 240.732C30.3523 240.868 30.0123 241.137 30.0175 241.329C30.0232 241.521 29.6654 241.715 29.2225 241.76C28.7801 241.806 28.3299 241.995 28.2224 242.181C28.1147 242.367 27.7353 242.569 27.3789 242.63C26.5436 242.774 26.1387 243.473 26.7028 243.798C26.9434 243.937 27.2163 243.919 27.3093 243.758C27.4022 243.598 27.5973 243.535 27.7426 243.619C27.8878 243.702 27.6722 244.003 27.2632 244.287C26.7123 244.669 26.47 244.668 26.3288 244.285C26.2237 244 26.0578 243.874 25.9601 244.004C25.8625 244.135 25.4514 244.717 25.0467 245.299C24.2493 246.446 23.355 246.933 22.7198 246.567C22.4988 246.439 22.2392 246.471 22.143 246.637C22.0466 246.804 21.5442 247.154 21.0264 247.415C20.5081 247.677 19.9415 248.072 19.7668 248.292C19.592 248.513 19.2328 248.7 18.969 248.709C18.7048 248.717 18.4474 248.982 18.3967 249.298C18.3396 249.655 18.0092 249.882 17.5214 249.9C17.0905 249.915 16.6126 250.145 16.4591 250.41C16.3024 250.681 15.8139 250.789 15.3447 250.656C14.8854 250.526 14.3915 250.623 14.2473 250.872C14.014 251.275 13.9643 251.249 13.8009 250.635C13.6997 250.256 13.6984 249.804 13.7982 249.632C13.8977 249.46 13.8445 249.242 13.68 249.147C13.5099 249.049 13.796 248.708 14.3435 248.357C15.035 247.914 15.3127 247.54 15.3301 247.029C15.3431 246.639 15.4962 246.281 15.6699 246.234C15.8436 246.187 15.8645 245.923 15.7159 245.646C15.4816 245.209 15.5152 245.154 15.9701 245.226C16.4096 245.296 16.8603 244.623 18.7561 241.065C19.9998 238.731 21.006 236.576 20.9917 236.276C20.975 235.925 21.1616 235.722 21.5152 235.708C21.953 235.689 21.987 235.638 21.6821 235.457C21.4714 235.333 21.2273 234.962 21.1397 234.633C21.009 234.142 21.1373 233.974 21.8538 233.698C22.5563 233.428 22.8217 233.09 23.2106 231.968C23.4769 231.202 23.746 230.472 23.8088 230.348C23.8716 230.223 23.7259 230.008 23.4853 229.869C23.2447 229.73 23.1263 229.481 23.2221 229.316C23.3181 229.15 23.6372 229.052 23.9312 229.099C24.5663 229.198 24.9238 228.69 24.7301 227.963C24.5679 227.354 23.4017 227.519 23.1223 228.191C22.7355 229.121 22.405 229.298 21.8149 228.891C20.3629 227.89 19.8604 227.763 19.7624 228.376C19.6901 228.828 19.5749 228.859 19.2874 228.503C19.0608 228.224 18.823 228.177 18.6978 228.388C18.5823 228.583 18.2373 228.992 17.9317 229.298C17.5226 229.706 17.5003 229.925 17.8468 230.125C18.3843 230.435 18.2244 230.854 17.3652 231.388C16.896 231.68 16.8741 231.858 17.2611 232.24C17.5301 232.506 17.6618 232.876 17.5538 233.062C17.4348 233.268 17.1709 233.197 16.883 232.881C16.5093 232.472 16.3883 232.487 16.3133 232.956C16.2611 233.282 15.9967 233.557 15.726 233.565C15.4555 233.574 14.9354 234.045 14.5703 234.613C14.046 235.428 14.0149 235.707 14.4223 235.942C15.1257 236.347 14.6298 237.09 13.8056 236.865C13.2042 236.701 13.0376 236.89 12.0327 238.878C11.2791 240.369 10.6507 241.247 10.0722 241.618C9.34866 242.082 9.21338 242.317 9.17324 243.175C9.14741 243.73 9.02523 244.127 8.90216 244.056C8.77908 243.985 8.50801 244.355 8.29968 244.877C8.09133 245.4 8.08886 245.924 8.29418 246.043C8.85238 246.365 8.58711 247.281 7.96389 247.183C7.20053 247.064 7.09271 246.966 7.48949 246.752C7.69113 246.643 7.59225 246.528 7.25139 246.474C6.78402 246.401 6.71666 246.477 6.9118 246.858C7.1111 247.248 7.04538 247.341 6.5488 247.374C6.04585 247.407 5.98477 247.496 6.19014 247.898C6.35697 248.224 6.29911 248.385 6.01223 248.395C5.77801 248.402 5.35359 248.836 5.06936 249.36C4.78484 249.884 4.44468 250.426 4.3135 250.565C3.81849 251.088 3.8695 251.363 4.44307 251.265C4.91942 251.183 4.95549 251.303 4.62553 251.873C4.36521 252.323 3.98253 252.521 3.58424 252.413C2.7177 252.176 2.48338 252.731 3.19123 253.344L3.77406 253.849L3.09487 253.51C2.17176 253.05 1.26455 254.456 2.15378 254.968C2.47458 255.153 2.66809 255.424 2.58391 255.569C2.49957 255.715 2.22792 255.634 1.98028 255.389C1.43473 254.85 0.356042 255.19 0.0737987 255.991C-0.0391378 256.311 0.087134 256.871 0.35411 257.235C0.621083 257.6 0.748058 258.024 0.636063 258.177C0.121767 258.881 0.175862 259.201 0.919134 259.854C1.55184 260.41 1.90494 260.482 2.62638 260.205C3.44325 259.891 3.60938 259.944 4.25424 260.731C4.8911 261.508 5.08561 261.577 5.97334 261.338C6.52385 261.19 7.21732 261.257 7.51426 261.489C7.91728 261.803 7.99309 261.783 7.8139 261.413C7.64624 261.066 7.70589 260.912 8.01213 260.902C8.2533 260.895 8.59006 260.647 8.76062 260.353C9.11695 259.737 9.82822 259.781 11.0668 260.495C11.5443 260.77 11.9311 260.849 11.9259 260.67C11.9156 260.306 13.4677 259.931 13.9156 260.189C14.0743 260.28 14.3077 260.176 14.4341 259.958C14.5878 259.692 14.8775 259.744 15.3051 260.113C15.7959 260.537 16.2671 260.549 17.3174 260.164C19.8961 259.22 21.2626 258.931 21.4552 259.29C21.7156 259.775 23.5638 259.639 23.8687 259.112C24.0164 258.857 24.2475 258.856 24.4532 259.11C24.6793 259.389 24.9019 259.35 25.1166 258.993C25.6285 258.142 26.7384 257.841 27.5786 258.326C28.2797 258.73 28.3485 258.697 28.3245 257.971C28.3014 257.268 28.4561 257.143 29.6018 256.934C30.3185 256.804 31.4432 256.751 32.1003 256.817C33.441 256.95 33.7751 256.663 33.2688 255.811C32.7725 254.976 33.4958 254.928 34.7756 255.711C35.6245 256.23 35.9014 256.269 35.9642 255.879C36.0151 255.561 36.3154 255.443 36.761 255.564C37.1547 255.672 37.5746 255.59 37.6944 255.383C37.8354 255.139 37.6477 254.929 37.163 254.789L36.4137 254.572L37.4621 254.352C38.8913 254.053 39.8843 254.308 39.9471 254.993C39.9844 255.402 40.0596 255.36 40.2277 254.836C40.3922 254.323 40.5464 254.231 40.7717 254.51C40.9447 254.723 41.1764 254.742 41.2866 254.552C41.3968 254.361 42.3147 254 43.3264 253.75C44.3379 253.499 45.2405 253.113 45.3324 252.892C45.9402 251.428 46.3266 251.213 47.3226 251.787C48.1579 252.269 48.3445 252.257 48.4938 251.716C48.615 251.278 49.0082 251.053 49.7282 251.011C50.3093 250.978 50.815 251.065 50.8525 251.204C50.9378 251.525 52.3732 251.148 53.3857 250.54C54.1497 250.08 54.3133 249.942 54.7077 249.422C54.8208 249.273 55.1757 249.302 55.4965 249.487C55.8284 249.678 56.1925 249.628 56.3413 249.371C56.485 249.123 57.1251 248.922 57.7639 248.925C59.1805 248.932 59.5219 248.467 58.6914 247.662C58.3487 247.331 58.1861 246.856 58.3299 246.607C58.5145 246.288 58.7316 246.308 59.0663 246.675C59.4199 247.062 59.5621 247.061 59.6246 246.672C59.7609 245.819 58.8164 245.138 58.058 245.542C57.6878 245.739 57.1975 245.793 56.9688 245.661C56.7399 245.529 56.5886 245.555 56.6323 245.719C56.7202 246.05 53.7617 246.511 53.2673 246.244C52.9487 246.071 50.8318 247.467 50.4734 248.086C50.3652 248.273 50.4896 248.549 50.7497 248.699C51.1373 248.922 51.1116 249.013 50.6064 249.2C50.2671 249.326 49.7751 249.308 49.5127 249.16C49.1045 248.93 49.0747 248.966 49.307 249.41C49.4564 249.696 49.418 249.972 49.2216 250.025C48.7781 250.144 48.7136 249.058 49.1501 248.823C49.4445 248.664 49.1941 247.822 48.7771 247.568C48.6767 247.507 48.3747 247.68 48.1056 247.952C47.8364 248.224 47.3203 248.4 46.9587 248.343C45.9366 248.182 44.6096 248.775 44.326 249.52C44.1274 250.041 43.9656 250.093 43.6146 249.746C43.365 249.5 43.2295 249.179 43.3139 249.033C43.3981 248.887 43.0035 248.795 42.437 248.828C41.7995 248.865 41.4849 249.033 41.6117 249.269C41.9867 249.967 40.928 250.392 39.9351 249.942C39.0508 249.54 38.8927 249.597 38.2351 250.543C37.5658 251.508 37.4781 251.535 37.0897 250.909C36.7272 250.324 36.6552 250.316 36.5697 250.85C36.4938 251.323 36.3657 251.366 36.0264 251.031C35.4794 250.49 34.3765 250.782 34.262 251.498C34.2067 251.842 33.8588 251.975 33.2644 251.88C32.1187 251.696 31.772 251.142 32.6086 250.832C32.9485 250.705 33.4855 250.198 33.8022 249.704C34.736 248.247 34.8736 248.118 35.2586 248.34C35.6103 248.543 37.4311 247.101 37.9451 246.213C38.0814 245.978 38.4451 245.788 38.7529 245.792C39.0778 245.796 39.7019 245.243 40.2381 244.475C40.7466 243.748 41.2883 243.119 41.4417 243.078C41.5948 243.036 41.7304 242.707 41.7424 242.345C41.7614 241.79 41.8643 241.773 42.4017 242.237C42.7861 242.569 43.1178 242.651 43.2377 242.444C43.347 242.255 43.2582 242.106 43.0403 242.113C41.9918 242.146 43.2464 241.339 45.2315 240.703C45.8143 240.517 47.6584 238.798 47.9788 238.143C48.7117 236.645 49.4253 235.86 49.8388 236.099C50.0847 236.241 50.5002 236.173 50.7623 235.949C51.0246 235.726 51.5181 235.44 51.8591 235.316C52.1998 235.191 52.7494 234.719 53.0802 234.267C53.4111 233.815 54.1732 233.141 54.7739 232.771C55.3745 232.4 55.9317 231.801 56.0119 231.439C56.0928 231.073 56.2952 230.861 56.4688 230.961C56.64 231.06 56.9701 230.812 57.2026 230.41C57.435 230.009 57.7643 229.76 57.934 229.858C58.1037 229.956 58.2378 229.857 58.2317 229.637C58.2256 229.418 58.7116 229.014 59.3119 228.739C59.9123 228.464 60.4867 228.095 60.5885 227.92C60.6904 227.744 60.905 227.675 61.0654 227.768C61.2258 227.86 61.532 227.633 61.7458 227.264C61.9597 226.894 62.3239 226.534 62.5554 226.465C62.7867 226.394 63.9548 225.419 65.1517 224.296C66.8768 222.678 67.3069 222.124 67.2284 221.62C67.1494 221.114 67.1804 221.078 67.3815 221.442C67.6798 221.982 69.2437 221.606 69.3767 220.962C69.4253 220.727 69.9946 220.25 70.6418 219.901C71.2894 219.552 72.0297 218.902 72.2875 218.457C72.5451 218.012 73.035 217.614 73.3756 217.572C73.7164 217.531 74.1957 217.262 74.4409 216.975C74.686 216.687 75.0745 216.298 75.304 216.109C76.7123 214.949 77.4114 214.161 77.5839 213.536C77.7073 213.088 78.0391 212.797 78.4813 212.749C78.869 212.707 79.4381 212.258 79.7537 211.747C80.0674 211.239 80.4497 210.895 80.6029 210.983C80.756 211.071 80.9172 210.92 80.9606 210.648C81.0045 210.375 81.4736 210.019 82.0034 209.856C82.6934 209.643 83.056 209.298 83.2807 208.636C83.49 208.021 83.7558 207.739 84.0794 207.79C84.3465 207.832 85.339 207.03 86.285 206.007C87.2308 204.984 88.3725 203.96 88.822 203.731C89.2715 203.502 89.6349 203.163 89.6297 202.978C89.6244 202.793 90.0563 202.353 90.5897 201.999C91.5393 201.371 92.4975 199.698 92.6717 198.366C92.7385 197.856 92.9043 197.818 93.515 198.17C93.9965 198.447 94.3683 198.447 94.5289 198.17C94.6683 197.929 94.8924 197.795 95.0268 197.873C95.1613 197.95 95.564 197.549 95.9221 196.98C96.2802 196.412 96.8158 195.857 97.113 195.746C97.7312 195.517 98.869 194.188 99.5414 192.909C99.7942 192.428 100.207 192.029 100.458 192.021C100.709 192.013 101.381 191.335 101.951 190.514C103.459 188.34 103.672 187.956 103.863 187.07C103.999 186.44 104.177 186.308 104.698 186.45C105.376 186.636 105.393 186.616 107.769 183.014C108.73 181.556 109.301 180.919 109.758 180.796C109.934 180.749 110.431 180.101 110.862 179.356C111.292 178.612 111.841 177.95 112.08 177.884C112.438 177.786 113.631 176.003 114.986 173.54C115.12 173.296 115.713 172.587 116.304 171.963C117.901 170.28 118.951 168.682 118.856 168.083C118.809 167.786 119.006 167.386 119.304 167.173C120.015 166.664 123.311 161.2 123.011 161.027C122.881 160.952 123.168 160.63 123.65 160.311C124.192 159.952 124.915 158.994 125.545 157.8C126.6 155.802 126.802 154.858 126.172 154.878C125.972 154.884 126.004 154.731 126.244 154.536C126.484 154.342 126.813 154.26 126.976 154.354C127.147 154.452 127.226 154.25 127.163 153.877C127.074 153.351 127.134 153.276 127.486 153.479C127.842 153.684 128.146 153.293 129.195 151.287C129.897 149.944 130.445 148.747 130.413 148.627C130.381 148.507 130.582 148.256 130.859 148.069C131.137 147.882 131.549 147.216 131.776 146.59ZM64.5044 246.207C64.5487 245.965 64.1609 245.542 63.6423 245.268C63.0082 244.933 62.8632 244.927 63.1992 245.249C63.4744 245.513 63.7878 245.961 63.8961 246.245C64.1259 246.848 64.3892 246.832 64.5044 246.207ZM110.536 165.134C110.376 165.041 110.325 164.826 110.424 164.656C110.522 164.486 110.687 164.504 110.79 164.695C110.893 164.887 110.944 165.102 110.903 165.173C110.862 165.244 110.697 165.226 110.536 165.134ZM62.2441 246.754C61.673 246.425 60.6959 246.551 60.4441 246.986C60.3643 247.124 60.5223 247.229 60.7958 247.218C61.0688 247.208 61.48 247.303 61.7095 247.43C62.3488 247.783 62.8749 247.118 62.2441 246.754ZM138.99 112.873C138.95 112.72 139.085 112.462 139.291 112.3C139.519 112.12 139.548 112.229 139.365 112.578C139.2 112.893 139.031 113.026 138.99 112.873ZM61.7092 245.472C61.6063 245.28 61.4034 245.328 61.2585 245.579C61.1136 245.829 61.1262 246.11 61.2866 246.202C61.447 246.295 61.6498 246.247 61.7373 246.095C61.8249 245.944 61.8121 245.664 61.7092 245.472ZM140.519 107.238C140.368 107.15 140.321 106.948 140.414 106.787C140.507 106.627 140.787 106.613 141.037 106.757C141.287 106.901 141.335 107.104 141.143 107.207C140.951 107.311 140.67 107.325 140.519 107.238ZM149.029 92.2768C148.958 92.2359 148.895 92.0245 148.889 91.8067C148.883 91.5889 149.017 91.4909 149.186 91.5887C149.356 91.6865 149.419 91.8981 149.326 92.0588C149.233 92.2194 149.099 92.3176 149.029 92.2768ZM146.563 89.9451C146.409 89.7485 146.612 89.7769 147.013 90.008C147.414 90.2391 147.539 90.3999 147.292 90.3653C147.044 90.3309 146.716 90.1418 146.563 89.9451ZM146.274 85.2361C146.114 85.1436 146.118 84.839 146.283 84.5594C146.539 84.1246 146.587 84.1383 146.612 84.6519C146.649 85.4082 146.63 85.4412 146.274 85.2361ZM67.388 216.66C67.1887 215.912 67.7896 215.897 68.0224 216.644C68.1321 216.998 68.0648 217.258 67.8722 217.225C67.6798 217.192 67.462 216.938 67.388 216.66ZM147.651 78.8239C147.434 78.8308 147.336 78.697 147.434 78.527C147.533 78.357 147.745 78.2933 147.905 78.3858C148.065 78.4782 148.163 78.6117 148.122 78.6827C148.081 78.7537 147.869 78.8171 147.651 78.8239ZM45.9847 249.458C45.7441 249.319 45.6233 249.074 45.7162 248.914C45.8092 248.753 46.0822 248.735 46.3228 248.874C46.5634 249.013 46.6842 249.257 46.5912 249.418C46.4982 249.579 46.2253 249.597 45.9847 249.458ZM29.5923 253.254C29.4319 253.162 29.3342 253.028 29.3752 252.957C29.4163 252.886 29.628 252.823 29.8459 252.816C30.0638 252.809 30.1614 252.943 30.063 253.113C29.9646 253.283 29.7527 253.346 29.5923 253.254ZM15.7095 243.305C15.4689 243.167 15.3481 242.922 15.4411 242.761C15.534 242.6 15.807 242.582 16.0476 242.721C16.2882 242.86 16.409 243.105 16.316 243.265C16.223 243.426 15.9501 243.444 15.7095 243.305ZM143.951 20.4067C143.88 20.3659 143.817 20.1544 143.811 19.9366C143.805 19.7188 143.939 19.6208 144.109 19.7186C144.279 19.8165 144.342 20.0281 144.249 20.1887C144.156 20.3494 144.022 20.4475 143.951 20.4067ZM13.8203 244.554C13.5797 244.415 13.4589 244.17 13.5519 244.009C13.6449 243.849 13.5022 243.591 13.2348 243.437C12.9676 243.283 12.8774 243.122 13.0345 243.08C13.4491 242.969 14.6194 244.181 14.4236 244.519C14.3324 244.677 14.061 244.692 13.8203 244.554ZM18.5937 233.297C18.5713 232.501 19.088 232.303 19.3159 233.021C19.4367 233.4 19.3436 233.658 19.057 233.741C18.7635 233.825 18.6044 233.673 18.5937 233.297ZM17.5642 236.154C16.9383 236.261 16.1277 235.526 16.3842 235.083C16.4672 234.94 16.732 234.936 16.9726 235.074C17.2132 235.213 17.5335 235.113 17.6842 234.853C17.9089 234.465 17.9996 234.49 18.1856 234.995C18.467 235.758 18.325 236.023 17.5642 236.154ZM6.27728 255.056C6.15846 254.603 6.21128 254.589 6.53525 254.987C6.75925 255.262 6.82663 255.519 6.68474 255.557C6.54314 255.595 6.35968 255.37 6.27728 255.056ZM20.0701 230.226C19.3865 229.822 19.3707 229.755 19.9591 229.751C20.3363 229.749 20.7282 229.904 20.8304 230.094C21.1436 230.677 20.9036 230.719 20.0701 230.226ZM13.9823 239.194C13.6522 239.003 13.539 238.763 13.7311 238.659C13.9232 238.556 14.2694 238.58 14.5007 238.713C14.7319 238.847 14.8448 239.087 14.7519 239.248C14.6589 239.408 14.3125 239.384 13.9823 239.194ZM9.67419 245.67C9.43359 245.531 9.34845 245.224 9.48503 244.988C9.63617 244.727 9.86606 244.724 10.0735 244.98C10.2605 245.211 10.3456 245.517 10.2626 245.661C10.1796 245.804 9.9148 245.808 9.67419 245.67ZM142.598 12.608C142.472 12.2639 142.463 11.9568 142.578 11.9254C142.898 11.8396 143.213 12.5701 143.009 12.9229C142.897 13.1168 142.742 12.9982 142.598 12.608ZM138.765 13.9119C138.694 13.8711 138.631 13.6597 138.625 13.4419C138.619 13.2241 138.753 13.1261 138.922 13.2239C139.092 13.3217 139.155 13.5333 139.062 13.694C138.969 13.8546 138.836 13.9528 138.765 13.9119Z" fill="#249623"/>
</svg>
