<svg width="394" height="397" viewBox="0 0 394 397" fill="none" xmlns="http://www.w3.org/2000/svg">
<path d="M167.609 113.126C164.696 111.188 161.713 109.353 158.84 107.358C158.315 106.993 157.848 106.054 157.902 105.428C158.251 101.39 158.832 97.3716 159.154 93.3318C159.247 92.1562 159.509 91.5389 160.634 91.0904C164.594 89.5113 168.512 87.8253 172.444 86.1754C173.081 85.9079 173.709 85.6179 174.809 85.1317C172.885 79.093 170.983 73.1216 169.033 67.0003C163.964 68.0419 159.341 68.914 154.761 69.9748C153.146 70.3488 152.264 70.1673 151.213 68.6747C149.065 65.6247 146.492 62.876 144.181 59.9351C143.827 59.4841 143.67 58.5703 143.871 58.0404C145.402 53.9949 146.93 49.9396 148.703 45.9974C149.554 44.1056 149.117 43.0938 147.421 42.2279C146.769 41.8951 146.237 41.3269 145.651 40.866C142.724 39.3173 139.797 37.7687 136.869 36.2201C136.502 36.1496 136.112 36.1363 135.772 36C132.204 34.5681 132.89 34.5933 130.889 37.5768C128.451 41.2123 126.074 44.8886 123.988 48.0646C118.533 47.5918 113.435 47.1496 108.17 46.6933C106.146 41.872 104.031 36.8341 101.902 31.7632C95.4874 32.6701 89.5995 34.7312 83.8287 37.5165C84.863 42.5009 85.859 47.3628 86.8908 52.2173C87.076 53.0885 87.0262 53.6171 86.1754 54.2622C82.8448 56.7883 79.5737 59.4039 76.4251 62.1518C75.5174 62.9438 74.9305 62.9517 73.9471 62.5459C69.8876 60.8707 65.7891 59.29 61.7224 57.6315C60.7122 57.2193 60.0601 57.2546 59.3206 58.2449C56.0038 62.6872 53.7551 67.647 51.9182 72.8312C51.5546 73.8573 52.0501 74.2973 52.8267 74.7947C56.4189 77.0953 59.9556 79.4833 63.5634 81.7589C64.603 82.4146 64.9228 82.9827 64.725 84.3218C64.0412 88.9479 63.6272 93.614 63.0686 98.6392C58.6862 100.479 53.7134 102.567 48.7422 104.654C49.6395 111.191 51.4344 117.235 54.372 122.989C59.805 121.834 65.0905 120.711 69.8776 119.694C72.8903 123.12 75.6086 126.377 78.5271 129.445C79.6298 130.604 79.8301 131.482 79.1993 132.928C77.5195 136.777 75.9895 140.694 74.439 144.599C74.1326 145.371 73.5251 146.271 74.7309 146.897C79.6357 149.445 84.5378 151.997 89.4434 154.543C90.4861 155.084 91.1395 154.731 91.7616 153.748C94.077 150.09 96.5531 146.534 98.8053 142.839C99.6742 141.414 100.619 141.353 102.093 141.541C105.734 142.006 109.404 142.4 113.069 142.459C114.648 142.484 115.229 142.892 115.772 144.293C117.515 148.793 119.435 153.226 121.248 157.591C125.161 157.564 135.8 154.152 139.626 151.738C138.587 146.942 137.587 142.081 136.452 137.252C136.168 136.043 136.524 135.521 137.445 134.787C140.415 132.417 143.218 129.838 146.166 127.437C146.661 127.034 147.672 126.806 148.243 127.025C151.867 128.416 155.444 129.933 159.018 131.45C161.017 132.298 161.82 132.648 162.581 132.13L170.825 116.549C170.836 115.285 169.966 114.694 167.609 113.126ZM136.549 107.89C129.18 121.817 111.916 127.134 97.9888 119.766C84.0615 112.397 78.7447 95.1332 86.1133 81.2059C93.482 67.2786 110.746 61.9616 124.673 69.3302C138.6 76.6989 143.918 93.9628 136.549 107.89Z" fill="#CAE1F9"/>
<path opacity="0.2" d="M284.487 93.2231C283.418 92.5117 282.323 91.8379 281.268 91.1055C281.076 90.9719 280.904 90.6271 280.924 90.3972C281.052 88.9148 281.265 87.4398 281.383 85.9568C281.418 85.5252 281.514 85.2986 281.927 85.134C283.38 84.5543 284.819 83.9355 286.262 83.3299C286.496 83.2316 286.726 83.1252 287.13 82.9467C286.424 80.7299 285.726 78.5379 285.01 76.2909C283.149 76.6733 281.452 76.9935 279.771 77.3828C279.178 77.5201 278.854 77.4535 278.468 76.9057C277.68 75.7859 276.736 74.777 275.887 73.6974C275.757 73.5318 275.7 73.1965 275.773 73.0019C276.336 71.5169 276.896 70.0282 277.547 68.5811C277.86 67.8866 277.699 67.5152 277.076 67.1973C276.837 67.0751 276.642 66.8666 276.427 66.6973C275.352 66.1288 274.278 65.5603 273.203 64.992C273.068 64.9661 272.925 64.9613 272.8 64.9111C271.49 64.3856 271.742 64.3947 271.008 65.49C270.113 66.8245 269.24 68.1741 268.474 69.34C266.472 69.1664 264.601 69.0041 262.668 68.8366C261.925 67.0669 261.149 65.2175 260.367 63.356C258.013 63.6888 255.851 64.4454 253.733 65.4679C254.113 67.2975 254.478 69.0824 254.857 70.8644C254.925 71.1844 254.907 71.3782 254.595 71.6152C253.372 72.5425 252.171 73.5026 251.015 74.5114C250.682 74.8022 250.467 74.805 250.106 74.6562C248.615 74.0412 247.111 73.461 245.618 72.8521C245.247 72.7008 245.008 72.7136 244.737 73.0772C243.519 74.7081 242.693 76.5287 242.019 78.4318C241.886 78.8085 242.068 78.97 242.353 79.1525C243.671 79.997 244.97 80.8736 246.294 81.7089C246.676 81.9495 246.793 82.1581 246.721 82.6496C246.47 84.3479 246.317 86.0607 246.112 87.9055C244.504 88.5808 242.678 89.3472 240.854 90.1133C241.183 92.513 241.842 94.732 242.92 96.8441C244.915 96.4202 246.855 96.0078 248.612 95.6343C249.718 96.8919 250.716 98.0877 251.787 99.2136C252.192 99.6393 252.265 99.9617 252.034 100.492C251.417 101.905 250.855 103.343 250.286 104.777C250.174 105.06 249.951 105.39 250.393 105.62C252.194 106.556 253.994 107.493 255.794 108.427C256.177 108.626 256.417 108.496 256.645 108.135C257.495 106.793 258.404 105.487 259.231 104.131C259.55 103.608 259.897 103.585 260.438 103.654C261.775 103.825 263.122 103.97 264.467 103.991C265.047 104 265.26 104.15 265.459 104.664C266.099 106.316 266.804 107.943 267.469 109.546C268.906 109.536 272.811 108.283 274.216 107.398C273.834 105.637 273.467 103.852 273.051 102.08C272.946 101.636 273.077 101.444 273.415 101.175C274.505 100.305 275.534 99.3583 276.616 98.4771C276.798 98.3288 277.169 98.2452 277.379 98.3255C278.709 98.836 280.022 99.3932 281.334 99.95C282.068 100.261 282.363 100.39 282.643 100.2L285.669 94.48C285.672 94.0155 285.353 93.7987 284.487 93.2231ZM273.085 91.3011C270.38 96.4137 264.043 98.3655 258.931 95.6604C253.818 92.9555 251.866 86.6181 254.571 81.5057L254.571 81.5055C257.276 76.393 263.614 74.4413 268.726 77.1461C273.839 79.8512 275.79 86.1884 273.085 91.3011Z" fill="#9BC1F9"/>
<path d="M99.254 291.433C99.254 291.433 44.5267 264.449 35.1149 250.375C25.7032 236.301 39.5384 235.503 39.5384 235.503C39.5384 235.503 15.116 211.751 18.552 201.752C21.9881 191.752 34.6395 200.923 34.6395 200.923C34.6395 200.923 18.936 165.967 26.3403 162.452C40.1319 155.907 59.4793 193.518 59.4793 193.518C59.4793 193.518 55.3214 177.18 64.8184 177.71C79.1408 178.511 78.549 215.471 78.549 215.471C78.549 215.471 80.1666 201.3 88.799 205.903C104.287 214.162 99.254 291.433 99.254 291.433Z" fill="#32B631"/>
<path d="M91.9168 200.186C85.176 196.445 78.4621 207.378 78.4621 207.378C78.4621 207.378 79.1422 178.51 64.8198 177.71C55.3229 177.179 59.4808 193.518 59.4808 193.518C59.4808 193.518 40.1333 155.907 26.3418 162.452L99.3184 290.832C99.834 281.867 105.271 207.596 91.9168 200.186Z" fill="#249623"/>
<path d="M97.8421 291.768C97.8421 291.768 53.0825 297.327 41.4932 292.372C29.904 287.418 38.2095 281.299 38.2095 281.299C38.2095 281.299 13.3248 276.408 11.4049 268.775C9.48497 261.142 20.9644 261.75 20.9644 261.75C20.9644 261.75 -2.89679 246.298 0.293624 241.098C6.23616 231.411 33.5868 247.009 33.5868 247.009C33.5868 247.009 24.3542 238.507 30.4936 234.979C39.7524 229.659 54.4017 252.953 54.4017 252.953C54.4017 252.953 53.4916 247.211 60.7466 246.575C73.7633 245.433 97.8421 291.768 97.8421 291.768Z" fill="#32B631"/>
<path d="M61.0398 242.403C53.785 243.039 54.4012 252.953 54.4012 252.953C54.4012 252.953 39.487 225.341 30.2283 230.661C24.0889 234.189 31.3524 245.775 31.3524 245.775C31.3524 245.775 6.2357 231.411 0.292969 241.098L97.9774 291.519C94.6562 285.718 73.1986 241.336 61.0398 242.403Z" fill="#249623"/>
<path d="M355.216 226.399L357.621 220.589C359.486 216.316 364.26 214.275 368.282 216.031C378.42 220.456 382.827 232.773 378.126 243.542L374.689 251.415C373.184 254.864 373.708 258.658 375.738 261.334C377.582 263.763 377.883 267.142 376.605 270.071L374.793 274.221C372.831 278.715 369.015 282.043 364.488 283.416C361.84 284.218 359.502 286.205 358.266 289.038L355.7 294.915C352.864 301.412 345.606 304.515 339.49 301.845L336.001 300.321C329.884 297.652 327.225 290.22 330.061 283.722C334.648 275.954 334.282 270.155 332.657 266.223C330.268 260.44 330.295 253.787 332.88 247.865L333.243 247.034C335.971 240.783 341.24 236.117 347.515 234.118C350.285 233.236 353.172 231.082 355.216 226.399Z" fill="#249623"/>
<path d="M196.847 341.171C190.35 332.748 154.724 287.621 131.494 280.1C105.853 271.799 130.02 304.769 130.02 304.769C130.02 304.769 84.5323 255.029 67.84 259.513C52.5387 263.624 67.84 294.454 67.84 294.454C67.84 294.454 50.6063 277.382 29.7071 277.382C9.36709 277.382 43.9174 337.93 45.7812 341.171H196.847Z" fill="#59D058"/>
<path d="M388.75 160.508C388.75 160.508 382.192 168.974 378.331 172.296C374.471 175.619 370.789 178.799 365.867 189.368C360.945 199.937 361.086 201.147 359.779 203.869C358.472 206.59 351.604 217.251 351.084 219.378C350.564 221.505 339.35 231.692 335.879 236.874C332.409 242.056 326.714 249.287 325.967 253.469L326.98 253.448C326.98 253.448 330 243.995 338.897 235.8C347.795 227.606 347.274 225.547 355.97 222.296C364.666 219.046 372.745 206.359 372.745 206.359C372.745 206.359 383.897 193.133 385.355 185.248C386.813 177.363 390.483 170.799 388.75 160.508Z" fill="#1D5E1E"/>
<path d="M381.943 143.559C381.943 143.559 380.242 149.726 377.373 152.958C374.504 156.189 372.252 158.034 370.957 161.951C369.662 165.868 366.001 175.891 359.229 179.626C352.458 183.36 348.233 198.286 342.908 201.86C337.584 205.434 336.264 208.586 335.23 216.599C334.196 224.612 334.347 236.086 324.869 248.811L324.291 244.964C324.291 244.964 331.425 234.34 331.94 227.268C332.456 220.196 331.127 209.019 333.641 204.392C336.155 199.764 331.307 197.619 336.1 190.851C340.894 184.083 340.243 181.193 345.905 175.693C345.905 175.693 346.402 175.49 348.767 170.273C351.133 165.057 362.278 157.079 367.135 154.602C371.992 152.124 379.12 148.001 381.943 143.559Z" fill="#1D5E1E"/>
<path d="M358.233 170.54C358.233 170.54 351.433 177.735 350.117 183.079C348.802 188.422 348.369 192.917 344.201 199.684C340.034 206.451 343.839 212.226 341.489 215.951C339.139 219.676 337.915 224.448 337.111 228.096C336.308 231.744 327.895 242.479 325.623 248.376C323.351 254.274 324.438 254.548 324.438 254.548C324.438 254.548 327.24 246.716 329.151 244.355C331.061 241.994 337.123 233.731 338.866 230.394C340.609 227.057 343.626 225.357 347.169 219.844C350.713 214.33 354.94 209.976 356.691 201.39C358.442 192.805 363.97 184.598 358.233 170.54Z" fill="#249623"/>
<path d="M328.967 249.713C328.967 249.713 333.692 239.673 343.501 240.842C353.311 242.01 358.489 245.208 367.041 239.058C375.592 232.909 382.366 221.569 385.014 219.962C385.014 219.962 382.026 217.426 375.155 221.39C368.284 225.354 363.39 228.434 359.408 230.747C355.427 233.059 353.239 230.439 349.319 231.662C346.033 232.687 341.154 236.723 338.91 238.91C338.181 239.62 337.369 240.238 336.484 240.741C335.679 241.199 334.716 241.765 334.081 242.199C332.812 243.067 328.219 249.579 328.219 249.579L328.967 249.713Z" fill="#249623"/>
<path d="M326.031 247.065C326.031 247.065 332.407 234.925 331.62 228.076C330.833 221.226 324.853 214.903 326.061 210.996C327.269 207.089 334.304 197.407 332.463 188.552C332.463 188.552 329.399 195.356 327.644 196.62C325.888 197.884 314.883 202.068 314.606 210.908C314.329 219.748 323.121 223.875 324.822 226.892C326.522 229.909 329.599 230.621 329.234 232.279C328.869 233.938 328.07 240.09 325.669 245.786L326.031 247.065Z" fill="#3C8F7C"/>
<path d="M331.727 239.273L339.634 226.734C339.634 226.734 344.967 216.41 348.706 207.637C352.446 198.863 358.232 170.54 358.232 170.54C358.232 170.54 351.432 177.736 350.117 183.079C348.801 188.422 348.368 192.917 344.201 199.684C340.033 206.451 343.838 212.226 341.488 215.951C339.139 219.676 337.914 224.448 337.111 228.096C336.307 231.744 327.894 242.479 325.622 248.376C324.377 251.607 324.141 253.149 324.182 253.884C324.662 248.375 331.727 239.273 331.727 239.273Z" fill="#194B1A"/>
<path d="M356.94 236.571C352.519 236.432 348.809 235.266 342.927 237.833C337.045 240.399 333.169 243.699 333.169 243.699C333.169 243.699 329.978 247.203 328.552 249.11C328.342 249.403 328.219 249.578 328.219 249.578L328.967 249.713C328.967 249.713 333.693 239.672 343.502 240.841C353.311 242.01 358.489 245.207 367.041 239.058C375.592 232.908 382.366 221.569 385.015 219.961C385.015 219.961 376.528 223.881 370.938 227.796C365.347 231.711 361.36 236.71 356.94 236.571Z" fill="#194B1A"/>
<path d="M327.644 196.62C325.888 197.884 314.883 202.068 314.606 210.908C314.329 219.748 323.121 223.875 324.822 226.892C326.522 229.909 329.599 230.621 329.234 232.279C328.869 233.938 328.07 240.09 325.669 245.786L325.827 246.344C326.864 244.145 328.377 240.78 329.227 238.155C330.606 233.892 330.319 231.928 329.741 228.08C329.163 224.232 322.146 215.038 320.847 210.759C319.548 206.481 327.387 201.657 329.509 198.941C331.632 196.226 332.463 188.552 332.463 188.552C332.463 188.552 329.399 195.356 327.644 196.62Z" fill="#327F6B"/>
<path d="M209.984 341.171C216.481 332.748 252.107 287.621 275.337 280.1C300.979 271.799 276.812 304.769 276.812 304.769C276.812 304.769 322.299 255.029 338.991 259.513C354.293 263.624 338.991 294.454 338.991 294.454C338.991 294.454 356.225 277.382 377.124 277.382C397.464 277.382 362.914 337.93 361.05 341.171H209.984Z" fill="#59D058"/>
<path d="M95.6824 340.913C74.9144 312.671 49.6659 286.568 19.6438 263.869C19.344 263.642 18.9397 264.165 19.2412 264.397C47.7149 286.283 72.9058 312.129 94.1034 341.336L95.6824 340.913Z" fill="#256653"/>
<path d="M36.3974 289.151C37.0913 288.659 38.89 286.792 41.2899 286.206C43.5624 285.438 46.4361 285.953 46.337 286.016C46.3967 286.153 44.4442 283.934 41.3955 283.288C38.4667 282.433 34.4419 283.152 33.1267 284.313C30.1416 286.334 29.9026 289.766 31.3821 290.402C32.852 291.079 34.8161 290.144 36.3974 289.151Z" fill="#256653"/>
<path d="M24.1689 278.379C24.8629 277.887 26.6616 276.02 29.0615 275.434C31.334 274.666 34.2077 275.181 34.1086 275.244C34.1683 275.381 32.2158 273.162 29.1671 272.517C26.2383 271.661 22.2135 272.38 20.8982 273.541C17.913 275.562 17.6742 278.993 19.1535 279.63C20.6238 280.307 22.5879 279.372 24.1689 278.379Z" fill="#256653"/>
<path d="M56.9766 284.367C56.3262 284.772 54.012 285.587 52.9487 287.436C51.7155 289.101 51.733 291.801 51.8184 291.74C51.9529 291.846 49.9548 289.265 49.8302 286.361C49.4604 283.478 50.9637 280.272 52.4394 279.594C55.1343 277.811 58.8233 278.975 59.2272 280.513C59.6764 282.06 58.3226 283.391 56.9766 284.367Z" fill="#256653"/>
<path d="M60.1408 245.87C78.7257 274.896 92.2897 307.14 100.045 341.395L101.319 341.053C93.5961 307.516 80.1232 275.328 61.5692 246.335C57.2569 239.596 52.6006 231.602 44.5269 228.973C44.3712 228.923 44.3122 229.159 44.4607 229.215C51.8349 231.994 56.1062 239.569 60.1408 245.87Z" fill="#256653"/>
<path d="M58.4437 227.869C57.9653 228.573 56.134 230.408 55.5958 232.819C54.873 235.106 55.4437 237.969 55.5051 237.869C55.6432 237.926 53.3861 236.018 52.6808 232.982C51.7679 230.071 52.4069 226.033 53.5424 224.695C55.5034 221.671 58.9299 221.364 59.5952 222.831C60.3014 224.287 59.4058 226.269 58.4437 227.869Z" fill="#256653"/>
<path d="M53.997 253.778C54.6909 253.286 56.4896 251.419 58.8895 250.833C61.162 250.066 64.0357 250.58 63.9366 250.643C63.9963 250.78 62.0438 248.561 58.9951 247.916C56.0663 247.061 52.0415 247.779 50.7263 248.941C47.7412 250.961 47.5022 254.393 48.9817 255.029C50.4518 255.706 52.4157 254.772 53.997 253.778Z" fill="#256653"/>
<path d="M60.7062 265.134C61.4001 264.641 63.1986 262.774 65.5987 262.189C67.8712 261.421 70.7447 261.935 70.6458 261.998C70.7054 262.135 68.753 259.916 65.7042 259.271C62.7755 258.416 58.7506 259.134 57.4353 260.296C54.45 262.316 54.2113 265.748 55.6908 266.384C57.161 267.061 59.1249 266.127 60.7062 265.134Z" fill="#256653"/>
<path d="M67.8329 240.718C67.2494 241.338 65.1516 242.861 64.2403 245.157C63.1661 247.302 63.2782 250.219 63.3545 250.129C63.4818 250.207 61.5538 247.967 61.3358 244.859C60.8935 241.84 62.1612 237.953 63.4933 236.811C65.9067 234.133 69.3387 234.371 69.7643 235.924C70.2322 237.473 69.0352 239.289 67.8329 240.718Z" fill="#256653"/>
<path d="M77.6986 253.596C76.8681 254.037 73.9675 254.835 72.5084 257.006C70.8568 258.938 70.6473 262.242 70.7569 262.175C70.9123 262.317 68.6893 258.987 68.7854 255.424C68.5799 251.865 70.6936 248.072 72.557 247.37C76.0067 245.419 80.42 247.159 80.7822 249.075C81.1992 251.006 79.4289 252.518 77.6986 253.596Z" fill="#256653"/>
<path d="M88.0828 273.101C87.1901 273.395 84.1964 273.694 82.3931 275.589C80.4403 277.215 79.6778 280.437 79.7973 280.39C79.9265 280.555 78.2949 276.9 78.9891 273.404C79.3851 269.861 82.1065 266.477 84.0615 266.098C87.7901 264.755 91.8479 267.213 91.8829 269.163C91.9691 271.136 89.9697 272.329 88.0828 273.101Z" fill="#256653"/>
<path d="M41.3561 232.436C41.745 232.114 42.7274 230.931 44.1214 230.48C45.4321 229.926 47.1546 230.104 47.0987 230.146C47.14 230.225 45.8879 228.997 44.0561 228.749C42.2862 228.371 39.9367 228.972 39.2095 229.717C37.532 231.043 37.5409 233.083 38.444 233.395C39.3432 233.731 40.4643 233.093 41.3561 232.436Z" fill="#256653"/>
<path d="M45.082 224.148C45.0649 224.652 44.7273 226.152 45.2209 227.532C45.5828 228.908 46.7755 230.163 46.7745 230.094C46.8619 230.079 45.1254 229.836 43.8104 228.537C42.4306 227.366 41.4725 225.138 41.6181 224.107C41.6441 221.969 43.2657 220.731 44.0637 221.255C44.8792 221.762 45.0578 223.04 45.082 224.148Z" fill="#256653"/>
<path d="M15.3642 267.406C15.7531 267.085 16.7354 265.902 18.1294 265.45C19.4401 264.897 21.1625 265.075 21.1066 265.117C21.1479 265.195 19.8958 263.968 18.0641 263.72C16.2942 263.342 13.9446 263.943 13.2173 264.688C11.54 266.013 11.5486 268.054 12.4517 268.366C13.3513 268.702 14.4722 268.063 15.3642 267.406Z" fill="#256653"/>
<path d="M19.8584 259.047C19.8 259.548 19.3408 261.015 19.7195 262.431C19.9673 263.832 21.0534 265.181 21.058 265.111C21.1462 265.103 19.4355 264.719 18.2314 263.317C16.9522 262.037 16.1796 259.738 16.4095 258.723C16.6104 256.594 18.328 255.492 19.0803 256.081C19.8519 256.653 19.925 257.941 19.8584 259.047Z" fill="#256653"/>
<path d="M23.8556 314.809C42.8329 316.889 60.5075 325.266 77.5219 333.434C88.9956 338.943 88.4169 340.512 90.7539 341.332C91.1325 341.465 91.5111 341.054 91.3269 340.689C90.4276 338.909 88.0706 337.704 86.4303 336.68C84.5212 335.487 82.5266 334.434 80.5026 333.451C76.1719 331.348 71.7282 329.456 67.3137 327.538C58.3331 323.636 49.2067 319.966 39.719 317.481C34.5176 316.119 29.2248 315.137 23.8681 314.654C23.7684 314.645 23.7567 314.798 23.8556 314.809Z" fill="#256653"/>
<path d="M39.3344 308.679C39.2109 309.457 38.4 311.718 38.9002 313.951C39.1967 316.153 40.8045 318.328 40.8164 318.219C40.9545 318.213 38.31 317.503 36.5212 315.238C34.6075 313.158 33.55 309.521 33.9737 307.952C34.4243 304.643 37.1752 303.034 38.3115 304.001C39.4781 304.943 39.5092 306.958 39.3344 308.679Z" fill="#256653"/>
<path d="M56.0529 314.665C55.9294 315.443 55.1185 317.704 55.6186 319.937C55.9153 322.139 57.5231 324.313 57.5351 324.205C57.6731 324.199 55.0286 323.489 53.2399 321.224C51.3263 319.144 50.2686 315.507 50.6925 313.937C51.1429 310.629 53.8938 309.02 55.0301 309.987C56.1967 310.929 56.2278 312.944 56.0529 314.665Z" fill="#256653"/>
<path d="M73.0396 322.236C72.9163 323.015 72.105 325.275 72.6053 327.508C72.9019 329.711 74.5097 331.885 74.5216 331.777C74.6597 331.77 72.0149 331.061 70.2264 328.795C68.3126 326.715 67.2549 323.079 67.6788 321.509C68.1292 318.2 70.8802 316.592 72.0166 317.559C73.1832 318.501 73.2144 320.515 73.0396 322.236Z" fill="#256653"/>
<path d="M34.344 324.298C34.6876 323.656 35.3516 321.537 36.9665 320.171C38.4141 318.713 40.8125 318.008 40.7608 318.095C40.8587 318.177 38.5142 317.223 35.9315 317.895C33.3605 318.36 30.5513 320.449 29.9878 321.842C28.4731 324.532 29.6027 327.253 30.9796 327.175C32.3652 327.131 33.5126 325.664 34.344 324.298Z" fill="#256653"/>
<path d="M51.7347 330.454C52.0783 329.811 52.7422 327.693 54.3571 326.327C55.8047 324.869 58.2031 324.164 58.1514 324.25C58.2496 324.333 55.9048 323.379 53.3221 324.051C50.7511 324.515 47.9419 326.605 47.3784 327.998C45.8638 330.688 46.9933 333.409 48.3702 333.33C49.7556 333.287 50.903 331.82 51.7347 330.454Z" fill="#256653"/>
<path d="M21.0989 317.962C21.3995 317.604 22.0963 316.361 23.291 315.717C24.3925 314.993 25.9918 314.867 25.9478 314.914C25.9987 314.979 24.6522 314.07 22.9418 314.151C21.266 314.103 19.2259 315.044 18.6881 315.844C17.3817 317.333 17.7314 319.191 18.6065 319.323C19.4819 319.479 20.3962 318.71 21.0989 317.962Z" fill="#256653"/>
<path d="M23.1061 309.787C23.1749 310.249 23.1186 311.673 23.7993 312.847C24.3593 314.041 25.6564 314.985 25.6439 314.921C25.7207 314.893 24.0981 314.962 22.6826 313.999C21.2294 313.163 19.9831 311.294 19.9435 310.33C19.6092 308.378 20.8791 306.978 21.6942 307.322C22.522 307.648 22.8987 308.782 23.1061 309.787Z" fill="#256653"/>
<path d="M298.12 301.989C350.593 249.517 350.593 164.441 298.12 111.968C245.647 59.4949 160.572 59.4949 108.099 111.968C55.6256 164.441 55.6257 249.516 108.099 301.989C160.572 354.462 245.647 354.462 298.12 301.989Z" fill="#B75742"/>
<path d="M289.75 293.62C337.601 245.769 337.601 168.188 289.75 120.337C241.899 72.4856 164.317 72.4856 116.466 120.337C68.6151 168.188 68.6151 245.769 116.466 293.62C164.317 341.471 241.899 341.471 289.75 293.62Z" fill="#F47458"/>
<path d="M275.967 279.837C316.205 239.598 316.205 174.359 275.967 134.121C235.728 93.8822 170.489 93.8822 130.251 134.121C90.0122 174.359 90.0122 239.598 130.251 279.837C170.489 320.075 235.728 320.075 275.967 279.837Z" fill="#FCF5EB"/>
<path d="M257.876 261.746C288.123 231.499 288.123 182.459 257.876 152.212C227.629 121.966 178.589 121.966 148.343 152.212C118.096 182.459 118.096 231.499 148.343 261.746C178.589 291.992 227.629 291.992 257.876 261.746Z" fill="#F47458"/>
<path d="M241.999 245.87C263.478 224.391 263.478 189.567 241.999 168.089C220.521 146.61 185.697 146.61 164.218 168.089C142.74 189.567 142.74 224.391 164.219 245.869C185.697 267.348 220.521 267.348 241.999 245.87Z" fill="#FCF5EB"/>
<path d="M217.138 206.979C217.138 214.725 210.859 221.004 203.113 221.004C195.367 221.004 189.088 214.725 189.088 206.979C189.088 199.233 195.367 192.954 203.113 192.954C210.859 192.954 217.138 199.233 217.138 206.979Z" fill="#B75742"/>
<path d="M289.222 137.362L288.724 128.25L319.571 104.123L317.958 117.317L287.729 140.961L289.222 137.362Z" fill="#184655"/>
<path d="M291.503 140.431L300.227 143.109L331.073 118.982L317.88 117.369L287.65 141.014L291.503 140.431Z" fill="#12353D"/>
<path d="M202.059 208.141C202.76 209.037 204.056 209.196 204.952 208.494L291.858 140.52L289.318 137.273L202.412 205.247C201.516 205.948 201.358 207.244 202.059 208.141Z" fill="#184655"/>
<path d="M331.729 233.379C331.729 234.25 332.054 234.956 332.455 234.956C332.857 234.956 333.183 234.25 333.183 233.379C333.183 232.508 332.857 231.802 332.455 231.802C332.054 231.802 331.729 232.508 331.729 233.379Z" fill="#F7A491"/>
<path d="M324.879 335.641C325.068 334.283 325.128 332.197 325.108 329.79H329.863C329.369 333.198 328.981 335.851 328.981 335.851L329.1 336.929L329.103 340.11H318.699C318.699 340.11 320.907 339.121 323.996 337.166C324.225 337.021 324.751 336.56 324.879 335.641Z" fill="#F7A491"/>
<path d="M345.16 334.842L343.777 330.88H347.398C347.586 333.423 347.657 335.139 347.657 335.139L348.577 337.744L349.511 340.839C349.511 340.839 346.432 341.633 344.817 340.741L344.996 337.659L345.16 334.842Z" fill="#F7A491"/>
<path d="M326.381 248.731C327.636 247.015 332.816 242.044 333.391 242.054C335.069 242.083 340.575 242.085 341.651 242.632L341.599 252.096C341.424 252.89 337.623 265.264 337.843 267.973L337.817 267.998C334.631 271.075 329.607 270.833 326.693 267.463C326.693 267.463 326.705 263.709 326.257 260.285C325.554 254.922 323.262 252.994 326.381 248.731Z" fill="#F7CC7F"/>
<path d="M335.078 236.726C335.078 236.726 334.933 240.218 335.246 241.542C335.56 242.865 335.978 242.965 333.286 243.368C332.229 243.526 331.209 243.763 331.209 243.763C331.209 243.763 331.485 241.819 331.527 240.998C331.596 239.647 331.216 235.473 331.216 235.473L335.078 236.726Z" fill="#F7A491"/>
<path d="M333.029 238.464C332.475 238.763 331.958 238.94 331.481 239.014C331.389 237.365 331.217 235.473 331.217 235.473L334.901 236.669C334.474 237.383 333.866 238.011 333.029 238.464Z" fill="#F47458"/>
<path d="M344.995 337.647C346.416 338.28 347.945 337.898 348.56 337.696L348.765 338.247L349.548 340.859C349.548 340.859 346.43 341.633 344.814 340.741L344.995 337.647Z" fill="#E25A44"/>
<path d="M329.21 340.9H318.395C317.995 340.864 317.897 340.537 318.036 340.336C318.322 339.921 319.583 339.617 321.002 338.955C323.489 339.218 328.709 337.5 329.102 336.923C329.328 338.079 329.433 340.851 329.21 340.9Z" fill="#E25A44"/>
<path d="M330.027 268.154L336.366 313.245L342.138 334.036H348.418C348.418 334.036 346.961 317.285 343.837 311.352C343.837 311.352 342.473 295.451 341.108 285.727C340.904 284.273 341.914 280.5 341.65 279.525C339.626 272.03 337.843 267.973 337.843 267.973L330.027 268.154Z" fill="#355389"/>
<path d="M333.947 287.65L332.48 304.971C332.48 304.971 333.979 314.87 332.95 321.438C331.921 328.006 330.557 334.035 330.557 334.035H324.785L323.638 301.324C323.638 301.324 321.419 283.551 322.187 278.731C322.955 273.911 326.693 267.462 326.693 267.462L335.773 267.878C335.773 267.878 338.235 276.701 337.819 279.662C337.51 281.861 333.947 287.65 333.947 287.65Z" fill="#466EB6"/>
<path d="M342.875 257.942C349.737 255.882 347.9 249.832 347.862 250.062C347.881 249.875 348.528 249.114 348.848 248.462C350.18 245.75 348.422 242.483 346.409 241.353C347.744 237.904 346.418 234.595 343.903 233.216C342.634 232.52 341.566 231.53 340.708 230.386C338.804 227.845 335.341 225.288 331.178 226.123C327.058 227.176 332.574 229.563 332.028 233.526C331.751 235.535 332.546 235.247 333.787 236.862C332 240.002 333.034 245.273 335.773 247.663C334.43 253.322 335.872 260.044 342.875 257.942Z" fill="#184655"/>
<path d="M337.775 230.286C338.586 233.629 334.198 236.057 330.723 236.146C328.465 236.203 327.427 235.971 327.062 233.592C326.47 229.732 328.06 227.379 330.288 226.405C333.164 225.149 337.106 227.527 337.775 230.286Z" fill="#184655"/>
<path d="M332.673 228.037C332.673 228.037 334.201 228.551 335.015 230.093C335.829 231.635 335.424 236.574 332.037 238.203C328.649 239.832 327.092 236.133 327.338 233.404C327.583 230.675 328.565 227.103 332.673 228.037Z" fill="#F7A491"/>
<path d="M330.556 235.639L328.152 235.603C328.152 235.603 328.194 236.533 329.251 236.58C330.539 236.638 330.556 235.639 330.556 235.639Z" fill="white"/>
<path d="M336.219 233.831C336.72 231.278 336.524 229.344 334.711 228.41C332.897 227.475 331.347 226.55 329.724 228.228L329.357 228.435C329.357 228.435 332.42 229.282 332.59 230.908C332.761 232.534 334.389 234.467 334.139 235.266C333.888 236.065 333.599 237.658 333.599 237.658L334.269 237.107C334.269 237.107 335.718 236.383 336.219 233.831Z" fill="#184655"/>
<path d="M333.063 232.854C332.81 233.559 333.001 234.266 333.49 234.434C333.979 234.602 334.58 234.167 334.833 233.462C335.086 232.757 334.895 232.05 334.406 231.882C333.917 231.714 333.316 232.149 333.063 232.854Z" fill="#F7A491"/>
<path d="M75.536 293.649H106.728L99.2837 341.008H102.501L144.487 73.9014H141.269L140.637 77.9257H109.38L110.012 73.9014H106.794L64.7676 341.008H67.9853L75.536 293.649ZM129.047 151.659L123.898 184.418H92.6731L97.8126 151.659H129.047ZM98.2421 148.921L103.382 116.161H134.627L129.477 148.921H98.2421ZM123.467 187.156L118.318 219.916H87.1038L92.2433 187.156H123.467ZM117.888 222.654L112.738 255.413H81.5348L86.6743 222.654H117.888ZM140.207 80.6638L135.057 113.423H103.811L108.951 80.6638H140.207ZM75.9656 290.911L81.1051 258.151H112.308L107.158 290.911H75.9656Z" fill="#F7CC7F"/>
<path d="M208.421 29.825C208.387 29.9449 208.128 30.7667 207.73 31.991L211.902 32.8324C211.945 32.1498 211.987 31.5796 212.036 31.1659C212.38 28.2722 213.739 27.4864 214.439 25.8796C215.138 24.2728 217.852 23.2537 217.518 22.7088C217.183 22.1639 214.655 24.3709 214.047 24.1345C213.44 23.8983 216.21 20.5778 215.877 20.1351C215.264 19.32 212.631 23.6171 212.321 23.2621C212.012 22.9072 214.514 18.3717 213.513 18.3145C212.511 18.2573 211.401 23.2229 210.874 23.0042C210.348 22.7856 212.331 18.4286 211.323 17.7784C210.784 17.431 208.873 25.5322 208.02 25.9993C207.168 26.4664 205.967 23.2731 205.153 23.5441C204.339 23.8155 208.563 29.3239 208.421 29.825Z" fill="#F79C8D"/>
<path d="M169.58 12.6038C169.561 12.7271 169.459 13.5826 169.316 14.8619L165.168 13.908C165.41 13.2682 165.608 12.7314 165.733 12.3342C166.614 9.5563 165.7 8.28002 165.725 6.5278C165.75 4.77538 163.698 2.72757 164.228 2.36917C164.758 2.01077 166.151 5.06425 166.801 5.0994C167.452 5.13454 166.298 0.967084 166.784 0.701264C167.679 0.211878 168.305 5.21233 168.733 5.01662C169.162 4.8209 168.753 -0.343002 169.689 0.0180833C170.625 0.379168 169.588 5.36061 170.158 5.37866C170.728 5.39671 170.718 0.609263 171.904 0.432946C172.538 0.338642 170.939 8.50704 171.523 9.28433C172.107 10.0616 174.518 7.64774 175.147 8.23027C175.777 8.81281 169.657 12.0887 169.58 12.6038Z" fill="#F79C8D"/>
<path d="M212.401 31.5973C212.401 31.5973 207.431 30.4079 207.384 30.807C206.339 39.5501 205.87 42.7122 205.694 42.8029C205.091 43.1127 197.107 35.8117 195.683 35.3169C195.002 35.0803 194.261 35.1196 193.551 35.1406C191.857 35.1905 191.523 35.1969 191.523 35.1969C191.475 35.1999 191.461 35.2009 191.461 35.2009L191.47 36.7937C193.378 38.5104 197.746 64.5131 198.114 64.4958C198.525 64.4766 207.158 66.6493 207.006 65.9219C206.981 65.8036 201.153 61.0342 199.5 54.1509C198.945 51.8402 198.671 49.352 198.37 47.1743C200.288 48.1362 207.781 51.8233 208.968 51.3362C212.662 49.8212 212.401 31.5973 212.401 31.5973Z" fill="#F7CC7F"/>
<path d="M227.27 77.7663C227.27 77.7663 235.302 84.0582 235.57 85.1737C235.956 86.7806 243.312 84.6682 241.538 84.3411C241.13 84.266 239.823 83.9347 239.716 83.8773C239.142 83.5704 231.995 74.9575 231.995 74.9575L227.27 77.7663Z" fill="#F7A491"/>
<path d="M244.987 84.3414L239.859 83.9238C239.859 83.9238 238.393 85.1371 235.575 85.194C235.575 85.194 235.125 86.4808 235.339 87.9853C235.376 88.2449 235.419 89.0291 235.681 89.0113C236.629 88.9469 239.153 88.3187 242.029 87.7435C242.029 87.7435 245.895 86.9249 248.128 85.589C250.361 84.2534 244.987 84.3414 244.987 84.3414Z" fill="#F7CC7F"/>
<path d="M191.278 61.9834C191.278 61.9834 197.16 62.9718 203.665 61.4499C211.193 59.6888 219.517 58.0609 221.955 59.4787C223.919 60.62 236.177 79.1434 236.177 79.1434L231.443 82.5979L217.946 67.4835C217.946 67.4835 200.725 73.8374 196.857 73.1333C188.048 71.5293 187.923 64.4947 191.278 61.9834Z" fill="#355389"/>
<path d="M209.67 90.1938C209.67 90.1938 209.312 99.909 209.09 101.554C208.869 103.192 213.213 108.126 212.658 106.41C212.53 106.015 212.201 104.708 212.201 104.586C212.198 103.935 213.812 92.8526 213.812 92.8526L209.67 90.1938Z" fill="#F7A491"/>
<path d="M215.436 109.949L212.229 104.734C212.229 104.734 210.464 104.02 209.076 101.568C209.076 101.568 207.73 101.783 206.508 102.687C206.297 102.842 204.86 103.893 204.96 104.135C205.329 105.027 207.285 106.939 209.424 109.026C209.424 109.026 212.456 111.471 214.692 112.801C216.928 114.131 215.436 109.949 215.436 109.949Z" fill="#F7CC7F"/>
<path d="M219.203 71.04C217.146 68.2971 200.546 65.6921 200.546 65.6921L195.917 56.7954L185.682 63.1073C185.682 63.1073 186.705 71.2521 187.473 73.4282C188.496 76.3284 195.375 76.4761 199.577 76.4329C203.442 76.3931 210.503 77.1814 210.503 77.1814L208.115 98.2497C208.115 98.2497 212.809 99.318 214.128 99.1453C214.277 99.1257 221.762 74.4519 219.203 71.04Z" fill="#466EB6"/>
<path d="M191.518 35.2158L185.744 35.5383C185.744 35.5383 185.611 35.5788 185.571 35.5863C185.1 35.6735 185.528 52.5024 185.947 58.7878C186.367 65.0733 187.218 67.7139 187.218 67.7139C187.218 67.7139 195.05 66.3233 197.453 65.3902C198.451 65.003 200.865 61.9847 200.865 61.9847C200.865 61.9847 198.399 58.6687 197.156 53.2824C196.198 49.1282 195.016 41.7639 194.34 40.2268C192.787 36.6967 191.518 35.2158 191.518 35.2158Z" fill="#184655"/>
<path d="M185.906 30.4389L185.742 35.5377C185.742 35.5377 189.48 41.979 191.4 41.0813C193.01 40.328 191.581 35.4284 191.581 35.4284C191.581 35.4284 191.302 34.305 190.915 33.0143C190.645 32.1126 190.42 31.1355 190.437 30.4187C190.477 28.6761 185.906 30.4389 185.906 30.4389Z" fill="#F7A491"/>
<path d="M190.437 30.4187C190.477 28.6761 185.907 30.4389 185.907 30.4389L185.891 30.9371C186.045 31.1691 186.214 31.3658 186.401 31.5171C187.63 32.5149 189.407 32.964 190.852 32.7984C190.611 31.9593 190.422 31.0787 190.437 30.4187Z" fill="#F47458"/>
<path d="M190.375 18.8101C190.375 18.8101 192.28 21.6816 192.422 24.0984C192.564 26.5152 192.052 28.1643 192.052 28.1643L185.939 20.8573L190.375 18.8101Z" fill="#F7CC7F"/>
<path d="M193.055 23.6042C193.141 24.4504 192.812 25.177 192.32 25.2273C191.828 25.2775 191.359 24.6321 191.273 23.7861C191.187 22.9398 191.516 22.2132 192.008 22.1629C192.5 22.1126 192.968 22.7579 193.055 23.6042Z" fill="#F48C7F"/>
<path d="M183.961 22.0277C183.821 21.9979 183.834 29.0326 185.873 30.688C187.912 32.3434 191.461 32.4886 192.498 30.8213C193.644 28.9769 192.553 21.5644 189.521 19.9901C186.488 18.4159 183.961 22.0277 183.961 22.0277Z" fill="#F7A491"/>
<path d="M183.443 17.6657C181.886 19.0303 181.133 20.0273 180.08 22.4539C178.785 25.4373 181.354 28.5284 183.508 29.7569C185.663 30.9851 185.842 32.4704 185.842 32.4704L185.931 31.5548C185.973 31.2198 185.961 30.9482 185.903 30.7128C185.835 30.436 185.708 30.208 185.596 29.9699C185.413 29.5778 184.824 28.2345 184.594 27.88C183.988 26.945 183.869 26.7427 184.168 25.8542C184.398 25.1701 184.132 23.6622 184.488 22.5348L187.388 21.9092C187.388 21.9092 189.203 21.473 190.119 20.4157C192.751 17.3799 187.548 13.9949 183.443 17.6657Z" fill="#F7CC7F"/>
<path d="M184.857 26.6235C185.214 27.3956 185.14 28.1896 184.691 28.3974C184.242 28.6052 183.589 28.1477 183.232 27.3758C182.875 26.6037 182.949 25.8097 183.398 25.6019C183.846 25.3941 184.499 25.8516 184.857 26.6235Z" fill="#F7A491"/>
<path d="M185.743 35.5375C185.743 35.5375 180.018 35.2708 178.541 34.6026C177.645 34.1975 170.288 28.2696 170.288 28.2696L170.371 12.3979L165.197 12.0044C165.197 12.0044 162.514 29.5476 163.444 31.4678C164.403 33.4509 175.172 41.6147 177.325 45.1572C178.566 47.1981 181.153 74.9548 181.545 75.2047C184.331 76.6548 192.936 78.103 192.733 77.2233C187.132 52.914 185.743 35.5375 185.743 35.5375Z" fill="#F7CC7F"/>
<path d="M188.186 28.4556L191.518 27.3975C191.518 27.3975 191.843 28.6878 190.391 29.1954C188.62 29.8144 188.186 28.4556 188.186 28.4556Z" fill="white"/>
<path d="M330.392 90.2194C330.821 90.1469 331.037 89.5798 330.818 89.2229C330.466 88.6488 330.123 88.0688 329.777 87.4909C329.013 86.2146 328.943 86.1881 329.005 86.0425C329.153 85.695 329.808 85.8537 330.043 85.9343C330.565 86.1135 331.047 86.4264 331.602 86.4969C332.685 86.6346 333.473 85.8064 332.991 84.757C332.551 83.7965 332.051 82.8536 331.548 81.9184C332.709 82.1562 333.865 82.4272 335.029 82.6481C335.441 82.7265 335.725 82.3588 335.559 81.9766C335.189 81.1269 334.095 78.6108 333.734 77.7813C333.641 77.567 333.088 76.6185 333.279 76.437C333.451 76.274 334.247 76.495 334.43 76.5215C335.44 76.6685 335.799 76.7063 339.095 77.1089C339.488 77.1569 339.816 76.6203 339.582 76.2934C337.28 73.0768 337.681 72.7841 336.861 72.3333C336.677 72.2323 336.503 72.357 336.474 72.5467C336.4 73.0305 336.417 73.1512 337.285 74.6854C337.509 75.0822 337.743 75.4731 337.987 75.8578C333.993 75.2927 333 75.0547 332.459 75.9511C332.084 76.5732 332.265 76.7424 334.349 81.499C333.144 81.1866 331.927 80.9489 330.707 80.6869C330.244 80.5874 329.903 81.0253 330.102 81.4523C331.699 84.8851 331.88 84.9095 331.939 85.2498C331.941 85.2592 332.15 85.3072 331.838 85.2792C331.307 85.2316 330.33 84.4599 329.314 84.5778C328.42 84.6815 327.569 85.4117 327.772 86.3857C327.889 86.9513 328.1 87.1519 329.163 89.0424C328.114 89.2498 327.095 89.5813 326.05 90.0607C325.597 90.2685 325.326 90.4635 325.043 90.877C324.812 91.2148 325.099 91.7614 325.516 91.738C326.7 91.6719 327.214 90.7552 330.392 90.2194Z" fill="#F7CC7F"/>
<path d="M351.372 99.7132C351.223 98.7064 351.151 97.7426 351.178 96.6862C351.184 96.487 351.149 96.1159 351.351 95.9911C351.835 95.6905 352.561 96.5239 354.424 96.9309C355.232 97.1076 356.889 97.544 357.243 96.4576C357.425 95.9008 357.307 95.1977 357.305 94.6203C357.303 94.182 357.319 93.7437 357.326 93.3056C360.351 94.1592 360.178 94.3365 360.864 94.0374C361.042 93.9598 361.135 93.6877 361.029 93.52C360.636 92.8981 360.715 93.0755 356.911 91.9608C356.564 91.8592 356.138 92.0997 356.139 92.494C356.142 93.0871 356.298 95.7746 356.265 96.1071C356.234 96.0858 356.089 96.1131 356.057 96.1121C354.794 96.0681 353.733 95.611 352.586 95.1383C351.647 94.7507 350.372 94.7436 350.077 95.9456C349.918 96.5977 349.984 97.9437 350.081 98.98C348.239 98.3908 346.401 97.7877 344.556 97.2107C344.195 97.0978 343.676 97.3655 343.705 97.7983C343.787 99 343.828 100.201 343.859 101.404C342.776 101.048 341.753 100.523 340.825 99.8532C340.141 99.3594 339.271 100.318 341.081 101.445C342.074 102.108 343.165 102.592 344.334 102.9C344.721 103.002 345.186 102.755 345.187 102.311C345.191 101.12 345.14 99.9269 345.066 98.7371C346.908 99.3012 348.757 99.8468 350.599 100.412C351.051 100.55 351.438 100.16 351.372 99.7132Z" fill="#F47458"/>
<path d="M357.746 123.842C357.754 124.209 357.987 124.443 358.333 124.505C360.025 124.81 361.699 124.967 363.398 124.677C364.282 124.527 363.966 123.211 363.102 123.305C361.747 123.451 360.349 123.529 358.981 123.353C359.014 122.337 359.145 121.331 359.395 120.348C359.489 119.974 359.243 119.472 358.804 119.484C357.712 119.514 353.581 119.753 353.544 119.798C353.548 119.79 353.555 119.762 353.541 119.688C353.461 119.248 353.784 117.755 353.75 117.073C353.712 116.308 352.695 116.029 352.078 115.97C350.828 115.85 349.442 116.753 348.223 116.267C347.052 115.8 348.37 113.962 347.425 112.526C346.697 111.419 345.445 111.752 343.469 112.133C342.984 112.226 342.512 112.323 342.267 112.8C342.207 112.918 342.197 113.091 342.306 113.193C342.9 113.746 343.614 113.497 345.42 113.198C345.65 113.16 346.038 113.024 346.243 113.194C346.925 113.76 345.926 115.315 346.734 116.627C347.362 117.649 348.621 117.837 349.689 117.708C350.527 117.607 351.56 117.12 352.409 117.422C352.363 118.149 352.296 118.882 352.305 119.608C352.315 120.4 352.72 120.953 353.518 121.018C354.401 121.091 355.319 120.97 356.2 120.929C356.793 120.902 357.386 120.877 357.978 120.845C357.81 121.833 357.726 122.83 357.746 123.842Z" fill="#3CB4C5"/>
<path d="M309.08 77.6907C304.355 73.8156 301.947 77.3026 303.307 78.9111C303.89 79.6002 304.925 79.6565 305.447 78.8762C305.686 78.5189 305.334 77.9285 304.889 78.0678C304.521 78.183 304.434 77.7649 304.824 77.6031C305.351 77.3853 305.991 77.7714 306.444 78.0117C307.503 78.5721 308.883 79.2845 309.064 80.6119C309.332 82.5925 307.318 84.6877 304.334 83.5328C300.029 81.867 300.234 74.8239 304.799 73.6546C307.283 73.0183 309.952 74.0733 311.476 76.1165C311.774 76.5159 312.306 76.0484 312.145 75.6479C310.927 72.6148 307.056 71.4585 304.119 72.4867C301.107 73.5411 299.607 76.7156 300.057 79.7842C300.528 83.0021 303.28 85.6793 306.637 85.3357C310.319 84.9587 312.384 80.3998 309.08 77.6907Z" fill="#3CB4C5"/>
<path d="M355.614 134.571C354.843 134.032 353.253 133.701 352.735 134.75C352.494 135.238 352.629 135.84 353.196 136.026C353.751 136.208 354.268 135.91 354.697 136.423C355.064 136.864 354.843 137.495 354.508 137.89C353.486 139.093 351.307 138.724 350.085 138.056C348.146 136.996 347.808 134.22 349.9 132.892C350.554 132.476 351.315 132.385 352.054 132.213C352.463 132.118 352.659 131.471 352.228 131.253C350.567 130.413 348.517 131.49 347.533 132.903C346.5 134.385 346.541 136.498 347.499 138.009C348.569 139.697 350.727 140.537 352.668 140.516C356.703 140.471 358.112 136.317 355.614 134.571Z" fill="#3C8F7C"/>
<path d="M275.915 259.087C275.791 259.513 275.72 259.655 275.563 259.941C274.548 261.787 272.195 264.421 272.195 264.421L270.375 260.32C270.375 260.32 270.672 259.032 271.186 257.191C272.945 257.651 274.619 257.916 275.915 259.087Z" fill="#F8A492"/>
<path d="M265.479 255.531C265.479 255.531 275.631 259.903 275.959 259.819C276.17 259.765 280.123 253.149 280.165 246.927C280.185 244.053 277.201 240.596 273.871 241.28C272.194 241.624 272.22 242.09 269.74 245.694C267.26 249.298 265.479 255.531 265.479 255.531Z" fill="#466EB6"/>
<path d="M256.812 333.914C256.812 333.914 257.053 337.901 257.055 337.91C257.143 338.416 257.492 339.666 257.492 340.127C257.492 341.855 249.282 338.659 251.122 337.893C251.289 337.824 252.161 337.299 252.216 336.711C252.3 335.804 252.514 333.97 252.514 333.97L256.812 333.914Z" fill="#F7A491"/>
<path d="M251.143 337.876C251.143 337.876 253.07 338.405 254.057 338.537C255.045 338.669 256.346 337.556 257.044 337.857C257.813 338.188 257.783 341.167 257.783 341.167C257.783 341.167 247.447 342.015 244.541 341.138C243.389 340.79 247.203 339.108 251.143 337.876Z" fill="#3C8F7C"/>
<path d="M273.605 333.914C273.605 333.914 273.846 337.901 273.848 337.91C273.936 338.416 274.285 339.666 274.285 340.127C274.285 341.855 266.075 338.659 267.915 337.893C268.082 337.824 269.213 336.907 269.268 336.319C269.352 335.413 269.308 333.97 269.308 333.97L273.605 333.914Z" fill="#F7A491"/>
<path d="M267.937 337.876C267.937 337.876 269.864 338.405 270.851 338.537C271.839 338.669 273.14 337.556 273.838 337.857C274.607 338.188 274.637 341.167 274.637 341.167C274.637 341.167 264.255 342.156 261.334 341.138C260.201 340.743 263.997 339.108 267.937 337.876Z" fill="#3C8F7C"/>
<path d="M272.845 234.774L273.776 240.661C273.776 240.661 270.229 243.508 268.162 242.908C266.427 242.404 267.617 240.136 267.617 240.136C267.617 240.136 268.541 236.993 268.257 235.346C267.974 233.7 272.845 234.774 272.845 234.774Z" fill="#F7A491"/>
<path d="M272.176 236.553C271.287 236.973 269.53 237.546 268.162 237.685C268.293 236.861 268.367 235.99 268.257 235.346C268.126 234.586 269.093 234.406 270.172 234.432C271.585 234.553 272.844 234.774 272.844 234.774L273.023 235.905C272.754 236.189 272.472 236.414 272.176 236.553Z" fill="#FE875E"/>
<path d="M277.321 227.985C277.467 227.985 275.919 234.56 273.523 235.692C271.127 236.823 267.554 236.233 266.883 234.463C266.142 232.504 268.847 225.795 272.217 224.943C275.587 224.091 277.321 227.985 277.321 227.985Z" fill="#F7A491"/>
<path d="M274.548 221.943C276.462 223.047 277.34 224.684 277.636 225.354C278.534 225.781 279.621 226.703 280.143 229.187C280.784 232.241 278.503 234.596 276.085 235.304C273.667 236.013 273.294 237.613 273.294 237.613L273.019 235.891C273.019 235.891 273.557 234.392 274.366 233.641C275.175 232.891 273.983 231.797 273.878 230.905C273.797 230.218 274.303 228.885 274.194 227.758C274.194 227.758 272.85 225.721 271.526 225.218C269.268 224.36 272.092 220.526 274.548 221.943Z" fill="#13375B"/>
<path d="M273.529 232.05C273.216 232.809 273.344 233.563 273.815 233.734C274.286 233.905 274.922 233.428 275.235 232.668C275.548 231.909 275.42 231.155 274.949 230.984C274.478 230.813 273.842 231.291 273.529 232.05Z" fill="#F7A491"/>
<path d="M264.605 261.46L250.658 259.186C250.658 259.186 252.245 255.191 252.812 255.191C253.379 255.191 263.357 259.548 263.357 259.548L264.151 261.141L264.605 261.46Z" fill="#F8A492"/>
<path d="M271.747 271.022C271.747 271.022 273.138 277.749 272.571 282.848C272.004 287.948 271.96 306.065 271.96 306.065L274.123 335.051L268.99 335.163C268.99 335.163 262.902 306.191 263.016 306.934C263.129 307.678 260.975 286.535 260.975 286.535L268.232 270.385L271.747 271.022Z" fill="#184655"/>
<path d="M270.385 270.704C270.385 270.704 271.293 276.76 270.159 279.416C269.025 282.072 260.433 308.135 260.319 310.26C260.206 312.384 257.349 335.872 257.349 335.872L251.38 335.704L250.088 309.591L252.792 276.771L255.418 268.473L270.385 270.704Z" fill="#13375B"/>
<path d="M273.774 240.661C273.774 240.661 272.302 241.627 270.929 241.515C269.556 241.403 267.615 240.136 267.615 240.136L267.885 239.221C267.885 239.221 271.437 238.704 271.526 238.76C271.616 238.816 273.774 240.661 273.774 240.661Z" fill="#F7A491"/>
<path d="M258.086 254.994C258.086 254.994 252.811 259.973 250.429 259.123C248.048 258.273 247.063 255.367 252.873 251.116C258.073 247.312 258.086 254.994 258.086 254.994Z" fill="#F8A492"/>
<path d="M254.512 261.142C255.295 256.878 260.975 243.611 261.429 241.167C261.649 239.979 264.713 239.953 267.631 240.108C270.713 240.272 273.775 240.661 273.775 240.661C273.775 240.661 276.504 241.11 277.704 242.234C278.905 243.359 279.224 246.47 277.498 252.376C276.135 257.038 274.447 259.598 273.611 262.993C273.442 264.132 273.297 265.256 273.104 266.569C272.797 271.646 273.108 278.354 273.108 278.354C273.108 278.354 258.254 281.435 252.697 276.76C252.697 276.76 253.709 265.51 254.512 261.142Z" fill="#50BFA5"/>
<path d="M250.725 251.974C250.725 251.974 256.553 256.785 256.893 256.785C257.113 256.785 265.211 250.828 267.08 245.933C268.114 243.228 265.946 240.2 263.47 240.21C261.754 240.217 260.991 240.66 257.589 243.528C254.188 246.397 250.725 251.974 250.725 251.974Z" fill="#466EB6"/>
<path d="M267.299 231.619L269.486 232.818C269.486 232.818 268.913 233.738 267.934 233.242C266.74 232.638 267.299 231.619 267.299 231.619Z" fill="white"/>
<path d="M128.765 257.262C128.594 256.771 130.981 256.375 131.108 255.878C131.235 255.382 128.094 255.343 127.982 254.907C127.775 254.104 131.424 254.738 131.352 254.362C131.28 253.986 127.549 253.147 127.952 252.502C128.356 251.858 131.73 253.776 131.832 253.339C131.935 252.901 128.534 251.837 128.595 250.878C128.627 250.365 134.176 253.434 134.82 253.155C135.464 252.877 134.128 250.468 134.64 250.11C135.153 249.753 136.623 255.007 136.977 255.182C137.329 255.357 144.827 259.636 147.495 260.316C147.819 259.423 151.639 253.891 151.925 253.047C153.421 254.112 154.957 254.258 156.501 255.229C155.383 258.034 150.246 265.819 149.466 266.171C147.092 267.244 137.91 259.629 136.078 258.325C134.243 257.021 133.194 257.444 131.953 257.032C130.713 256.62 128.937 257.752 128.765 257.262Z" fill="#F7A491"/>
<path d="M179.708 236.944C178.334 233.282 174.744 231.066 171.005 231.751C169.858 229.899 167.945 228.525 165.864 228.079C161.76 227.199 156.208 228.821 156.358 233.168C154.766 236.087 154.705 240.262 157.141 242.483C156.293 246.409 159.971 250.206 164.751 250.067C166.416 252.812 169.587 254.578 172.741 254.201C173.498 254.111 174.652 253.922 174.844 253.969C174.603 253.925 179.91 257.993 184.406 251.737C188.995 245.353 185.771 237.625 179.708 236.944Z" fill="#184655"/>
<path d="M166.82 272.252C166.957 272.309 165.016 274.809 163.126 276.578C161.602 278.49 160.173 280.754 159.681 283.222C158.933 286.975 159.555 305.518 158.904 306.837C153.312 312.305 149.262 326.027 148.125 330.213C147.903 331.029 147.454 331.764 146.832 332.337L147.081 337.068L149.86 339.627C149.86 339.627 149.242 335.772 150.477 332.913C150.477 332.913 164.557 311.588 165.393 309.958C166.99 305.316 172.806 281.534 172.806 281.534L174.156 276.067C174.156 276.067 166.832 272.257 166.82 272.252Z" fill="#F7A491"/>
<path d="M143.787 333.859C143.787 333.859 145.546 336.569 145.696 337.625C145.846 338.681 146.783 341.077 147.819 341.229C148.054 341.263 152.084 341.559 152.055 341.055C152.032 340.67 150.574 340.121 149.896 339.653C148.726 338.844 146.908 332.259 146.908 332.259C146.908 332.259 143.863 333.014 143.787 333.859Z" fill="#355389"/>
<path d="M167.408 243.29C167.408 243.29 173.301 232.692 174.735 230.439C176.168 228.186 179.903 219.234 180.036 218.881C180.17 218.528 177.464 214.292 178.068 214.147C178.672 214.002 179.34 216.38 179.985 216.096C180.629 215.812 182.511 210.086 182.878 210.37C183.565 210.901 181.864 213.922 182.23 214.112C182.596 214.302 183.705 210.789 184.425 210.892C185.144 210.995 183.057 214.113 183.258 214.388C183.459 214.663 185.626 211.726 186.018 212.352C186.23 212.692 184.026 214.916 184.449 215.124C184.872 215.333 186.834 213.897 187.041 214.311C187.249 214.725 185.228 215.292 184.623 216.408C184.018 217.524 182.989 218.006 182.561 220.073C182.134 222.139 181.495 229.618 179.305 233.349C177.115 237.08 172.299 245.337 172.299 245.337L167.408 243.29Z" fill="#F79C8D"/>
<path d="M178.856 280.469C178.856 280.469 187.925 299.861 187.983 303.271C188.033 306.193 186.398 322.59 186.854 336.245C186.871 336.738 187.495 337.393 188.404 337.81C188.915 338.044 191.385 339.147 191.385 339.147L191.724 340.031L183.219 339.425L183.097 337.103C183.097 337.103 179.712 316.676 180.057 310.899C180.111 309.992 180.553 304.558 180.553 304.558L170.324 284.81L176.757 276.357L178.856 280.469Z" fill="#F7A491"/>
<path d="M158.066 303.764C158.068 303.767 158.069 303.767 158.07 303.763C158.069 303.763 158.066 303.764 158.066 303.764Z" fill="#F47458"/>
<path d="M171.04 249.027C171.284 247.536 173.591 243.805 173.955 242.89C173.955 242.89 171.28 239.491 169.109 239.748C169.109 239.748 166.191 244.586 164.531 244.749C162.873 244.911 157.037 245.164 156.014 245.785C154.991 246.406 150.65 253.07 150.65 253.07C150.65 253.07 154.551 257.053 156.12 257.045C156.12 257.045 156.954 255.403 157.286 255.044C157.523 255.807 161.157 267.581 161.152 270.248L161.18 270.271C164.577 273.026 169.534 272.389 172.154 268.86C172.154 268.86 171.846 265.19 172.02 261.805C172.294 256.502 173.367 253.684 171.04 249.027Z" fill="#3C8F7C"/>
<path d="M189.955 294.578L172.154 268.86C171.056 269.305 170.018 269.692 168.844 269.919C166.292 270.411 163.736 270.332 161.152 270.248C161.152 270.345 161.146 270.429 161.136 270.501C160.84 272.621 158.027 275.904 157.448 282.337C156.79 289.64 157.188 302.326 157.411 303.158C169.245 301.72 186.597 298.102 189.955 294.578Z" fill="#F7CC7F"/>
<path d="M161.531 240.461C161.531 240.461 162.157 243.833 162.032 245.162C161.907 246.492 162.509 250.779 165.213 250.793C167.917 250.807 165.726 245.343 165.472 244.04C165.217 242.737 165.157 238.702 165.157 238.702L161.531 240.461Z" fill="#F7A491"/>
<path d="M165.213 240.727C165.171 239.623 165.157 238.703 165.157 238.703L161.531 240.461C161.531 240.461 161.659 241.151 161.788 242.029C163.375 242.361 164.525 241.749 165.213 240.727Z" fill="#F47458"/>
<path d="M160.204 231.155C160.204 231.155 158.807 231.962 158.297 233.712C157.786 235.461 158.367 239.974 161.976 241.063C165.585 242.152 167.148 238.578 166.405 235.784C165.662 232.99 164.045 229.452 160.204 231.155Z" fill="#F7A491"/>
<path d="M166.857 234.702C166.787 235.452 166.389 236.026 165.969 235.983C165.549 235.94 165.266 235.297 165.337 234.546C165.408 233.796 165.805 233.222 166.225 233.265C166.645 233.308 166.928 233.951 166.857 234.702Z" fill="#F7A491"/>
<path d="M159.336 237.594C159.76 238.25 159.758 239.023 159.332 239.322C158.906 239.62 158.218 239.33 157.793 238.674C157.37 238.018 157.371 237.245 157.797 236.946C158.223 236.648 158.912 236.938 159.336 237.594Z" fill="#F7A491"/>
<path d="M183.192 341.044H193.937C194.335 341.008 194.432 340.688 194.294 340.49C194.01 340.083 192.757 339.784 191.348 339.135C188.876 339.392 183.494 337.704 183.105 337.137C182.88 338.272 182.971 340.995 183.192 341.044Z" fill="#355389"/>
<path d="M162.045 238.34L164.351 237.661C164.351 237.661 164.56 238.569 163.555 238.897C162.329 239.298 162.045 238.34 162.045 238.34Z" fill="white"/>
<path d="M103.522 185.101C103.822 185.113 104.645 185.389 105.848 187.663C107.385 190.568 109.631 199.342 109.631 199.342L102.927 201.839L102.065 200.008L100.646 185.909C100.646 185.909 103.438 185.098 103.522 185.101Z" fill="#3C8F7C"/>
<path d="M94.6608 183.836C96.578 183.839 101.322 184.398 103.524 185.102C103.524 185.102 105.141 199.004 102.067 209.568C101.379 211.933 102.637 219.371 102.637 219.371L82.7695 219.108C82.7695 219.108 85.1231 201.127 84.2365 198.222C83.35 195.318 83.3288 185.196 83.3288 185.196C83.3288 185.196 83.4648 185.174 87.7925 184.426C89.8107 184.077 92.6137 183.834 94.6608 183.836Z" fill="#96D9C9"/>
<path d="M92.3439 245.173C92.3439 245.173 92.7834 250.246 93.5916 251.651C94.3998 253.056 93.5491 255.444 93.5065 255.772C93.464 256.099 91.8054 256.568 89.1683 256.287C86.5312 256.006 86.5738 255.397 86.7865 254.414C86.9991 253.43 88.4025 252.166 88.4876 251.23C88.5727 250.293 87.6794 246.922 87.6794 246.922L92.3439 245.173Z" fill="#F7A491"/>
<path d="M100.394 215.183C100.394 215.183 114.108 214.422 117.171 216.277C120.233 218.131 114.995 227.234 114.995 227.234C114.995 227.234 105.452 226.794 86.7604 227.873C82.334 228.128 81.9526 216.332 82.7802 215.355C83.6078 214.38 100.394 215.183 100.394 215.183Z" fill="#355389"/>
<path d="M88.8388 256.681C86.1234 256.392 86.4593 255.058 86.6783 254.045C86.8154 253.411 87.5944 252.664 88.0587 251.957C88.3014 252.15 88.6963 252.491 89.8754 252.84C91.0998 253.202 92.7785 252.486 93.8483 252.037C94.2296 253.456 94.2468 255.265 94.2113 255.54C94.1673 255.877 91.5543 256.97 88.8388 256.681Z" fill="#13375B"/>
<path d="M90.3376 224.995C90.8856 229.141 93.5985 249.781 93.5985 249.781L87.3039 250.562C87.3039 250.562 79.5631 223.621 79.9601 219.5C80.3571 215.38 83.2546 215.033 83.2546 215.033C83.2546 215.033 88.8875 214.019 90.3376 224.995Z" fill="#466EB6"/>
<path d="M83.1117 186.741C84.9691 186.044 85.8778 202.781 86.1283 209.67C89.4178 209.986 95.1514 209.672 96.5788 209.565C97.2503 209.515 98.7985 208.948 99.4661 208.86C100.15 208.77 100.771 208.724 101.107 208.782C101.231 208.804 104.659 210.206 104.953 210.514C105.316 210.895 106.3 211.857 106.134 212.273C105.968 212.689 104.242 211.114 104.242 211.114L103.399 210.641C104.449 211.666 106.451 213.017 106.163 213.509C105.882 213.988 104.075 212.618 102.788 211.684C103.892 212.681 105.264 214.465 104.948 214.743C104.664 214.993 103.104 212.928 101.436 212.333C100.818 212.112 100.203 212.722 99.7166 212.796C99.3594 212.851 98.8079 212.966 98.4574 212.867L96.6522 212.354C96.0372 212.41 96.0216 212.774 95.4007 212.906C94.6797 213.06 93.4967 213.221 92.5786 213.446C87.2914 214.737 85.5281 215.337 83.9091 215.336C79.0061 215.333 78.7216 188.388 83.1117 186.741Z" fill="#F7A491"/>
<path d="M79.5856 202.454C79.2376 195.397 79.2885 186.7 83.2441 185.216C84.805 184.631 87.5564 188.151 87.0614 202.597C84.9498 202.771 81.8497 202.912 79.5856 202.454Z" fill="#3C8F7C"/>
<path d="M110.75 249.513C110.75 249.513 110.201 251.274 111.184 252.438C112.168 253.603 116.254 254.745 116.791 255.376C117.327 256.007 117.287 256.544 117.287 256.544L105.816 256.228L105.941 252.764L106.47 250.275L110.75 249.513Z" fill="#F7A491"/>
<path d="M111.899 253.019C111.899 253.019 108.952 254.212 107.528 253.506C106.104 252.8 106.147 252.604 105.735 252.867C105.323 253.131 105.176 256.378 105.176 256.378L118.074 256.757C118.971 256.736 119.425 256.075 118.696 255.509C118.196 255.121 117.618 254.862 117.289 254.673C116.281 254.095 111.899 253.019 111.899 253.019Z" fill="#13375B"/>
<path d="M110.316 218.435C111.203 216.569 113.219 214.14 116.767 215.603C120.15 216.998 121.058 220.427 119.991 223.939C118.923 227.45 111.896 248.093 111.65 250.931L106.039 250.968C106.039 250.968 107.059 234.623 107.309 230.672C107.55 226.871 108.782 221.664 110.316 218.435Z" fill="#466EB6"/>
<path d="M119.426 199.422H100.669C100.172 199.422 99.7252 199.723 99.5369 200.184L93.7613 214.318H83.4203C83.131 214.318 82.8965 214.553 82.8965 214.843C82.8965 215.133 83.131 215.368 83.4203 215.368H112.852C113.661 215.368 114.395 214.891 114.726 214.15L120.542 201.151C120.905 200.34 120.313 199.422 119.426 199.422Z" fill="#12353D"/>
<path d="M109.328 207.652C109.201 208.287 108.649 208.712 108.095 208.601C107.541 208.489 107.194 207.885 107.321 207.25C107.448 206.615 108 206.19 108.554 206.301C109.108 206.413 109.454 207.017 109.328 207.652Z" fill="white"/>
<path d="M99.1165 166.857C98.5512 166.667 97.9946 166.452 97.4571 166.193C96.8495 165.9 96.0623 165.556 95.565 165.48C94.5182 165.318 92.7199 165.426 91.7267 166.503C90.4894 167.845 88.2911 166.746 88.7338 173.775C89.2351 181.732 93.6593 180.858 93.7667 180.724C93.874 180.589 97.7125 175.633 97.7125 175.633C97.7125 175.633 99.0547 178.569 99.0547 178.461C99.0545 178.357 105.907 169.144 99.1165 166.857Z" fill="#0E2E35"/>
<path d="M95.7587 181.311L96.1408 184.154C96.1408 184.154 96.9962 188.25 95.8955 189.04C94.795 189.83 91.2148 184.038 91.2148 184.038L91.593 176.833L95.7587 181.311Z" fill="#F7A491"/>
<path d="M91.4707 179.168C92.3798 181.625 94.5453 183.136 96.0824 183.722L95.7586 181.311L91.5929 176.833L91.4707 179.168Z" fill="#F47458"/>
<path d="M95.5316 168.994C97.8638 168.617 99.9558 170.493 99.8974 172.828C99.8721 173.842 99.7889 175.11 99.578 176.474C99.071 179.756 96.8319 182.646 95.3512 182.388C93.8706 182.13 90.1452 179.299 90.8013 174.628C91.2062 171.745 93.0841 169.389 95.5316 168.994Z" fill="#F7A491"/>
<path d="M91.8297 175.186C91.7049 175.908 91.1268 176.41 90.5385 176.308C89.9504 176.205 89.5749 175.537 89.6997 174.815C89.8246 174.093 90.4027 173.592 90.991 173.694C91.5791 173.797 91.9546 174.465 91.8297 175.186Z" fill="#F7A491"/>
<path d="M90.991 173.694C90.991 173.694 92.7811 174.139 93.4454 172.987C94.1096 171.836 96.4853 169.351 99.505 170.381C102.525 171.412 96.8477 167.877 96.6061 167.877C96.3645 167.877 93.4656 167.856 93.4656 167.856C93.4656 167.856 91.2311 169.695 91.1505 169.897C91.07 170.099 90.4258 172.3 90.4258 172.3L90.991 173.694Z" fill="#0E2E35"/>
<path d="M94.2642 178.498L97.5215 179.12C97.5215 179.12 97.2107 180.347 95.7704 180.115C94.0142 179.832 94.2642 178.498 94.2642 178.498Z" fill="white"/>
<g filter="url(#filter0_f_3496_28305)">
<path d="M376.511 340.827H36.8568C36.1917 340.827 35.6523 341.366 35.6523 342.031C35.6523 342.696 36.1917 343.236 36.8568 343.236H376.511C377.177 343.236 377.716 342.696 377.716 342.031C377.716 341.366 377.177 340.827 376.511 340.827Z" fill="#B6B6B6"/>
</g>
<path d="M306.994 253.34C306.822 252.85 309.209 252.453 309.336 251.957C309.463 251.46 306.323 251.422 306.21 250.986C306.003 250.182 309.652 250.816 309.58 250.441C309.508 250.065 305.778 249.226 306.181 248.581C306.584 247.936 309.959 249.855 310.061 249.417C310.163 248.98 306.762 247.916 306.823 246.957C306.856 246.444 312.405 249.513 313.048 249.234C313.692 248.955 312.356 246.546 312.868 246.189C313.381 245.831 314.852 251.085 315.205 251.261C315.558 251.435 323.055 255.714 325.723 256.395C326.047 255.501 326.747 254.296 327.033 253.451C328.53 254.516 329.641 255.051 331.186 256.022C330.067 258.827 328.474 261.898 327.694 262.25C325.32 263.322 316.138 255.707 314.306 254.404C312.471 253.1 311.422 253.523 310.181 253.111C308.941 252.699 307.165 253.831 306.994 253.34Z" fill="#F7A491"/>
<path d="M334.69 247.993C335.399 250.914 331.616 257.425 331.616 257.425C331.616 257.425 326.226 254.882 325.279 253.786C325.279 253.786 328.941 247.468 329.181 247.084C330.267 245.344 331.742 245.342 332.704 245.456C333.476 245.547 334.69 247.993 334.69 247.993Z" fill="#EAB765"/>
<defs>
<filter id="filter0_f_3496_28305" x="32.1523" y="337.327" width="349.064" height="9.40869" filterUnits="userSpaceOnUse" color-interpolation-filters="sRGB">
<feFlood flood-opacity="0" result="BackgroundImageFix"/>
<feBlend mode="normal" in="SourceGraphic" in2="BackgroundImageFix" result="shape"/>
<feGaussianBlur stdDeviation="1.75" result="effect1_foregroundBlur_3496_28305"/>
</filter>
</defs>
</svg>
