<svg width="1272" height="82" viewBox="0 0 1272 82" fill="none" xmlns="http://www.w3.org/2000/svg">
<path d="M2 2L2 79.4036" stroke="#ADADAD" stroke-width="4" stroke-linecap="round"/>
<path d="M31.6053 39.2018H27.7738V15.4324H39.4102C44.6962 15.4324 48.3148 18.4479 48.3148 23.734C48.3148 28.9845 44.6962 32.0355 39.4102 32.0355H31.6053V39.2018ZM39.0554 18.8736H31.6053V28.5943H39.0554C42.6386 28.5943 44.4833 27.2461 44.4833 23.734C44.4833 20.2218 42.6386 18.8736 39.0554 18.8736ZM54.4365 19.5122H50.605V15.4324H54.4365V19.5122ZM54.4365 39.2018H50.605V21.5699H54.4365V39.2018ZM61.8159 39.2018H57.9844V21.5699H61.4966V27.0333H61.745C62.2771 24.0532 64.6186 21.2151 69.0886 21.2151C73.9844 21.2151 76.3968 24.5144 76.3968 28.5943V39.2018H72.5654V29.6231C72.5654 26.3237 71.0753 24.6563 67.4212 24.6563C63.5543 24.6563 61.8159 26.643 61.8159 30.4745V39.2018ZM87.5803 39.5565C82.0105 39.5565 78.924 35.8315 78.924 30.4036C78.924 24.9047 81.975 21.2151 87.332 21.2151C91.5182 21.2151 93.8951 23.3792 94.6047 26.3592H94.8175V15.4324H98.649V39.2018H95.1368V34.1286H94.8885C94.1435 37.6408 91.5537 39.5565 87.5803 39.5565ZM82.7909 30.4036C82.7909 34.6253 84.955 36.0444 88.751 36.0444C92.5116 36.0444 94.8175 34.2705 94.8175 30.581V30.2971C94.8175 26.5366 92.618 24.6918 88.6801 24.6918C84.9905 24.6918 82.7909 26.1464 82.7909 30.4036ZM113.119 39.5565C106.13 39.5565 101.482 34.7317 101.482 27.3171C101.482 19.9025 106.484 15.0776 114.076 15.0776C120.817 15.0776 125.5 18.4834 125.5 23.9823V24.2661H121.278V23.9823C121.278 20.5765 118.901 18.7317 113.97 18.7317C108.258 18.7317 105.527 21.3925 105.527 27.3171C105.527 33.2417 108.223 35.867 113.793 35.867C119.469 35.867 121.704 34.306 121.704 30.2971V29.9778H112.906V27.0688H125.5V39.2018H122.023V34.0577H121.775C120.781 37.5344 117.766 39.5565 113.119 39.5565ZM132.561 39.2018H128.73V21.5699H132.242V26.3237H132.49C133.023 23.4856 134.938 21.2151 138.557 21.2151C142.566 21.2151 144.304 24.0887 144.304 27.4235V29.7295H140.508V28.1685C140.508 25.6497 139.444 24.479 136.819 24.479C133.803 24.479 132.561 26.1464 132.561 29.3038V39.2018ZM150.542 19.5122H146.711V15.4324H150.542V19.5122ZM150.542 39.2018H146.711V21.5699H150.542V39.2018ZM161.86 39.5565C156.29 39.5565 153.203 35.8315 153.203 30.4036C153.203 24.9047 156.254 21.2151 161.611 21.2151C165.797 21.2151 168.174 23.3792 168.884 26.3592H169.097V15.4324H172.928V39.2018H169.416V34.1286H169.168C168.423 37.6408 165.833 39.5565 161.86 39.5565ZM157.07 30.4036C157.07 34.6253 159.234 36.0444 163.03 36.0444C166.791 36.0444 169.097 34.2705 169.097 30.581V30.2971C169.097 26.5366 166.897 24.6918 162.959 24.6918C159.27 24.6918 157.07 26.1464 157.07 30.4036ZM186.014 22.5632H184.169V15.4324H186.688L188.888 20.4701H188.994L191.087 15.4324H193.677V22.5632H191.797V19.5832L191.832 17.9513H191.69L189.952 21.9601H187.894L186.05 17.9513H185.943L186.014 19.5477V22.5632ZM180.09 22.5632H178.067V17.2772H175.052V15.4324H183.07V17.2772H180.09V22.5632Z" fill="#249623"/>
<path d="M41.5059 64.6769C41.5059 65.5506 41.2833 66.3335 40.8383 67.0259C40.3932 67.7017 39.7915 68.2375 39.0333 68.6331C38.2915 69.0122 37.4755 69.2018 36.5854 69.2018H28.3021V51.6462H36.7584C37.5827 51.6462 38.2915 51.8687 38.8849 52.3138C39.4948 52.7424 39.9564 53.3029 40.2696 53.9952C40.5992 54.671 40.7641 55.3799 40.7641 56.1216C40.7641 56.9953 40.5416 57.803 40.0965 58.5448C39.6514 59.2866 39.0333 59.8388 38.242 60.2015C39.2476 60.4982 40.0388 61.0504 40.6157 61.8581C41.2092 62.6658 41.5059 63.6054 41.5059 64.6769ZM39.775 64.3802C39.775 63.7868 39.6432 63.2428 39.3794 62.7483C39.1157 62.2372 38.753 61.8251 38.2915 61.5119C37.8464 61.1987 37.3354 61.0421 36.7584 61.0421H30.0329V67.6935H36.5854C37.1788 67.6935 37.7145 67.5369 38.1926 67.2237C38.6706 66.9105 39.0497 66.5066 39.33 66.0121C39.6267 65.5011 39.775 64.9571 39.775 64.3802ZM30.0329 53.1545V59.6328H36.0661C36.6431 59.6328 37.1541 59.4844 37.5991 59.1877C38.0442 58.8745 38.3986 58.4706 38.6624 57.9761C38.9261 57.4816 39.058 56.9541 39.058 56.3936C39.058 55.8002 38.9344 55.2645 38.6871 54.7864C38.4398 54.2919 38.1019 53.8963 37.6733 53.5996C37.2447 53.3029 36.7584 53.1545 36.2145 53.1545H30.0329ZM44.4239 69.2018V56.3194H46.1053V69.2018H44.4239ZM44.4239 53.6243V51.1517H46.1053V53.6243H44.4239ZM55.2979 69.449C54.3747 69.449 53.5176 69.276 52.7263 68.9298C51.9516 68.5671 51.2757 68.0809 50.6988 67.471C50.1383 66.8446 49.7015 66.1357 49.3883 65.3445C49.0751 64.5368 48.9185 63.6878 48.9185 62.7977C48.9185 61.8746 49.0751 61.0174 49.3883 60.2262C49.7015 59.4185 50.1466 58.7096 50.7235 58.0997C51.3005 57.4733 51.9763 56.9871 52.7511 56.6409C53.5423 56.2782 54.3995 56.0969 55.3226 56.0969C56.2457 56.0969 57.0946 56.2782 57.8694 56.6409C58.6441 56.9871 59.32 57.4733 59.8969 58.0997C60.4739 58.7096 60.9189 59.4185 61.2321 60.2262C61.5453 61.0174 61.7019 61.8746 61.7019 62.7977C61.7019 63.6878 61.5453 64.5368 61.2321 65.3445C60.9189 66.1357 60.4739 66.8446 59.8969 67.471C59.3365 68.0809 58.6606 68.5671 57.8694 68.9298C57.0946 69.276 56.2375 69.449 55.2979 69.449ZM50.6246 62.8224C50.6246 63.7785 50.8307 64.6522 51.2428 65.4434C51.6714 66.2182 52.2401 66.8363 52.9489 67.2979C53.6577 67.7429 54.4407 67.9655 55.2979 67.9655C56.155 67.9655 56.938 67.7347 57.6468 67.2731C58.3557 66.8116 58.9244 66.1852 59.3529 65.394C59.7815 64.5862 59.9958 63.7126 59.9958 62.773C59.9958 61.8169 59.7815 60.9432 59.3529 60.152C58.9244 59.3608 58.3557 58.7344 57.6468 58.2728C56.938 57.8113 56.155 57.5805 55.2979 57.5805C54.4407 57.5805 53.6577 57.8195 52.9489 58.2975C52.2565 58.7756 51.6961 59.4102 51.2675 60.2015C50.8389 60.9762 50.6246 61.8499 50.6246 62.8224ZM83.6767 69.2018H81.9954V62.0065C81.9954 60.5064 81.7563 59.402 81.2783 58.6932C80.8003 57.9843 80.0914 57.6299 79.1518 57.6299C78.1793 57.6299 77.3056 57.9761 76.5309 58.6684C75.7726 59.3608 75.2369 60.2509 74.9237 61.3389V69.2018H73.2423V62.0065C73.2423 60.4899 73.0115 59.3855 72.55 58.6932C72.0884 57.9843 71.3796 57.6299 70.4235 57.6299C69.4674 57.6299 68.602 57.9679 67.8273 58.6437C67.0525 59.3196 66.5085 60.2097 66.1953 61.3141V69.2018H64.514V56.3194H66.047V59.2371C66.591 58.2316 67.2833 57.4569 68.124 56.9129C68.9811 56.3689 69.929 56.0969 70.9675 56.0969C72.039 56.0969 72.9044 56.4019 73.5637 57.0118C74.2231 57.6217 74.627 58.4212 74.7753 59.4102C75.3687 58.3223 76.0776 57.4981 76.9018 56.9376C77.7425 56.3771 78.6903 56.0969 79.7453 56.0969C80.4706 56.0969 81.0805 56.2288 81.575 56.4925C82.086 56.7563 82.4899 57.1354 82.7866 57.6299C83.0998 58.108 83.3223 58.6932 83.4542 59.3855C83.6026 60.0613 83.6767 60.8196 83.6767 61.6603V69.2018ZM86.1975 65.4929C86.1975 64.6851 86.4282 63.9928 86.8898 63.4159C87.3513 62.8224 87.986 62.3691 88.7937 62.0559C89.6179 61.7262 90.5657 61.5614 91.6372 61.5614C92.2636 61.5614 92.9147 61.6108 93.5906 61.7098C94.2664 61.8087 94.8681 61.957 95.3956 62.1548V61.0669C95.3956 59.9789 95.0741 59.1135 94.4313 58.4706C93.7884 57.8277 92.8982 57.5063 91.7608 57.5063C91.0685 57.5063 90.3844 57.6382 89.7086 57.9019C89.0492 58.1492 88.3569 58.5201 87.6316 59.0146L86.9887 57.8277C87.8294 57.2508 88.6536 56.8222 89.4613 56.542C90.269 56.2453 91.0932 56.0969 91.9339 56.0969C93.5164 56.0969 94.7692 56.5502 95.6923 57.4569C96.6154 58.3635 97.077 59.6163 97.077 61.2152V67.1742C97.077 67.405 97.1264 67.5781 97.2253 67.6935C97.3242 67.7924 97.4808 67.8501 97.6951 67.8666V69.2018C97.5138 69.2183 97.3572 69.2348 97.2253 69.2512C97.0934 69.2677 96.9945 69.2677 96.9286 69.2512C96.5165 69.2348 96.2033 69.1029 95.989 68.8556C95.7747 68.6084 95.6593 68.3446 95.6428 68.0644L95.6181 67.1248C95.0412 67.8666 94.2912 68.4435 93.368 68.8556C92.4449 69.2512 91.5053 69.449 90.5493 69.449C89.7251 69.449 88.975 69.276 88.2992 68.9298C87.6398 68.5671 87.1206 68.0891 86.7414 67.4957C86.3788 66.8858 86.1975 66.2182 86.1975 65.4929ZM94.8269 66.4819C95.0082 66.2511 95.1483 66.0286 95.2472 65.8143C95.3461 65.6 95.3956 65.4104 95.3956 65.2456V63.3664C94.8351 63.1521 94.2499 62.9873 93.64 62.8719C93.0466 62.7565 92.4449 62.6988 91.835 62.6988C90.6317 62.6988 89.6591 62.9378 88.9173 63.4159C88.1755 63.8939 87.8047 64.545 87.8047 65.3692C87.8047 65.8473 87.9283 66.3006 88.1755 66.7292C88.4228 67.1413 88.7855 67.4874 89.2635 67.7677C89.7415 68.0314 90.302 68.1633 90.9449 68.1633C91.7526 68.1633 92.5026 68.0067 93.195 67.6935C93.9038 67.3803 94.4478 66.9764 94.8269 66.4819ZM104.938 69.449C103.883 69.449 102.902 69.276 101.996 68.9298C101.089 68.5836 100.306 68.0561 99.6466 67.3473L100.339 66.1605C101.064 66.8363 101.789 67.3308 102.515 67.644C103.257 67.9407 104.04 68.0891 104.864 68.0891C105.869 68.0891 106.685 67.8913 107.312 67.4957C107.938 67.0836 108.251 66.4984 108.251 65.7401C108.251 65.2291 108.095 64.8417 107.781 64.578C107.485 64.2978 107.048 64.0752 106.471 63.9104C105.911 63.7291 105.235 63.5395 104.443 63.3417C103.553 63.0944 102.803 62.8389 102.193 62.5752C101.6 62.2949 101.147 61.9488 100.833 61.5367C100.537 61.1081 100.388 60.5559 100.388 59.88C100.388 59.0393 100.594 58.347 101.006 57.803C101.435 57.2426 102.012 56.8222 102.737 56.542C103.479 56.2453 104.303 56.0969 105.21 56.0969C106.199 56.0969 107.073 56.2535 107.831 56.5667C108.589 56.8799 109.207 57.3167 109.685 57.8772L108.869 59.0146C108.408 58.4871 107.856 58.0997 107.213 57.8525C106.586 57.5887 105.886 57.4569 105.111 57.4569C104.584 57.4569 104.081 57.531 103.603 57.6794C103.125 57.8113 102.729 58.042 102.416 58.3717C102.119 58.6849 101.971 59.1217 101.971 59.6822C101.971 60.1438 102.086 60.5064 102.317 60.7702C102.548 61.0174 102.894 61.2317 103.355 61.413C103.817 61.5779 104.386 61.7592 105.062 61.957C106.034 62.2208 106.883 62.4927 107.608 62.773C108.334 63.0367 108.894 63.3829 109.29 63.8115C109.685 64.2401 109.883 64.8417 109.883 65.6165C109.883 66.8198 109.43 67.7594 108.523 68.4353C107.617 69.1111 106.422 69.449 104.938 69.449ZM116.891 69.449C115.836 69.449 114.855 69.276 113.948 68.9298C113.042 68.5836 112.259 68.0561 111.599 67.3473L112.291 66.1605C113.017 66.8363 113.742 67.3308 114.467 67.644C115.209 67.9407 115.992 68.0891 116.816 68.0891C117.822 68.0891 118.638 67.8913 119.264 67.4957C119.891 67.0836 120.204 66.4984 120.204 65.7401C120.204 65.2291 120.047 64.8417 119.734 64.578C119.437 64.2978 119.001 64.0752 118.424 63.9104C117.863 63.7291 117.187 63.5395 116.396 63.3417C115.506 63.0944 114.756 62.8389 114.146 62.5752C113.553 62.2949 113.099 61.9488 112.786 61.5367C112.489 61.1081 112.341 60.5559 112.341 59.88C112.341 59.0393 112.547 58.347 112.959 57.803C113.388 57.2426 113.965 56.8222 114.69 56.542C115.432 56.2453 116.256 56.0969 117.163 56.0969C118.152 56.0969 119.025 56.2535 119.784 56.5667C120.542 56.8799 121.16 57.3167 121.638 57.8772L120.822 59.0146C120.36 58.4871 119.808 58.0997 119.165 57.8525C118.539 57.5887 117.838 57.4569 117.064 57.4569C116.536 57.4569 116.033 57.531 115.555 57.6794C115.077 57.8113 114.682 58.042 114.368 58.3717C114.072 58.6849 113.923 59.1217 113.923 59.6822C113.923 60.1438 114.039 60.5064 114.27 60.7702C114.5 61.0174 114.847 61.2317 115.308 61.413C115.77 61.5779 116.338 61.7592 117.014 61.957C117.987 62.2208 118.836 62.4927 119.561 62.773C120.286 63.0367 120.847 63.3829 121.242 63.8115C121.638 64.2401 121.836 64.8417 121.836 65.6165C121.836 66.8198 121.382 67.7594 120.476 68.4353C119.569 69.1111 118.374 69.449 116.891 69.449ZM141.525 54.9348C141.277 54.6546 140.989 54.4073 140.659 54.193C140.33 53.9622 139.959 53.7644 139.547 53.5996C139.135 53.4347 138.689 53.3029 138.211 53.204C137.75 53.105 137.255 53.0556 136.728 53.0556C135.195 53.0556 134.066 53.3523 133.34 53.9457C132.632 54.5227 132.277 55.3139 132.277 56.3194C132.277 57.0118 132.442 57.5558 132.772 57.9514C133.118 58.347 133.654 58.6684 134.379 58.9157C135.104 59.163 136.027 59.4185 137.148 59.6822C138.401 59.946 139.481 60.2592 140.387 60.6218C141.294 60.9845 141.995 61.479 142.489 62.1054C142.984 62.7153 143.231 63.5477 143.231 64.6027C143.231 65.4104 143.074 66.111 142.761 66.7044C142.448 67.2979 142.011 67.7924 141.451 68.188C140.89 68.5836 140.223 68.8803 139.448 69.0782C138.673 69.2595 137.824 69.3501 136.901 69.3501C135.994 69.3501 135.121 69.2595 134.28 69.0782C133.456 68.8803 132.673 68.6001 131.931 68.2375C131.189 67.8583 130.497 67.3803 129.854 66.8033L130.719 65.394C131.033 65.7236 131.404 66.0368 131.832 66.3335C132.277 66.6138 132.763 66.8693 133.291 67.1001C133.835 67.3308 134.412 67.5122 135.022 67.644C135.648 67.7594 136.291 67.8171 136.95 67.8171C138.352 67.8171 139.44 67.5616 140.214 67.0506C141.006 66.5396 141.401 65.7813 141.401 64.7758C141.401 64.0505 141.203 63.4736 140.808 63.045C140.412 62.5999 139.819 62.2372 139.027 61.957C138.236 61.6768 137.264 61.4048 136.11 61.1411C134.89 60.8608 133.86 60.5476 133.019 60.2015C132.178 59.8553 131.544 59.402 131.115 58.8415C130.703 58.2646 130.497 57.5063 130.497 56.5667C130.497 55.4788 130.761 54.5639 131.288 53.8221C131.832 53.0638 132.574 52.4951 133.513 52.116C134.453 51.7204 135.533 51.5226 136.753 51.5226C137.527 51.5226 138.244 51.605 138.904 51.7698C139.58 51.9182 140.198 52.1407 140.758 52.4374C141.335 52.7342 141.871 53.105 142.365 53.5501L141.525 54.9348ZM145.813 63.8857V56.3194H147.494V63.5889C147.494 65.056 147.741 66.1522 148.236 66.8775C148.747 67.6028 149.497 67.9655 150.486 67.9655C151.145 67.9655 151.78 67.8254 152.39 67.5451C153.016 67.2484 153.569 66.8363 154.047 66.3088C154.525 65.7648 154.887 65.1384 155.135 64.4296V56.3194H156.816V67.1742C156.816 67.405 156.865 67.5781 156.964 67.6935C157.063 67.7924 157.212 67.8501 157.409 67.8666V69.2018C157.212 69.2183 157.055 69.2265 156.94 69.2265C156.824 69.243 156.717 69.2512 156.618 69.2512C156.288 69.2183 156 69.0864 155.753 68.8556C155.522 68.6248 155.398 68.3446 155.382 68.0149L155.332 66.2841C154.772 67.2731 154.005 68.0479 153.033 68.6084C152.077 69.1688 151.038 69.449 149.917 69.449C148.566 69.449 147.544 68.9792 146.851 68.0397C146.159 67.1001 145.813 65.7154 145.813 63.8857ZM167.195 69.449C166.123 69.449 165.159 69.1688 164.302 68.6084C163.461 68.0479 162.794 67.3556 162.299 66.5314V74.4685H160.618V56.3194H162.126V58.8168C162.637 58.0091 163.321 57.3579 164.178 56.8634C165.035 56.3524 165.95 56.0969 166.923 56.0969C167.813 56.0969 168.629 56.2865 169.371 56.6656C170.112 57.0283 170.755 57.5228 171.299 58.1492C171.843 58.7756 172.264 59.4926 172.56 60.3004C172.874 61.0916 173.03 61.9158 173.03 62.773C173.03 63.9763 172.783 65.089 172.288 66.111C171.81 67.1165 171.134 67.9243 170.261 68.5342C169.387 69.1441 168.365 69.449 167.195 69.449ZM166.725 67.9655C167.434 67.9655 168.068 67.8254 168.629 67.5451C169.189 67.2484 169.667 66.8528 170.063 66.3583C170.475 65.8637 170.788 65.3115 171.003 64.7016C171.217 64.0752 171.324 63.4323 171.324 62.773C171.324 62.0806 171.2 61.4213 170.953 60.7949C170.722 60.1685 170.384 59.6163 169.939 59.1382C169.494 58.6602 168.983 58.2811 168.406 58.0008C167.829 57.7206 167.203 57.5805 166.527 57.5805C166.099 57.5805 165.653 57.6629 165.192 57.8277C164.73 57.9926 164.285 58.2316 163.857 58.5448C163.445 58.8415 163.098 59.1794 162.818 59.5586C162.538 59.9377 162.365 60.3416 162.299 60.7702V64.7263C162.563 65.3363 162.917 65.8885 163.362 66.383C163.807 66.861 164.318 67.2484 164.895 67.5451C165.489 67.8254 166.099 67.9655 166.725 67.9655ZM182.455 69.449C181.384 69.449 180.42 69.1688 179.562 68.6084C178.722 68.0479 178.054 67.3556 177.56 66.5314V74.4685H175.878V56.3194H177.387V58.8168C177.898 58.0091 178.582 57.3579 179.439 56.8634C180.296 56.3524 181.211 56.0969 182.183 56.0969C183.074 56.0969 183.89 56.2865 184.631 56.6656C185.373 57.0283 186.016 57.5228 186.56 58.1492C187.104 58.7756 187.524 59.4926 187.821 60.3004C188.134 61.0916 188.291 61.9158 188.291 62.773C188.291 63.9763 188.044 65.089 187.549 66.111C187.071 67.1165 186.395 67.9243 185.521 68.5342C184.648 69.1441 183.626 69.449 182.455 69.449ZM181.986 67.9655C182.694 67.9655 183.329 67.8254 183.89 67.5451C184.45 67.2484 184.928 66.8528 185.324 66.3583C185.736 65.8637 186.049 65.3115 186.263 64.7016C186.478 64.0752 186.585 63.4323 186.585 62.773C186.585 62.0806 186.461 61.4213 186.214 60.7949C185.983 60.1685 185.645 59.6163 185.2 59.1382C184.755 58.6602 184.244 58.2811 183.667 58.0008C183.09 57.7206 182.464 57.5805 181.788 57.5805C181.359 57.5805 180.914 57.6629 180.453 57.8277C179.991 57.9926 179.546 58.2316 179.117 58.5448C178.705 58.8415 178.359 59.1794 178.079 59.5586C177.799 59.9377 177.626 60.3416 177.56 60.7702V64.7263C177.823 65.3363 178.178 65.8885 178.623 66.383C179.068 66.861 179.579 67.2484 180.156 67.5451C180.749 67.8254 181.359 67.9655 181.986 67.9655ZM191.213 51.1517H192.895V66.2841C192.895 66.927 193.01 67.3473 193.241 67.5451C193.471 67.7429 193.752 67.8418 194.081 67.8418C194.378 67.8418 194.675 67.8089 194.972 67.7429C195.268 67.677 195.524 67.6111 195.738 67.5451L196.035 68.9051C195.722 69.0369 195.334 69.1441 194.873 69.2265C194.428 69.3089 194.04 69.3501 193.71 69.3501C192.952 69.3501 192.342 69.1276 191.881 68.6825C191.436 68.2375 191.213 67.6275 191.213 66.8528V51.1517ZM198.207 73.158C198.438 73.1745 198.66 73.1827 198.875 73.1827C199.089 73.1992 199.246 73.1909 199.345 73.158C199.542 73.125 199.732 73.0096 199.913 72.8118C200.095 72.614 200.309 72.2349 200.556 71.6744C200.803 71.1139 201.15 70.2897 201.595 69.2018L195.982 56.3194H197.762L202.485 67.471L206.837 56.3194H208.518L201.842 72.9354C201.727 73.2486 201.553 73.5371 201.323 73.8008C201.092 74.0811 200.803 74.2954 200.457 74.4437C200.128 74.6086 199.715 74.6992 199.221 74.7157C199.073 74.7322 198.916 74.7322 198.751 74.7157C198.603 74.7157 198.421 74.6992 198.207 74.6663V73.158ZM222.081 69.449C221.141 69.449 220.276 69.276 219.485 68.9298C218.71 68.5671 218.026 68.0726 217.433 67.4462C216.856 66.8198 216.402 66.1028 216.073 65.295C215.759 64.4873 215.603 63.6302 215.603 62.7235C215.603 61.5037 215.875 60.391 216.419 59.3855C216.963 58.38 217.721 57.5805 218.694 56.9871C219.666 56.3936 220.787 56.0969 222.056 56.0969C223.26 56.0969 224.323 56.3771 225.246 56.9376C226.169 57.4816 226.853 58.2234 227.298 59.163L225.666 59.6822C225.304 59.0228 224.793 58.5118 224.133 58.1492C223.49 57.7701 222.773 57.5805 221.982 57.5805C221.125 57.5805 220.342 57.803 219.633 58.2481C218.924 58.6932 218.356 59.3031 217.927 60.0778C217.515 60.8526 217.309 61.7345 217.309 62.7235C217.309 63.6961 217.523 64.578 217.952 65.3692C218.38 66.1605 218.949 66.7951 219.658 67.2731C220.367 67.7347 221.15 67.9655 222.007 67.9655C222.567 67.9655 223.103 67.8666 223.614 67.6688C224.142 67.471 224.595 67.2072 224.974 66.8775C225.37 66.5314 225.633 66.1605 225.765 65.7648L227.422 66.2594C227.191 66.8693 226.804 67.4215 226.26 67.916C225.732 68.3941 225.106 68.7732 224.381 69.0534C223.672 69.3172 222.905 69.449 222.081 69.449ZM240.893 69.2018H239.212V62.0065C239.212 60.5559 238.957 59.4679 238.446 58.7426C237.935 58.0008 237.201 57.6299 236.245 57.6299C235.619 57.6299 234.992 57.7948 234.366 58.1245C233.756 58.4377 233.212 58.8745 232.734 59.4349C232.272 59.9789 231.943 60.6053 231.745 61.3141V69.2018H230.063V51.1517H231.745V59.2371C232.256 58.2811 232.965 57.5228 233.871 56.9623C234.794 56.3854 235.775 56.0969 236.814 56.0969C237.555 56.0969 238.182 56.2288 238.693 56.4925C239.22 56.7563 239.641 57.1437 239.954 57.6547C240.284 58.1492 240.523 58.7344 240.671 59.4102C240.819 60.0696 240.893 60.8196 240.893 61.6603V69.2018ZM243.44 65.4929C243.44 64.6851 243.671 63.9928 244.133 63.4159C244.594 62.8224 245.229 62.3691 246.037 62.0559C246.861 61.7262 247.809 61.5614 248.88 61.5614C249.507 61.5614 250.158 61.6108 250.834 61.7098C251.509 61.8087 252.111 61.957 252.639 62.1548V61.0669C252.639 59.9789 252.317 59.1135 251.674 58.4706C251.031 57.8277 250.141 57.5063 249.004 57.5063C248.311 57.5063 247.627 57.6382 246.952 57.9019C246.292 58.1492 245.6 58.5201 244.875 59.0146L244.232 57.8277C245.072 57.2508 245.897 56.8222 246.704 56.542C247.512 56.2453 248.336 56.0969 249.177 56.0969C250.759 56.0969 252.012 56.5502 252.935 57.4569C253.858 58.3635 254.32 59.6163 254.32 61.2152V67.1742C254.32 67.405 254.369 67.5781 254.468 67.6935C254.567 67.7924 254.724 67.8501 254.938 67.8666V69.2018C254.757 69.2183 254.6 69.2348 254.468 69.2512C254.336 69.2677 254.238 69.2677 254.172 69.2512C253.759 69.2348 253.446 69.1029 253.232 68.8556C253.018 68.6084 252.902 68.3446 252.886 68.0644L252.861 67.1248C252.284 67.8666 251.534 68.4435 250.611 68.8556C249.688 69.2512 248.748 69.449 247.792 69.449C246.968 69.449 246.218 69.276 245.542 68.9298C244.883 68.5671 244.364 68.0891 243.984 67.4957C243.622 66.8858 243.44 66.2182 243.44 65.4929ZM252.07 66.4819C252.251 66.2511 252.391 66.0286 252.49 65.8143C252.589 65.6 252.639 65.4104 252.639 65.2456V63.3664C252.078 63.1521 251.493 62.9873 250.883 62.8719C250.29 62.7565 249.688 62.6988 249.078 62.6988C247.875 62.6988 246.902 62.9378 246.16 63.4159C245.419 63.8939 245.048 64.545 245.048 65.3692C245.048 65.8473 245.171 66.3006 245.419 66.7292C245.666 67.1413 246.028 67.4874 246.506 67.7677C246.984 68.0314 247.545 68.1633 248.188 68.1633C248.996 68.1633 249.746 68.0067 250.438 67.6935C251.147 67.3803 251.691 66.9764 252.07 66.4819ZM257.953 69.2018V56.3194H259.634V69.2018H257.953ZM257.953 53.6243V51.1517H259.634V53.6243H257.953ZM274.167 69.2018H272.486V62.0065C272.486 60.4899 272.264 59.3855 271.819 58.6932C271.373 57.9843 270.673 57.6299 269.717 57.6299C269.057 57.6299 268.406 57.7948 267.763 58.1245C267.121 58.4377 266.552 58.8745 266.057 59.4349C265.579 59.9789 265.233 60.6053 265.019 61.3141V69.2018H263.337V56.3194H264.87V59.2371C265.217 58.6107 265.67 58.0668 266.23 57.6052C266.791 57.1272 267.425 56.7563 268.134 56.4925C268.843 56.2288 269.577 56.0969 270.335 56.0969C271.044 56.0969 271.645 56.2288 272.14 56.4925C272.634 56.7563 273.03 57.1354 273.327 57.6299C273.624 58.108 273.838 58.6932 273.97 59.3855C274.102 60.0613 274.167 60.8196 274.167 61.6603V69.2018Z" fill="#545454"/>
<path d="M1088.6 18.7018C1088.6 13.9519 1084.75 10.1014 1080 10.1014C1075.25 10.1014 1071.4 13.9519 1071.4 18.7018C1071.4 23.4517 1075.25 27.3022 1080 27.3022C1084.75 27.3022 1088.6 23.4517 1088.6 18.7018ZM944.6 18.7018C944.6 13.9519 940.75 10.1014 936 10.1014C931.25 10.1014 927.4 13.9519 927.4 18.7018C927.4 23.4516 931.25 27.3022 936 27.3022C940.75 27.3022 944.6 23.4516 944.6 18.7018ZM1080 17.0892L936 17.0892L936 20.3144L1080 20.3144L1080 17.0892Z" fill="#32B631"/>
<path d="M1242.6 18.7018C1242.6 13.9519 1238.75 10.1014 1234 10.1014C1229.25 10.1014 1225.4 13.9519 1225.4 18.7018C1225.4 23.4517 1229.25 27.3022 1234 27.3022C1238.75 27.3022 1242.6 23.4517 1242.6 18.7018ZM1088.6 18.7018C1088.6 13.9519 1084.75 10.1014 1080 10.1014C1075.25 10.1014 1071.4 13.9519 1071.4 18.7018C1071.4 23.4517 1075.25 27.3022 1080 27.3022C1084.75 27.3022 1088.6 23.4517 1088.6 18.7018ZM1234 17.0892L1080 17.0892V20.3144L1234 20.3144V17.0892Z" fill="#32B631"/>
<path d="M900.893 56.7018V45.1547H899.113V43.8194H900.893V43.4733C900.893 42.4183 901.042 41.5117 901.338 40.7534C901.652 39.9951 902.088 39.4182 902.649 39.0226C903.226 38.6105 903.902 38.4044 904.676 38.4044C905.187 38.4044 905.682 38.4786 906.16 38.627C906.638 38.7753 907.05 38.9731 907.396 39.2204L906.877 40.432C906.663 40.2506 906.383 40.1105 906.036 40.0116C905.69 39.9127 905.344 39.8633 904.998 39.8633C904.223 39.8633 903.621 40.1682 903.193 40.7781C902.781 41.388 902.575 42.2699 902.575 43.4238V43.8194H906.135V45.1547H902.575V56.7018H900.893ZM907.35 52.9929C907.35 52.1851 907.581 51.4928 908.042 50.9159C908.504 50.3224 909.139 49.8691 909.946 49.5559C910.77 49.2262 911.718 49.0614 912.79 49.0614C913.416 49.0614 914.067 49.1108 914.743 49.2098C915.419 49.3087 916.021 49.457 916.548 49.6548V48.5669C916.548 47.4789 916.227 46.6135 915.584 45.9706C914.941 45.3277 914.051 45.0063 912.913 45.0063C912.221 45.0063 911.537 45.1382 910.861 45.4019C910.202 45.6492 909.509 46.0201 908.784 46.5146L908.141 45.3277C908.982 44.7508 909.806 44.3222 910.614 44.042C911.422 43.7453 912.246 43.5969 913.086 43.5969C914.669 43.5969 915.922 44.0502 916.845 44.9569C917.768 45.8635 918.229 47.1163 918.229 48.7152V54.6742C918.229 54.905 918.279 55.0781 918.378 55.1935C918.477 55.2924 918.633 55.3501 918.848 55.3666V56.7018C918.666 56.7183 918.51 56.7348 918.378 56.7512C918.246 56.7677 918.147 56.7677 918.081 56.7512C917.669 56.7348 917.356 56.6029 917.142 56.3556C916.927 56.1084 916.812 55.8446 916.795 55.5644L916.771 54.6248C916.194 55.3666 915.444 55.9435 914.521 56.3556C913.597 56.7512 912.658 56.949 911.702 56.949C910.878 56.949 910.128 56.776 909.452 56.4298C908.792 56.0671 908.273 55.5891 907.894 54.9957C907.531 54.3858 907.35 53.7182 907.35 52.9929ZM915.979 53.9819C916.161 53.7511 916.301 53.5286 916.4 53.3143C916.499 53.1 916.548 52.9104 916.548 52.7456V50.8664C915.988 50.6521 915.402 50.4873 914.793 50.3719C914.199 50.2565 913.597 50.1988 912.988 50.1988C911.784 50.1988 910.812 50.4378 910.07 50.9159C909.328 51.3939 908.957 52.045 908.957 52.8692C908.957 53.3473 909.081 53.8006 909.328 54.2292C909.575 54.6413 909.938 54.9874 910.416 55.2677C910.894 55.5314 911.455 55.6633 912.097 55.6633C912.905 55.6633 913.655 55.5067 914.347 55.1935C915.056 54.8803 915.6 54.4764 915.979 53.9819ZM928.291 45.303C927.17 45.336 926.181 45.6492 925.324 46.2426C924.483 46.836 923.89 47.652 923.544 48.6905V56.7018H921.862V43.8194H923.445V46.9102C923.89 46.0036 924.475 45.2701 925.2 44.7096C925.942 44.1491 926.725 43.8359 927.549 43.77C927.714 43.7535 927.854 43.7453 927.97 43.7453C928.102 43.7453 928.209 43.7535 928.291 43.77V45.303ZM949.694 56.7018H948.012V49.5065C948.012 48.0064 947.773 46.902 947.295 46.1932C946.817 45.4843 946.108 45.1299 945.169 45.1299C944.196 45.1299 943.323 45.4761 942.548 46.1684C941.79 46.8608 941.254 47.7509 940.941 48.8389V56.7018H939.259V49.5065C939.259 47.9899 939.029 46.8855 938.567 46.1932C938.105 45.4843 937.397 45.1299 936.441 45.1299C935.484 45.1299 934.619 45.4679 933.844 46.1437C933.07 46.8196 932.526 47.7097 932.212 48.8141V56.7018H930.531V43.8194H932.064V46.7371C932.608 45.7316 933.3 44.9569 934.141 44.4129C934.998 43.8689 935.946 43.5969 936.984 43.5969C938.056 43.5969 938.921 43.9019 939.581 44.5118C940.24 45.1217 940.644 45.9212 940.792 46.9102C941.386 45.8223 942.095 44.9981 942.919 44.4376C943.759 43.8771 944.707 43.5969 945.762 43.5969C946.488 43.5969 947.097 43.7288 947.592 43.9925C948.103 44.2563 948.507 44.6354 948.804 45.1299C949.117 45.608 949.339 46.1932 949.471 46.8855C949.62 47.5613 949.694 48.3196 949.694 49.1603V56.7018ZM958.816 56.949C957.893 56.949 957.036 56.776 956.245 56.4298C955.454 56.0671 954.769 55.5809 954.193 54.971C953.616 54.3446 953.162 53.6275 952.833 52.8198C952.519 52.0121 952.363 51.1466 952.363 50.2235C952.363 49.0202 952.635 47.9158 953.179 46.9102C953.739 45.9047 954.506 45.1052 955.478 44.5118C956.451 43.9019 957.555 43.5969 958.792 43.5969C960.061 43.5969 961.165 43.9019 962.105 44.5118C963.061 45.1217 963.811 45.9294 964.355 46.9349C964.899 47.924 965.171 49.0119 965.171 50.1988C965.171 50.3307 965.171 50.4625 965.171 50.5944C965.171 50.7098 965.163 50.8005 965.146 50.8664H954.118C954.201 51.7895 954.456 52.6137 954.885 53.339C955.33 54.0478 955.899 54.6165 956.591 55.0451C957.3 55.4572 958.066 55.6633 958.891 55.6633C959.731 55.6633 960.522 55.449 961.264 55.0204C962.022 54.5918 962.55 54.0314 962.847 53.339L964.306 53.7346C964.042 54.3446 963.638 54.8968 963.094 55.3913C962.55 55.8858 961.907 56.2732 961.165 56.5534C960.44 56.8172 959.657 56.949 958.816 56.949ZM954.069 49.6548H963.588C963.523 48.7152 963.267 47.891 962.822 47.1822C962.393 46.4734 961.825 45.9212 961.116 45.5256C960.424 45.1135 959.657 44.9074 958.816 44.9074C957.976 44.9074 957.209 45.1135 956.517 45.5256C955.824 45.9212 955.256 46.4816 954.811 47.2069C954.382 47.9158 954.135 48.7317 954.069 49.6548ZM974.194 45.303C973.073 45.336 972.084 45.6492 971.227 46.2426C970.386 46.836 969.793 47.652 969.446 48.6905V56.7018H967.765V43.8194H969.348V46.9102C969.793 46.0036 970.378 45.2701 971.103 44.7096C971.845 44.1491 972.628 43.8359 973.452 43.77C973.617 43.7535 973.757 43.7453 973.872 43.7453C974.004 43.7453 974.111 43.7535 974.194 43.77V45.303Z" fill="#363636"/>
<path d="M1058.91 56.7018V42.4101L1052.55 53.5121H1051.47L1045.09 42.4101V56.7018H1043.35V39.1462H1045.14L1051.98 51.1631L1058.88 39.1462H1060.64V56.7018H1058.91ZM1069.99 56.949C1069.07 56.949 1068.21 56.776 1067.42 56.4298C1066.64 56.0671 1065.97 55.5809 1065.39 54.971C1064.83 54.3446 1064.39 53.6357 1064.08 52.8445C1063.77 52.0368 1063.61 51.1878 1063.61 50.2977C1063.61 49.3746 1063.77 48.5174 1064.08 47.7262C1064.39 46.9185 1064.84 46.2096 1065.41 45.5997C1065.99 44.9733 1066.67 44.4871 1067.44 44.1409C1068.23 43.7782 1069.09 43.5969 1070.01 43.5969C1070.94 43.5969 1071.79 43.7782 1072.56 44.1409C1073.33 44.4871 1074.01 44.9733 1074.59 45.5997C1075.16 46.2096 1075.61 46.9185 1075.92 47.7262C1076.24 48.5174 1076.39 49.3746 1076.39 50.2977C1076.39 51.1878 1076.24 52.0368 1075.92 52.8445C1075.61 53.6357 1075.16 54.3446 1074.59 54.971C1074.03 55.5809 1073.35 56.0671 1072.56 56.4298C1071.79 56.776 1070.93 56.949 1069.99 56.949ZM1065.32 50.3224C1065.32 51.2785 1065.52 52.1522 1065.93 52.9434C1066.36 53.7182 1066.93 54.3363 1067.64 54.7979C1068.35 55.2429 1069.13 55.4655 1069.99 55.4655C1070.85 55.4655 1071.63 55.2347 1072.34 54.7731C1073.05 54.3116 1073.61 53.6852 1074.04 52.894C1074.47 52.0862 1074.69 51.2126 1074.69 50.273C1074.69 49.3169 1074.47 48.4432 1074.04 47.652C1073.61 46.8608 1073.05 46.2344 1072.34 45.7728C1071.63 45.3113 1070.85 45.0805 1069.99 45.0805C1069.13 45.0805 1068.35 45.3195 1067.64 45.7975C1066.95 46.2756 1066.39 46.9102 1065.96 47.7015C1065.53 48.4762 1065.32 49.3499 1065.32 50.3224ZM1082.6 56.7018L1077.39 43.8194H1079.14L1083.54 55.0204L1087.97 43.8194H1089.62L1084.41 56.7018H1082.6ZM1097.08 56.949C1096.16 56.949 1095.3 56.776 1094.51 56.4298C1093.72 56.0671 1093.04 55.5809 1092.46 54.971C1091.88 54.3446 1091.43 53.6275 1091.1 52.8198C1090.79 52.0121 1090.63 51.1466 1090.63 50.2235C1090.63 49.0202 1090.9 47.9158 1091.45 46.9102C1092.01 45.9047 1092.77 45.1052 1093.74 44.5118C1094.72 43.9019 1095.82 43.5969 1097.06 43.5969C1098.33 43.5969 1099.43 43.9019 1100.37 44.5118C1101.33 45.1217 1102.08 45.9294 1102.62 46.9349C1103.17 47.924 1103.44 49.0119 1103.44 50.1988C1103.44 50.3307 1103.44 50.4625 1103.44 50.5944C1103.44 50.7098 1103.43 50.8005 1103.41 50.8664H1092.38C1092.47 51.7895 1092.72 52.6137 1093.15 53.339C1093.6 54.0478 1094.17 54.6165 1094.86 55.0451C1095.57 55.4572 1096.33 55.6633 1097.16 55.6633C1098 55.6633 1098.79 55.449 1099.53 55.0204C1100.29 54.5918 1100.82 54.0314 1101.11 53.339L1102.57 53.7346C1102.31 54.3446 1101.9 54.8968 1101.36 55.3913C1100.82 55.8858 1100.17 56.2732 1099.43 56.5534C1098.71 56.8172 1097.92 56.949 1097.08 56.949ZM1092.34 49.6548H1101.85C1101.79 48.7152 1101.53 47.891 1101.09 47.1822C1100.66 46.4734 1100.09 45.9212 1099.38 45.5256C1098.69 45.1135 1097.92 44.9074 1097.08 44.9074C1096.24 44.9074 1095.48 45.1135 1094.78 45.5256C1094.09 45.9212 1093.52 46.4816 1093.08 47.2069C1092.65 47.9158 1092.4 48.7317 1092.34 49.6548ZM1112.46 45.303C1111.34 45.336 1110.35 45.6492 1109.49 46.2426C1108.65 46.836 1108.06 47.652 1107.71 48.6905V56.7018H1106.03V43.8194H1107.61V46.9102C1108.06 46.0036 1108.64 45.2701 1109.37 44.7096C1110.11 44.1491 1110.89 43.8359 1111.72 43.77C1111.88 43.7535 1112.02 43.7453 1112.14 43.7453C1112.27 43.7453 1112.38 43.7535 1112.46 43.77V45.303Z" fill="#363636"/>
<path d="M1181.24 56.7018V39.1462H1182.97V56.7018H1181.24ZM1197.86 56.7018H1196.18V49.5065C1196.18 47.9899 1195.96 46.8855 1195.51 46.1932C1195.07 45.4843 1194.36 45.1299 1193.41 45.1299C1192.75 45.1299 1192.1 45.2948 1191.46 45.6245C1190.81 45.9377 1190.24 46.3745 1189.75 46.9349C1189.27 47.4789 1188.93 48.1053 1188.71 48.8141V56.7018H1187.03V43.8194H1188.56V46.7371C1188.91 46.1107 1189.36 45.5668 1189.92 45.1052C1190.48 44.6272 1191.12 44.2563 1191.83 43.9925C1192.54 43.7288 1193.27 43.5969 1194.03 43.5969C1194.74 43.5969 1195.34 43.7288 1195.83 43.9925C1196.33 44.2563 1196.72 44.6354 1197.02 45.1299C1197.32 45.608 1197.53 46.1932 1197.66 46.8855C1197.79 47.5613 1197.86 48.3196 1197.86 49.1603V56.7018ZM1200.58 50.2977C1200.58 49.0779 1200.83 47.9652 1201.32 46.9597C1201.83 45.9377 1202.53 45.1217 1203.42 44.5118C1204.31 43.9019 1205.33 43.5969 1206.46 43.5969C1207.54 43.5969 1208.49 43.8854 1209.33 44.4623C1210.19 45.0228 1210.86 45.7069 1211.34 46.5146V38.6517H1213.02V54.6742C1213.02 54.905 1213.07 55.0781 1213.17 55.1935C1213.26 55.2924 1213.41 55.3501 1213.61 55.3666V56.7018C1213.28 56.7512 1213.03 56.7677 1212.84 56.7512C1212.5 56.7348 1212.19 56.5946 1211.93 56.3309C1211.67 56.0671 1211.53 55.7787 1211.53 55.4655V54.2044C1211.02 55.0451 1210.33 55.7127 1209.46 56.2073C1208.58 56.7018 1207.68 56.949 1206.74 56.949C1205.85 56.949 1205.02 56.7677 1204.26 56.4051C1203.52 56.0424 1202.87 55.5479 1202.31 54.9215C1201.77 54.2951 1201.34 53.5863 1201.02 52.795C1200.73 51.9873 1200.58 51.1549 1200.58 50.2977ZM1211.34 52.2758V48.2949C1211.12 47.7015 1210.78 47.1657 1210.3 46.6877C1209.82 46.1932 1209.28 45.8058 1208.67 45.5256C1208.07 45.2288 1207.48 45.0805 1206.88 45.0805C1206.19 45.0805 1205.57 45.2288 1205.01 45.5256C1204.45 45.8058 1203.96 46.1932 1203.55 46.6877C1203.15 47.1822 1202.85 47.7427 1202.63 48.3691C1202.42 48.9955 1202.31 49.6383 1202.31 50.2977C1202.31 50.99 1202.43 51.6494 1202.66 52.2758C1202.9 52.9022 1203.25 53.4627 1203.7 53.9572C1204.14 54.4352 1204.65 54.8061 1205.23 55.0699C1205.81 55.3336 1206.43 55.4655 1207.11 55.4655C1207.54 55.4655 1207.98 55.3831 1208.44 55.2182C1208.9 55.0534 1209.34 54.8308 1209.75 54.5506C1210.18 54.2539 1210.54 53.9077 1210.82 53.5121C1211.1 53.1165 1211.27 52.7044 1211.34 52.2758ZM1216.7 51.3857V43.8194H1218.38V51.0889C1218.38 52.556 1218.63 53.6522 1219.13 54.3775C1219.64 55.1028 1220.39 55.4655 1221.38 55.4655C1222.04 55.4655 1222.67 55.3254 1223.28 55.0451C1223.91 54.7484 1224.46 54.3363 1224.94 53.8088C1225.41 53.2648 1225.78 52.6384 1226.02 51.9296V43.8194H1227.71V54.6742C1227.71 54.905 1227.76 55.0781 1227.85 55.1935C1227.95 55.2924 1228.1 55.3501 1228.3 55.3666V56.7018C1228.1 56.7183 1227.95 56.7265 1227.83 56.7265C1227.71 56.743 1227.61 56.7512 1227.51 56.7512C1227.18 56.7183 1226.89 56.5864 1226.64 56.3556C1226.41 56.1248 1226.29 55.8446 1226.27 55.5149L1226.22 53.7841C1225.66 54.7731 1224.9 55.5479 1223.92 56.1084C1222.97 56.6688 1221.93 56.949 1220.81 56.949C1219.46 56.949 1218.43 56.4792 1217.74 55.5397C1217.05 54.6001 1216.7 53.2154 1216.7 51.3857ZM1235.74 56.949C1234.68 56.949 1233.7 56.776 1232.79 56.4298C1231.89 56.0836 1231.1 55.5561 1230.44 54.8473L1231.14 53.6605C1231.86 54.3363 1232.59 54.8308 1233.31 55.144C1234.05 55.4407 1234.84 55.5891 1235.66 55.5891C1236.67 55.5891 1237.48 55.3913 1238.11 54.9957C1238.74 54.5836 1239.05 53.9984 1239.05 53.2401C1239.05 52.7291 1238.89 52.3417 1238.58 52.078C1238.28 51.7978 1237.85 51.5752 1237.27 51.4104C1236.71 51.2291 1236.03 51.0395 1235.24 50.8417C1234.35 50.5944 1233.6 50.3389 1232.99 50.0752C1232.4 49.7949 1231.94 49.4488 1231.63 49.0367C1231.33 48.6081 1231.19 48.0559 1231.19 47.38C1231.19 46.5393 1231.39 45.847 1231.8 45.303C1232.23 44.7426 1232.81 44.3222 1233.54 44.042C1234.28 43.7453 1235.1 43.5969 1236.01 43.5969C1237 43.5969 1237.87 43.7535 1238.63 44.0667C1239.39 44.3799 1240.01 44.8167 1240.48 45.3772L1239.67 46.5146C1239.21 45.9871 1238.65 45.5997 1238.01 45.3525C1237.38 45.0887 1236.68 44.9569 1235.91 44.9569C1235.38 44.9569 1234.88 45.031 1234.4 45.1794C1233.92 45.3113 1233.53 45.542 1233.21 45.8717C1232.92 46.1849 1232.77 46.6217 1232.77 47.1822C1232.77 47.6438 1232.88 48.0064 1233.11 48.2702C1233.35 48.5174 1233.69 48.7317 1234.15 48.913C1234.61 49.0779 1235.18 49.2592 1235.86 49.457C1236.83 49.7208 1237.68 49.9927 1238.41 50.273C1239.13 50.5367 1239.69 50.8829 1240.09 51.3115C1240.48 51.7401 1240.68 52.3417 1240.68 53.1165C1240.68 54.3198 1240.23 55.2594 1239.32 55.9353C1238.41 56.6111 1237.22 56.949 1235.74 56.949ZM1249.64 56.0836C1249.51 56.1331 1249.3 56.2237 1249.02 56.3556C1248.74 56.4875 1248.41 56.6029 1248.01 56.7018C1247.61 56.8007 1247.19 56.8501 1246.72 56.8501C1246.25 56.8501 1245.79 56.7595 1245.36 56.5782C1244.95 56.3968 1244.62 56.1248 1244.38 55.7622C1244.13 55.3831 1244 54.9215 1244 54.3775V45.1547H1242.22V43.8194H1244V39.4676H1245.69V43.8194H1248.65V45.1547H1245.69V53.9077C1245.72 54.3693 1245.88 54.7154 1246.18 54.9462C1246.49 55.177 1246.85 55.2924 1247.24 55.2924C1247.7 55.2924 1248.13 55.2182 1248.5 55.0699C1248.88 54.905 1249.11 54.7896 1249.2 54.7237L1249.64 56.0836ZM1258.17 45.303C1257.05 45.336 1256.06 45.6492 1255.2 46.2426C1254.36 46.836 1253.77 47.652 1253.42 48.6905V56.7018H1251.74V43.8194H1253.33V46.9102C1253.77 46.0036 1254.36 45.2701 1255.08 44.7096C1255.82 44.1491 1256.61 43.8359 1257.43 43.77C1257.59 43.7535 1257.73 43.7453 1257.85 43.7453C1257.98 43.7453 1258.09 43.7535 1258.17 43.77V45.303ZM1261.15 60.658C1261.38 60.6745 1261.61 60.6827 1261.82 60.6827C1262.03 60.6992 1262.19 60.6909 1262.29 60.658C1262.49 60.625 1262.68 60.5096 1262.86 60.3118C1263.04 60.114 1263.25 59.7349 1263.5 59.1744C1263.75 58.6139 1264.1 57.7897 1264.54 56.7018L1258.93 43.8194H1260.71L1265.43 54.971L1269.78 43.8194H1271.46L1264.79 60.4354C1264.67 60.7486 1264.5 61.0371 1264.27 61.3008C1264.04 61.5811 1263.75 61.7954 1263.4 61.9437C1263.07 62.1086 1262.66 62.1992 1262.17 62.2157C1262.02 62.2322 1261.86 62.2322 1261.7 62.2157C1261.55 62.2157 1261.37 62.1992 1261.15 62.1663V60.658Z" fill="#363636"/>
</svg>
