<svg width="328" height="207" viewBox="0 0 328 207" fill="none" xmlns="http://www.w3.org/2000/svg">
<path d="M159.456 166C115.818 164.208 76.2366 164.51 47.5194 166.446C33.1592 167.414 21.5252 168.79 13.4615 170.515C9.42774 171.377 6.30265 172.324 4.17991 173.342C3.11843 173.852 2.32138 174.373 1.78754 174.9C1.25494 175.425 0.999881 175.94 0.979128 176.443C0.958479 176.946 1.17035 177.479 1.65778 178.047C2.14647 178.615 2.89779 179.2 3.91384 179.795C5.94553 180.984 8.98202 182.184 12.9312 183.375C20.8257 185.755 32.3072 188.079 46.539 190.222C74.9997 194.505 114.423 198.052 158.061 199.843C201.698 201.635 241.28 201.334 269.997 199.398C284.358 198.43 295.992 197.054 304.056 195.33C308.09 194.467 311.215 193.52 313.338 192.501C314.399 191.992 315.196 191.47 315.73 190.944C316.262 190.419 316.518 189.905 316.538 189.402C316.559 188.898 316.347 188.364 315.86 187.797C315.371 187.229 314.62 186.644 313.604 186.049C311.572 184.859 308.535 183.66 304.586 182.47C296.692 180.09 285.21 177.764 270.978 175.622C242.517 171.338 203.094 167.792 159.456 166Z" fill="#EAEAEA" stroke="#1D1D1B" stroke-width="0.541188"/>
<path d="M7.95818 131.646L9.04597 145.029H22.3321L22.8138 132.397L25.2437 132.581V136.361L30.7909 142.799C30.7909 142.799 28.8589 143.582 28.8589 145.753C28.8589 147.924 30.7909 148.766 30.7909 148.766H10.6154L10.7345 154.675L38.3946 155.76L43.8281 132.494L7.95276 130.085V131.652L7.95818 131.646Z" stroke="black" stroke-width="0.5" stroke-linecap="round" stroke-linejoin="round"/>
<path d="M47.4277 129.039L46.998 129.068C44.6908 129.289 42.6651 130.931 41.085 133.445C39.6062 135.797 38.5392 138.88 38.0156 142.164L37.9189 142.823C37.4377 146.357 37.4365 152.245 37.5576 157.265C37.6181 159.772 37.7086 162.057 37.7842 163.715C37.822 164.544 37.8563 165.216 37.8809 165.681C37.8916 165.884 37.9006 166.048 37.9072 166.168H45.5889L54.0625 132.832C54.0472 132.808 54.0286 132.779 54.0068 132.745C53.9313 132.629 53.8171 132.462 53.665 132.263C53.3606 131.864 52.9051 131.337 52.3037 130.824C51.1764 129.864 49.5457 128.964 47.4277 129.039Z" stroke="black" stroke-width="0.5"/>
<path d="M69.4824 133.227H53.5176C43.0778 133.227 34.5002 142.988 34.5 155.18C34.5 167.373 43.0777 177.134 53.5176 177.135H69.4824C79.9223 177.134 88.5 167.373 88.5 155.18C88.4998 142.988 79.9222 133.227 69.4824 133.227Z" fill="#D9D9D9" fill-opacity="0.57" stroke="black"/>
<path d="M55.8468 176.496C64.7114 176.496 71.8984 166.801 71.8984 154.844C71.8984 142.887 64.7114 133.193 55.8468 133.193" stroke="#1D1D1B" stroke-width="0.405891" stroke-linecap="round" stroke-linejoin="round"/>
<path d="M59.7433 176.495C68.608 176.495 75.7949 166.801 75.7949 154.844" stroke="#1D1D1B" stroke-width="0.405891" stroke-linecap="round" stroke-linejoin="round"/>
<path d="M65.6905 176.496C74.5552 176.496 81.7422 166.801 81.7422 154.844" stroke="#1D1D1B" stroke-width="0.405891" stroke-linecap="round" stroke-linejoin="round"/>
<path d="M55.8477 144.286C53.737 144.286 51.8042 145.44 50.3896 147.348C48.9753 149.257 48.0919 151.906 48.0918 154.844C48.0918 157.782 48.9752 160.431 50.3896 162.34C51.8042 164.248 53.7371 165.401 55.8477 165.401C57.958 165.401 59.8903 164.248 61.3047 162.34C62.7192 160.431 63.6025 157.782 63.6025 154.844C63.6025 151.906 62.7191 149.257 61.3047 147.348C59.8903 145.44 57.9581 144.286 55.8477 144.286Z" fill="#E2EDF4" stroke="#1D1D1B" stroke-width="0.541188"/>
<path d="M55.8535 150.459C55.0041 150.459 54.2152 150.922 53.6289 151.713C53.0425 152.504 52.6719 153.611 52.6719 154.844C52.6719 156.077 53.0424 157.184 53.6289 157.975C54.2152 158.766 55.0041 159.229 55.8535 159.229C56.7032 159.229 57.4927 158.766 58.0791 157.975C58.6656 157.184 59.0361 156.077 59.0361 154.844C59.0361 153.611 58.6655 152.504 58.0791 151.713C57.4927 150.922 56.7031 150.459 55.8535 150.459Z" fill="#4F5151" stroke="#1D1D1B" stroke-width="0.541188"/>
<path d="M66.5605 133.643L66.5557 133.848L66.4072 133.991L63.543 136.75L80.0107 138.681L80.4502 138.732L80.4531 139.174L80.5693 161.567L82.9756 160.991L83.5918 160.843V164.301L142.67 172.976L143.865 169.512L143.981 169.175H147.113L148.184 139.777L147.113 110.974L67.1602 108.589L66.5605 133.643Z" stroke="black"/>
<path d="M6.8916 128.923L98.3779 135.882L98.3574 136.153L98.3369 136.422L94.3525 136.12V147.858L133.811 152.375V138.578L134.102 138.599L145.748 139.483L145.036 110.751L6.41699 106.543L6.8916 128.923ZM138.341 130.811C139.864 130.811 141.101 132.044 141.101 133.566V134.138C141.101 135.66 139.864 136.893 138.341 136.893H137.042C135.518 136.893 134.281 135.66 134.281 134.138V133.566C134.281 132.044 135.518 130.811 137.042 130.811H138.341ZM106.205 128.553C107.733 128.553 108.971 129.786 108.971 131.308V131.88C108.971 133.403 107.728 134.635 106.205 134.635H104.906C103.383 134.635 102.146 133.402 102.146 131.88V131.308C102.146 129.786 103.383 128.553 104.906 128.553H106.205ZM76.4932 126.609C78.0166 126.609 79.2538 127.842 79.2539 129.364V129.936C79.2539 131.463 78.0171 132.697 76.4932 132.697H75.1943C73.6702 132.697 72.4346 131.457 72.4346 129.936V129.364C72.4347 127.842 73.671 126.609 75.1943 126.609H76.4932Z" stroke="#1D1D1B" stroke-width="0.541188"/>
<path d="M147.866 110.221L253.427 111.535L215.582 11.8918L197.593 10.0999L147.866 8.66138V110.221Z" stroke="#1D1D1B" stroke-width="0.541188"/>
<path d="M206.912 34.9333C206.91 34.9335 206.905 34.934 206.9 34.9343C206.891 34.9349 206.876 34.9361 206.856 34.9373C206.817 34.9396 206.759 34.9425 206.683 34.947C206.531 34.9561 206.307 34.9697 206.021 34.9871C205.45 35.0219 204.629 35.0725 203.632 35.1365C201.638 35.2644 198.94 35.4455 196.126 35.656C193.311 35.8666 190.381 36.1065 187.922 36.3542C185.454 36.6029 183.483 36.8573 182.57 37.0916V37.0906C180.739 37.5634 177.852 38.924 175.226 40.8972C172.709 42.7875 170.475 45.2093 169.609 47.906L214.431 44.7644L217.141 36.2087L206.915 34.9333H206.912Z" fill="#3D3D3F" stroke="#1D1D1B" stroke-width="0.541188"/>
<path d="M198.903 35.468L212.73 38.4104L213.936 37.9124L206.854 34.9368L198.903 35.468Z" fill="#1D1D1B" stroke="#1D1D1B" stroke-width="0.541188"/>
<path d="M5.49316 31.2346L4.5957 105.721L147.096 109.973V8.96802L5.49316 31.2346Z" stroke="black"/>
<path d="M148.942 139.476L172.479 136.885L170.657 111.234L147.876 110.766L148.942 139.476Z" stroke="#1D1D1B" stroke-width="0.541188"/>
<path d="M148.944 140.02L147.877 169.357L174.26 165.228L172.513 137.424L148.944 140.02Z" stroke="#1D1D1B" stroke-width="0.541188"/>
<path d="M147.594 169.675H144.336L143.004 173.532L172.764 167.747L174.545 165.458L147.594 169.675Z" stroke="#1D1D1B" stroke-width="0.405891" stroke-linecap="round" stroke-linejoin="round"/>
<path d="M145.576 121.701L6.33937 115.668" stroke="#1D1D1B" stroke-width="0.405891" stroke-linecap="round" stroke-linejoin="round"/>
<path d="M83.0918 161.477V134.986L66.0606 133.631L64.4966 135.138L81.544 136.526L82.096 161.715L83.0918 161.477Z" fill="#1D1D1B" stroke="#1D1D1B" stroke-width="0.405891" stroke-linecap="round" stroke-linejoin="round"/>
<path d="M167.248 137.504L167.214 137.404L167.226 137.512L167.222 137.513C167.218 137.514 167.212 137.516 167.204 137.518C167.188 137.522 167.164 137.528 167.132 137.537C167.067 137.554 166.97 137.582 166.845 137.623C166.595 137.703 166.231 137.834 165.786 138.029C164.895 138.419 163.676 139.07 162.372 140.112C159.768 142.192 156.813 145.839 155.469 152.104C154.116 158.406 153.959 163.875 154.14 167.766C154.23 169.712 154.404 171.263 154.556 172.326C154.632 172.857 154.702 173.267 154.753 173.542C154.763 173.597 154.774 173.647 154.782 173.691L194.973 164.542L191.562 142.746L173.227 135.425L167.248 137.504Z" stroke="#1D1D1B" stroke-width="0.541188"/>
<path d="M193.527 147.805H177.53C167.102 147.805 158.472 158.408 158.472 171.733C158.472 185.057 167.102 195.659 177.53 195.659H193.527C203.955 195.659 212.586 185.057 212.586 171.733C212.586 158.408 203.955 147.805 193.527 147.805Z" fill="#D9D9D9" stroke="black"/>
<path d="M177.529 196.165C188.331 196.165 197.088 185.228 197.088 171.737C197.088 158.246 188.331 147.31 177.529 147.31" stroke="#1D1D1B" stroke-width="0.405891" stroke-linecap="round" stroke-linejoin="round"/>
<path d="M182.27 196.165C193.072 196.165 201.828 185.229 201.828 171.738" stroke="#1D1D1B" stroke-width="0.405891" stroke-linecap="round" stroke-linejoin="round"/>
<path d="M189.523 196.165C200.326 196.165 209.082 185.229 209.082 171.738" stroke="#1D1D1B" stroke-width="0.405891" stroke-linecap="round" stroke-linejoin="round"/>
<path d="M177.529 159.786C172.331 159.786 168.021 165.076 168.021 171.733C168.021 178.389 172.331 183.678 177.529 183.678C182.728 183.678 187.038 178.389 187.038 171.733C187.038 165.076 182.728 159.786 177.529 159.786Z" fill="#E2EDF4" stroke="#1D1D1B" stroke-width="0.541188"/>
<path d="M177.531 166.753C175.411 166.753 173.597 168.923 173.597 171.731C173.597 174.54 175.411 176.711 177.531 176.711C179.651 176.711 181.466 174.54 181.466 171.731C181.466 168.923 179.651 166.753 177.531 166.753Z" fill="#4F5151" stroke="#1D1D1B" stroke-width="0.541188"/>
<path d="M255.109 131.899L255.075 131.798L255.087 131.907L255.083 131.908C255.079 131.909 255.073 131.911 255.065 131.913C255.05 131.917 255.025 131.922 254.993 131.931C254.929 131.949 254.832 131.977 254.707 132.017C254.457 132.098 254.094 132.228 253.648 132.423C252.758 132.814 251.539 133.465 250.235 134.506C247.632 136.586 244.677 140.233 243.33 146.499C241.975 152.801 241.818 158.269 241.999 162.161C242.09 164.106 242.264 165.657 242.416 166.72C242.492 167.252 242.563 167.661 242.614 167.937C242.624 167.992 242.635 168.041 242.644 168.085L282.834 158.936L279.423 137.14L261.088 129.82L255.109 131.899Z" stroke="#1D1D1B" stroke-width="0.541188"/>
<path d="M281.389 141.976H265.392C254.792 141.976 246.104 152.732 246.104 166.133C246.104 179.533 254.792 190.289 265.392 190.289H281.389C291.988 190.289 300.677 179.533 300.677 166.133C300.677 152.732 291.988 141.976 281.389 141.976Z" stroke="#1D1D1B" stroke-width="0.541188"/>
<path d="M265.391 190.56C276.193 190.56 284.949 179.623 284.949 166.132C284.949 152.641 276.193 141.705 265.391 141.705" stroke="#1D1D1B" stroke-width="0.405891" stroke-linecap="round" stroke-linejoin="round"/>
<path d="M270.131 190.56C280.933 190.56 289.689 179.624 289.689 166.133" stroke="#1D1D1B" stroke-width="0.405891" stroke-linecap="round" stroke-linejoin="round"/>
<path d="M277.385 190.56C288.187 190.56 296.943 179.624 296.943 166.133" stroke="#1D1D1B" stroke-width="0.405891" stroke-linecap="round" stroke-linejoin="round"/>
<path d="M265.391 154.187C260.192 154.187 255.882 159.476 255.882 166.133C255.882 172.789 260.192 178.078 265.391 178.078C270.589 178.078 274.899 172.789 274.899 166.133C274.899 159.476 270.589 154.187 265.391 154.187Z" stroke="#1D1D1B" stroke-width="0.541188"/>
<path d="M265.393 161.153C263.273 161.153 261.458 163.323 261.458 166.132C261.458 168.94 263.273 171.111 265.393 171.111C267.513 171.111 269.327 168.94 269.327 166.132C269.327 163.323 267.512 161.153 265.393 161.153Z" fill="#4F5151" stroke="#1D1D1B" stroke-width="0.541188"/>
<path d="M325.911 60.1978H315.964C315.09 60.1978 314.384 60.9033 314.384 61.7739V94.8208C314.384 95.6916 315.09 96.3979 315.964 96.3979H325.911C326.785 96.3978 327.491 95.6915 327.491 94.8208V61.7739C327.491 60.9034 326.785 60.1979 325.911 60.1978Z" fill="#3D3D3F" stroke="#1D1D1B" stroke-width="0.541188"/>
<path d="M315.445 61.542V94.5295C315.445 94.5295 315.808 95.9769 317.496 95.9769" stroke="#1D1D1B" stroke-width="0.405891" stroke-linecap="round" stroke-linejoin="round"/>
<path d="M246.032 4.66699C228.309 2.83381 206.951 1.0618 192.295 1.29004L189.663 4.37695V27.1211L214.743 37.6592L215.344 37.9121L214.741 38.1592L210.762 39.791L209.468 45.2031L209.422 45.3945L209.226 45.4102L165.272 48.7734L163.212 52.5693L158.99 126.482L160.014 130.341H168.618L168.371 130.751V130.752L168.37 130.754C168.369 130.756 168.367 130.759 168.364 130.763C168.36 130.771 168.353 130.783 168.344 130.798C168.325 130.829 168.298 130.874 168.264 130.933C168.195 131.049 168.096 131.217 167.978 131.422C167.74 131.831 167.424 132.385 167.108 132.97C166.792 133.555 166.479 134.167 166.245 134.689C166.128 134.951 166.032 135.186 165.967 135.382C165.899 135.585 165.872 135.722 165.872 135.797C165.872 136.126 166.146 136.418 166.528 136.652C166.708 136.763 166.89 136.847 167.028 136.903C167.094 136.93 167.149 136.949 167.188 136.963C167.194 136.961 167.202 136.961 167.21 136.959C167.273 136.947 167.366 136.93 167.486 136.91C167.726 136.871 168.076 136.822 168.521 136.782C169.41 136.702 170.68 136.656 172.208 136.793C175.17 137.059 179.105 138.013 183.125 140.734L183.514 141.003C191.562 146.675 194.206 155.308 195.247 162.332L195.343 163.007C195.828 166.573 196.221 171.554 196.492 175.638C196.628 177.681 196.734 179.502 196.806 180.812C196.841 181.466 196.868 181.994 196.887 182.357C196.893 182.478 196.897 182.58 196.901 182.663H210.853L318.413 145.297L322.78 141.583L321.303 96.6514L313.546 57.7334L313.481 57.4102H318.736V52.3525L310.66 42.1592H308.25L308.169 42.0605L308.378 41.8887C308.169 42.0605 308.168 42.0607 308.168 42.0605V42.0596C308.167 42.0589 308.166 42.058 308.165 42.0566C308.163 42.0537 308.159 42.0488 308.154 42.043C308.145 42.0314 308.13 42.014 308.111 41.9912C308.074 41.9454 308.018 41.8771 307.944 41.7881C307.797 41.6093 307.578 41.3457 307.297 41.0068C306.735 40.3291 305.919 39.3503 304.908 38.1455C302.885 35.7355 300.078 32.4215 296.938 28.8066C290.68 21.6006 283.114 13.2103 277.815 8.39062C277.794 8.38771 277.767 8.38488 277.737 8.38086C277.63 8.36652 277.47 8.34511 277.26 8.31738C276.84 8.26192 276.22 8.18143 275.42 8.07812C273.821 7.8715 271.503 7.5767 268.63 7.22461C262.884 6.52039 254.916 5.5859 246.032 4.66699Z" stroke="#1D1D1B" stroke-width="0.541188"/>
<path d="M190.183 55.0669C187.236 55.0669 184.852 57.447 184.852 60.3862V90.1011C184.852 92.4461 186.754 94.3452 189.105 94.3452H216.847V55.0669H190.183Z" fill="#B4D3F3" stroke="#1D1D1B" stroke-width="0.541188"/>
<path d="M220.018 92.24V144.8L222.013 149.734L223.914 148.969L222.088 144.452L222.068 144.403V92.24H220.018Z" fill="#3D3D3F" stroke="#1D1D1B" stroke-width="0.541188"/>
<path d="M221.863 150.086L219.747 144.853V91.9695" stroke="#1D1D1B" stroke-width="0.405891" stroke-linecap="round" stroke-linejoin="round"/>
<path d="M226.387 91.853L229.729 95.0278L315.794 96.8335L318.435 95.2505L318.852 91.9751L312.497 57.8306L226.387 55.0708V91.853Z" fill="#B4D3F3" stroke="#1D1D1B" stroke-width="0.541188"/>
<path d="M238.373 83.3184C234.682 83.3184 231.546 85.6992 230.402 89.002L230.349 89.1582L230.184 89.1807C229.134 89.3257 228.294 89.4853 227.769 89.6455V89.6475C227.102 89.8497 226.702 90.0974 226.466 90.3369C226.234 90.5719 226.151 90.8086 226.134 91.0176C226.116 91.2327 226.166 91.4331 226.227 91.585C226.256 91.6597 226.287 91.7202 226.31 91.7607C226.317 91.7748 226.326 91.786 226.331 91.7949L229.733 95.0283L230.455 95.042L232.837 95.0908L243.764 95.3174L246.149 95.3662H246.15L315.794 96.8281L316.246 96.5586C316.23 96.5434 316.215 96.5262 316.197 96.5098C316.008 96.3344 315.705 96.0899 315.26 95.8291C314.426 95.3406 313.09 94.7902 311.062 94.5283L310.647 94.4805C308.366 94.2418 297.271 94.0604 286.72 93.9395C281.45 93.879 276.324 93.834 272.516 93.8037C270.611 93.7886 269.035 93.7771 267.937 93.7695C267.387 93.7657 266.957 93.7626 266.664 93.7607C266.518 93.7598 266.406 93.7593 266.33 93.7588C266.292 93.7586 266.263 93.7579 266.244 93.7578H266.216C266.216 93.756 266.215 93.7348 266.217 93.4873L266.215 93.7578H266.18L266.146 93.748H266.143C266.141 93.7476 266.138 93.746 266.135 93.7451C266.128 93.7432 266.118 93.7409 266.104 93.7373C266.077 93.7298 266.036 93.7186 265.982 93.7041C265.876 93.6751 265.719 93.6318 265.518 93.5771C265.114 93.4677 264.531 93.3102 263.814 93.1182C262.382 92.7339 260.416 92.2112 258.283 91.6582C254.014 90.5512 249.088 89.3255 246.426 88.8389L246.277 88.8115L246.223 88.6719C244.989 85.5396 242.065 83.3184 238.373 83.3184ZM238.373 84.8516C240.858 84.8516 243.031 86.173 244.247 88.1387L244.522 88.584L244.001 88.5508C240.893 88.3576 236.205 88.5515 232.543 88.9072L232.041 88.9561L232.278 88.5098C233.438 86.3352 235.737 84.8516 238.373 84.8516Z" fill="#8E8E8E" stroke="#1D1D1B" stroke-width="0.541188"/>
<path d="M246.475 88.5787L244.018 88.2812L232.517 88.6382L230.147 88.9141" stroke="#1D1D1B" stroke-width="0.405891" stroke-linecap="round" stroke-linejoin="round"/>
<path d="M315.66 95.7611L230.147 94.2111L226.959 90.7168" stroke="#1D1D1B" stroke-width="0.405891" stroke-linecap="round" stroke-linejoin="round"/>
<path d="M238.122 82.1411C238.074 82.1393 238.01 82.1433 237.933 82.1548C237.777 82.1779 237.592 82.2261 237.409 82.2827C237.228 82.3388 237.057 82.4004 236.931 82.4487C236.868 82.4728 236.816 82.4939 236.78 82.5083C236.763 82.5155 236.748 82.5211 236.739 82.5249C236.735 82.5267 236.732 82.5279 236.729 82.5288C236.728 82.5293 236.727 82.5296 236.727 82.5298V82.5308L236.577 82.5933L236.451 82.4927V82.4917C236.451 82.4913 236.45 82.4905 236.449 82.4897C236.447 82.4882 236.443 82.4861 236.439 82.4829C236.431 82.4765 236.419 82.4672 236.404 82.4556C236.374 82.4321 236.331 82.3997 236.282 82.3638C236.197 82.3014 236.098 82.2347 236.014 82.1851C235.972 82.195 235.91 82.2151 235.829 82.2485C235.666 82.3161 235.462 82.4202 235.258 82.5317C235.055 82.6426 234.857 82.7576 234.71 82.8452C234.637 82.8889 234.576 82.926 234.534 82.9517C234.514 82.9643 234.497 82.9742 234.486 82.981C234.481 82.9843 234.476 82.987 234.474 82.9888C234.472 82.9895 234.471 82.9903 234.471 82.9907L234.47 82.9917L234.336 83.0747L234.197 82.9995L234.198 83.0005L234.183 82.9927C234.168 82.9861 234.145 82.9759 234.114 82.9644C234.052 82.9412 233.96 82.9124 233.844 82.8931C233.641 82.8594 233.368 82.8541 233.058 82.9585L232.923 83.0103C232.767 83.077 232.577 83.2345 232.371 83.4644C232.17 83.6886 231.973 83.96 231.798 84.2261C231.623 84.4915 231.473 84.7469 231.367 84.936C231.314 85.0303 231.273 85.1079 231.244 85.1616C231.243 85.1642 231.242 85.167 231.24 85.1694L231.434 86.1987C231.989 85.5088 232.747 84.8917 233.403 84.4263C233.819 84.1315 234.202 83.8917 234.481 83.7251C234.621 83.6418 234.735 83.5762 234.814 83.5317C234.854 83.5095 234.886 83.4926 234.907 83.481C234.918 83.4752 234.926 83.4703 234.932 83.4673C234.934 83.4658 234.937 83.4652 234.938 83.4644L234.94 83.4634V83.4624L235.174 83.3384L235.304 83.5688L236.257 85.2661C236.526 85.2778 236.81 85.2045 237.05 85.1118C237.185 85.0595 237.299 85.0039 237.379 84.9614C237.419 84.9403 237.45 84.9227 237.471 84.9106C237.481 84.9046 237.488 84.8999 237.493 84.897L237.498 84.894L237.733 84.7437L237.876 84.9839C237.918 85.0549 237.982 85.0949 238.081 85.1128C238.189 85.1321 238.325 85.1215 238.474 85.0874C238.619 85.0539 238.759 85.0025 238.863 84.9585C238.915 84.9367 238.958 84.9166 238.986 84.9028L239.025 84.8833H239.026L239.183 84.7993L239.322 84.9097C239.683 85.1965 239.917 85.1682 240.043 85.1216C240.116 85.0944 240.175 85.0525 240.215 85.0161C240.235 84.9982 240.249 84.9821 240.258 84.9722L240.266 84.9624L240.32 84.8862L240.413 84.8608L240.484 84.8364C240.643 84.7717 240.743 84.6481 240.804 84.4565C240.859 84.2813 240.877 84.0577 240.863 83.7993L240.839 83.5298C240.802 83.2321 240.637 83.0309 240.47 82.8979C240.386 82.8314 240.304 82.7845 240.243 82.7544C240.213 82.7395 240.189 82.7295 240.173 82.7231C240.165 82.72 240.159 82.7175 240.156 82.7163C240.155 82.7157 240.154 82.7154 240.153 82.7153H240.154L240.155 82.7144L240.067 82.686L240.016 82.6089C239.968 82.5374 239.883 82.475 239.751 82.4272C239.62 82.3797 239.463 82.3545 239.304 82.3442C239.146 82.3341 238.996 82.3391 238.886 82.3472C238.831 82.3512 238.786 82.3563 238.756 82.3599C238.741 82.3616 238.729 82.3628 238.722 82.3638C238.718 82.3643 238.715 82.3645 238.714 82.3647H238.713L238.625 82.3784L238.547 82.3374L238.185 82.1489C238.181 82.148 238.163 82.1427 238.122 82.1411Z" fill="#FFD367" stroke="#1D1D1B" stroke-width="0.541188"/>
<path d="M234.326 82.7617C234.326 82.7617 235.03 83.4966 234.326 84.0532" stroke="#1D1D1B" stroke-width="0.405891" stroke-linecap="round" stroke-linejoin="round"/>
<path d="M236.626 82.2761C236.626 82.2761 237.881 84.2852 237.654 85.1169" stroke="#1D1D1B" stroke-width="0.405891" stroke-linecap="round" stroke-linejoin="round"/>
<path d="M238.679 82.0977C238.679 82.0977 239.312 84.5604 239.16 85.1221" stroke="#1D1D1B" stroke-width="0.405891" stroke-linecap="round" stroke-linejoin="round"/>
<path d="M240.057 82.2761C240.057 82.2761 240.392 84.8739 240.273 85.1169" stroke="#1D1D1B" stroke-width="0.405891" stroke-linecap="round" stroke-linejoin="round"/>
<path d="M293.011 96.3547H303.269L275.363 56.6125L265.698 56.3293L293.011 96.3547Z" fill="#F5FAFF" stroke="#1D1D1B" stroke-width="0.541188"/>
<path d="M286.606 96.3547H290.046L262.142 56.6047L259.322 56.3625L286.606 96.3547Z" fill="#F5FAFF" stroke="#1D1D1B" stroke-width="0.541188"/>
<path d="M316.439 145.62L320.941 140.987L319.735 103.014L317.44 96.6252" stroke="#1D1D1B" stroke-width="0.405891" stroke-linecap="round" stroke-linejoin="round"/>
<path d="M313.813 57.6865L221.589 54.311V56.844L314.246 59.8684L313.813 57.6865Z" fill="#1D1D1B" stroke="#1D1D1B" stroke-width="0.405891" stroke-linecap="round" stroke-linejoin="round"/>
<path d="M308.379 41.8945C308.379 41.8945 228.413 38.0384 226.719 38.1572C225.031 38.276 209.206 45.1511 209.206 45.1511L206.912 50.3358" stroke="#1D1D1B" stroke-width="0.405891" stroke-linecap="round" stroke-linejoin="round"/>
<path d="M221.59 54.3106L217.12 49.8496L162.941 52.5014" stroke="#1D1D1B" stroke-width="0.405891" stroke-linecap="round" stroke-linejoin="round"/>
<path d="M221.59 56.8437L217.12 52.0803C217.12 52.0803 189.395 53.3441 187.224 53.5871C185.054 53.8302 182.873 56.2389 182.754 61.0617C182.635 65.8845 179.978 130.742 179.978 130.742" stroke="#1D1D1B" stroke-width="0.405891" stroke-linecap="round" stroke-linejoin="round"/>
<path d="M168.137 130.618L194.471 130.742L198.216 132.303L201.869 147.3L197.128 134.355L193.502 132.184L167.298 132.065L168.137 130.618Z" fill="#1D1D1B" stroke="#1D1D1B" stroke-width="0.405891" stroke-linecap="round" stroke-linejoin="round"/>
<path d="M236.104 95.761L235.178 103.3L234.328 145.534L231.855 149.061" stroke="#1D1D1B" stroke-width="0.405891" stroke-linecap="round" stroke-linejoin="round"/>
<path d="M321.762 102.301L319.732 103.014L235.177 103.3L160.093 102.301" stroke="#1D1D1B" stroke-width="0.405891" stroke-linecap="round" stroke-linejoin="round"/>
<path d="M322.152 114.221L320.28 114.944L234.935 115.425L159.477 113.141" stroke="#1D1D1B" stroke-width="0.405891" stroke-linecap="round" stroke-linejoin="round"/>
<path d="M226.719 38.1571C226.719 38.1571 226.957 32.0111 222.005 27.4313C217.059 22.8461 192.175 1.03271 192.175 1.03271" stroke="#1D1D1B" stroke-width="0.405891" stroke-linecap="round" stroke-linejoin="round"/>
<path d="M196.372 74.5454C196.316 74.5606 196.232 74.583 196.126 74.6118C195.914 74.6694 195.609 74.7524 195.241 74.855C194.505 75.0602 193.515 75.3425 192.5 75.6509C191.484 75.9595 190.446 76.2939 189.61 76.6021C189.192 76.7563 188.829 76.9025 188.547 77.0347C188.254 77.172 188.081 77.2791 188.013 77.3472C187.841 77.5186 187.635 77.8785 187.41 78.3794C187.19 78.8692 186.966 79.4572 186.747 80.0522C186.53 80.6432 186.315 81.2442 186.119 81.7466C185.951 82.1782 185.785 82.5667 185.629 82.8198L185.562 82.9194C185.399 83.1467 184.994 83.5888 184.506 84.1226C184.009 84.6655 183.408 85.3225 182.832 85.9966C182.255 86.6718 181.707 87.3579 181.315 87.9604C181.119 88.2617 180.967 88.5352 180.868 88.771C180.767 89.0119 180.736 89.1862 180.747 89.2993C180.82 89.9748 181.308 91.4968 182.181 92.6714C182.615 93.2558 183.131 93.7346 183.717 93.9888C184.221 94.2075 184.792 94.2663 185.438 94.064L185.721 93.9614C187.373 93.2714 188.432 92.7159 189.076 92.3364C189.398 92.1468 189.616 92.0015 189.751 91.9048C189.818 91.8566 189.865 91.8205 189.895 91.7974C189.909 91.7858 189.92 91.777 189.926 91.772L189.932 91.7671L190.32 91.4224L190.38 91.939L190.655 94.3403H217.448L231.525 89.3325C231.514 89.2824 231.5 89.2251 231.485 89.1606C231.427 88.9009 231.346 88.528 231.251 88.0786C231.073 87.2381 230.851 86.1254 230.649 84.9692L218.601 85.7466L218.514 85.6235H218.513V85.6226C218.512 85.6218 218.511 85.6202 218.51 85.6187L218.461 85.5503C218.427 85.5022 218.377 85.4314 218.312 85.3413C218.184 85.1609 217.998 84.9024 217.772 84.5903C217.321 83.9661 216.709 83.1278 216.065 82.271C215.421 81.4135 214.746 80.5391 214.17 79.8433C213.882 79.4952 213.62 79.1945 213.4 78.9634C213.23 78.7845 213.097 78.6595 213.002 78.5854L212.92 78.5288C212.425 78.2375 210.749 77.4988 209.172 76.8237C208.389 76.4886 207.638 76.1725 207.082 75.9399C206.804 75.8237 206.575 75.7279 206.416 75.6616C206.337 75.6287 206.275 75.603 206.232 75.5854C206.222 75.5812 206.213 75.576 206.205 75.5728L196.42 74.5317C196.407 74.5352 196.391 74.5403 196.372 74.5454Z" fill="#BD2E11" stroke="#1D1D1B" stroke-width="0.541188"/>
<path d="M186.401 82.0657C186.405 82.0932 186.407 82.1255 186.412 82.1614C186.431 82.3019 186.462 82.5039 186.511 82.7473C186.608 83.2358 186.777 83.8855 187.059 84.5364C187.606 85.7995 188.549 87.0004 190.184 87.1467L190.376 86.6936C190.336 86.6895 190.293 86.6878 190.248 86.6809C189.912 86.6292 189.463 86.492 188.996 86.1555C188.118 85.5225 187.228 84.2215 186.855 81.6018L186.401 82.0657Z" fill="#F5FAFF" stroke="#1D1D1B" stroke-width="0.541188"/>
<path d="M196.503 73.8606L199.483 79.7395L202.23 78.2463L202.353 78.1799L202.478 78.2405L204.193 79.0725L204.287 79.1174L204.326 79.2141L204.327 79.2161C204.328 79.217 204.328 79.2184 204.328 79.22C204.33 79.2239 204.333 79.2299 204.336 79.2375C204.342 79.2531 204.351 79.2764 204.363 79.3069C204.387 79.3679 204.422 79.4592 204.469 79.5793C204.561 79.8197 204.696 80.1773 204.867 80.6477C205.123 81.3535 205.46 82.3134 205.854 83.5129L206.266 84.7913C206.844 86.6223 207.243 89.0791 207.497 91.0657C207.624 92.0611 207.716 92.9432 207.775 93.5764C207.805 93.8931 207.827 94.1479 207.842 94.3235C207.842 94.3311 207.843 94.3386 207.844 94.3459H209.103C208.975 91.2674 208.164 87.7208 207.366 84.9036C206.956 83.4549 206.551 82.2034 206.249 81.3147C206.098 80.8706 205.973 80.5168 205.886 80.2747C205.842 80.1539 205.807 80.0611 205.784 79.9983C205.773 79.967 205.764 79.9429 205.758 79.927C205.755 79.9193 205.752 79.9134 205.751 79.9094C205.75 79.9075 205.749 79.9055 205.749 79.9045V79.9036L205.731 79.8567V77.8977L206.104 78.05L208.848 79.1711L206.32 75.9397L198.746 72.1946L196.503 73.8606Z" fill="#F5FAFF" stroke="#1D1D1B" stroke-width="0.541188"/>
<path d="M199.361 80.1106L202.353 79.5649H204.172L202.353 78.7219L199.361 80.1106Z" fill="black" stroke="#1D1D1B" stroke-width="0.405891" stroke-linecap="round" stroke-linejoin="round"/>
<path d="M209.688 79.8084L206.002 79.4139V78.3008L209.688 79.8084Z" fill="black" stroke="#1D1D1B" stroke-width="0.405891" stroke-linecap="round" stroke-linejoin="round"/>
<path d="M193.441 71.2146C193.426 71.2258 193.369 71.2867 193.318 71.5066C193.282 71.6637 193.254 71.8747 193.236 72.1511L193.222 72.45C193.19 73.3724 192.948 73.9627 192.616 74.491C192.456 74.7465 192.272 74.9921 192.095 75.24C191.96 75.4287 191.824 75.6256 191.691 75.8464L191.56 76.0759C191.192 76.7493 190.403 78.0236 189.71 79.1218C189.363 79.6724 189.038 80.1811 188.8 80.5525C188.681 80.7381 188.584 80.89 188.517 80.9949C188.487 81.0402 188.464 81.0772 188.446 81.1042C188.473 82.2924 188.965 83.1165 189.459 83.6501C189.714 83.9258 189.97 84.1242 190.16 84.2527C190.198 84.2781 190.235 84.2982 190.267 84.3181L191.516 82.4802L191.636 82.3025L191.837 82.3796H191.838C191.839 82.3799 191.839 82.3811 191.841 82.3816C191.844 82.3829 191.85 82.3849 191.856 82.3875C191.87 82.3926 191.89 82.4 191.917 82.4099C191.97 82.4297 192.049 82.4586 192.149 82.4939C192.349 82.5645 192.634 82.6611 192.974 82.7654C193.569 82.9485 194.327 83.1533 195.08 83.281L195.402 83.3308C196.216 83.4413 196.481 83.2082 196.577 83.0583C196.634 82.9696 196.658 82.8719 196.666 82.7908C196.67 82.751 196.67 82.717 196.669 82.6951C196.668 82.6845 196.667 82.6768 196.667 82.6726C196.667 82.6705 196.666 82.6689 196.666 82.6687H196.667L196.621 82.3611H196.935C197.109 82.3611 197.219 82.2972 197.301 82.2019C197.391 82.0966 197.456 81.9413 197.497 81.7595C197.537 81.581 197.551 81.398 197.553 81.2566C197.554 81.1868 197.553 81.1285 197.551 81.0886C197.55 81.0687 197.549 81.0526 197.548 81.0427C197.548 81.0383 197.547 81.0351 197.547 81.033V81.031L197.531 80.8513L197.69 80.7673C197.955 80.6274 198.093 80.4622 198.166 80.3044C198.241 80.1431 198.257 79.9669 198.239 79.7937C198.221 79.62 198.169 79.4593 198.12 79.3396C198.096 79.2804 198.073 79.2327 198.057 79.2009C198.049 79.1851 198.042 79.1731 198.038 79.1658C198.036 79.1622 198.035 79.1593 198.034 79.158V79.157L198.033 79.158L197.936 78.9939L198.058 78.8464H198.057L198.06 78.8435C198.062 78.84 198.067 78.8335 198.073 78.825C198.086 78.808 198.105 78.7817 198.127 78.7468C198.172 78.6762 198.231 78.5726 198.281 78.4451C198.37 78.2213 198.432 77.9329 198.371 77.615L198.337 77.4773C198.326 77.4397 198.284 77.3709 198.171 77.2781C198.062 77.1887 197.911 77.0953 197.724 77.0007C197.349 76.8117 196.864 76.6357 196.377 76.4841C195.892 76.3333 195.414 76.2089 195.057 76.1228C194.878 76.0799 194.73 76.0469 194.627 76.0242C194.576 76.0128 194.535 76.0036 194.508 75.9978C194.494 75.9949 194.483 75.9934 194.477 75.9919C194.473 75.9912 194.47 75.9903 194.469 75.99H194.467L194.195 75.9343L194.257 75.6638V75.6628L194.258 75.6619C194.258 75.6604 194.258 75.658 194.259 75.655C194.26 75.6492 194.262 75.6401 194.265 75.6287C194.27 75.6058 194.278 75.5724 194.287 75.53C194.306 75.4446 194.333 75.3224 194.363 75.1785C194.393 75.0344 194.427 74.8685 194.461 74.6941L194.557 74.158C194.612 73.8202 194.641 73.276 194.562 72.7498C194.492 72.2798 194.344 71.8729 194.103 71.6199L193.993 71.5212C193.799 71.3718 193.655 71.2781 193.547 71.2351C193.496 71.2147 193.466 71.2115 193.452 71.2117C193.443 71.2118 193.443 71.2136 193.441 71.2146Z" fill="#FFD367" stroke="#1D1D1B" stroke-width="0.541188"/>
<path d="M191.75 82.6377L190.592 82.2756L191.014 83.7238L191.75 82.6377Z" fill="black" stroke="#1D1D1B" stroke-width="0.405891" stroke-linecap="round" stroke-linejoin="round"/>
<path d="M194.527 75.7248L193.428 75.4655L194.684 74.9849L194.527 75.7248Z" fill="#1D1D1B" stroke="#1D1D1B" stroke-width="0.405891" stroke-linecap="round" stroke-linejoin="round"/>
<path d="M200.902 75.0977C201.514 75.8002 202.359 76.5852 203.134 77.2588C203.642 77.7003 204.114 78.0886 204.458 78.3662C204.541 78.4328 204.617 78.4919 204.684 78.5449L205.183 76.3291L200.902 75.0977Z" fill="#FFD367" stroke="#1D1D1B" stroke-width="0.541188"/>
<path d="M196.616 65.2197C196.607 65.2596 196.595 65.3054 196.584 65.3574C196.541 65.5589 196.491 65.8465 196.456 66.1865C196.391 66.8214 196.39 67.6241 196.598 68.3945L198.458 68.4941L198.773 64.9893L196.616 65.2197Z" fill="#61676A" stroke="#1D1D1B" stroke-width="0.541188"/>
<path d="M205.321 62.6543C203.829 62.337 202.059 62.5907 200.877 63.0576C199.785 63.4894 199.309 64.547 199.114 65.5703C199.018 66.0761 198.995 66.5562 198.996 66.9102C198.997 67.0865 199.004 67.2308 199.011 67.3301C199.014 67.3795 199.016 67.4179 199.019 67.4434C199.02 67.4561 199.021 67.4656 199.021 67.4717C199.022 67.4747 199.022 67.4772 199.022 67.4785V67.4795L199.131 68.4395L198.54 67.6758C198.425 67.5277 198.224 67.3832 197.98 67.2881C197.738 67.1935 197.479 67.1578 197.259 67.1963C197.046 67.2336 196.872 67.3388 196.76 67.5342C196.658 67.7124 196.591 67.9933 196.632 68.4209L196.656 68.6133C196.737 69.1411 196.921 69.4935 197.136 69.7314C197.351 69.9702 197.612 70.1102 197.871 70.1895C198.132 70.2692 198.387 70.2866 198.579 70.2832C198.674 70.2815 198.753 70.2747 198.806 70.2686C198.832 70.2655 198.852 70.2618 198.865 70.2598C198.871 70.2588 198.876 70.2583 198.879 70.2578H198.881L199.113 70.2129L199.188 70.4365V70.4375C199.189 70.438 199.189 70.4391 199.189 70.4404C199.19 70.443 199.192 70.4468 199.194 70.4521C199.198 70.4629 199.203 70.4795 199.211 70.501C199.227 70.5445 199.25 70.6097 199.282 70.6914C199.346 70.8548 199.442 71.0868 199.568 71.3604C199.822 71.9093 200.197 72.6179 200.688 73.2676C201.179 73.9195 201.772 74.4943 202.456 74.8018C203.086 75.0849 203.807 75.1484 204.632 74.8115L204.798 74.7393C205.694 74.3214 206.355 73.5592 206.84 72.623C207.325 71.6863 207.626 70.5908 207.81 69.5381C207.993 68.4872 208.058 67.4897 208.076 66.7539C208.085 66.3864 208.084 66.0848 208.079 65.876C208.077 65.7717 208.074 65.6905 208.071 65.6357C208.07 65.6086 208.07 65.5879 208.069 65.5742C208.069 65.5673 208.069 65.5619 208.068 65.5586V65.5547L208.067 65.5459V65.542C208.005 64.6647 207.681 64.0285 207.204 63.5713C206.721 63.1077 206.064 62.8123 205.321 62.6543Z" fill="#FFD367" stroke="#1D1D1B" stroke-width="0.541188"/>
<path d="M198.705 68.1101C198.705 68.1101 197.785 67.2609 196.941 68.1101H198.705Z" fill="#1D1D1B"/>
<path d="M198.705 68.1101C198.705 68.1101 197.785 67.2609 196.941 68.1101" stroke="#1D1D1B" stroke-width="0.405891" stroke-linecap="round" stroke-linejoin="round"/>
<path d="M198.888 65.5825L198.758 67.5229V67.5278C198.541 70.033 198.549 71.3561 198.813 72.2964C199.009 72.9893 199.345 73.4853 199.884 74.1138L200.491 74.7983C201.315 75.7119 202.818 76.1397 204.254 76.0522C205.611 75.9695 206.779 75.4387 207.236 74.5757L207.317 74.3989C207.526 73.8742 207.683 73.0953 207.798 72.2046C207.847 71.8226 207.886 71.4234 207.92 71.02L207.843 71.561L207.719 72.4204L207.332 71.6431C207.034 71.0445 206.463 70.8837 205.897 70.8911C205.617 70.8948 205.354 70.9408 205.16 70.9868C205.064 71.0097 204.985 71.0328 204.932 71.0493C204.905 71.0576 204.884 71.0643 204.871 71.0688L204.854 71.0747L204.742 71.1157L204.637 71.061C203.441 70.4456 202.3 70.6104 201.441 70.939C201.012 71.1034 200.658 71.308 200.411 71.4712C200.288 71.5524 200.193 71.6227 200.129 71.6724C200.097 71.6972 200.072 71.717 200.057 71.73C200.049 71.7364 200.044 71.7416 200.04 71.7446L200.036 71.7476L199.717 72.0278L199.598 71.6206C199.559 71.4886 199.53 71.2896 199.506 71.061C199.481 70.8267 199.461 70.5421 199.443 70.228C199.408 69.5994 199.385 68.843 199.369 68.1157C199.354 67.3881 199.346 66.6872 199.342 66.1685C199.34 65.9296 199.338 65.7292 199.338 65.5825H198.888Z" fill="#61676A" stroke="#1D1D1B" stroke-width="0.541188"/>
<path d="M204.732 72.2424C204.592 72.3436 204.395 72.4769 204.174 72.6028C204.103 72.643 204.028 72.6817 203.951 72.72C204.423 72.7797 205.002 72.7843 205.616 72.6301L204.816 72.1799C204.791 72.1987 204.763 72.2203 204.732 72.2424Z" fill="#FFD367" stroke="#1D1D1B" stroke-width="0.541188"/>
<path d="M190.117 91.9696L194.225 86.4285L190.371 94.2109L190.117 91.9696Z" fill="#1D1D1B" stroke="#1D1D1B" stroke-width="0.405891" stroke-linecap="round" stroke-linejoin="round"/>
<path d="M191.334 83.2478C191.334 83.2478 191.892 85.1327 191.334 85.1219C190.777 85.1111 190.355 84.6898 190.355 84.6898C190.355 84.6898 188.601 83.9661 188.179 81.0119C188.179 81.0119 187.698 80.407 187.936 80.11C188.179 79.8076 188.758 80.11 188.758 80.11" stroke="#1D1D1B" stroke-width="0.405891" stroke-linecap="round" stroke-linejoin="round"/>
<path d="M191.334 85.1218L190.111 88.0058C190.111 88.0058 190.777 90.4793 189.083 91.6837" stroke="#1D1D1B" stroke-width="0.405891" stroke-linecap="round" stroke-linejoin="round"/>
<path d="M190.591 86.877C190.591 86.877 191.771 87.32 191.338 88.5953" stroke="#1D1D1B" stroke-width="0.405891" stroke-linecap="round" stroke-linejoin="round"/>
<path d="M205.501 80.1096C205.501 80.1096 207.39 85.9694 207.963 88.9182C208.537 91.8669 208.358 94.6159 208.358 94.6159" stroke="#1D1D1B" stroke-width="0.405891" stroke-linecap="round" stroke-linejoin="round"/>
<path d="M200.265 84.4902C199.392 84.4902 198.613 84.7135 198.062 85.0605C197.508 85.4097 197.218 85.8585 197.218 86.3096C197.218 86.7607 197.508 87.2094 198.062 87.5586C198.613 87.9056 199.392 88.1289 200.265 88.1289C201.138 88.1289 201.915 87.9056 202.466 87.5586C203.02 87.2093 203.312 86.7608 203.312 86.3096C203.311 85.8584 203.02 85.4097 202.466 85.0605C201.915 84.7137 201.138 84.4903 200.265 84.4902Z" fill="#F5FAFF" stroke="#1D1D1B" stroke-width="0.541188"/>
<path d="M205.156 66.8301L205.502 70.67L204.171 70.5458" stroke="#1D1D1B" stroke-width="0.405891" stroke-linecap="round" stroke-linejoin="round"/>
<path d="M201.038 73.031C203.354 73.1985 204.788 71.853 204.788 71.853C204.788 71.853 206.698 73.0904 207.586 73.0418" stroke="#1D1D1B" stroke-width="0.405891" stroke-linecap="round" stroke-linejoin="round"/>
<path d="M206.359 68.0027C206.352 68.0027 206.343 68.0057 206.334 68.0144C206.325 68.0235 206.321 68.0339 206.321 68.0408C206.321 68.061 206.338 68.0778 206.359 68.0779C206.366 68.0779 206.377 68.0753 206.386 68.0662C206.395 68.0572 206.397 68.0476 206.397 68.0408C206.397 68.0339 206.395 68.0235 206.386 68.0144C206.377 68.0053 206.366 68.0027 206.359 68.0027Z" fill="#1D1D1B" stroke="#1D1D1B" stroke-width="0.541188"/>
<path d="M206.363 66.5549C206.008 66.5549 205.732 66.681 205.563 66.8167C205.522 66.8504 205.489 66.8832 205.464 66.9124C205.497 66.9136 205.537 66.914 205.585 66.9124C205.687 66.9089 205.801 66.8993 205.936 66.8899C206.067 66.8808 206.213 66.8723 206.363 66.8723C206.513 66.8723 206.659 66.8808 206.79 66.8899C206.925 66.8993 207.039 66.9088 207.141 66.9124C207.19 66.914 207.231 66.9137 207.266 66.9124C207.24 66.8826 207.206 66.8494 207.163 66.8147C206.995 66.6799 206.719 66.555 206.363 66.5549Z" fill="#1D1D1B" stroke="#1D1D1B" stroke-width="0.541188"/>
<path d="M202.553 68.0027C202.546 68.0027 202.536 68.0057 202.527 68.0144C202.518 68.0235 202.515 68.0339 202.515 68.0408C202.515 68.061 202.531 68.0778 202.553 68.0779C202.56 68.0779 202.57 68.0753 202.579 68.0662C202.588 68.0572 202.591 68.0476 202.591 68.0408C202.591 68.0339 202.588 68.0235 202.579 68.0144C202.57 68.0053 202.56 68.0027 202.553 68.0027Z" fill="#1D1D1B" stroke="#1D1D1B" stroke-width="0.541188"/>
<path d="M202.555 66.5552C202.199 66.5552 201.923 66.6813 201.755 66.8169C201.713 66.8506 201.68 66.8834 201.655 66.9126C201.689 66.9139 201.729 66.9142 201.776 66.9126C201.878 66.9091 201.992 66.8995 202.127 66.8901C202.258 66.881 202.404 66.8726 202.555 66.8726C202.705 66.8726 202.85 66.881 202.981 66.8901C203.116 66.8995 203.23 66.9091 203.332 66.9126C203.381 66.9143 203.423 66.914 203.457 66.9126C203.432 66.8828 203.398 66.8496 203.354 66.8149C203.187 66.6802 202.91 66.5552 202.555 66.5552Z" fill="#1D1D1B" stroke="#1D1D1B" stroke-width="0.541188"/>
<path d="M205.625 58.6082C204.343 58.2016 202.645 58.1109 201.108 58.2888C200.342 58.3775 199.624 58.5324 199.025 58.7429C198.497 58.9287 198.079 59.1515 197.799 59.3972L197.688 59.5037C197.418 59.7867 197.206 60.2543 197.049 60.8328C196.893 61.4046 196.798 62.0537 196.742 62.6697C196.686 63.2845 196.669 63.8602 196.666 64.282C196.665 64.4867 196.667 64.6548 196.669 64.7732C196.67 64.7736 196.671 64.7747 196.673 64.7751C196.796 64.8117 196.973 64.8642 197.189 64.9275C197.623 65.0541 198.216 65.2246 198.852 65.3982C199.974 65.7049 201.204 66.0149 201.939 66.1257L202.223 66.1609C202.515 66.186 202.69 66.1286 202.833 66.0408C202.999 65.9382 203.123 65.7992 203.343 65.5964C203.551 65.4042 203.811 65.1941 204.196 65.0271C204.58 64.861 205.074 64.7435 205.749 64.7126H205.748C207.106 64.6477 208.007 64.9946 208.663 65.4148C208.986 65.6218 209.246 65.844 209.462 66.0281C209.631 66.1721 209.761 66.2833 209.877 66.3601L209.989 66.4255C210.191 66.5263 210.325 66.5512 210.408 66.5544L208.733 63.5476L208.71 63.5046L208.702 63.4548V63.4529C208.702 63.4513 208.702 63.4485 208.701 63.4451C208.7 63.438 208.698 63.4272 208.695 63.4128C208.691 63.3836 208.683 63.3394 208.673 63.283C208.652 63.1699 208.619 63.0058 208.571 62.8064C208.475 62.4069 208.32 61.8672 208.085 61.3035C207.609 60.1605 206.835 58.9917 205.625 58.6082Z" fill="#BD2E11" stroke="#1D1D1B" stroke-width="0.541188"/>
<path d="M208.959 63.4111C208.959 63.4111 207.27 61.7261 203.948 62.8063C200.625 63.8864 199.423 65.35 197.578 65.3176" stroke="#1D1D1B" stroke-width="0.405891" stroke-linecap="round" stroke-linejoin="round"/>
<path d="M204.332 58.9937C203.663 58.9937 203.071 59.1642 202.656 59.4253C202.238 59.6886 202.031 60.0189 202.031 60.3384C202.031 60.6577 202.238 60.9873 202.656 61.2505C203.071 61.5116 203.663 61.6821 204.332 61.6821C205.001 61.6821 205.592 61.5116 206.007 61.2505C206.425 60.9873 206.632 60.6578 206.632 60.3384C206.632 60.0188 206.426 59.6886 206.007 59.4253C205.592 59.1642 205.001 58.9937 204.332 58.9937Z" fill="#F5FAFF" stroke="#1D1D1B" stroke-width="0.541188"/>
<path d="M200.264 58.1401C200.264 58.1401 198.575 58.9502 198.332 60.7001C198.088 62.4499 197.823 64.0053 197.823 64.0053" stroke="#1D1D1B" stroke-width="0.405891" stroke-linecap="round" stroke-linejoin="round"/>
<path d="M187.941 80.1099L185.344 82.7616" stroke="#1D1D1B" stroke-width="0.405891" stroke-linecap="round" stroke-linejoin="round"/>
<path d="M216.702 94.4875L211.019 106.147L210.944 106.298H210.769C210.764 106.298 210.756 106.299 210.747 106.299C210.728 106.299 210.699 106.299 210.662 106.299C210.589 106.3 210.483 106.302 210.353 106.306C210.091 106.313 209.733 106.328 209.346 106.358C208.958 106.387 208.544 106.432 208.171 106.497C207.792 106.564 207.476 106.649 207.27 106.751C207.215 106.778 207.136 106.849 207.049 106.995C206.964 107.138 206.884 107.332 206.813 107.569C206.673 108.042 206.581 108.659 206.56 109.32C206.538 109.98 206.586 110.673 206.719 111.3C206.835 111.852 207.014 112.336 207.255 112.7L207.362 112.849V112.85C207.622 113.181 208.114 113.373 208.79 113.401C209.458 113.427 210.254 113.289 211.047 113.018C211.839 112.747 212.612 112.349 213.234 111.87C213.782 111.449 214.198 110.978 214.419 110.49L214.502 110.28V110.279C214.889 109.123 214.509 108.318 214.031 107.786C213.788 107.516 213.519 107.317 213.309 107.185C213.204 107.119 213.115 107.07 213.054 107.038C213.023 107.023 212.999 107.011 212.983 107.004C212.976 107.001 212.97 106.998 212.967 106.996L212.963 106.995L212.964 106.994L212.701 106.883L212.827 106.627L218.791 94.4875H216.702Z" fill="#3D3D3F" stroke="#1D1D1B" stroke-width="0.541188"/>
<path d="M219.229 94.2112L218.471 95.762H215.776L216.533 94.2112H219.229Z" fill="#1D1D1B" stroke="#1D1D1B" stroke-width="0.405891" stroke-linecap="round" stroke-linejoin="round"/>
<path d="M210.774 106.028H212.1V103.3L210.774 106.028Z" fill="#1D1D1B" stroke="#1D1D1B" stroke-width="0.405891" stroke-linecap="round" stroke-linejoin="round"/>
<path d="M207.874 107.352C207.874 107.352 206.992 110.857 208.34 113.627" stroke="#1D1D1B" stroke-width="0.405891" stroke-linecap="round" stroke-linejoin="round"/>
<path d="M226.556 56.0288H216.608C215.735 56.0288 215.029 56.7344 215.028 57.605V92.3647C215.029 93.2353 215.735 93.9409 216.608 93.9409H226.556C227.429 93.9408 228.135 93.2352 228.136 92.3647V57.605C228.136 56.7345 227.429 56.029 226.556 56.0288Z" fill="#3D3D3F" stroke="#1D1D1B" stroke-width="0.541188"/>
<path d="M216.09 57.4434V91.97C216.09 91.97 216.452 93.4876 218.141 93.4876" stroke="#1D1D1B" stroke-width="0.405891" stroke-linecap="round" stroke-linejoin="round"/>
<path d="M309.774 115.28H309.773L253.75 116.371C252.631 116.393 251.729 117.26 251.641 118.344L251.634 118.562V118.563L252.104 142.655C252.127 143.771 252.995 144.671 254.082 144.76L254.302 144.766H254.303L310.326 143.676C311.518 143.651 312.461 142.668 312.442 141.483L311.972 117.39C311.949 116.275 311.081 115.374 309.994 115.286L309.774 115.28Z" fill="#4F5151" stroke="#1D1D1B" stroke-width="0.541188"/>
<path d="M310.385 123.624L253.901 124.715" stroke="#1D1D1B" stroke-width="0.405891" stroke-linecap="round" stroke-linejoin="round"/>
<path d="M310.385 129.051L254.015 130.742" stroke="#1D1D1B" stroke-width="0.405891" stroke-linecap="round" stroke-linejoin="round"/>
<path d="M310.598 134.354L254.119 135.927" stroke="#1D1D1B" stroke-width="0.405891" stroke-linecap="round" stroke-linejoin="round"/>
<path d="M167.113 57.5544C166.766 57.5675 166.439 57.6527 166.144 57.7976L179.711 85.3083L180.213 60.1814C180.236 58.9544 179.324 57.9283 178.129 57.7849L177.887 57.7673L167.23 57.5574L167.113 57.5544Z" fill="#B4D3F3" stroke="#1D1D1B" stroke-width="0.541188"/>
<path d="M164.167 91.7166C164.145 92.9432 165.056 93.9695 166.251 94.113L166.494 94.1296L177.15 94.3406C177.791 94.3537 178.365 94.1123 178.797 93.7117L164.697 65.1248L164.167 91.7166Z" fill="#B4D3F3" stroke="#1D1D1B" stroke-width="0.541188"/>
<path d="M165.685 58.0918C165.163 58.5177 164.824 59.1542 164.812 59.873L164.8 60.5088L164.794 60.502L164.727 63.9395L179.186 93.2539C179.385 92.9552 179.518 92.6132 179.561 92.2422L179.575 92.0195V92.0186L179.688 86.4844L165.685 58.0918Z" fill="#F5FAFF" stroke="#1D1D1B" stroke-width="0.541188"/>
<path d="M180.477 60.1865L179.838 92.0291C179.838 92.0291 179.627 94.6646 177.143 94.616C174.659 94.5674 165.778 94.616 165.778 94.616" stroke="#1D1D1B" stroke-width="0.405891" stroke-linecap="round" stroke-linejoin="round"/>
<path d="M232.333 153.448L232.318 153.449H232.304L199.581 153.092L200.809 180.764C200.901 180.787 201.01 180.815 201.135 180.847C201.574 180.958 202.205 181.116 202.973 181.307C204.507 181.688 206.586 182.196 208.763 182.703C210.94 183.211 213.213 183.718 215.137 184.098C217.08 184.481 218.614 184.724 219.348 184.724C220.911 184.724 246.808 183.099 272.356 181.471C285.122 180.657 297.789 179.844 307.264 179.233C312.001 178.928 315.941 178.674 318.696 178.496C320.074 178.407 321.156 178.338 321.894 178.29C322.262 178.266 322.544 178.248 322.734 178.235C322.792 178.232 322.84 178.228 322.881 178.226L325.846 176.108V150.917L324.713 149.033L232.333 153.448Z" fill="#D9D9D9" stroke="black"/>
<path d="M250.734 158.729L223.307 159.263C222.197 159.286 221.302 160.143 221.214 161.221L221.207 161.439L221.38 170.188C221.404 171.367 222.38 172.307 223.562 172.283L250.989 171.748H250.988C252.17 171.724 253.107 170.752 253.089 169.573L252.915 160.823C252.893 159.718 252.034 158.822 250.953 158.735L250.734 158.729Z" stroke="#1D1D1B" stroke-width="0.541188"/>
<path d="M240.502 160.916C238.245 160.96 236.443 162.762 236.374 164.987L236.372 165.204C236.418 167.527 238.34 169.369 240.67 169.324L240.887 169.314C243.041 169.163 244.731 167.406 244.798 165.252L244.799 165.036C244.755 162.785 242.95 160.985 240.719 160.917L240.502 160.916Z" fill="#F5FAFF" stroke="#1D1D1B" stroke-width="0.541188"/>
<path d="M246.696 168.573C244.721 168.573 243.119 166.975 243.119 165.003C243.119 163.032 244.721 161.433 246.696 161.433C248.672 161.433 250.273 163.032 250.273 165.003C250.273 166.975 248.672 168.573 246.696 168.573Z" stroke="#1D1D1B" stroke-width="0.541188" stroke-miterlimit="10"/>
<path d="M222.284 160.64L222.484 170.858" stroke="#1D1D1B" stroke-width="0.405891" stroke-linecap="round" stroke-linejoin="round"/>
<path d="M251.59 172.008L223.037 172.522" stroke="#1D1D1B" stroke-width="0.405891" stroke-linecap="round" stroke-linejoin="round"/>
<path d="M316.311 153.928C315.177 153.95 314.265 154.826 314.175 155.929L314.168 156.152L314.303 163.184C314.326 164.35 315.259 165.28 316.414 165.318L316.533 165.316L326.432 165.121L326.21 153.732L316.311 153.928Z" stroke="#1D1D1B" stroke-width="0.541188"/>
<path d="M318.866 154.921C318.153 154.935 317.481 155.379 316.982 156.15C316.516 156.871 316.219 157.857 316.203 158.955V159.177C316.227 160.367 316.572 161.425 317.098 162.175C317.625 162.926 318.312 163.343 319.028 163.329L319.162 163.321C319.825 163.258 320.445 162.823 320.912 162.101C321.378 161.379 321.675 160.394 321.691 159.295V159.074C321.668 157.884 321.322 156.825 320.796 156.075C320.302 155.371 319.667 154.961 319 154.924L318.866 154.921Z" fill="#F5FAFF" stroke="#1D1D1B" stroke-width="0.541188"/>
<path d="M320.652 159.084C320.69 161.056 321.799 162.633 323.125 162.606C324.451 162.579 325.501 160.958 325.458 158.987C325.414 157.016 324.31 155.439 322.984 155.466C321.659 155.493 320.609 157.113 320.652 159.084Z" stroke="#1D1D1B" stroke-width="0.541188" stroke-miterlimit="10"/>
<path d="M313.896 156.049L314.037 163.286" stroke="#1D1D1B" stroke-width="0.405891" stroke-linecap="round" stroke-linejoin="round"/>
<path d="M326.707 165.393L316.435 165.593" stroke="#1D1D1B" stroke-width="0.405891" stroke-linecap="round" stroke-linejoin="round"/>
<path d="M295.673 155.957L269.495 156.468L269.718 167.86L295.896 167.35L295.673 155.957Z" stroke="#1D1D1B" stroke-width="0.541188"/>
<path d="M296.18 167.612L269.461 168.13L269.223 156.2" stroke="#1D1D1B" stroke-width="0.405891" stroke-linecap="round" stroke-linejoin="round"/>
<path d="M294.246 157.158L294.412 165.657L271.227 166.109L271.06 157.61L294.246 157.158Z" stroke="#1D1D1B" stroke-width="0.405891" stroke-linecap="round" stroke-linejoin="round"/>
<path d="M324.262 149.601L233.12 154.483L200.687 154.035L201.775 179.888" stroke="#1D1D1B" stroke-width="0.405891" stroke-linecap="round" stroke-linejoin="round"/>
<path d="M324.988 148.521L318.554 145.534L231.855 149.061L201.868 147.3L199.059 152.587L232.304 152.949L324.988 148.521Z" stroke="#1D1D1B" stroke-width="0.405891" stroke-linecap="round" stroke-linejoin="round"/>
<path d="M326.346 176.366L219.228 182.933L204.01 179.887" stroke="#1D1D1B" stroke-width="0.405891" stroke-linecap="round" stroke-linejoin="round"/>
<path d="M210.531 39.6048L214.639 37.9144L189.392 27.3074" stroke="#1D1D1B" stroke-width="0.405891" stroke-linecap="round" stroke-linejoin="round"/>
<path d="M134.082 138.869L94.0828 135.823" stroke="#1D1D1B" stroke-width="0.405891" stroke-linecap="round" stroke-linejoin="round"/>
<path d="M145.576 123.386L95.4135 121.215" stroke="#1D1D1B" stroke-width="0.405891" stroke-linecap="round" stroke-linejoin="round"/>
<path d="M133.34 138.815V152.593" stroke="#1D1D1B" stroke-width="0.405891" stroke-linecap="round" stroke-linejoin="round"/>
<path d="M145.577 169.491L147.596 138.956L146.589 110.489" stroke="#1D1D1B" stroke-width="0.405891" stroke-linecap="round" stroke-linejoin="round"/>
<path d="M147.596 8.98779V110.489" stroke="#1D1D1B" stroke-width="0.405891" stroke-linecap="round" stroke-linejoin="round"/>
<path d="M146.59 18.509L4.91229 38.1568" stroke="#1D1D1B" stroke-width="0.405891" stroke-linecap="round" stroke-linejoin="round"/>
<path d="M147.596 102.301L4.08892 100.001" stroke="#1D1D1B" stroke-width="0.405891" stroke-linecap="round" stroke-linejoin="round"/>
<path d="M113.726 62.6209C113.366 56.2299 108.004 50.6589 99.4759 46.8519C90.9619 43.0514 79.3643 41.0473 66.7037 41.7581C54.0431 42.4689 42.7439 45.7584 34.7107 50.488C26.6641 55.2255 21.9627 61.3615 22.323 67.7525C22.6833 74.1436 28.0447 79.7155 36.5731 83.5225C45.0871 87.3229 56.6848 89.3261 69.3453 88.6153C82.0057 87.9045 93.3051 84.6158 101.338 79.8864C109.385 75.1488 114.086 69.012 113.726 62.6209Z" stroke="#1D1D1B" stroke-width="0.541188"/>
</svg>
