<svg width="263" height="157" viewBox="0 0 263 157" fill="none" xmlns="http://www.w3.org/2000/svg">
<path fill-rule="evenodd" clip-rule="evenodd" d="M146.194 25.6278C145.565 25.4038 144.846 25.2271 144.596 25.2351C144.346 25.2431 144.135 25.0688 144.127 24.8478C144.109 24.3339 143.027 23.7038 142.81 24.0812C142.711 24.2545 142.433 24.0705 142.102 23.6126C141.676 23.0226 141.337 22.8518 140.542 22.8268C139.779 22.8023 139.547 22.6906 139.609 22.3773C139.672 22.0593 139.471 21.9394 138.765 21.8734C138.133 21.8139 137.831 21.6547 137.814 21.3704C137.8 21.1417 137.245 20.6184 136.581 20.2076C135.632 19.6204 135.197 19.5431 134.549 19.8467C134.095 20.0589 133.802 20.0953 133.898 19.9282C134.091 19.5927 130.803 17.4683 130.126 17.49C129.896 17.4974 128.875 16.9867 127.857 16.3555C126.286 15.381 125.845 15.2457 124.942 15.459C124.115 15.6544 123.83 15.5843 123.664 15.1451C123.357 14.3308 120.939 13.1481 120.221 13.4616C119.739 13.6723 119.584 13.6046 119.394 13.1018C119.228 12.6599 119.076 12.5586 118.863 12.748C118.674 12.9158 117.653 12.4948 116.076 11.599C114.708 10.8214 112.743 9.97655 111.711 9.72192C110.679 9.4673 109.419 8.97636 108.91 8.63137C108.401 8.28609 107.742 8.04559 107.446 8.09648C107.15 8.14765 106.647 8.04664 106.328 7.87203C105.118 7.2086 103.156 6.59648 102.381 6.64007C101.937 6.66512 101.038 6.36841 100.382 5.98077C99.7264 5.59325 98.8624 5.26621 98.4624 5.25414C98.0618 5.24219 97.054 4.96772 96.2219 4.64417C95.3899 4.32063 94.6427 4.17222 94.561 4.31456C94.4796 4.45661 94.1781 4.43893 93.8915 4.2752C93.6047 4.11131 92.9743 4.01258 92.491 4.05598C92.0074 4.0992 91.4495 3.93656 91.2512 3.69431C91.0527 3.45235 90.2106 3.22645 89.3798 3.19256C88.436 3.1541 87.8638 2.98053 87.855 2.73037C87.8463 2.48686 87.6481 2.35701 87.3489 2.39941C87.0781 2.43758 85.5177 2.25253 83.8809 1.9882C82.2443 1.72357 80.4338 1.57607 79.8576 1.65976C79.2816 1.74392 78.6621 1.63165 78.4811 1.41089C78.2558 1.13619 78.0344 1.21458 77.7791 1.65968C77.5 2.1462 77.3571 2.1815 77.2121 1.79934C77.0772 1.44383 76.5913 1.2088 75.6114 1.02543C74.8377 0.880476 74.1703 0.745113 74.1288 0.724489C74.0873 0.703864 73.8814 0.981267 73.6721 1.34073C73.3969 1.81287 73.2841 1.84598 73.2661 1.46045C73.2453 1.01479 73.1002 0.931549 72.3922 0.957313C71.9252 0.974375 71.4957 1.07134 71.4374 1.17285C71.3794 1.27406 70.7211 1.1234 69.9744 0.837775C67.9995 0.082058 65.6228 -0.232774 65.3593 0.226619C65.2338 0.445377 64.9398 0.515206 64.7063 0.381812C64.4725 0.248252 63.7409 0.262863 63.0809 0.414036C62.4204 0.565332 61.8078 0.556522 61.7193 0.394427C61.6308 0.232331 61.1736 0.235647 60.7035 0.40199C60.2335 0.568794 59.5482 0.533191 59.1807 0.323214C58.7773 0.0927939 58.4112 0.117936 58.2573 0.38628C58.1171 0.630707 57.6007 0.76711 57.1098 0.689238C56.619 0.611363 56.0818 0.779264 55.9161 1.0626C55.6928 1.44386 55.6084 1.44366 55.5903 1.06159C55.5708 0.650356 55.3174 0.544746 54.3398 0.540801C53.6651 0.538355 53.0183 0.699777 52.9021 0.899489C52.7861 1.09966 52.4272 1.11226 52.1046 0.927925C51.7819 0.743588 51.4577 0.697768 51.3839 0.826398C51.3102 0.954737 50.4914 1.00741 49.5641 0.943537C48.6369 0.879375 47.802 0.960046 47.7088 1.12251C47.6156 1.28498 47.3413 1.30487 47.0993 1.16661C46.855 1.02702 46.5105 1.17455 46.3247 1.4986C46.1388 1.82265 45.7944 1.97018 45.55 1.83059C45.308 1.69233 45.0347 1.71048 44.9427 1.8709C44.8507 2.03132 44.6103 2.06869 44.4084 1.95369C43.86 1.64198 40.8988 2.26612 41.4177 2.58427C41.6555 2.72981 41.2931 2.7505 40.6125 2.63004C39.9321 2.50929 38.7898 2.54648 38.0744 2.71208C37.359 2.87769 36.6612 2.94879 36.5233 2.87003C36.3855 2.79126 36.1619 2.9203 36.0262 3.15685C35.8905 3.3934 35.3031 3.56593 34.7204 3.54017C34.1381 3.51457 32.8005 3.80069 31.7483 4.17588C30.6961 4.55107 29.6924 4.77659 29.5178 4.67688C29.1183 4.44864 26.6312 5.2782 26.3709 5.72663C26.2641 5.91001 25.6598 6.05776 25.0279 6.05538C24.3959 6.05253 23.6003 6.33886 23.2599 6.69122C22.9198 7.04375 22.498 7.25009 22.3226 7.14988C21.8075 6.85561 19.4845 7.55121 19.1738 8.09285C19.0168 8.36645 18.647 8.55288 18.3519 8.50709C18.0571 8.46101 17.6904 8.64191 17.5373 8.90879C17.384 9.17597 16.9054 9.47606 16.4731 9.57573C15.4001 9.82362 14.2729 10.5258 13.8979 11.1794C13.7266 11.4781 13.1626 11.8693 12.6443 12.0491C12.1262 12.2291 11.6698 12.5876 11.63 12.8456C11.5861 13.1312 11.3709 13.186 11.0809 12.9847C10.3491 12.4775 9.95792 13.0685 10.483 13.8885C10.7404 14.2904 10.773 14.44 10.555 14.2213C10.2138 13.8784 8.71242 14.1085 8.46395 14.5417C8.4171 14.6234 7.71866 15.0384 6.91196 15.4636C5.69581 16.1049 5.44984 16.366 5.47487 16.989C5.49664 17.5282 5.35464 17.7968 4.97303 17.9385C4.40304 18.15 4.09178 19.1964 4.52503 19.4439C4.66906 19.5262 4.71871 19.7125 4.63538 19.8578C4.55189 20.0033 4.25911 19.9027 3.98447 19.6346C3.64983 19.3075 3.40299 19.2904 3.23533 19.5827C3.09779 19.8225 2.69624 20.0682 2.34314 20.1291C1.78126 20.226 1.72114 20.3728 1.86118 21.3087C2.03602 22.4751 1.5919 23.5772 1.06801 23.2779C0.830699 23.1424 0.76627 23.2465 0.837828 23.6507C0.892267 23.9591 0.699466 24.4527 0.409291 24.7473C-0.292519 25.4602 0.0502688 26.7059 1.00481 26.9124C1.43745 27.0062 1.75454 26.8682 1.8011 26.5664C1.84416 26.287 2.05404 26.1649 2.27492 26.2911C2.70378 26.5361 2.55721 27.5092 2.01958 27.9847C1.8367 28.1467 1.50007 28.172 1.27157 28.0415C0.742686 27.7393 0.458255 28.2046 0.867114 28.7031C1.0375 28.9112 1.53925 28.953 1.98204 28.7963C2.86037 28.4852 3.4483 27.7359 3.01006 27.4856C2.67772 27.2957 3.43137 26.075 3.90671 26.0332C4.09217 26.0168 4.48317 25.7262 4.77549 25.3871C5.06811 25.0481 5.57212 24.7737 5.8952 24.7774C6.21844 24.7809 6.69098 24.4215 6.94498 23.9787C7.23829 23.4674 7.94567 23.0219 8.88251 22.7582C9.93553 22.4617 10.5297 22.0587 10.9547 21.3523C11.4022 20.6096 11.6796 20.435 12.0651 20.6545C12.5335 20.9209 12.8606 20.7287 12.9465 20.1364C12.9646 20.0112 13.3195 19.9661 13.7347 20.036C14.3132 20.1329 14.5574 19.9673 14.7771 19.3283C14.9895 18.7096 15.1864 18.5638 15.5378 18.7646C15.7989 18.9137 16.0875 18.9043 16.1795 18.7439C16.2715 18.5834 16.5448 18.5653 16.7868 18.7035C17.0288 18.8418 17.3075 18.8143 17.406 18.6425C17.5047 18.4704 17.9097 18.2425 18.3059 18.1358C18.8153 17.9985 18.9873 17.7985 18.8924 17.4527C18.6899 16.7147 18.984 16.4254 19.5049 16.8507C19.7752 17.0714 20.0738 17.0472 20.22 16.7922C20.3581 16.5516 20.7794 16.4282 21.1563 16.5181C21.533 16.6082 21.896 16.5104 21.9624 16.3009C22.029 16.0919 22.2585 16.0204 22.4723 16.1426C22.6861 16.2648 23.3412 16.2192 23.9282 16.0414C24.9235 15.7394 24.9645 15.6877 24.5351 15.2712C24.2157 14.961 24.3201 14.9509 24.8766 15.2374C25.4378 15.5267 26.1834 15.4476 27.3641 14.9747C29.8954 13.9601 30.6556 13.8081 31.1566 14.2159C31.456 14.4597 31.7722 14.3805 32.0819 13.9839C32.3652 13.6203 32.7561 13.4977 33.0667 13.6752C33.3627 13.8443 34.0934 13.6452 34.788 13.2063C35.4516 12.7868 36.1306 12.4974 36.2964 12.5634C37.3665 12.9901 38.3146 12.9477 38.9699 12.4442C39.3855 12.1251 39.7606 11.753 39.8034 11.6179C39.8465 11.483 40.0581 11.4462 40.2738 11.5373C40.4893 11.6279 40.8154 11.7472 40.9982 11.8021C41.1809 11.8569 41.5854 12.0276 41.8974 12.181C42.3085 12.3837 42.5139 12.2761 42.6452 11.7892C42.7894 11.2554 42.9711 11.2008 43.5325 11.5215C43.9206 11.7433 44.3238 11.7757 44.4282 11.5937C44.6742 11.1649 46.6101 10.7245 47.9817 10.7851C48.5718 10.8108 49.2484 10.6749 49.4848 10.4828C49.7215 10.2907 50.1755 10.2821 50.4938 10.4639C50.8117 10.6456 51.1929 10.7294 51.3401 10.65C51.4874 10.5704 51.0377 10.2267 50.3407 9.88621C49.2089 9.33294 49.1652 9.27122 49.9329 9.30781C50.5251 9.33593 50.8346 9.15144 50.9286 8.71405C51.0958 7.93783 51.4169 8.07869 51.7431 9.07094C51.9668 9.75098 52.0902 9.78703 53.188 9.4913C53.8481 9.31346 54.3092 9.3054 54.213 9.47311C53.9844 9.87154 54.7862 10.3265 55.1487 10.0042C55.3024 9.86739 55.7121 9.86601 56.059 10.0014C56.4534 10.1551 56.8191 10.0221 57.0346 9.64637C57.5136 8.8113 58.0072 8.74785 58.2857 9.48589C58.4424 9.90112 58.583 10.0023 58.7058 9.78825C58.8072 9.61149 59.2675 9.57279 59.7286 9.70259C60.1897 9.83238 60.6718 9.75577 60.7998 9.53264C60.9482 9.27392 61.3594 9.3133 61.9332 9.64109C62.8071 10.1403 65.5903 10.1367 66.9419 9.63477C67.2972 9.50279 67.6584 9.52361 67.7443 9.68074C67.83 9.83816 68.5217 9.97266 69.2808 9.97997C70.0403 9.98746 70.6232 10.0602 70.5764 10.1419C70.403 10.4441 72.9828 10.3913 73.6576 10.0785C74.0424 9.90065 74.4403 9.90763 74.5422 10.094C74.6441 10.2808 74.9598 10.3965 75.2441 10.3517C75.5281 10.3068 76.4076 10.5172 77.1982 10.8194C77.9889 11.1213 79.3096 11.3332 80.1329 11.2904C80.9561 11.2472 81.9009 11.3667 82.2324 11.5561C82.5635 11.7453 83.4498 11.9635 84.202 12.0408C84.9541 12.118 85.6715 12.2742 85.7962 12.3881C85.9209 12.5019 86.4757 12.4881 87.0288 12.3576C87.7568 12.1856 88.2135 12.2912 88.682 12.7401C89.0967 13.1374 89.6656 13.3303 90.2641 13.2768C90.7781 13.2309 91.7677 13.5181 92.4629 13.9153C93.2851 14.385 93.8658 14.5243 94.1252 14.3138C94.344 14.136 94.7604 14.0273 95.0503 14.0725C95.3436 14.118 95.4265 14.2363 95.2371 14.3383C95.044 14.4426 95.1367 14.5594 95.4512 14.6086C95.7566 14.6561 96.1404 14.4853 96.3043 14.2289C96.4682 13.9724 96.5817 13.93 96.5565 14.134C96.5025 14.5745 98.9149 15.7346 99.1247 15.3689C99.2042 15.2303 99.4316 15.3153 99.6305 15.5579C99.9346 15.9287 101.159 16.2888 104.437 16.9706C105.155 17.1199 106.2 17.5568 108.485 18.6622C109.555 19.1804 110.585 19.5237 110.773 19.4251C111.099 19.2551 111.882 19.5987 115.321 21.4206C116.143 21.8558 116.973 22.1402 117.167 22.0527C117.361 21.9652 118.111 22.1853 118.834 22.5421C119.557 22.8985 120.231 23.2281 120.331 23.274C120.432 23.3201 121.068 23.2526 121.744 23.124C122.773 22.9285 123 22.991 123.142 23.5081C123.235 23.8475 123.235 24.2584 123.142 24.4208C122.903 24.8376 127.222 26.819 128.2 26.7415C128.766 26.6964 129.085 26.8513 129.375 27.3111C129.603 27.6738 130.278 28.1135 130.961 28.3441C131.615 28.5652 135.408 30.5522 139.389 32.7602C143.371 34.9678 146.932 36.9354 147.303 37.1323C147.675 37.3291 148.443 37.3651 149.01 37.2123L150.042 36.9343L149.744 37.6809C149.478 38.3473 149.568 38.473 150.581 38.8531C151.204 39.087 152.09 39.1973 152.549 39.0978C153.339 38.9267 153.365 38.9484 153.045 39.5073C152.769 39.9874 152.907 40.2237 153.781 40.7707C156.304 42.3506 157.774 43.066 158.309 42.9736C158.733 42.9002 158.931 43.0572 159.075 43.5821C159.315 44.4593 164.74 47.6596 165.404 47.3158C165.665 47.1807 165.707 47.2893 165.523 47.6179C165.214 48.1678 165.996 48.7567 167.295 48.9513C167.759 49.0211 168.036 49.2559 168.081 49.6177C168.119 49.925 168.9 50.7034 169.815 51.3478C170.731 51.9921 171.848 52.7917 172.298 53.125C172.748 53.4583 173.271 53.647 173.461 53.5445C173.676 53.4287 173.878 53.5926 173.994 53.9781C174.214 54.7039 176.225 56.1291 176.457 55.7237C176.545 55.5717 176.986 55.9263 177.438 56.512C177.89 57.0975 178.775 57.8093 179.404 58.0937C180.232 58.4676 180.45 58.6906 180.194 58.8983C179.88 59.154 180.361 59.6882 181.164 59.9756C181.315 60.0297 182.125 60.7556 182.965 61.5888C183.805 62.4222 185.132 63.5154 185.915 64.0183C186.697 64.5211 187.552 65.1697 187.814 65.4602C188.191 65.8784 188.532 65.8375 189.459 65.2624C190.403 64.6769 190.627 64.653 190.623 65.137C190.62 65.4669 190.463 65.8206 190.272 65.9234C190.082 66.0262 190.083 66.1992 190.273 66.3079C190.534 66.4572 190.48 66.5579 190.054 66.7162C189.606 66.8824 189.606 67.0432 190.052 67.4845C190.929 68.3512 191.081 68.3736 191.235 67.6576C191.356 67.0937 191.515 67.0736 192.258 67.5261C192.981 67.9668 193.067 68.1835 192.744 68.7467C192.165 69.7565 192.669 71.229 193.692 71.5171C194.157 71.648 194.912 72.2369 195.4 72.8498C196.051 73.667 196.408 73.9119 196.796 73.8074C197.184 73.7029 197.377 73.919 197.55 74.6516C197.727 75.4003 198.043 75.7447 198.867 76.0893C199.493 76.3516 199.961 76.7405 199.976 77.0119C199.99 77.2701 200.369 77.9105 200.817 78.4356C201.505 79.2403 201.722 79.3507 202.199 79.1409C202.629 78.9518 202.799 79.0202 202.91 79.4275C202.991 79.7219 202.968 80.1186 202.858 80.3097C202.573 80.8073 204.386 83.255 205.886 84.3955C206.588 84.9294 207.321 85.6926 207.515 86.0912C207.709 86.4895 208.06 86.9259 208.296 87.0607C208.532 87.1954 209.159 87.9439 209.689 88.724C210.302 89.6249 211.199 90.4554 212.147 90.9991C213.289 91.655 213.574 91.9547 213.361 92.2775C213.189 92.5373 213.372 92.9119 213.836 93.2522C214.25 93.5565 214.527 93.9138 214.451 94.0462C214.262 94.3755 215.973 96.481 216.825 96.9676C217.205 97.1848 217.568 97.6533 217.631 98.0088C217.755 98.7134 218.753 99.4478 219 99.0167C219.084 98.8697 219.026 98.5891 218.871 98.3928C218.697 98.1735 218.785 98.1365 219.098 98.297C219.379 98.4406 219.617 99.0888 219.627 99.7376C219.636 100.386 219.849 100.949 220.1 100.988C220.35 101.027 220.489 101.173 220.409 101.312C220.329 101.452 220.758 101.83 221.361 102.153C221.977 102.482 222.422 102.923 222.375 103.158C222.329 103.388 222.462 103.673 222.671 103.793C222.88 103.912 223.102 104.3 223.165 104.656C223.228 105.011 223.527 105.444 223.83 105.616C224.133 105.79 224.499 106.365 224.645 106.895C224.815 107.516 225.183 107.952 225.679 108.123C226.103 108.268 226.427 108.567 226.399 108.787C226.365 109.054 226.517 109.107 226.857 108.948C227.286 108.748 227.358 108.789 227.32 109.212C227.284 109.598 227.361 109.653 227.651 109.449C227.942 109.246 228.072 109.339 228.212 109.85C228.312 110.216 228.663 110.572 228.992 110.642C229.449 110.74 229.458 110.783 229.029 110.825C228.557 110.872 228.508 110.957 228.72 111.363C228.858 111.629 229.162 111.972 229.395 112.127C229.627 112.282 230.037 112.56 230.306 112.744C230.575 112.929 230.682 113.278 230.544 113.518C230.369 113.823 230.601 114.132 231.305 114.534C231.917 114.884 232.315 115.35 232.312 115.715C232.309 116.046 232.497 116.466 232.73 116.648C232.963 116.831 233.261 117.266 233.393 117.616C233.525 117.965 233.93 118.316 234.294 118.395C234.684 118.479 235.001 118.807 235.07 119.194C235.134 119.554 235.4 119.973 235.662 120.124C235.924 120.275 236.385 120.886 236.686 121.481C236.987 122.076 237.464 122.696 237.746 122.858C238.028 123.021 238.199 123.257 238.127 123.383C237.995 123.612 238.614 124.122 239.955 124.893C240.344 125.117 240.776 125.644 240.914 126.063C241.052 126.483 241.322 126.822 241.515 126.816C241.707 126.809 241.903 127.166 241.95 127.607C241.997 128.049 242.188 128.497 242.375 128.604C242.562 128.711 242.766 129.088 242.829 129.444C242.976 130.277 243.678 130.678 244.002 130.114C244.14 129.874 244.121 129.601 243.96 129.509C243.798 129.417 243.735 129.223 243.818 129.077C243.901 128.932 244.203 129.146 244.489 129.553C244.874 130.101 244.875 130.343 244.491 130.486C244.206 130.592 244.08 130.758 244.211 130.855C244.342 130.951 244.928 131.359 245.512 131.761C246.664 132.553 247.155 133.443 246.791 134.078C246.664 134.299 246.697 134.558 246.864 134.654C247.031 134.749 247.384 135.249 247.648 135.765C247.912 136.281 248.31 136.845 248.531 137.019C248.753 137.192 248.942 137.55 248.952 137.813C248.961 138.077 249.228 138.333 249.544 138.382C249.902 138.438 250.132 138.767 250.151 139.253C250.168 139.683 250.4 140.159 250.667 140.312C250.938 140.467 251.048 140.954 250.917 141.423C250.788 141.882 250.887 142.374 251.138 142.517C251.542 142.748 251.516 142.798 250.902 142.963C250.522 143.066 250.07 143.069 249.897 142.97C249.724 142.871 249.505 142.925 249.411 143.09C249.313 143.26 248.971 142.976 248.617 142.431C248.17 141.742 247.795 141.467 247.283 141.451C246.891 141.44 246.532 141.288 246.484 141.115C246.437 140.942 246.172 140.922 245.895 141.071C245.458 141.307 245.403 141.273 245.473 140.819C245.541 140.38 244.865 139.933 241.293 138.055C238.95 136.823 236.786 135.827 236.486 135.842C236.134 135.86 235.93 135.675 235.914 135.322C235.894 134.885 235.843 134.851 235.663 135.156C235.539 135.367 235.168 135.612 234.838 135.701C234.347 135.833 234.179 135.706 233.9 134.992C233.626 134.291 233.286 134.028 232.16 133.644C231.391 133.381 230.66 133.115 230.535 133.053C230.409 132.991 230.194 133.137 230.056 133.378C229.918 133.619 229.669 133.738 229.503 133.643C229.336 133.547 229.237 133.229 229.282 132.936C229.38 132.302 228.869 131.947 228.141 132.143C227.532 132.307 227.701 133.47 228.376 133.747C229.309 134.129 229.488 134.458 229.083 135.049C228.084 136.501 227.96 137.003 228.574 137.099C229.027 137.169 229.059 137.284 228.704 137.572C228.424 137.8 228.378 138.037 228.59 138.161C228.786 138.276 229.197 138.618 229.505 138.922C229.915 139.329 230.135 139.35 230.334 139.004C230.642 138.466 231.063 138.624 231.601 139.48C231.896 139.947 232.074 139.968 232.456 139.58C232.721 139.311 233.091 139.178 233.278 139.285C233.485 139.403 233.415 139.667 233.1 139.955C232.691 140.33 232.707 140.45 233.176 140.523C233.504 140.574 233.78 140.837 233.789 141.107C233.799 141.377 234.273 141.894 234.843 142.256C235.662 142.777 235.942 142.807 236.176 142.399C236.579 141.696 237.326 142.188 237.104 143.011C236.941 143.612 237.131 143.777 239.127 144.773C240.624 145.519 241.506 146.143 241.88 146.719C242.348 147.439 242.584 147.573 243.444 147.61C244.001 147.633 244.398 147.754 244.328 147.877C244.257 148 244.629 148.269 245.153 148.475C245.678 148.681 246.203 148.681 246.321 148.476C246.641 147.918 247.561 148.179 247.465 148.801C247.348 149.564 247.25 149.672 247.034 149.276C246.925 149.076 246.81 149.175 246.757 149.515C246.686 149.982 246.762 150.049 247.143 149.853C247.533 149.652 247.627 149.717 247.661 150.213C247.696 150.715 247.786 150.775 248.188 150.569C248.513 150.401 248.676 150.458 248.686 150.744C248.695 150.978 249.131 151.4 249.658 151.682C250.184 151.964 250.728 152.301 250.868 152.431C251.394 152.923 251.669 152.871 251.568 152.299C251.484 151.824 251.605 151.788 252.177 152.115C252.629 152.373 252.829 152.754 252.722 153.152C252.488 154.018 253.045 154.249 253.656 153.541L254.16 152.957L253.823 153.636C253.366 154.559 254.778 155.459 255.288 154.57C255.472 154.249 255.742 154.055 255.889 154.138C256.035 154.222 255.955 154.493 255.71 154.741C255.172 155.288 255.517 156.363 256.32 156.642C256.642 156.753 257.202 156.625 257.567 156.357C257.931 156.089 258.355 155.961 258.509 156.072C259.216 156.583 259.537 156.528 260.188 155.783C260.743 155.15 260.814 154.797 260.533 154.078C260.216 153.264 260.269 153.098 261.055 152.452C261.831 151.813 261.899 151.619 261.656 150.734C261.506 150.185 261.571 149.493 261.802 149.196C262.115 148.792 262.095 148.717 261.724 148.897C261.378 149.066 261.223 149.007 261.212 148.701C261.204 148.461 260.955 148.125 260.659 147.956C260.04 147.603 260.081 146.893 260.792 145.654C261.066 145.177 261.143 144.79 260.964 144.796C260.599 144.808 260.218 143.261 260.475 142.813C260.566 142.654 260.461 142.421 260.241 142.296C259.975 142.144 260.025 141.854 260.394 141.426C260.817 140.935 260.827 140.465 260.437 139.418C259.481 136.848 259.187 135.486 259.545 135.292C260.031 135.03 259.887 133.187 259.358 132.884C259.101 132.738 259.1 132.507 259.354 132.301C259.633 132.074 259.593 131.852 259.234 131.639C258.38 131.132 258.074 130.025 258.556 129.185C258.958 128.484 258.925 128.415 258.198 128.442C257.494 128.468 257.367 128.314 257.154 127.171C257.021 126.457 256.964 125.334 257.027 124.678C257.155 123.34 256.866 123.008 256.014 123.516C255.179 124.015 255.128 123.293 255.908 122.013C256.426 121.164 256.464 120.887 256.072 120.826C255.753 120.777 255.634 120.477 255.754 120.032C255.86 119.639 255.776 119.22 255.568 119.101C255.324 118.962 255.114 119.15 254.975 119.634L254.761 120.383L254.537 119.337C254.231 117.912 254.484 116.92 255.169 116.855C255.579 116.816 255.536 116.741 255.011 116.575C254.496 116.413 254.403 116.26 254.682 116.034C254.895 115.86 254.914 115.629 254.722 115.52C254.531 115.411 254.166 114.496 253.911 113.487C253.656 112.479 253.265 111.58 253.043 111.489C251.574 110.888 251.357 110.503 251.929 109.507C252.408 108.671 252.396 108.485 251.853 108.338C251.414 108.219 251.187 107.827 251.142 107.109C251.107 106.529 251.192 106.024 251.332 105.986C251.652 105.9 251.269 104.469 250.656 103.461C250.192 102.7 250.053 102.538 249.531 102.146C249.381 102.034 249.409 101.679 249.593 101.359C249.783 101.027 249.732 100.663 249.474 100.516C249.224 100.373 249.021 99.7354 249.021 99.098C249.023 97.6843 248.556 97.3453 247.752 98.1772C247.421 98.5205 246.946 98.6845 246.696 98.5419C246.376 98.3589 246.395 98.1422 246.761 97.8068C247.148 97.4525 247.147 97.3106 246.756 97.2497C245.901 97.1169 245.222 98.062 245.63 98.8173C245.829 99.186 245.885 99.6751 245.754 99.9038C245.622 100.133 245.649 100.284 245.813 100.239C246.145 100.15 246.618 103.101 246.351 103.595C246.179 103.914 247.586 106.021 248.208 106.377C248.396 106.484 248.672 106.359 248.821 106.099C249.043 105.711 249.134 105.736 249.324 106.24C249.452 106.578 249.435 107.069 249.288 107.331C249.059 107.739 249.095 107.769 249.539 107.536C249.825 107.385 250.102 107.423 250.156 107.618C250.277 108.061 249.189 108.129 248.952 107.694C248.792 107.401 247.948 107.654 247.695 108.071C247.634 108.172 247.809 108.472 248.083 108.74C248.356 109.008 248.535 109.522 248.479 109.883C248.321 110.904 248.921 112.226 249.668 112.506C250.191 112.702 250.244 112.863 249.898 113.215C249.652 113.465 249.33 113.601 249.184 113.518C249.038 113.434 248.947 113.828 248.982 114.394C249.021 115.029 249.191 115.343 249.427 115.215C250.126 114.839 250.555 115.893 250.108 116.886C249.709 117.77 249.766 117.927 250.717 118.58C251.686 119.244 251.714 119.332 251.088 119.722C250.503 120.086 250.496 120.158 251.031 120.241C251.505 120.315 251.548 120.443 251.214 120.782C250.674 121.33 250.971 122.43 251.689 122.541C252.034 122.595 252.168 122.942 252.075 123.535C251.896 124.68 251.342 125.028 251.027 124.194C250.899 123.855 250.389 123.321 249.893 123.007C248.429 122.081 248.299 121.944 248.52 121.559C248.722 121.207 247.271 119.396 246.379 118.886C246.143 118.751 245.951 118.389 245.954 118.081C245.956 117.757 245.4 117.137 244.629 116.604C243.898 116.1 243.266 115.562 243.224 115.409C243.182 115.256 242.851 115.122 242.489 115.111C241.932 115.094 241.915 114.992 242.378 114.454C242.709 114.069 242.79 113.738 242.582 113.619C242.392 113.51 242.243 113.6 242.251 113.817C242.288 114.863 241.475 113.614 240.83 111.636C240.641 111.055 238.912 109.221 238.254 108.904C236.75 108.178 235.961 107.469 236.199 107.055C236.34 106.809 236.27 106.395 236.045 106.134C235.82 105.873 235.532 105.382 235.406 105.042C235.28 104.703 234.804 104.156 234.35 103.828C233.896 103.499 233.219 102.741 232.845 102.143C232.471 101.545 231.869 100.991 231.506 100.913C231.139 100.833 230.926 100.632 231.025 100.459C231.123 100.287 230.874 99.9589 230.47 99.7285C230.067 99.4981 229.817 99.1704 229.914 99.0007C230.012 98.8309 229.912 98.6975 229.692 98.7044C229.472 98.7114 229.065 98.2279 228.788 97.6299C228.51 97.0317 228.138 96.4599 227.962 96.359C227.785 96.258 227.716 96.0441 227.808 95.8837C227.9 95.7233 227.671 95.4186 227.3 95.2066C226.929 94.9946 226.567 94.6325 226.496 94.4018C226.425 94.1712 225.443 93.0091 224.313 91.819C222.685 90.1037 222.128 89.6765 221.624 89.7568C221.117 89.8376 221.081 89.8067 221.445 89.6047C221.985 89.305 221.602 87.7457 220.956 87.6155C220.721 87.5679 220.24 87.0015 219.888 86.357C219.536 85.7121 218.882 84.9758 218.435 84.7202C217.988 84.4648 217.587 83.9775 217.544 83.6377C217.502 83.2978 217.23 82.8205 216.941 82.5769C216.653 82.3334 216.261 81.9472 216.071 81.7188C214.903 80.3179 214.111 79.6232 213.484 79.4535C213.035 79.332 212.742 79.0021 212.692 78.5609C212.648 78.1742 212.196 77.608 211.683 77.295C211.172 76.9838 210.826 76.6036 210.914 76.4505C211.002 76.2974 210.85 76.137 210.577 76.0947C210.303 76.052 209.944 75.5852 209.779 75.0571C209.564 74.3694 209.216 74.0088 208.553 73.7871C207.935 73.5806 207.651 73.3164 207.701 72.9933C207.742 72.7265 206.934 71.7392 205.906 70.799C204.878 69.8591 203.847 68.7236 203.616 68.2759C203.385 67.8282 203.044 67.4668 202.858 67.4727C202.673 67.4787 202.23 67.0494 201.874 66.5184C201.24 65.5732 199.561 64.6233 198.225 64.4545C197.714 64.3898 197.675 64.2246 198.026 63.6138C198.302 63.1322 198.3 62.7612 198.022 62.602C197.78 62.4638 197.645 62.2407 197.722 62.1062C197.799 61.9718 197.395 61.5713 196.824 61.2162C196.253 60.861 195.695 60.3286 195.583 60.0324C195.351 59.4163 194.015 58.286 192.731 57.6199C192.248 57.3694 191.846 56.9593 191.838 56.7087C191.829 56.4577 191.147 55.79 190.322 55.2248C188.137 53.7273 187.752 53.5161 186.863 53.3293C186.232 53.1963 186.099 53.0193 186.239 52.4989C186.422 51.8212 186.403 51.8042 182.784 49.4473C181.32 48.4936 180.679 47.9257 180.554 47.4706C180.506 47.2949 179.855 46.8017 179.107 46.3746C178.36 45.9476 177.694 45.4029 177.627 45.1639C177.528 44.8075 175.737 43.6237 173.264 42.2811C173.019 42.1481 172.305 41.5585 171.678 40.9711C169.986 39.3843 168.381 38.342 167.781 38.4392C167.483 38.4874 167.081 38.2928 166.867 37.996C166.354 37.288 160.866 34.02 160.694 34.3202C160.619 34.4503 160.295 34.1645 159.974 33.6851C159.613 33.1459 158.65 32.4281 157.45 31.8033C155.444 30.7587 154.498 30.5601 154.52 31.1889C154.527 31.3885 154.373 31.357 154.177 31.1185C153.982 30.8798 153.898 30.5513 153.992 30.3886C154.09 30.2176 153.887 30.1395 153.513 30.204C152.987 30.2946 152.912 30.2347 153.113 29.8829C153.317 29.5274 152.924 29.2246 150.911 28.1857C149.562 27.4902 148.361 26.9478 148.24 26.9801C148.12 27.0127 147.867 26.8132 147.679 26.5371C147.491 26.2609 146.823 25.8518 146.194 25.6278ZM246.271 92.3818C246.029 92.3384 245.607 92.7271 245.334 93.2456C245.001 93.8797 244.995 94.0244 245.317 93.6879C245.581 93.4123 246.029 93.0978 246.313 92.9887C246.916 92.7571 246.898 92.4943 246.271 92.3818ZM164.856 46.7531C164.764 46.9135 164.549 46.9649 164.378 46.8673C164.208 46.7698 164.225 46.6052 164.416 46.5017C164.608 46.3983 164.823 46.3468 164.894 46.3875C164.966 46.4283 164.948 46.5927 164.856 46.7531ZM246.829 94.6353C246.501 95.2064 246.631 96.181 247.068 96.4307C247.206 96.5098 247.311 96.3518 247.299 96.0789C247.288 95.8064 247.382 95.3957 247.508 95.1663C247.859 94.5269 247.191 94.0044 246.829 94.6353ZM112.38 18.5567C112.227 18.5979 111.968 18.4637 111.804 18.2586C111.624 18.0318 111.733 18.0024 112.083 18.1837C112.399 18.3477 112.533 18.5155 112.38 18.5567ZM245.546 95.174C245.354 95.2774 245.403 95.4797 245.655 95.6233C245.906 95.7669 246.187 95.7533 246.279 95.5929C246.371 95.4325 246.323 95.2303 246.171 95.1435C246.019 95.0567 245.738 95.0705 245.546 95.174ZM106.727 17.0527C106.64 17.2037 106.438 17.2517 106.276 17.1595C106.115 17.0674 106.1 16.7872 106.244 16.5372C106.387 16.2873 106.59 16.239 106.695 16.4304C106.799 16.6217 106.814 16.9016 106.727 17.0527ZM91.7032 8.61754C91.6625 8.68842 91.4508 8.75185 91.2326 8.75885C91.0144 8.76585 90.9157 8.63239 91.0131 8.46264C91.1105 8.29288 91.3223 8.22916 91.4836 8.32133C91.6449 8.4135 91.7438 8.54666 91.7032 8.61754ZM89.3761 11.0868C89.1797 11.2411 89.2073 11.0388 89.4374 10.6378C89.6674 10.2367 89.8281 10.1108 89.7944 10.3576C89.7608 10.6049 89.5726 10.933 89.3761 11.0868ZM84.6584 11.393C84.5664 11.5534 84.2611 11.5506 83.9803 11.3871C83.5436 11.1326 83.5572 11.0845 84.0718 11.0579C84.8294 11.0182 84.8626 11.0372 84.6584 11.393ZM216.653 89.6163C215.904 89.8181 215.886 89.2185 216.635 88.9834C216.989 88.8726 217.25 88.9387 217.217 89.131C217.185 89.3232 216.931 89.5415 216.653 89.6163ZM78.2278 10.0429C78.2355 10.2603 78.1018 10.3582 77.9311 10.2606C77.7604 10.1631 77.6958 9.95192 77.7878 9.7915C77.8798 9.63108 78.0132 9.533 78.0845 9.57372C78.1558 9.61445 78.2201 9.82547 78.2278 10.0429ZM249.6 110.851C249.462 111.091 249.217 111.213 249.056 111.121C248.894 111.029 248.875 110.756 249.013 110.516C249.151 110.275 249.396 110.153 249.558 110.246C249.719 110.338 249.738 110.61 249.6 110.851ZM253.466 127.195C253.374 127.355 253.241 127.453 253.169 127.412C253.098 127.372 253.034 127.161 253.026 126.943C253.018 126.726 253.152 126.628 253.323 126.726C253.493 126.823 253.558 127.034 253.466 127.195ZM243.55 141.087C243.412 141.327 243.167 141.449 243.005 141.357C242.844 141.264 242.825 140.992 242.963 140.751C243.101 140.511 243.346 140.389 243.507 140.481C243.669 140.574 243.688 140.846 243.55 141.087ZM19.7042 13.9574C19.6635 14.0283 19.4519 14.0917 19.2337 14.0987C19.0154 14.1057 18.9167 13.9723 19.0141 13.8025C19.1115 13.6328 19.3233 13.5691 19.4846 13.6612C19.646 13.7534 19.7448 13.8866 19.7042 13.9574ZM244.808 142.967C244.67 143.208 244.425 143.329 244.263 143.237C244.102 143.145 243.844 143.288 243.691 143.556C243.538 143.823 243.377 143.913 243.334 143.757C243.221 143.344 244.431 142.171 244.771 142.365C244.929 142.456 244.946 142.726 244.808 142.967ZM233.51 138.246C232.713 138.272 232.512 137.757 233.23 137.527C233.61 137.405 233.869 137.497 233.953 137.782C234.038 138.075 233.886 138.234 233.51 138.246ZM236.376 139.263C236.486 139.887 235.753 140.699 235.308 140.445C235.164 140.362 235.159 140.098 235.297 139.857C235.435 139.617 235.334 139.298 235.072 139.148C234.682 138.925 234.707 138.835 235.212 138.647C235.976 138.364 236.242 138.504 236.376 139.263ZM255.36 150.455C254.907 150.575 254.892 150.522 255.29 150.197C255.565 149.973 255.822 149.905 255.861 150.046C255.9 150.187 255.675 150.371 255.36 150.455ZM230.427 136.785C230.025 137.468 229.957 137.484 229.952 136.897C229.948 136.521 230.101 136.129 230.291 136.026C230.875 135.712 230.917 135.951 230.427 136.785ZM239.436 142.826C239.247 143.156 239.006 143.27 238.902 143.078C238.797 142.887 238.82 142.542 238.953 142.31C239.086 142.079 239.326 141.965 239.487 142.058C239.649 142.15 239.626 142.496 239.436 142.826ZM245.942 147.1C245.804 147.341 245.497 147.427 245.26 147.292C244.998 147.142 244.993 146.913 245.249 146.705C245.48 146.517 245.787 146.431 245.931 146.513C246.075 146.596 246.08 146.86 245.942 147.1ZM11.8946 15.337C11.5502 15.4648 11.2425 15.475 11.2106 15.3595C11.1235 15.041 11.8542 14.7238 12.2085 14.9262C12.4033 15.0375 12.285 15.1922 11.8946 15.337ZM13.2157 19.1578C13.1751 19.2287 12.9634 19.2921 12.7452 19.2991C12.527 19.3061 12.4283 19.1727 12.5257 19.0029C12.623 18.8332 12.8349 18.7694 12.9962 18.8616C13.1575 18.9538 13.2564 19.0869 13.2157 19.1578Z" fill="#249623"/>
</svg>
