<svg width="104" height="121" viewBox="0 0 104 121" fill="none" xmlns="http://www.w3.org/2000/svg">
<g opacity="0.5">
<path d="M66.378 121H56.084L58.8321 44.645L58.8529 44.0118L58.9636 40.9674L58.974 40.6645L58.9865 40.3018H63.4757L63.5216 41.5732L66.378 121Z" fill="#C1F0C0"/>
<path opacity="0.35" d="M66.3787 121L63.4764 40.3018H62.782H62.2274L61.3788 41.2344L61.3496 41.2669L60.918 41.7409H60.9201C61.087 41.7734 61.2516 41.7938 61.4205 41.799C61.5144 41.8025 61.6081 41.8007 61.702 41.7956C62.0794 41.7718 62.2745 41.7425 62.5848 41.665L63.7526 121L66.3787 121Z" fill="#6D6E71"/>
<path d="M64.8789 38.2414C64.8789 38.8549 64.659 39.4232 64.2743 39.9013C63.6441 40.6921 62.5743 41.2244 61.3469 41.2664C61.2956 41.2695 61.2407 41.2695 61.1894 41.2695C59.438 41.2695 57.9725 40.2682 57.5952 38.927C57.5329 38.7075 57.5 38.4759 57.5 38.2414C57.5 37.7843 57.6245 37.3514 57.8444 36.9605C58.4341 35.929 59.7092 35.2134 61.1894 35.2134C61.5045 35.2134 61.8122 35.2465 62.1053 35.3097C62.7281 35.439 63.2887 35.7006 63.7393 36.0554C63.743 36.0554 63.743 36.0554 63.743 36.0554C64.443 36.6087 64.8789 37.3844 64.8789 38.2414Z" fill="#C1F0C0"/>
<path opacity="0.25" d="M64.8803 38.2414C64.8803 39.9151 63.2267 41.2704 61.1897 41.2704C61.1251 41.2704 61.0625 41.2687 61 41.267C62.9454 41.1832 64.4924 39.8603 64.4924 38.2414C64.4924 36.6242 62.9453 35.2997 61 35.2158C61.0626 35.2141 61.1251 35.2124 61.1897 35.2124C63.2267 35.2124 64.8803 36.5695 64.8803 38.2414Z" fill="#6D6E71"/>
<path opacity="0.2" d="M63.7401 47.7168L66.3764 121H57.873L60.18 56.8963C62.2599 53.9819 62.2636 50.9132 63.7401 47.7168Z" fill="#231F20"/>
<path d="M64.7523 38.1148C64.7173 37.8678 64.6429 37.6205 64.5282 37.3795C63.9896 36.2481 62.7134 35.5337 61.3281 35.4582L65.5036 31.6366L66.9893 30.2788L70.4958 32.8606L69.0102 34.2183L64.7523 38.1148Z" fill="#EAEBEB"/>
<path opacity="0.33" d="M68.9606 34.2603L65.4531 31.6794L66.9371 30.3198L70.4453 32.9024L68.9606 34.2603Z" fill="#6D6E71"/>
<path d="M103.998 0.436553L103.999 0.0876308C104 0.0440897 103.955 -0.00345935 103.903 0.000198567C101.712 0.151825 99.4258 1.32613 97.5971 2.75496L65.9666 28.0422C64.7487 29.0286 64.5934 30.5114 65.6446 31.2846L69.4234 34.0649C70.4745 34.8382 72.2535 34.5501 73.3156 33.4492L102.776 2.91037C103.457 2.20498 103.874 1.35776 103.998 0.446463C103.998 0.443159 103.998 0.439857 103.998 0.436553Z" fill="#91E590"/>
<path d="M58.3704 39.8409L57.0196 39.5454L51.2334 38.2402L49.4922 37.8463L50.6254 34.4676L50.7417 34.1172L52.4831 34.5112L59.0057 35.9838C57.6211 36.7603 57.5295 38.2377 58.1668 39.5765C58.1855 39.6155 58.3484 39.8028 58.3704 39.8409Z" fill="#EAEBEB"/>
<path d="M47.5065 39.5914L5.82644 27.6282C3.45288 26.9214 1.1525 25.7666 0.0106981 24.2238C-0.0179754 24.1871 0.0150835 24.1342 0.0614137 24.1138L0.442767 23.9603L0.454391 23.9565C1.50369 23.6403 2.61379 23.569 3.68678 23.7541L50.1285 31.7817C51.8023 32.0718 52.9089 33.2491 52.5345 34.3669L51.235 38.2395L51.1864 38.3819C51.1616 38.4522 51.1336 38.5201 51.0999 38.586C50.5987 39.5645 49.0238 40.0181 47.5065 39.5914Z" fill="#91E590"/>
<path d="M64.6388 47.5782L60.5475 41.7522L60.3301 41.4442C61.0127 41.5642 61.6258 41.2265 62.322 41.0032C63.2946 40.6914 64.0215 40.2315 64.3949 39.4951L64.6672 39.8791L68.7222 45.6456L64.6388 47.5782Z" fill="#EAEBEB"/>
<path d="M91.747 83.8072L92.1505 83.917C92.2007 83.9307 92.2697 83.9109 92.2819 83.8686C92.7887 82.1127 92.1411 79.9642 91.0564 78.0929L71.6306 45.5476C70.8679 44.2906 69.1995 43.7077 67.9767 44.2865L63.5806 46.3676C62.3579 46.9465 62.1373 48.4236 63.0812 49.595L89.2634 82.0836C89.8682 82.834 90.7192 83.423 91.7356 83.8036C91.7393 83.805 91.743 83.8062 91.747 83.8072Z" fill="white"/>
<path opacity="0.55" d="M62.575 41.5977C61.701 41.878 61.2052 41.857 60.5474 41.7537L60.3301 41.443C61.0089 41.5616 61.7387 41.5242 62.434 41.3012C63.4089 40.9886 64.1301 40.3733 64.5004 39.6372L64.5922 39.7683C64.2313 40.529 63.4491 41.3175 62.575 41.5977Z" fill="#6D6E71"/>
<path opacity="0.2" d="M92.15 83.9154L91.7483 83.8062C91.7436 83.8045 91.7397 83.8042 91.7366 83.802C90.7196 83.4216 89.8689 82.8334 89.2636 82.0827L63.0812 49.5942C62.1371 48.4224 62.358 46.9448 63.5815 46.3664L63.7368 46.293L67.8204 44.3606L67.9768 44.2852C69.2002 43.7067 70.8689 44.2904 71.6306 45.5475L91.0569 78.0918C92.1417 79.9629 92.7897 82.1113 92.2829 83.8682C92.2703 83.91 92.2007 83.9291 92.15 83.9154Z" fill="black"/>
</g>
</svg>
